<svg id="Слой_1" xmlns="http://www.w3.org/2000/svg" viewBox="0 0 154 150"><style>.st0{fill:url(#SVGID_1_)}.st1{fill:#192743}.st2{fill:#203869}.st3{fill:url(#SVGID_2_)}.st4{fill:url(#SVGID_3_)}.st5{fill:#ffcd07}.st6{fill:url(#SVGID_4_)}.st7{fill:url(#SVGID_5_)}</style><radialGradient id="SVGID_1_" cx="77.017" cy="294.041" r="77.016" gradientTransform="matrix(1 0 0 .7584 0 -131.41)" gradientUnits="userSpaceOnUse"><stop offset="0" stop-color="#535353"/><stop offset=".03" stop-color="#5f5f5f"/><stop offset=".17" stop-color="#8f8f8f"/><stop offset=".309" stop-color="#b7b7b7"/><stop offset=".444" stop-color="#d7d7d7"/><stop offset=".575" stop-color="#ededed"/><stop offset=".7" stop-color="#fafafa"/><stop offset=".811" stop-color="#fff"/></radialGradient><ellipse class="st0" cx="77" cy="91.6" rx="77" ry="58.4"/><path class="st1" d="M112.5 94.5c-23.4 13.5-47.6 13.5-71 0C29.8 87.7 23.9 80.9 23.9 74v5.4c0 6.9 5.9 13.7 17.6 20.5 23.4 13.5 47.6 13.5 71 0 11.7-6.8 17.6-13.6 17.6-20.5V74c0 6.9-5.9 13.7-17.6 20.5z"/><path class="st2" d="M112.5 53.5c-23.4-13.5-47.6-13.5-71 0C29.8 60.2 23.9 67.1 23.9 74s5.9 13.7 17.6 20.5c23.4 13.5 47.6 13.5 71 0 11.7-6.8 17.6-13.6 17.6-20.5s-5.9-13.8-17.6-20.5z"/><linearGradient id="SVGID_2_" gradientUnits="userSpaceOnUse" x1="92.226" y1="59.665" x2="102.769" y2="77.926"><stop offset="0" stop-color="#f9ae15"/><stop offset=".415" stop-color="#fbc317"/><stop offset="1" stop-color="#ffe31a"/></linearGradient><path class="st3" d="M106.8 51.3l-16 9.3c-2.4 1.4-3.9 5.9-3.3 10L89 81.8c.4 2.9-.2 4.1-.8 4.5l16-9.3c.6-.5 1.2-1.6.8-4.5l-1.5-11.3c-.6-4 .9-8.6 3.3-9.9z"/><linearGradient id="SVGID_3_" gradientUnits="userSpaceOnUse" x1="54.188" y1="8.156" x2="60.55" y2="19.176"><stop offset="0" stop-color="#ffe31a"/><stop offset=".554" stop-color="#fcc818"/><stop offset="1" stop-color="#fab216"/></linearGradient><path class="st4" d="M68.2 11.2l-9.1-3.7c-1.7-.7-2.7-.6-3.3-.2l-16 9.3c.6-.4 1.7-.5 3.4.2l9.1 3.7c2.3.9 4.9.7 6.8-.4l16-9.3c-2 1.1-4.6 1.3-6.9.4z"/><path class="st5" d="M40.6 24.1c-2.2-3.7-2-5.7-1.7-6.5.1-.4.4-.8.9-1.1.6-.4 1.7-.5 3.4.2l9.1 3.7c2.3.9 4.9.7 6.8-.4.8-.5 1.5-1.1 2-1.9L65 11c.4-.7.9-1.2 1.3-1.4 1-.6 2-.2 2.7.1.9.5 2.7 2 4 5.9l4 11.8c1.5 4.3 5.5 10 8.8 12.5l9.1 6.8c3 2.2 3.9 4.5 4.2 5.7.3 1.2.4 3.2-1.6 4.4 0 0-.1 0-.1.1l-6.6 3.6h-.1c-2.4 1.4-3.9 5.9-3.3 10L89 81.8c.4 2.9-.2 4.1-.8 4.5-.1.1-.1.1-.2.1-.6.4-1.5.3-2.5-.3-.9-.5-1.9-1.4-2.9-2.7l-8.1-9.6c-1.4-1.7-3.4-3.3-5.4-4.5-2.1-1.2-4-1.8-5.4-1.8l-8.1.2c-1 0-2-.2-2.9-.7-1.1-.6-2-1.7-2.7-2.9-.6-1.2-1.2-3-.8-5.5l1.5-9.5c.6-3.5-1-9.8-3.4-13.9l-6.7-11.1z"/><linearGradient id="SVGID_4_" gradientUnits="userSpaceOnUse" x1="77.48" y1="3.126" x2="105.733" y2="52.061"><stop offset="0" stop-color="#ffd009"/><stop offset=".034" stop-color="#ffd20b"/><stop offset=".239" stop-color="#ffdd16"/><stop offset=".387" stop-color="#ffe119"/><stop offset=".554" stop-color="#ffdd17"/><stop offset=".775" stop-color="#fed313"/><stop offset="1" stop-color="#fdc20b"/></linearGradient><path class="st6" d="M115.2 43.1c-.3-1.2-1.2-3.5-4.2-5.7l-9.1-6.8c-3.3-2.5-7.3-8.2-8.8-12.5L89 6.4C87.7 2.5 85.9 1 85 .5c-.6-.4-1.7-.7-2.7-.1l-16 9.3c1-.6 2-.2 2.7.1.9.5 2.7 2 4 5.9l4 11.7c1.5 4.3 5.5 10 8.8 12.5l9.1 6.8c3 2.2 3.9 4.5 4.2 5.7.3 1.2.4 3.2-1.6 4.4l16-9.3c2.1-1.1 1.9-3.2 1.7-4.4z"/><radialGradient id="SVGID_5_" cx="74.554" cy="54.761" r="24.164" gradientUnits="userSpaceOnUse"><stop offset="0" stop-color="#ffe32e"/><stop offset=".18" stop-color="#fedf2d"/><stop offset=".425" stop-color="#fdd428"/><stop offset=".708" stop-color="#fac021"/><stop offset="1" stop-color="#f7a418"/></radialGradient><path class="st7" d="M79.4 52.1c0 6.7-4.7 9.4-10.4 6-5.8-3.3-10.4-11.4-10.4-18.1 0-6.7 4.7-9.4 10.4-6 5.8 3.4 10.4 11.5 10.4 18.1z"/></svg>