<svg id="Слой_1" xmlns="http://www.w3.org/2000/svg" viewBox="0 0 152.2 150"><style>.st0{fill:url(#SVGID_1_)}.st1{fill:#52b044}.st2{fill:url(#SVGID_2_)}.st3{fill:#464545}.st4{fill:#262626}.st5{fill:#f1b538}.st6{fill:url(#SVGID_3_)}.st7{fill:url(#SVGID_4_)}.st8{fill:#c8c7c7}.st9{fill:url(#SVGID_5_)}.st10{fill:url(#SVGID_6_)}</style><radialGradient id="SVGID_1_" cx="76.085" cy="295.292" r="76.084" gradientTransform="matrix(1 0 0 .7584 0 -131.65)" gradientUnits="userSpaceOnUse"><stop offset="0" stop-color="#535353"/><stop offset=".03" stop-color="#5f5f5f"/><stop offset=".17" stop-color="#8f8f8f"/><stop offset=".309" stop-color="#b7b7b7"/><stop offset=".444" stop-color="#d7d7d7"/><stop offset=".575" stop-color="#ededed"/><stop offset=".7" stop-color="#fafafa"/><stop offset=".811" stop-color="#fff"/></radialGradient><ellipse class="st0" cx="76.1" cy="92.3" rx="76.1" ry="57.7"/><path class="st1" d="M97.6 68.3c-11.9-6.8-31.1-6.8-43 0-5.9 3.4-8.9 7.9-8.9 12.4s3 9 8.9 12.4c11.9 6.8 31.1 6.8 43 0 5.9-3.4 8.9-7.9 8.9-12.4s-3-9-8.9-12.4z"/><linearGradient id="SVGID_2_" gradientUnits="userSpaceOnUse" x1="45.706" y1="86.326" x2="106.463" y2="86.326"><stop offset="0" stop-color="#383938"/><stop offset=".119" stop-color="#3e3c3d"/><stop offset=".301" stop-color="#403e3f"/><stop offset=".427" stop-color="#373536"/><stop offset=".608" stop-color="#2e2b2c"/><stop offset=".744" stop-color="#2a2829"/><stop offset="1" stop-color="#010202"/></linearGradient><path class="st2" d="M97.6 86.8c-11.9 6.8-31.1 6.9-43 0-5.9-3.4-8.9-7.9-8.9-12.4v6.2c0 4.5 3 9 8.9 12.4 11.9 6.8 31.1 6.8 43 0 5.9-3.4 8.9-7.9 8.9-12.4v-6.2c0 4.5-3 9-8.9 12.4z"/><path class="st3" d="M97.6 62c-11.9-6.8-31.1-6.8-43 0-5.9 3.4-8.9 7.9-8.9 12.4s3 9 8.9 12.4c11.9 6.8 31.1 6.8 43 0 5.9-3.4 8.9-7.9 8.9-12.4 0-4.4-3-8.9-8.9-12.4z"/><path class="st4" d="M94.1 16c-9.9-5.7-26.1-5.7-36 0-5 2.9-7.5 6.6-7.5 10.4 0 3.8 2.5 7.5 7.5 10.4 9.9 5.7 26.1 5.7 36 0 5-2.9 7.5-6.6 7.5-10.4-.1-3.8-2.5-7.5-7.5-10.4z"/><path class="st5" d="M94.1 63.4c-9.9-5.7-26.1-5.7-36 0-5 2.9-7.5 6.6-7.5 10.4 0 3.8 2.5 7.5 7.5 10.4 9.9 5.7 26.1 5.7 36 0 5-2.9 7.5-6.6 7.5-10.4-.1-3.8-2.5-7.5-7.5-10.4z"/><radialGradient id="SVGID_3_" cx="76.348" cy="14.378" r="35.567" gradientUnits="userSpaceOnUse"><stop offset="0" stop-color="#ffed48"/><stop offset=".095" stop-color="#fded50"/><stop offset=".301" stop-color="#fcec54"/><stop offset=".353" stop-color="#fcea4e"/><stop offset=".577" stop-color="#ffe03c"/><stop offset=".744" stop-color="#ffdc35"/><stop offset="1" stop-color="#fab61f"/></radialGradient><path class="st6" d="M76.1 41.1c-14.1 0-25.5-6.6-25.5-14.7 0 14.5 12 18.9 12 23.7h26.9c0-5.1 12-9 12-23.7 0 8.1-11.4 14.7-25.4 14.7z"/><radialGradient id="SVGID_4_" cx="3634.413" cy="2254.341" r="35.568" gradientTransform="rotate(180 1855.116 1170.076)" gradientUnits="userSpaceOnUse"><stop offset="0" stop-color="#ffed48"/><stop offset=".095" stop-color="#fded50"/><stop offset=".301" stop-color="#fcec54"/><stop offset=".353" stop-color="#fcea4e"/><stop offset=".577" stop-color="#ffe03c"/><stop offset=".744" stop-color="#ffdc35"/><stop offset="1" stop-color="#fab61f"/></radialGradient><path class="st7" d="M76.1 59.1c14.1 0 25.5 6.6 25.5 14.7 0-14.5-12-18.9-12-23.7H62.7c0 5.1-12 9-12 23.7-.1-8.1 11.3-14.7 25.4-14.7z"/><path class="st8" d="M54.6 62c-.4.2-.8.5-1.2.8-1.6 2.8-2.8 6.4-2.8 11 0-8.1 11.4-14.7 25.5-14.7s25.5 6.6 25.5 14.7c0-4.5-1.2-8.1-2.8-11-.4-.3-.8-.5-1.2-.8-11.9-6.8-31.1-6.8-43 0z"/><radialGradient id="SVGID_5_" cx="68.26" cy="56.131" r="32.449" gradientUnits="userSpaceOnUse"><stop offset="0" stop-color="#f8ed72"/><stop offset=".213" stop-color="#f9ea6a"/><stop offset=".504" stop-color="#fadf55"/><stop offset=".838" stop-color="#fcce2d"/><stop offset="1" stop-color="#fdc30b"/></radialGradient><path class="st9" d="M83.1 56.4c-7.5-4.3-6.5-4.3-14 0-3.8 2.1-12.3 12.6-12.3 15.4 0 2.8 1.9 5.7 5.6 7.9 7.5 4.3 19.7 4.3 27.2 0 3.8-2.2 5.6-5 5.6-7.9.1-2.8-8.4-13.3-12.1-15.4z"/><path class="st1" d="M97.6 11.4c-11.9-6.8-31.1-6.8-43 0-5.9 3.4-8.9 7.9-8.9 12.4s3 9 8.9 12.4c11.9 6.8 31.1 6.8 43 0 5.9-3.4 8.9-7.9 8.9-12.4s-3-9-8.9-12.4z"/><linearGradient id="SVGID_6_" gradientUnits="userSpaceOnUse" x1="45.706" y1="29.421" x2="106.463" y2="29.421"><stop offset="0" stop-color="#383938"/><stop offset=".119" stop-color="#3e3c3d"/><stop offset=".301" stop-color="#403e3f"/><stop offset=".427" stop-color="#373536"/><stop offset=".608" stop-color="#2e2b2c"/><stop offset=".744" stop-color="#2a2829"/><stop offset="1" stop-color="#010202"/></linearGradient><path class="st10" d="M97.6 29.9c-11.9 6.8-31.1 6.9-43 0-5.9-3.4-8.9-7.9-8.9-12.4v6.2c0 4.5 3 9 8.9 12.4 11.9 6.8 31.1 6.8 43 0 5.9-3.4 8.9-7.9 8.9-12.4v-6.2c0 4.5-3 9-8.9 12.4z"/><path class="st3" d="M97.6 5.1c-11.9-6.8-31.1-6.8-43 0-5.9 3.4-8.9 7.9-8.9 12.4s3 9 8.9 12.4c11.9 6.8 31.1 6.8 43 0 5.9-3.4 8.9-7.9 8.9-12.4s-3-8.9-8.9-12.4z"/></svg>