<svg id="Слой_1" xmlns="http://www.w3.org/2000/svg" viewBox="0 0 152 150"><style>.st0{fill:url(#SVGID_1_)}.st1{fill:#df3f1b}.st2{fill:#ec662c}.st3{fill:#fabd22}.st4{fill:url(#SVGID_2_)}.st5{fill:url(#SVGID_3_)}.st6{fill:#ffdb34}.st7{fill:#1b3741}.st8{fill:url(#SVGID_4_)}.st9{fill:#3b3b3b}.st10{fill:#e9e8e8}</style><radialGradient id="SVGID_1_" cx="162.719" cy="2262.399" r="38.62" gradientTransform="matrix(1.968 0 0 1.4925 -244.22 -3284.27)" gradientUnits="userSpaceOnUse"><stop offset="0" stop-color="#535353"/><stop offset=".03" stop-color="#5f5f5f"/><stop offset=".17" stop-color="#8f8f8f"/><stop offset=".309" stop-color="#b7b7b7"/><stop offset=".444" stop-color="#d7d7d7"/><stop offset=".575" stop-color="#ededed"/><stop offset=".7" stop-color="#fafafa"/><stop offset=".811" stop-color="#fff"/></radialGradient><ellipse class="st0" cx="76" cy="92.4" rx="76" ry="57.6"/><path class="st1" d="M133.2 66.2l-57.4 8.9 15.4-33.2c-19.8-3.1-41.9-.1-57.4 8.9-11.6 6.7-17.4 15.5-17.4 24.3 0 3 .7 6 2 8.9 2.6 5.6 7.7 11 15.4 15.4s16.9 7.4 26.6 8.9c19.8 3.1 41.9.1 57.4-8.9 11.6-6.7 17.4-15.5 17.4-24.3.1-3-.6-6-2-8.9z"/><path class="st2" d="M143.1 64.7c-3.1-6.6-9.1-12.8-18-18-9-5.2-19.8-8.6-31.2-10.4l-18 38.8 67.2-10.4z"/><path class="st2" d="M143.1 46.8v17.9c-3.1-6.6-9.1-12.8-18-18V28.8c8.9 5.2 14.9 11.4 18 18z"/><path class="st3" d="M75.8 57.2v17.9l67.3-10.4V46.8z"/><linearGradient id="SVGID_2_" gradientUnits="userSpaceOnUse" x1="16.392" y1="83.296" x2="135.266" y2="83.296"><stop offset="0" stop-color="#eb5d16"/><stop offset=".071" stop-color="#e95017"/><stop offset=".168" stop-color="#e84618"/><stop offset=".301" stop-color="#e74319"/><stop offset=".334" stop-color="#e64018"/><stop offset=".569" stop-color="#df2f15"/><stop offset=".744" stop-color="#dd2815"/><stop offset="1" stop-color="#831b11"/></linearGradient><path class="st4" d="M117.9 81.5c-15.6 9-37.6 11.9-57.4 8.9-9.8-1.5-19-4.5-26.6-8.9C26.1 77 21 71.7 18.4 66.1c-1.3-2.9-2-5.9-2-8.9v17.9c0 3 .7 6 2 8.9 2.6 5.6 7.7 11 15.4 15.4s16.9 7.4 26.6 8.9c19.8 3.1 41.9.1 57.4-8.9 11.6-6.7 17.4-15.5 17.4-24.3V57.2c.1 8.8-5.7 17.6-17.3 24.3z"/><radialGradient id="SVGID_3_" cx="134.921" cy="1524.285" r="77.823" gradientTransform="translate(-244.22 -3025.663) scale(1.968)" gradientUnits="userSpaceOnUse"><stop offset="0" stop-color="#fab73e"/><stop offset=".027" stop-color="#f9b240"/><stop offset=".101" stop-color="#f7a643"/><stop offset=".185" stop-color="#f59f45"/><stop offset=".301" stop-color="#f59c45"/><stop offset=".394" stop-color="#f18835"/><stop offset=".532" stop-color="#ed6f24"/><stop offset=".653" stop-color="#eb601a"/><stop offset=".744" stop-color="#ea5a16"/><stop offset="1" stop-color="#d94115"/></radialGradient><path class="st5" d="M133.2 48.3l-57.4 8.9L91.2 24c-19.8-3-41.8 0-57.4 8.9-11.6 6.7-17.4 15.5-17.4 24.3 0 3 .7 6 2 8.9 2.6 5.6 7.7 11 15.4 15.4s16.9 7.4 26.6 8.9c19.8 3.1 41.9.1 57.4-8.9 11.6-6.7 17.4-15.5 17.4-24.3.1-3-.6-6-2-8.9z"/><path class="st3" d="M75.8 50v7.2l67.3-10.4v-7.2z"/><path class="st6" d="M143.1 39.6c-3.1-6.6-9.1-12.8-18-18-9-5.2-19.8-8.6-31.2-10.4L75.8 50l67.3-10.4z"/><path class="st7" d="M123 33.8l-5.9 3.4-13.3-7.7 6-3.4z"/><linearGradient id="SVGID_4_" gradientUnits="userSpaceOnUse" x1="108.227" y1="-.933" x2="128.06" y2="33.419"><stop offset="0" stop-color="#383938"/><stop offset=".15" stop-color="#3e3c3d"/><stop offset=".379" stop-color="#403e3f"/><stop offset=".424" stop-color="#383738"/><stop offset=".597" stop-color="#1f1f23"/><stop offset=".756" stop-color="#0d0f11"/><stop offset=".896" stop-color="#030405"/><stop offset="1" stop-color="#010202"/></linearGradient><path class="st8" d="M123 8.4L109.7.7c-1.5-.8-2.8-.9-3.8-.4L100 3.7c1-.6 2.3-.5 3.8.4l13.3 7.7c2.9 1.7 5.3 5.9 5.3 9.2v13.1c0 1.7-.6 2.9-1.6 3.4l5.9-3.4c1-.6 1.6-1.8 1.6-3.4V17.6c.1-3.4-2.3-7.5-5.3-9.2z"/><path class="st9" d="M98.5 7.2c0-1.7.6-2.9 1.6-3.4 1-.6 2.3-.5 3.8.4l13.3 7.7c2.9 1.7 5.3 5.9 5.3 9.2v13.1c0 1.7-.6 2.9-1.6 3.4-1 .6-2.3.5-3.8-.4l-13.3-7.7c-2.9-1.7-5.3-5.9-5.3-9.2V7.2z"/><path class="st10" d="M101.7 9.6c0-1.8 1.1-2.1 3.3-.8 2.1 1.2 3.3 2.9 3.3 4.6V19c0 1.8-1.1 2.1-3.3.8-2.1-1.2-3.3-2.9-3.3-4.6V9.6zm2.1 7c0 .8.4 1.3 1.1 1.7.7.4 1.1.3 1.1-.4V12c0-.8-.4-1.3-1.1-1.7-.7-.4-1.1-.3-1.1.4v5.9zm9.7-2.8l2 1.2-8.5 12.2-2-1.2 8.5-12.2zm-1.1 8.3c0-1.8 1.1-2.1 3.3-.9 2.1 1.2 3.3 2.9 3.3 4.7v5.6c0 1.8-1.1 2.1-3.3.8-2.1-1.2-3.3-2.9-3.3-4.6v-5.6zm2.2 7c0 .8.4 1.3 1.1 1.7.7.4 1.1.3 1.1-.4v-5.9c0-.8-.4-1.3-1.1-1.7-.7-.4-1.1-.3-1.1.4v5.9z"/></svg>