<svg id="Слой_1" xmlns="http://www.w3.org/2000/svg" viewBox="0 0 147.9 150"><style>.st0{fill:url(#SVGID_1_)}.st1{fill:url(#SVGID_2_)}.st2{fill:#b0ca0a}.st3{fill:url(#SVGID_3_)}.st4{fill:#383938}.st5{fill:#e94f22}.st6{fill:#d93b15}.st7{fill:#eb5f25}</style><radialGradient id="SVGID_1_" cx="73.944" cy="297.113" r="73.943" gradientTransform="matrix(1 0 0 .7584 0 -131.41)" gradientUnits="userSpaceOnUse"><stop offset="0" stop-color="#535353"/><stop offset=".03" stop-color="#5f5f5f"/><stop offset=".17" stop-color="#8f8f8f"/><stop offset=".309" stop-color="#b7b7b7"/><stop offset=".444" stop-color="#d7d7d7"/><stop offset=".575" stop-color="#ededed"/><stop offset=".7" stop-color="#fafafa"/><stop offset=".811" stop-color="#fff"/></radialGradient><ellipse class="st0" cx="73.9" cy="93.9" rx="73.9" ry="56.1"/><linearGradient id="SVGID_2_" gradientUnits="userSpaceOnUse" x1="22.985" y1="91.162" x2="124.9" y2="91.162"><stop offset="0" stop-color="#abc922"/><stop offset=".301" stop-color="#abc920"/><stop offset=".342" stop-color="#abc91e"/><stop offset=".744" stop-color="#abc810"/><stop offset="1" stop-color="#abc213"/></linearGradient><path class="st1" d="M108 93.5c-22.5 13-45.7 13-68.2 0C28.6 87 23 80.4 23 73.8V79c0 6.6 5.6 13.2 16.9 19.7 22.5 13 45.7 13 68.2 0C119.3 92.2 125 85.6 125 79v-5.2c-.1 6.6-5.7 13.2-17 19.7z"/><path class="st2" d="M108 54.2c-22.5-13-45.7-13-68.2 0C28.6 60.7 23 67.3 23 73.8c0 6.6 5.6 13.2 16.9 19.7 22.5 13 45.7 13 68.2 0C119.3 87 125 80.4 125 73.8c-.1-6.5-5.7-13.1-17-19.6z"/><linearGradient id="SVGID_3_" gradientUnits="userSpaceOnUse" x1="64.292" y1="43.75" x2="85.53" y2="43.75"><stop offset="0" stop-color="#494949"/><stop offset=".112" stop-color="#4d4d4d"/><stop offset=".301" stop-color="#4f4f4f"/><stop offset=".41" stop-color="#474747"/><stop offset=".601" stop-color="#3e3e3d"/><stop offset=".744" stop-color="#3b3a3a"/><stop offset="1" stop-color="#161617"/></linearGradient><path class="st3" d="M82.4 10.5c-4.1 2.4-10.9 2.4-15 0-2.1-1.2-3.1-2.8-3.1-4.3v69.1c0 1.6 1 3.1 3.1 4.3 4.1 2.4 10.9 2.4 15 0 2.1-1.2 3.1-2.8 3.1-4.3V6.1c0 1.6-1 3.2-3.1 4.4z"/><path class="st4" d="M82.4 10.5c-4.1 2.4-10.9 2.4-15 0-2.1-1.2-3.1-2.8-3.1-4.3 0-1.6 1-3.1 3.1-4.3 4.1-2.4 10.9-2.4 15 0 2.1 1.2 3.1 2.8 3.1 4.3s-1 3.1-3.1 4.3z"/><path class="st5" d="M75.9 61.5V18.3l34.9 20.1v43.2z"/><path class="st6" d="M110.8 81.6V38.4l9.6-5.5v43.2z"/><path class="st7" d="M120.4 32.9L85.5 12.8c-.2 1.4-1.2 2.7-3.1 3.7-1.8 1-4.1 1.6-6.5 1.8l34.9 20.2 9.6-5.6z"/></svg>