<svg id="Слой_1" xmlns="http://www.w3.org/2000/svg" viewBox="0 0 176.7 150"><style>.st0{fill:url(#SVGID_1_)}.st1{fill:#f59e19}.st2{fill:url(#SVGID_2_)}.st3{fill:#fbb814}.st4{fill:url(#SVGID_3_)}.st5{fill:url(#SVGID_4_)}.st6{fill:url(#SVGID_5_)}.st7{fill:url(#SVGID_6_)}.st8{fill:#fcc120}.st9{fill:#203869}.st10{fill:url(#SVGID_7_)}.st11{fill:url(#SVGID_8_)}</style><radialGradient id="SVGID_1_" cx="88.36" cy="282.699" r="88.359" gradientTransform="matrix(1 0 0 .7584 0 -131.41)" gradientUnits="userSpaceOnUse"><stop offset="0" stop-color="#535353"/><stop offset=".03" stop-color="#5f5f5f"/><stop offset=".17" stop-color="#8f8f8f"/><stop offset=".309" stop-color="#b7b7b7"/><stop offset=".444" stop-color="#d7d7d7"/><stop offset=".575" stop-color="#ededed"/><stop offset=".7" stop-color="#fafafa"/><stop offset=".811" stop-color="#fff"/></radialGradient><ellipse class="st0" cx="88.4" cy="83" rx="88.4" ry="67"/><path class="st1" d="M125.7 59.4c-1.9 1.1-4 2.1-6.1 3v34.8c2.1-.9 4.2-1.9 6.1-3 1.9-1.1 3.6-2.3 5.2-3.5V55.8c-1.6 1.2-3.2 2.4-5.2 3.6z"/><linearGradient id="SVGID_2_" gradientUnits="userSpaceOnUse" x1="22.922" y1="55.623" x2="35.856" y2="55.623"><stop offset="0" stop-color="#fdc618"/><stop offset=".524" stop-color="#f8aa1a"/><stop offset="1" stop-color="#f3921b"/></linearGradient><path class="st2" d="M29.2 40.1c-3.8-.6-6.3-2.6-6.3-4.8v34.8c0 2.2 2.5 4.2 6.3 4.8l6.6 1V41.1l-6.6-1z"/><path class="st1" d="M35.9 75.9V41.1c.6 3.1 2 6.1 4.2 8.9v34.8c-2.3-2.8-3.7-5.8-4.2-8.9z"/><path class="st3" d="M55.3 44.2V9.4l1.8 3.8V48z"/><linearGradient id="SVGID_3_" gradientUnits="userSpaceOnUse" x1="32.678" y1="80.537" x2="67.11" y2="80.537"><stop offset="0" stop-color="#fab216"/><stop offset=".007" stop-color="#fab316"/><stop offset=".228" stop-color="#fcc014"/><stop offset=".387" stop-color="#fdc514"/><stop offset=".566" stop-color="#fcc015"/><stop offset=".803" stop-color="#fab416"/><stop offset="1" stop-color="#f7a518"/></linearGradient><path class="st4" d="M62.3 68.5c-3.3 1.9-8.7 1.9-12.1 0l-15-8.7c-1.7-1-2.5-2.2-2.5-3.5v34.8c0 1.3.8 2.5 2.5 3.5l15 8.7c3.3 1.9 8.7 1.9 12.1 0l4.8-2.8V65.7l-4.8 2.8z"/><path class="st1" d="M67.1 100.5V65.7c5 1.3 10.2 2.1 15.5 2.4v34.8c-5.3-.3-10.5-1.1-15.5-2.4z"/><linearGradient id="SVGID_4_" gradientUnits="userSpaceOnUse" x1="82.593" y1="88.914" x2="121.669" y2="88.914"><stop offset="0" stop-color="#fab216"/><stop offset=".007" stop-color="#fab316"/><stop offset=".228" stop-color="#fcc014"/><stop offset=".387" stop-color="#fdc514"/><stop offset=".566" stop-color="#fcc015"/><stop offset=".803" stop-color="#fab416"/><stop offset="1" stop-color="#f7a518"/></linearGradient><path class="st5" d="M115.3 72.2l-20.5 3.2c-4.5.7-9.2-.9-10.4-3.5l-1.8-3.8v34.8l1.8 3.8c1.2 2.6 5.9 4.2 10.4 3.5l20.5-3.2c3.8-.6 6.3-2.6 6.3-4.8V67.5c.1 2.1-2.5 4.1-6.3 4.7z"/><linearGradient id="SVGID_5_" gradientUnits="userSpaceOnUse" x1="136.705" y1="39.778" x2="144.042" y2="39.778"><stop offset="0" stop-color="#fdc618"/><stop offset=".524" stop-color="#f8aa1a"/><stop offset="1" stop-color="#f3921b"/></linearGradient><path class="st6" d="M141.6 22.7l-4.8 2.8v34.8l4.8-2.8c1.7-1 2.5-2.2 2.5-3.5V19.2c-.1 1.3-.9 2.6-2.5 3.5z"/><linearGradient id="SVGID_6_" gradientUnits="userSpaceOnUse" x1="130.913" y1="66.031" x2="153.798" y2="66.031"><stop offset="0" stop-color="#fab216"/><stop offset=".007" stop-color="#fab316"/><stop offset=".228" stop-color="#fcc014"/><stop offset=".387" stop-color="#fdc514"/><stop offset=".566" stop-color="#fcc015"/><stop offset=".803" stop-color="#fab416"/><stop offset="1" stop-color="#f7a518"/></linearGradient><path class="st7" d="M153.5 41.5L148 53.4c-1.2 2.6-5.9 4.2-10.4 3.5l-6.6-1v34.8l6.6 1c4.5.7 9.2-.9 10.4-3.5l5.5-11.9c.2-.4.3-.8.3-1.3V40.2c0 .5-.1.9-.3 1.3z"/><path class="st8" d="M121.4 66.2l-1.8-3.8c2.1-.9 4.2-1.9 6.1-3 1.9-1.1 3.6-2.3 5.2-3.5l6.6 1c4.5.7 9.2-.9 10.4-3.5l5.5-11.9c.2-.4.3-.8.3-1.3 0-2.2-2.5-4.2-6.3-4.8l-6.6-1c-.6-3.1-2-6.1-4.2-8.9l4.8-2.8c1.7-1 2.5-2.2 2.5-3.5s-.8-2.5-2.5-3.5l-15-8.7c-3.3-1.9-8.7-1.9-12.1 0l-4.8 2.8c-5-1.3-10.2-2.1-15.5-2.4l-1.8-3.8C91.1 1 86.4-.5 81.9.2L61.4 3.3c-3.8.6-6.3 2.6-6.3 4.8 0 .4.1.8.3 1.3l1.8 3.8c-2.1.9-4.2 1.9-6.1 3-1.9 1.1-3.6 2.3-5.2 3.5l-6.6-1c-4.5-.7-9.2.9-10.4 3.5l-5.5 11.9c-.2.4-.3.8-.3 1.3 0 2.2 2.5 4.2 6.3 4.8l6.6 1c.6 3.1 2 6.1 4.2 8.9l-4.8 2.8c-1.7 1-2.5 2.2-2.5 3.5 0 1.3.8 2.5 2.5 3.5l15 8.7c3.3 1.9 8.7 1.9 12.1 0l4.8-2.8c5 1.3 10.2 2.1 15.5 2.4l1.8 3.8c1.2 2.6 5.9 4.2 10.4 3.5l20.5-3.2c3.8-.6 6.3-2.6 6.3-4.8-.1-.5-.2-.9-.4-1.3z"/><path class="st9" d="M119 55.5c-16.9 9.8-44.4 9.8-61.4 0-16.9-9.8-16.9-25.6 0-35.4 16.9-9.8 44.4-9.8 61.4 0 17 9.7 17 25.6 0 35.4z"/><radialGradient id="SVGID_7_" cx="88.36" cy="63.64" r="54.101" gradientUnits="userSpaceOnUse"><stop offset=".499" stop-color="#fcbe22"/><stop offset=".608" stop-color="#fbbc22"/><stop offset=".702" stop-color="#fab422"/><stop offset=".789" stop-color="#f7a621"/><stop offset=".874" stop-color="#f39220"/><stop offset=".955" stop-color="#ef781e"/><stop offset="1" stop-color="#ec641d"/></radialGradient><path class="st10" d="M108.8 46.8c-11.3 6.5-29.6 6.5-40.9 0-11.3-6.5-11.3-17.1 0-23.6s29.6-6.5 40.9 0c11.3 6.5 11.3 17.1 0 23.6z"/><path class="st9" d="M103.9 41.3c-8.6 5-22.5 5-31.1 0-8.6-5-8.6-13 0-18s22.5-5 31.1 0 8.6 13 0 18z"/><radialGradient id="SVGID_8_" cx="88.36" cy="12.264" r="30.654" gradientUnits="userSpaceOnUse"><stop offset=".499" stop-color="#fcbe22"/><stop offset=".608" stop-color="#fbbc22"/><stop offset=".702" stop-color="#fab422"/><stop offset=".789" stop-color="#f7a621"/><stop offset=".874" stop-color="#f39220"/><stop offset=".955" stop-color="#ef781e"/><stop offset="1" stop-color="#ec641d"/></radialGradient><path class="st11" d="M101 36.8c-7 4-18.3 4-25.3 0s-7-10.6 0-14.6 18.3-4 25.3 0 7 10.6 0 14.6z"/></svg>