<svg id="Слой_1" xmlns="http://www.w3.org/2000/svg" viewBox="0 0 149.4 150"><style>.st0{fill:url(#SVGID_1_)}.st1{fill:url(#SVGID_2_)}.st2{fill:#42abe2}.st3{fill:#407fc1}.st4{fill:#262626}.st5{fill:#fff}.st6{fill:#747374}.st7{fill:#185079}.st8{fill:url(#SVGID_3_)}.st9{fill:#363636}.st10{fill:url(#SVGID_4_)}.st11{fill:url(#SVGID_5_)}.st12{fill:#e3e3e2}</style><radialGradient id="SVGID_1_" cx="74.71" cy="296.666" r="74.709" gradientTransform="matrix(1 0 0 .7584 0 -131.65)" gradientUnits="userSpaceOnUse"><stop offset="0" stop-color="#535353"/><stop offset=".03" stop-color="#5f5f5f"/><stop offset=".17" stop-color="#8f8f8f"/><stop offset=".309" stop-color="#b7b7b7"/><stop offset=".444" stop-color="#d7d7d7"/><stop offset=".575" stop-color="#ededed"/><stop offset=".7" stop-color="#fafafa"/><stop offset=".811" stop-color="#fff"/></radialGradient><ellipse class="st0" cx="74.7" cy="93.3" rx="74.7" ry="56.7"/><linearGradient id="SVGID_2_" gradientUnits="userSpaceOnUse" x1="62.422" y1="2.302" x2="111.568" y2="87.424"><stop offset="0" stop-color="#45a2da"/><stop offset=".112" stop-color="#459fd8"/><stop offset=".352" stop-color="#459dd7"/><stop offset=".562" stop-color="#2a7ec1"/><stop offset=".744" stop-color="#1966b0"/><stop offset="1" stop-color="#1e4999"/></linearGradient><path class="st1" d="M87 4.7C77.4-.8 68.7-1.4 62.4 2.3L37.9 16.5c6.3-3.6 15-3.1 24.6 2.4 19.2 11.1 34.8 38 34.8 60.2 0 11.1-3.9 18.9-10.2 22.5l24.5-14.2c6.3-3.6 10.2-11.4 10.2-22.5-.1-22.1-15.6-49.1-34.8-60.2z"/><path class="st2" d="M62.4 18.9c-9.6-5.5-18.3-6.1-24.6-2.4-6.2 3.6-10.1 11.4-10.1 22.5 0 22.2 15.6 49.1 34.7 60.2 9.6 5.5 18.3 6.1 24.6 2.4 6.3-3.6 10.2-11.4 10.2-22.5 0-22.2-15.6-49.1-34.8-60.2zm0 76.7C45 85.5 30.8 61 30.8 40.8c0-10.1 3.5-17.2 9.3-20.5 5.7-3.3 13.6-2.8 22.4 2.2C80 32.6 94.1 57.1 94.1 77.3c0 10.1-3.5 17.2-9.3 20.5-5.7 3.3-13.6 2.8-22.4-2.2z"/><path class="st3" d="M62.4 22.5C45 12.4 30.8 20.6 30.8 40.8S45 85.5 62.4 95.6C79.9 105.7 94 97.5 94 77.3c.1-20.2-14.1-44.7-31.6-54.8z"/><path class="st4" d="M63.6 24.3c-16.3-9.4-29.4-1.8-29.4 17s13.2 41.6 29.4 51c16.3 9.4 29.4 1.8 29.4-17s-13.2-41.6-29.4-51z"/><path class="st5" d="M63.6 24.3c-16.3-9.4-29.4-1.8-29.4 17s13.2 41.6 29.4 51c16.3 9.4 29.4 1.8 29.4-17s-13.1-41.6-29.4-51z"/><path class="st6" d="M75.9 51.3c-.5-.9-1.3-1.3-1.8-1.1l-10 5.8s.1 0 .1.1c.4.4.8.8 1.1 1.3.3.6.5 1.2.6 1.7l10-5.8c.5-.2.5-1.1 0-2zm-12.8 4.1l-6.2-10.7c-.5-.9-1.3-1.3-1.8-1.1-.5.3-.5 1.2 0 2.1l6.1 10.6v-.1c.1-.4.3-.7.6-.9.4 0 .8 0 1.3.1z"/><path class="st7" d="M64.2 56.1s-.1 0-.1-.1c-.3-.3-.7-.5-1-.6-.5-.2-.9-.1-1.2.1-.3.2-.5.4-.6.9v.1c-.2.8.1 1.9.6 2.9.3.5.7 1 1.1 1.3.9.8 1.7 1 2.3.6.3-.2.5-.5.6-.9.1-.4.1-.8 0-1.3-.1-.6-.3-1.2-.6-1.7s-.7-1-1.1-1.3z"/><path class="st2" d="M60.1 58.4s-.1 0-.1-.1c-.3-.3-.7-.5-1-.6-.5-.2-.9-.1-1.2.1-.3.2-.5.4-.6.9v.1c-.2.8.1 1.9.6 2.9.3.5.7 1 1.1 1.3.9.8 1.7 1 2.3.6.3-.2.5-.5.6-.9.1-.4.1-.8 0-1.3-.1-.6-.3-1.2-.6-1.7s-.6-.9-1.1-1.3z"/><linearGradient id="SVGID_3_" gradientUnits="userSpaceOnUse" x1="60.688" y1="56.149" x2="64.074" y2="62.014"><stop offset="0" stop-color="#45a2da"/><stop offset=".112" stop-color="#459fd8"/><stop offset=".352" stop-color="#459dd7"/><stop offset=".46" stop-color="#429ad5"/><stop offset=".579" stop-color="#3a90cf"/><stop offset=".704" stop-color="#2c81c4"/><stop offset=".832" stop-color="#1d6cb4"/><stop offset=".863" stop-color="#1966b0"/><stop offset="1" stop-color="#1e4999"/></linearGradient><path class="st8" d="M65.9 59.2c-.1-.6-.3-1.2-.6-1.7s-.7-1-1.1-1.3c0 0-.1 0-.1-.1-.3-.3-.7-.5-1-.6-.5-.2-.9-.1-1.2.1l-4 2.3c.3-.2.8-.2 1.2-.1.3.1.7.3 1 .6 0 0 .1 0 .1.1.4.4.8.8 1.1 1.3.3.6.5 1.2.6 1.7.1.5.1.9 0 1.3s-.3.7-.6.9l4-2.3c.3-.2.5-.5.6-.9.1-.4.1-.9 0-1.3z"/><path class="st9" d="M73.8 52.4c-.5-.9-1.3-1.3-1.8-1.1l-10 5.8s.1 0 .1.1c.4.4.8.8 1.1 1.3.3.6.5 1.2.6 1.7l10-5.8c.5-.1.6-1.1 0-2zm-13 3.7l-5.9-10.2c-.5-.9-1.3-1.3-1.8-1.1-.5.3-.5 1.2 0 2.1L59 57.1l.9-.5c.3-.2.8-.2 1.2-.1l-.3-.4z"/><linearGradient id="SVGID_4_" gradientUnits="userSpaceOnUse" x1="73.489" y1="50.542" x2="75.319" y2="53.711"><stop offset="0" stop-color="#686868"/><stop offset=".121" stop-color="#636363"/><stop offset=".295" stop-color="#555657"/><stop offset=".502" stop-color="#404244"/><stop offset=".734" stop-color="#26272b"/><stop offset=".985" stop-color="#050607"/><stop offset="1" stop-color="#040505"/></linearGradient><path class="st10" d="M75.9 51.3c-.5-.9-1.3-1.3-1.8-1.1l-2 1.2c.5-.3 1.3.2 1.8 1.1.5.9.5 1.8 0 2.1l2-1.2c.5-.3.5-1.2 0-2.1z"/><linearGradient id="SVGID_5_" gradientUnits="userSpaceOnUse" x1="54.526" y1="44.024" x2="61.6" y2="56.276"><stop offset="0" stop-color="#797879"/><stop offset=".037" stop-color="#6d6d6d"/><stop offset=".107" stop-color="#525252"/><stop offset=".117" stop-color="#4e4e4e"/><stop offset=".306" stop-color="#474747"/><stop offset=".589" stop-color="#424242"/><stop offset="1" stop-color="#404040"/></linearGradient><path class="st11" d="M56.9 44.8c-.5-.9-1.3-1.3-1.8-1.1l-2 1.2c.5-.3 1.3.2 1.8 1.1L61 56.6l2-1.2-6.1-10.6z"/><path class="st12" d="M65.5 38l-3.8-2.2v-6.6l3.8 2.2zm-10.6-4.9l-2.1.2-1.9-4.9 2.1-.2zm-7.6 3.3l-1.2 1.8-3.3-4.1 1.3-1.7zm-2.2 9v4.4l-5.8-3.3v-4.4zm1 12.8l1.2 3.2-3.2.3-1.3-3.2zm6.7 12.6l2.1 2.7-1.9 2.7-2.1-2.7zm8.9 7.8l3.8 2.2v6.6l-3.8-2.2zm10.6 4.9l2.1-.2 1.9 4.9-2.1.2zm7.6-3.3l1.2-1.8 3.3 4.1-1.3 1.8zm2.2-9v-4.4l5.7 3.3v4.4zm-1-12.8l-1.2-3.2 3.2-.3 1.3 3.2zm-6.7-12.6l-2.1-2.7 1.9-2.7 2.1 2.7z"/></svg>