<svg id="Слой_1" xmlns="http://www.w3.org/2000/svg" viewBox="0 0 168.6 150"><style>.st0{fill:url(#SVGID_1_)}.st1{fill:url(#SVGID_2_)}.st2{fill:#fdc509}.st3{fill:url(#SVGID_3_)}.st4{fill:url(#SVGID_4_)}.st5{fill:#b1cb20}.st6{fill:#fff}.st7{fill:#f0f0f0}</style><radialGradient id="SVGID_1_" cx="188.393" cy="4355.479" r="5.652" gradientTransform="matrix(14.9206 0 0 11.3158 -2726.606 -49199.566)" gradientUnits="userSpaceOnUse"><stop offset="0" stop-color="#535353"/><stop offset=".03" stop-color="#5f5f5f"/><stop offset=".17" stop-color="#8f8f8f"/><stop offset=".309" stop-color="#b7b7b7"/><stop offset=".444" stop-color="#d7d7d7"/><stop offset=".575" stop-color="#ededed"/><stop offset=".7" stop-color="#fafafa"/><stop offset=".811" stop-color="#fff"/></radialGradient><ellipse class="st0" cx="84.3" cy="86" rx="84.3" ry="64"/><linearGradient id="SVGID_2_" gradientUnits="userSpaceOnUse" x1="50.053" y1=".703" x2="86.813" y2="64.374"><stop offset="0" stop-color="#f7a418"/><stop offset=".072" stop-color="#f7a616"/><stop offset=".301" stop-color="#f8a815"/><stop offset=".344" stop-color="#f7a516"/><stop offset=".573" stop-color="#f4981a"/><stop offset=".744" stop-color="#f3931b"/><stop offset="1" stop-color="#ed6d1d"/></linearGradient><path class="st1" d="M65.2 10.3c-10.3-6-19.4-7.1-24.9-4L35 9.4c5.5-3.1 14.5-2 24.8 3.9C76.5 23 90 41.6 90 55c0 5.1-2 8.7-5.4 10.7l5.4-3.1c3.4-2 5.4-5.6 5.4-10.7 0-13.4-13.6-32-30.2-41.6z"/><path class="st2" d="M59.8 13.3C49.5 7.4 40.4 6.3 35 9.4c-3.4 2-5.4 5.5-5.4 10.7 0 6.9 3.6 15.2 9.4 22.9l-5.2 9.2 13.7.3c3.7 3.5 7.9 6.6 12.3 9.2 10.3 5.9 19.4 7.1 24.8 3.9C88 63.7 90 60.1 90 55c0-13.4-13.5-32-30.2-41.7z"/><linearGradient id="SVGID_3_" gradientUnits="userSpaceOnUse" x1="121.926" y1="78.725" x2="131.971" y2="96.123"><stop offset="0" stop-color="#99c31c"/><stop offset=".034" stop-color="#99c31c"/><stop offset=".301" stop-color="#99c31c"/><stop offset=".381" stop-color="#90bf21"/><stop offset=".53" stop-color="#85bc25"/><stop offset=".736" stop-color="#81bb27"/><stop offset="1" stop-color="#81bb27"/></linearGradient><path class="st3" d="M133.7 95.1l-6.9 4-6.6-19.4 6.9-3.9z"/><linearGradient id="SVGID_4_" gradientUnits="userSpaceOnUse" x1="81.214" y1="-4.997" x2="128.134" y2="76.271"><stop offset="0" stop-color="#99c31c"/><stop offset=".034" stop-color="#99c31c"/><stop offset=".301" stop-color="#99c31c"/><stop offset=".381" stop-color="#90bf21"/><stop offset=".53" stop-color="#85bc25"/><stop offset=".736" stop-color="#81bb27"/><stop offset="1" stop-color="#81bb27"/></linearGradient><path class="st4" d="M100.5 7.2c-13.1-7.6-24.7-9-31.7-5L62 6.1c7-4 18.6-2.6 31.7 5 21.3 12.3 38.6 36.1 38.6 53.1 0 6.5-2.5 11.1-6.8 13.6l6.8-3.9c4.3-2.5 6.8-7.1 6.8-13.6 0-17-17.3-40.8-38.6-53.1z"/><path class="st5" d="M120.2 79.7c1.9-.4 3.6-1 5.1-1.8 4.3-2.5 6.8-7.1 6.8-13.6 0-17.1-17.3-40.8-38.6-53.1-13.1-7.6-24.7-9-31.7-5-4.3 2.5-6.9 7.1-6.9 13.6 0 17 17.3 40.8 38.6 53.1 5.6 3.2 10.9 5.3 15.7 6.4l17.5 19.8-6.5-19.4z"/><path class="st6" d="M93.8 33.9c-1.9-1.1-3.7-1.2-5-.5l-4.9 2.8c1.3-.7 3-.6 5 .5 3.9 2.2 7 7.7 7 12.1 0 2.2-.8 3.8-2.1 4.5l4.9-2.8c1.3-.7 2.1-2.3 2.1-4.5 0-4.4-3.1-9.8-7-12.1z"/><path class="st7" d="M81.9 40.8c0 4.5 3.1 9.9 7 12.1 1.9 1.1 3.7 1.2 5 .5 1.3-.7 2.1-2.3 2.1-4.5 0-4.5-3.1-9.9-7-12.1-1.9-1.1-3.7-1.2-5-.5s-2.1 2.3-2.1 4.5z"/><path class="st6" d="M75.5 25.6c-1.4-.8-2.7-.9-3.6-.4l-3.6 2.1c.9-.5 2.2-.5 3.6.4 2.8 1.6 5.1 5.6 5.1 8.9 0 1.6-.6 2.8-1.5 3.3l3.6-2.1c.9-.5 1.5-1.7 1.5-3.3.1-3.2-2.3-7.2-5.1-8.9z"/><path class="st7" d="M66.8 30.7c0 3.3 2.3 7.3 5.1 8.9 1.4.8 2.7.9 3.6.4.9-.5 1.5-1.7 1.5-3.3 0-3.3-2.3-7.3-5.1-8.9-1.4-.8-2.7-.9-3.6-.4-1 .5-1.5 1.6-1.5 3.3z"/><path class="st6" d="M112 46.5c-1.4-.8-2.7-.9-3.6-.4l-3.6 2.1c.9-.5 2.2-.5 3.6.4 2.8 1.6 5.1 5.6 5.1 8.9 0 1.6-.6 2.8-1.5 3.3l3.6-2.1c.9-.5 1.5-1.7 1.5-3.3 0-3.3-2.3-7.3-5.1-8.9z"/><path class="st7" d="M103.2 51.5c0 3.3 2.3 7.3 5.1 8.9 1.4.8 2.7.9 3.6.4.9-.5 1.5-1.7 1.5-3.3 0-3.3-2.3-7.3-5.1-8.9-1.4-.8-2.7-.9-3.6-.4-.9.5-1.5 1.7-1.5 3.3z"/></svg>