<svg id="Слой_1" xmlns="http://www.w3.org/2000/svg" viewBox="0 0 14 60"><style>.st0{fill:#fff}.st1{fill:#e29d46}.st2{fill:#1b97d5}.st3{fill:#bdbcbc}</style><path class="st0" d="M7 15v-4.7l2.7-2.8L7 4.7V0l7 7.5zM0 7.5L7 0v4.7L4.3 7.5 7 10.3V15z"/><path class="st1" d="M7 45v-4.7l2.7-2.8L7 34.7V30l7 7.5zm-7-7.5L7 30v4.7l-2.7 2.8L7 40.3V45z"/><path class="st2" d="M7 30v-4.7l2.7-2.8L7 19.7V15l7 7.5zm-7-7.5L7 15v4.7l-2.7 2.8L7 25.3V30z"/><path class="st3" d="M7 60v-4.7l2.7-2.8L7 49.7V45l7 7.5zm-7-7.5L7 45v4.7l-2.7 2.8L7 55.3V60z"/></svg>