<svg id="Слой_1" data-name="Слой 1" xmlns="http://www.w3.org/2000/svg" xmlns:xlink="http://www.w3.org/1999/xlink" viewBox="0 0 82.98 60"><defs><style>.cls-1{fill:#b3b3b3}.cls-1,.cls-10,.cls-11,.cls-12,.cls-13,.cls-14,.cls-15,.cls-16,.cls-17,.cls-18,.cls-19,.cls-2,.cls-20,.cls-21,.cls-22,.cls-23,.cls-24,.cls-25,.cls-26,.cls-27,.cls-28,.cls-29,.cls-3,.cls-30,.cls-31,.cls-32,.cls-33,.cls-34,.cls-35,.cls-36,.cls-37,.cls-38,.cls-39,.cls-4,.cls-40,.cls-41,.cls-42,.cls-43,.cls-44,.cls-45,.cls-46,.cls-47,.cls-48,.cls-49,.cls-5,.cls-50,.cls-51,.cls-52,.cls-53,.cls-54,.cls-55,.cls-56,.cls-57,.cls-58,.cls-59,.cls-6,.cls-60,.cls-61,.cls-62,.cls-63,.cls-64,.cls-65,.cls-66,.cls-7,.cls-8,.cls-9{fill-rule:evenodd}.cls-2{fill:#f8f4f5}.cls-3{fill:url(#linear-gradient)}.cls-4{fill:url(#linear-gradient-2)}.cls-5{fill:url(#linear-gradient-3)}.cls-6{fill:url(#GradientFill_495)}.cls-7{fill:url(#linear-gradient-4)}.cls-8{fill:url(#linear-gradient-5)}.cls-9{fill:url(#linear-gradient-6)}.cls-10{fill:url(#GradientFill_495-2)}.cls-11{fill:url(#linear-gradient-7)}.cls-12{fill:url(#linear-gradient-8)}.cls-13{fill:url(#linear-gradient-9)}.cls-14{fill:url(#GradientFill_495-3)}.cls-15{fill:url(#GradientFill_534)}.cls-16{fill:url(#GradientFill_128)}.cls-17{fill:#ffcc0c}.cls-18{fill:#e7ab10}.cls-19{fill:#1d1d1b}.cls-20{fill:url(#GradientFill_326)}.cls-21{fill:url(#GradientFill_326-2)}.cls-22{fill:url(#GradientFill_533)}.cls-23{fill:url(#GradientFill_326-3)}.cls-24{fill:url(#GradientFill_533-2)}.cls-25{fill:url(#GradientFill_326-4)}.cls-26{fill:url(#GradientFill_326-5)}.cls-27{fill:url(#GradientFill_326-6)}.cls-28{fill:url(#GradientFill_326-7)}.cls-29{fill:url(#GradientFill_326-8)}.cls-30{fill:url(#GradientFill_326-9)}.cls-31{fill:url(#GradientFill_326-10)}.cls-32{fill:#3a3437}.cls-33{fill:#7f6e71}.cls-34{fill:url(#GradientFill_520)}.cls-35{fill:url(#GradientFill_326-11)}.cls-36{fill:url(#GradientFill_326-12)}.cls-37{fill:url(#GradientFill_524)}.cls-38{fill:url(#GradientFill_326-13)}.cls-39{fill:url(#GradientFill_523)}.cls-40{fill:url(#GradientFill_326-14)}.cls-41{fill:url(#GradientFill_326-15)}.cls-42{fill:url(#GradientFill_326-16)}.cls-43{fill:url(#GradientFill_520-2)}.cls-44{fill:url(#GradientFill_326-17)}.cls-45{fill:#c2b7b9}.cls-46{fill:url(#GradientFill_326-18)}.cls-47{fill:url(#GradientFill_533-3)}.cls-48{fill:url(#GradientFill_326-19)}.cls-49{fill:url(#GradientFill_326-20)}.cls-50{fill:url(#GradientFill_326-21)}.cls-51{fill:url(#GradientFill_326-22)}.cls-52{fill:url(#GradientFill_326-23)}.cls-53{fill:url(#GradientFill_326-24)}.cls-54{fill:url(#GradientFill_533-4)}.cls-55{fill:#736367}.cls-56{fill:#48414f}.cls-57{fill:#cdc1c3}.cls-58{fill:url(#GradientFill_532)}.cls-59{fill:url(#GradientFill_531)}.cls-60{fill:url(#GradientFill_532-2)}.cls-61{fill:url(#GradientFill_531-2)}.cls-62{fill:url(#GradientFill_512)}.cls-63{fill:url(#GradientFill_486)}.cls-64{fill:#f1e8ea}.cls-65{fill:url(#GradientFill_128-2)}.cls-66{fill:#4f4853}</style><linearGradient id="linear-gradient" x1="12.84" y1="36.49" x2="5.97" y2="47.92" gradientUnits="userSpaceOnUse"><stop offset="0" stop-color="#f9efe4"/><stop offset="1" stop-color="#f8f4f5"/></linearGradient><linearGradient id="linear-gradient-2" x1="12.17" y1="37.01" x2="6.22" y2="46.92" gradientUnits="userSpaceOnUse"><stop offset="0" stop-color="#f9ead3"/><stop offset="1" stop-color="#f8f4f5"/></linearGradient><linearGradient id="linear-gradient-3" x1="11.5" y1="37.54" x2="6.46" y2="45.92" gradientUnits="userSpaceOnUse"><stop offset="0" stop-color="#fae4c1"/><stop offset="1" stop-color="#f8f4f5"/></linearGradient><linearGradient id="GradientFill_495" x1="10.82" y1="38.06" x2="6.7" y2="44.93" gradientUnits="userSpaceOnUse"><stop offset="0" stop-color="#fadfb0"/><stop offset="1" stop-color="#f8f4f5"/></linearGradient><linearGradient id="linear-gradient-4" x1="23.55" y1="42.67" x2="16.68" y2="54.1" xlink:href="#linear-gradient"/><linearGradient id="linear-gradient-5" x1="22.87" y1="43.19" x2="16.92" y2="53.1" xlink:href="#linear-gradient-2"/><linearGradient id="linear-gradient-6" x1="22.2" y1="43.72" x2="17.16" y2="52.1" xlink:href="#linear-gradient-3"/><linearGradient id="GradientFill_495-2" x1="21.53" y1="44.24" x2="17.4" y2="51.11" xlink:href="#GradientFill_495"/><linearGradient id="linear-gradient-7" x1="33.88" y1="50.21" x2="27.87" y2="60.21" xlink:href="#linear-gradient"/><linearGradient id="linear-gradient-8" x1="33.58" y1="50.4" x2="28.17" y2="59.4" xlink:href="#linear-gradient-2"/><linearGradient id="linear-gradient-9" x1="33.29" y1="50.59" x2="28.48" y2="58.6" xlink:href="#linear-gradient-3"/><linearGradient id="GradientFill_495-3" x1="33" y1="50.78" x2="28.78" y2="57.8" xlink:href="#GradientFill_495"/><linearGradient id="GradientFill_534" x1="3740.84" y1="163.88" x2="3747.52" y2="172.44" gradientUnits="userSpaceOnUse"><stop offset="0" stop-color="#ac9fa2"/><stop offset=".43" stop-color="#ac9fa2"/><stop offset="1" stop-color="#bbaeaf"/></linearGradient><linearGradient id="GradientFill_128" x1="42.82" y1="51.1" x2="40.42" y2="46.76" gradientUnits="userSpaceOnUse"><stop offset="0" stop-color="#a29497"/><stop offset=".43" stop-color="#aea2a6"/><stop offset="1" stop-color="#bbaeaf"/></linearGradient><linearGradient id="GradientFill_326" x1="3737.44" y1="187.46" x2="3698.62" y2="120.22" gradientUnits="userSpaceOnUse"><stop offset="0" stop-color="#a15d25"/><stop offset="1" stop-color="#e19b1f"/></linearGradient><linearGradient id="GradientFill_326-2" x1="26.67" y1="44.66" x2="30.65" y2="44.87" xlink:href="#GradientFill_326"/><linearGradient id="GradientFill_533" x1="28.45" y1="43.37" x2="27.97" y2="42.7" gradientUnits="userSpaceOnUse"><stop offset="0" stop-color="#a15d25"/><stop offset="1" stop-color="#814816"/></linearGradient><linearGradient id="GradientFill_326-3" x1="15.78" y1="38.37" x2="19.76" y2="38.58" xlink:href="#GradientFill_326"/><linearGradient id="GradientFill_533-2" x1="17.56" y1="37.08" x2="17.08" y2="36.42" xlink:href="#GradientFill_533"/><linearGradient id="GradientFill_326-4" x1="3.03" y1="50.04" x2="14.15" y2="11.28" xlink:href="#GradientFill_326"/><linearGradient id="GradientFill_326-5" x1="7.42" y1="51" x2="18.38" y2="12.79" xlink:href="#GradientFill_326"/><linearGradient id="GradientFill_326-6" x1="13.18" y1="52.65" x2="24.14" y2="14.44" xlink:href="#GradientFill_326"/><linearGradient id="GradientFill_326-7" x1="16.05" y1="53.48" x2="27.01" y2="15.26" xlink:href="#GradientFill_326"/><linearGradient id="GradientFill_326-8" x1="20.25" y1="55.11" x2="31.44" y2="16.11" xlink:href="#GradientFill_326"/><linearGradient id="GradientFill_326-9" x1="9.41" y1="28.21" x2="9.61" y2="30.98" xlink:href="#GradientFill_326"/><linearGradient id="GradientFill_326-10" x1="8.99" y1="24.65" x2="-1.72" y2="30.83" xlink:href="#GradientFill_326"/><linearGradient id="GradientFill_520" x1="9.52" y1="42.69" x2="9.82" y2="41.17" gradientUnits="userSpaceOnUse"><stop offset="0" stop-color="#b0a4a7"/><stop offset="1" stop-color="#c07c24"/></linearGradient><linearGradient id="GradientFill_326-11" x1="8.99" y1="36.96" x2="-1.72" y2="43.14" xlink:href="#GradientFill_326"/><linearGradient id="GradientFill_326-12" x1="22.44" y1="12.05" x2="15.88" y2=".22" xlink:href="#GradientFill_326"/><linearGradient id="GradientFill_524" x1="34.37" y1="7.92" x2="37.33" y2="2.79" gradientUnits="userSpaceOnUse"><stop offset="0" stop-color="#f8f4f5"/><stop offset="1" stop-color="#e7ab10"/></linearGradient><linearGradient id="GradientFill_326-13" x1="29.64" y1="3.54" x2="31.68" y2="3.18" xlink:href="#GradientFill_326"/><linearGradient id="GradientFill_523" x1="22.05" y1="10.61" x2="20.76" y2="8.38" gradientUnits="userSpaceOnUse"><stop offset="0" stop-color="#a29497"/><stop offset="1" stop-color="#bd7924"/></linearGradient><linearGradient id="GradientFill_326-14" x1="3737.49" y1="135.94" x2="3741.98" y2="125.87" xlink:href="#GradientFill_326"/><linearGradient id="GradientFill_326-15" x1="20.3" y1="34.49" x2="20.49" y2="37.26" xlink:href="#GradientFill_326"/><linearGradient id="GradientFill_326-16" x1="19.88" y1="30.93" x2="9.16" y2="37.12" xlink:href="#GradientFill_326"/><linearGradient id="GradientFill_520-2" x1="20.41" y1="48.97" x2="20.71" y2="47.45" xlink:href="#GradientFill_520"/><linearGradient id="GradientFill_326-17" x1="19.88" y1="43.24" x2="9.16" y2="49.43" xlink:href="#GradientFill_326"/><linearGradient id="GradientFill_326-18" x1="17.92" y1="-7.87" x2="65.73" y2="74.93" xlink:href="#GradientFill_326"/><linearGradient id="GradientFill_533-3" x1="3734.28" y1="144.23" x2="3766.2" y2="185.07" xlink:href="#GradientFill_533"/><linearGradient id="GradientFill_326-19" x1="40.12" y1="19.4" x2="50.11" y2="36.7" xlink:href="#GradientFill_326"/><linearGradient id="GradientFill_326-20" x1="51.75" y1="24.65" x2="62.36" y2="31.03" xlink:href="#GradientFill_326"/><linearGradient id="GradientFill_326-21" x1="51.75" y1="36.96" x2="62.36" y2="43.34" xlink:href="#GradientFill_326"/><linearGradient id="GradientFill_326-22" x1="29.23" y1="25.69" x2="39.22" y2="42.99" xlink:href="#GradientFill_326"/><linearGradient id="GradientFill_326-23" x1="40.87" y1="30.94" x2="51.47" y2="37.31" xlink:href="#GradientFill_326"/><linearGradient id="GradientFill_326-24" x1="40.87" y1="43.25" x2="51.47" y2="49.62" xlink:href="#GradientFill_326"/><linearGradient id="GradientFill_533-4" x1="3729.93" y1="141.48" x2="3716.63" y2="124.46" xlink:href="#GradientFill_533"/><linearGradient id="GradientFill_532" x1="11" y1="35.93" x2="23.01" y2="15.14" gradientUnits="userSpaceOnUse"><stop offset="0" stop-color="#564845"/><stop offset="1" stop-color="#e7ab10"/></linearGradient><linearGradient id="GradientFill_531" x1="16.12" y1="37.48" x2="23.56" y2="37.48" gradientUnits="userSpaceOnUse"><stop offset="0" stop-color="#3a3437"/><stop offset="1" stop-color="#c27e23"/></linearGradient><linearGradient id="GradientFill_532-2" x1="21.89" y1="42.22" x2="33.9" y2="21.42" xlink:href="#GradientFill_532"/><linearGradient id="GradientFill_531-2" x1="27.01" y1="43.77" x2="34.45" y2="43.77" xlink:href="#GradientFill_531"/><linearGradient id="GradientFill_512" x1="33.49" y1="11.65" x2="38.45" y2="16.61" gradientUnits="userSpaceOnUse"><stop offset="0" stop-color="#a29497"/><stop offset="1" stop-color="#bbaeaf"/></linearGradient><linearGradient id="GradientFill_486" x1="28.44" y1="10.86" x2="29.87" y2="8.4" gradientUnits="userSpaceOnUse"><stop offset="0" stop-color="#c7b9bc"/><stop offset="1" stop-color="#aea0a5"/></linearGradient><linearGradient id="GradientFill_128-2" x1="33.22" y1="9.18" x2="34.81" y2="12.06" xlink:href="#GradientFill_128"/></defs><title>contacts-icon</title><path class="cls-1" d="M3736.34 148.61l-3.42-2.63h-1.23l-31.69 18.3 27.23 15.72h1.23l6.56-3.79h2.15l2.68 1.55h.68l2.64-1.53h15.93l23.9-13.8-23.9-13.8h-22.74zm12.8 23.82l1.09.64H3748l1.1-.64zm-1.5.87h3l.72.42h-4.47z" transform="translate(-3700 -120)"/><path class="cls-2" d="M57.82 41.11L30.59 25.39 0 43.05l27.23 15.72 30.59-17.66z"/><path class="cls-2" d="M9.54 41.49l-3.08-.31-1.02 3.98 4.8 2.77-.7-6.44z"/><path class="cls-3" d="M9.54 41.49l-3.08-.31-.77 3.41 4.34 2.5-.49-5.6z"/><path class="cls-4" d="M9.54 41.49l-3.08-.31-.51 2.84 3.86 2.24-.27-4.77z"/><path class="cls-5" d="M9.54 41.49l-3.08-.31-.25 2.28 3.39 1.96-.06-3.93z"/><path class="cls-6" d="M9.54 41.49l-3.08-.31v1.71l2.93 1.69.15-3.09z"/><path class="cls-2" d="M20.24 47.67l-3.07-.31-1.03 3.98 4.8 2.77-.7-6.44z"/><path class="cls-7" d="M20.24 47.67l-3.07-.31-.77 3.41 4.33 2.5-.49-5.6z"/><path class="cls-8" d="M20.24 47.67l-3.07-.31-.51 2.84 3.86 2.24-.28-4.77z"/><path class="cls-9" d="M20.24 47.67l-3.07-.31-.26 2.28 3.4 1.96-.07-3.93z"/><path class="cls-10" d="M20.24 47.67l-3.07-.31v1.71l2.92 1.69.15-3.09z"/><path class="cls-2" d="M32.69 53.65h-4.63l-2.05 4.41 1.22 1.32 7.47-3.69-2.01-2.04z"/><path class="cls-11" d="M32.74 53.64l-4.68.01-1.56 3.85 1.48 1.48 6.28-3.16-1.52-2.18z"/><path class="cls-12" d="M32.8 53.63l-4.74.02-1.08 3.29 1.75 1.63 5.09-2.62-1.02-2.32z"/><path class="cls-13" d="M32.86 53.62l-4.8.03-.59 2.73 2.01 1.78 3.91-2.08-.53-2.46z"/><path class="cls-14" d="M32.92 53.61l-4.86.04-.11 2.16 2.28 1.95 2.72-1.55-.03-2.6z"/><path class="cls-15" d="M3757.82 161.11l-17.29-10h-11.26c0 11.63 1.1 22 1.1 22.06V175h3.42z" transform="translate(-3700 -120)"/><path class="cls-16" d="M27.23 60v-1.23l30.59-17.66v1.23L27.23 60z"/><path class="cls-17" d="M54.27 13.8L30.37 0 6.46 13.8l23.91 13.8 23.9-13.8z"/><path class="cls-18" d="M3726.5 122.24l-.13.08 3.87 2.24-3.87 2.24-3.87-2.24-.13.08 3.87 2.24-3.87 2.24-3.87-2.24-.13.08 3.87 2.24-3.87 2.24-3.87-2.24-.13.08 3.87 2.24-3.87 2.24-3.87-2.24-.13.08 3.87 2.24-3.87 2.24.13.08 3.87-2.24 3.87 2.24-3.87 2.24.13.08 3.87-2.24 3.87 2.24-3.87 2.24.13.08 3.87-2.24 3.87 2.24-3.87 2.24.13.08 3.87-2.24 3.87 2.24-3.87 2.24.13.08 3.87-2.24 3.87 2.24.13-.08-3.87-2.24 3.87-2.24 3.87 2.24.13-.08-3.87-2.24 3.87-2.24 3.87 2.24.13-.08-3.87-2.24 3.87-2.24 3.87 2.24.13-.08-3.87-2.24 3.87-2.24 3.87 2.24.13-.08-3.87-2.24 3.87-2.24-.13-.08-3.87 2.24-3.87-2.24 3.87-2.24-.13-.08-3.87 2.24-3.87-2.24 3.87-2.24-.13-.08-3.87 2.24-3.87-2.24 3.87-2.24-.13-.08-3.87 2.24-3.87-2.24 3.87-2.24-.13-.08-3.87 2.24-3.87-2.24zm3.87 2.39l3.87 2.24-3.87 2.24-3.87-2.24 3.87-2.24zm4 2.31l3.87 2.24-3.87 2.24-3.87-2.24 3.87-2.24zm4 2.31l3.87 2.24-3.87 2.24-3.87-2.24 3.87-2.24zm4 2.31l3.87 2.24-3.87 2.24-3.87-2.24 3.87-2.24zm-16-4.63l3.87 2.24-3.87 2.24-3.87-2.24 3.87-2.24zm-4 2.31l3.87 2.24-3.87 2.24-3.87-2.24 3.87-2.24zm-4 2.31l3.87 2.24-3.87 2.24-3.87-2.24 3.87-2.24zm12-2.31l3.87 2.24-3.87 2.24-3.87-2.24 3.87-2.24zm-4 2.31l3.87 2.24-3.87 2.24-3.87-2.24 3.87-2.24zm-4 2.31l3.87 2.24-3.87 2.24-3.87-2.24 3.87-2.24zm12-2.31l3.87 2.24-3.87 2.24-3.87-2.24 3.87-2.24zm-4 2.31l3.87 2.24-3.87 2.24-3.87-2.24 3.87-2.24zm-4 2.31l3.87 2.24-3.87 2.24-3.87-2.24 3.87-2.24zm12-2.31l3.87 2.24-3.87 2.24-3.87-2.24 3.87-2.24zm-4 2.31l3.87 2.24-3.87 2.24-3.87-2.24 3.87-2.24zm-4 2.31l3.87 2.24-3.87 2.24-3.87-2.24z" transform="translate(-3700 -120)"/><path class="cls-19" d="M50.85 13.8L30.37 1.98 9.89 13.8l20.48 11.83L50.85 13.8z"/><path class="cls-18" d="M30.37 27.6L6.46 13.8v27.38l2.32 1.34v-10.9l8.39 4.85v10.89l2.5 1.44V37.91l8.39 4.84v10.9l2.31 1.33V27.6z"/><path class="cls-20" d="M3706.47 139.31v.15l23.91 13.8v-.15l-23.91-13.8zm0 5.49l23.91 13.8v.15l-23.91-13.8v-.15zm0 5.49l2.31 1.34 21.59 12.47v.15l-23.91-13.8v-.15zm0 5.49v.15l2.31 1.34v-.15l-2.31-1.34zm10.7 6.18v.15l2.5 1.44v-.15l-2.5-1.44zm10.89 6.29v.15l2.31 1.34v-.15z" transform="translate(-3700 -120)"/><path class="cls-21" d="M28.06 42.75v3.26l1.32.77v-.51l-1.32-3.52z"/><path class="cls-22" d="M28.06 42.75v.15l.07.05-.07-.2z"/><path class="cls-23" d="M17.17 36.47v3.26l1.32.76v-.5l-1.32-3.52z"/><path class="cls-24" d="M17.17 36.47v.15l.07.04-.07-.19z"/><path class="cls-25" d="M10.47 16.11l-.13-.07v16.48l.13.08V16.11z"/><path class="cls-26" d="M14.48 18.43l-.13-.08v16.49l.13.07V18.43z"/><path class="cls-27" d="M18.48 20.74l-.13-.08v27.38l.13.08V20.74z"/><path class="cls-28" d="M22.49 23.05l-.13-.07v16.48l.13.08V23.05z"/><path class="cls-29" d="M26.5 25.37l-.14-.08v16.48l.14.08V25.37z"/><path class="cls-17" d="M17.17 34.17l-7.62-4.39-.77.45 8.39 4.84v-.9z"/><path class="cls-30" d="M10.33 30.23l-.78-.45-.77.45h1.55z"/><path class="cls-31" d="M9.55 19.76v10.02l-.77.45V19.31l.77.45z"/><path class="cls-32" d="M17.17 34.17l-7.62-4.39V19.76l7.62 4.4v10.01z"/><path class="cls-33" d="M3710 140v9.52l2.23 1.29v-9.52L3710 140zm2.65 1.53l2.23 1.29v9.52l-2.23-1.29v-9.52zm2.65 1.53l1.88 1.09v9.52l-1.88-1.08v-9.52z" transform="translate(-3700 -120)"/><path class="cls-34" d="M10.33 42.53l-.78-.44-.77.44h1.55z"/><path class="cls-35" d="M9.55 32.07v10.02l-.77.44V31.62l.77.45z"/><path class="cls-32" d="M17.17 46.48l-7.62-4.39V32.07l7.62 4.4v10.01z"/><path class="cls-19" d="M50.85 13.8L30.37 1.98 9.89 13.8l20.48 11.83L50.85 13.8z"/><path class="cls-18" d="M30.37 25.63L50.85 13.8 30.37 1.98 9.89 13.8l20.48 11.83z"/><path class="cls-36" d="M30.37 25.63V1.98L9.89 13.8l20.48 11.83z"/><path class="cls-37" d="M49.05 14.85L30.37 4.06 11.69 14.85l18.68 10.78 18.68-10.78z"/><path class="cls-38" d="M30.37 4.06V1.98l1.04 2.68-1.04-.6z"/><path class="cls-39" d="M31.41 4.66l-1.04-.6-18.68 10.79 1.04.6L31.41 4.66z"/><path class="cls-40" d="M3748.69 132.55l-.13-.08v2.09l.13.08v-2.09zm-4-2.31l-.13-.08v2.09l.13.08v-2.09zm-4-2.31l-.13-.08v2.09l.13.08v-2.09zm-4-2.31l-.13-.08v2.09l.13.08v-2.09zm-4-2.31l-.13-.08v2.09l.13.08v-2.1z" transform="translate(-3700 -120)"/><path class="cls-17" d="M28.06 40.46l-7.62-4.4-.77.45 8.39 4.84v-.89z"/><path class="cls-41" d="M21.21 36.51l-.77-.45-.77.45h1.54z"/><path class="cls-42" d="M20.44 26.05v10.01l-.77.45V25.6l.77.45z"/><path class="cls-32" d="M28.06 40.46l-7.62-4.4V26.05l7.62 4.39v10.02z"/><path class="cls-33" d="M3720.87 146.29v9.52l2.23 1.29v-9.52l-2.23-1.29zm2.65 1.53l2.23 1.29v9.52l-2.23-1.29v-9.52zm2.65 1.53l1.88 1.08V160l-1.88-1.08v-9.52z" transform="translate(-3700 -120)"/><path class="cls-43" d="M21.21 48.82l-.77-.45-.77.45h1.54z"/><path class="cls-44" d="M20.44 38.35v10.02l-.77.45V37.91l.77.44z"/><path class="cls-32" d="M28.06 52.77l-7.62-4.4V38.35l7.62 4.4v10.02z"/><path class="cls-33" d="M3720.87 158.6v9.52l2.23 1.29v-9.52l-2.23-1.29zm-10.87-6.28v9.52l2.23 1.29v-9.53l-2.23-1.29zm2.65 1.53l2.23 1.29v9.52l-2.23-1.29v-9.52zm2.65 1.53l1.88 1.09V166l-1.88-1.08v-9.52zm8.23 4.75l2.23 1.29v9.52l-2.23-1.29v-9.52zm2.65 1.53l1.88 1.09v9.52l-1.88-1.09v-9.52z" transform="translate(-3700 -120)"/><path class="cls-45" d="M3720.87 166.44v.19h.33l-.33-.19zm1.2 2.38l1 .59v-.59h-1zm-9.86-6.29v.59l-1-.59h1zm2.65 0v1H3713l-.34-.19v-.84h2.23zm1 1h-.6v-.35l.6.35zm-.6-.56v-.47h.82l-.82.47zm.76 2.34h1.12v.69l-1.12-.64zm-2.65-1.53h1.46v.85l-1.46-.84zm1.89 0h1l.86.5v.79h-1.54l-.34-.19v-1.1zm10.46 5v1h-1.89l-.34-.19v-.84h2.23zm1 1h-.6v-.35l.6.35zm-.6-.56v-.47h.88l-.82.47zm.76 2.34h1.12v.65l-1.12-.64zm-2.65-1.53h1.46v.85l-1.46-.85zm1.89 0h1l.86.5v.79h-1.54l-.34-.19v-1.1z" transform="translate(-3700 -120)"/><path class="cls-46" d="M30.37 27.6l23.9-13.8v27.38l-2.31 1.34v-10.9l-8.39 4.85v10.89l-2.49 1.44V37.91l-8.39 4.84v10.9l-2.32 1.33V27.6z"/><path class="cls-47" d="M3750.27 136.11l.13-.08v5.5l3.87-2.24v.15l-3.87 2.24V147l3.87-2.24v.15l-3.87 2.24v5.34l1.56-.9 2.31-1.34v.15l-11.89 6.86v5.34l1.18-.68v.15l-1.18.68V168l-.13.08v-5.25l-1.18.68v-.11l1.18-.68v-5.34l-11.89 6.86v-.15l3.87-2.24v-5.34l-3.87 2.24v-.15l3.87-2.24V151l-3.87 2.24v-.15l3.87-2.24v-5.5l.13-.08v5.5l3.87-2.24v-5.5l.13-.08v5.5l3.87-2.24v-5.5l.13-.08v5.5l3.88-2.24v-5.5l.13-.08v5.5l3.87-2.24v-5.5zm.06 16.45h-.06v-5.34l-3.87 2.24v5.34l-.13.08v-5.34l-3.88 2.24v5.34l7.95-4.59zm-.06-5.45v-5.34l-3.87 2.24v5.34l3.87-2.24zm-4 2.31v-5.34l-3.88 2.24v5.34l3.88-2.24zm-4 7.8v-5.34l-3.87 2.24v5.34l3.87-2.24zm0-5.49v-5.33l-3.87 2.24V154l3.87-2.24zm-4 7.8v-5.33l-3.87 2.24v5.34h-.06l3.93-2.27zm0-5.49v-5.34l-3.87 2.24v5.34l3.87-2.24zm16 1.73l-2.31 1.34v.15l2.31-1.34v-.15zm-21.59 12.47v.15l-2.31 1.34v-.15z" transform="translate(-3700 -120)"/><path class="cls-48" d="M43.57 34.17l7.62-4.39.77.45-8.39 4.84v-.9z"/><path class="cls-49" d="M51.19 19.76v10.02l.77.45V19.31l-.77.45z"/><path class="cls-32" d="M43.57 34.17l7.62-4.39V19.76l-7.62 4.4v10.01z"/><path class="cls-33" d="M3750.76 140v9.52l-2.23 1.29v-9.52l2.23-1.29zm-2.65 1.53l-2.23 1.29v9.52l2.23-1.29v-9.52zm-2.65 1.53l-1.88 1.09v9.52l1.88-1.08v-9.52z" transform="translate(-3700 -120)"/><path class="cls-50" d="M51.19 32.07v10.02l.77.44V31.62l-.77.45z"/><path class="cls-32" d="M43.57 46.48l7.62-4.39V32.07l-7.62 4.4v10.01z"/><path class="cls-33" d="M3750.76 152.32v9.52l-2.23 1.29v-9.53l2.23-1.29zm-2.65 1.53l-2.23 1.29v9.52l2.23-1.29v-9.52zm-2.65 1.53l-1.88 1.09V166l1.88-1.08v-9.52z" transform="translate(-3700 -120)"/><path class="cls-51" d="M32.69 40.46l7.61-4.4.78.45-8.39 4.84v-.89z"/><path class="cls-52" d="M40.3 26.05v10.01l.78.45V25.6l-.78.45z"/><path class="cls-32" d="M32.69 40.46l7.61-4.4V26.05l-7.61 4.39v10.02z"/><path class="cls-33" d="M3739.87 146.29v9.52l-2.23 1.29v-9.52l2.23-1.29zm-2.65 1.53l-2.23 1.29v9.52l2.23-1.29v-9.52zm-2.65 1.53l-1.88 1.08V160l1.88-1.08v-9.52z" transform="translate(-3700 -120)"/><path class="cls-53" d="M40.3 38.35v10.02l.78.45V37.91l-.78.44z"/><path class="cls-32" d="M32.69 52.77l7.61-4.4V38.35l-7.61 4.4v10.02z"/><path class="cls-33" d="M3739.87 158.6v9.52l-2.23 1.29v-9.52l2.23-1.29zm-2.65 1.53l-2.23 1.29v9.52l2.23-1.29v-9.52zm-2.65 1.53l-1.88 1.09v9.52l1.88-1.09v-9.52z" transform="translate(-3700 -120)"/><path class="cls-33" d="M3739.87 158.6v9.52l-2.23 1.29v-9.52l2.23-1.29zm-2.65 1.53l-2.23 1.29v9.52l2.23-1.29v-9.52zm-2.65 1.53l-1.88 1.09v9.52l1.88-1.09v-9.52z" transform="translate(-3700 -120)"/><path class="cls-45" d="M3732.68 156.61l1.59.93h-1.59v-.93zm0 2.7h1.14l-1.14.66v-.65zm0-1.54h1.88v1.11l-.34.19h-1.54v-1.3zm2.31.16l.6.35-.6.35v-.7zm-14.12-7.7v1h2.23v-.17l-1.47-.86h-.76zm0 1.27v1.3h2.23v-1.3h-2.23zm0 1.54v1.3h2.23V153h-2.23zm1.2 3.48l1 .59v-.59h-1zm-9.86-6.29v.59l-1-.59h1zm2.65 0v1H3713l-.34-.19v-.84h2.23zm2.31 0v1h-1.88v-1h1.88zm-1.12 2.81h1.12v.65l-1.12-.64zm7.47 0h2.23v1.3h-2.23V153zm2.65 0h.3l1.58.93v.38h-1.88V153zm-12.78-1.51h1.46v.85l-1.46-.85zm1.89 0h1.88v1.29h-1.54l-.34-.19v-1.1zm8.23 0h.3l1.93 1.13v.17h-2.23v-1.3zm2.23 5v1h-1.89l-.34-.19v-.84h2.23zm2.31 0v1h-1.88v-1h1.88zm-1.12 2.81h1.12v.66l-1.12-.64zm-2.65-1.53h1.46v.85l-1.46-.85zm1.89 0h1.88v1.29h-1.54l-.34-.19v-1.1z" transform="translate(-3700 -120)"/><path class="cls-54" d="M3712.05 132.55l.13-.08v2.09l-.13.08v-2.09zm4-2.31l.13-.08v2.09l-.13.08v-2.09zm4-2.31l.13-.08v2.09l-.13.08v-2.09zm4-2.31l.13-.08v2.09l-.13.08v-2.09zm4-2.31l.13-.08v2.09l-.13.08v-2.1z" transform="translate(-3700 -120)"/><path class="cls-32" d="M3750.76 147.75l-2.23-1.29v-5.18l2.23-1.29v7.75zm-2.65-1.53l-2.23-1.29v-2.11l2.23-1.29v4.68zm-2.65-1.53l-1.4-.81 1.4-.81v1.62z" transform="translate(-3700 -120)"/><path class="cls-55" d="M3744.48 143.63l1 .56v-1.12l-1 .56zm4.05 2.34v-4.68l2.23-1.29v7.25l-2.23-1.29zm-.43-4.43l-2.23 1.29v1.62l2.23 1.29v-4.19z" transform="translate(-3700 -120)"/><path class="cls-56" d="M3750.76 160.06l-2.23-1.29v-5.17l2.23-1.29v7.75zm-2.65-1.53l-2.23-1.29v-2.11l2.23-1.29v4.68zm-2.65-1.53l-1.4-.81 1.4-.81V157z" transform="translate(-3700 -120)"/><path class="cls-56" d="M3744.48 155.94l1 .56v-1.12l-1 .56zm4.05 2.34v-4.68l2.23-1.29v7.25l-2.23-1.29zm-.43-4.43l-2.23 1.29v1.62l2.23 1.29v-4.19z" transform="translate(-3700 -120)"/><path class="cls-32" d="M3750.76 160.06l-2.23-1.29v-3l2.23 1.29v3zm-2.65-4.56l-1.43-.83-.8.46v2.11l2.23 1.29v-3zm-2.65 1.5l-1.4-.81 1.4-.81V157z" transform="translate(-3700 -120)"/><path class="cls-55" d="M3744.48 155.94l1 .56v-1.12l-1 .56zm6.28 1.09l-2.23-1.29v2.54l2.23 1.29V157zm-2.65-1.53l-1.43-.83-.8.46v1.62l2.23 1.29v-2.54z" transform="translate(-3700 -120)"/><path class="cls-57" d="M27.23 58.77L0 43.05v1.23L27.23 60v-1.23z"/><path class="cls-58" d="M17.17 36.47l-8.39-4.85-2.64 1.53 8.39 4.84 2.64-1.52z"/><path class="cls-32" d="M6.14 33.15v.5l8.39 4.84v-.5l-8.39-4.84z"/><path class="cls-59" d="M17.17 36.47v.5l-2.64 1.52v-.5l2.64-1.52z"/><path class="cls-60" d="M28.06 42.75l-8.39-4.84-2.65 1.52 8.39 4.85 2.65-1.53z"/><path class="cls-32" d="M17.02 39.44v.5l8.39 4.84v-.5l-8.39-4.84z"/><path class="cls-61" d="M28.06 42.75v.5l-2.65 1.53v-.5l2.65-1.53z"/><path class="cls-62" d="M32.3 12.91l-6.76-3.9 3.74-2.16h1.85l6.76 3.9-3.74 2.16H32.3z"/><path class="cls-63" d="M32.3 11.06v1.85l-6.76-3.9V7.16l6.76 3.9z"/><path class="cls-64" d="M36.04 8.9l-3.74 2.16-6.76-3.9L29.28 5l6.76 3.9z"/><path class="cls-65" d="M36.04 8.9l-3.74 2.16v1.85l3.74-2.16V8.9z"/><path class="cls-66" d="M3731.07 129.54a2.59 2.59 0 0 0 2.34 0 .71.71 0 0 0 0-1.35 2.59 2.59 0 0 0-2.34 0 .71.71 0 0 0 0 1.35zm-2.9-1.67a2.59 2.59 0 0 0 2.34 0 .71.71 0 0 0 0-1.35 2.59 2.59 0 0 0-2.34 0 .71.71 0 0 0 0 1.35z" transform="translate(-3700 -120)"/><path class="cls-64" d="M3728.75 127.54a1.31 1.31 0 0 0 1.18 0 .36.36 0 0 0 0-.68 1.31 1.31 0 0 0-1.18 0 .36.36 0 0 0 0 .68zm2.9 1.67a1.31 1.31 0 0 0 1.18 0 .36.36 0 0 0 0-.68 1.31 1.31 0 0 0-1.18 0 .36.36 0 0 0 0 .68z" transform="translate(-3700 -120)"/></svg>