<svg id="Слой_1" data-name="Слой 1" xmlns="http://www.w3.org/2000/svg" viewBox="0 0 70.11 50"><defs><style>.cls-1{fill:#fff}</style></defs><title>phone-icon</title><path class="cls-1" d="M1073.77 4678.87l-2.21-2.21a18.56 18.56 0 0 0 0-26.22l2.22-2.21a21.7 21.7 0 0 1 0 30.65zm-3.83-26.82l-2.21 2.21a13.16 13.16 0 0 1 0 18.57l2.21 2.21a16.29 16.29 0 0 0 0-23zM1066 4656l-2.21 2.21a7.55 7.55 0 0 1 0 10.68l2.21 2.21a10.69 10.69 0 0 0 0-15.1zm-49.65 22.87l2.21-2.21a18.56 18.56 0 0 1 0-26.22l-2.21-2.21a21.68 21.68 0 0 0 0 30.65zm3.82-3.82l2.21-2.21a13.15 13.15 0 0 1 0-18.57l-2.21-2.21a16.28 16.28 0 0 0 0 23zm3.95-3.95l2.21-2.21a7.55 7.55 0 0 1 0-10.68l-2.21-2.21a10.69 10.69 0 0 0 0 15.1zm35.47-27.72v43.25a3.39 3.39 0 0 1-3.38 3.38h-22.29a3.39 3.39 0 0 1-3.38-3.38v-43.25a3.39 3.39 0 0 1 3.38-3.38h22.29a3.39 3.39 0 0 1 3.38 3.38zm-18.5-.54a.41.41 0 0 0 .41.41h7.13a.41.41 0 0 0 0-.82h-7.13a.41.41 0 0 0-.41.41zm5.66 43.78a1.69 1.69 0 1 0-1.69 1.69 1.69 1.69 0 0 0 1.69-1.69zm10.48-41.27h-24.35v38.4h24.35v-38.4zm0 0" transform="translate(-1010 -4640)"/></svg>