<svg id="Слой_1" xmlns="http://www.w3.org/2000/svg" viewBox="0 0 21.7 20"><style>.st0{fill:#203869}</style><path class="st0" d="M20.2 4.6h-2.4v-4c0-.4-.3-.7-.7-.7H4.6c-.3.1-.6.4-.6.8v4H1.5C.7 4.6 0 5.3 0 6.2v8.4c0 .8.7 1.5 1.5 1.5H4v3.3c0 .3.3.6.6.6h12.5c.4 0 .7-.3.7-.7V16h2.4c.8 0 1.5-.7 1.5-1.5V6.2c0-.9-.7-1.6-1.5-1.6zM5.3 1.3h11.1v3.3H5.3V1.3zm11.1 17.4H5.3v-6.5h11.1v6.5zm4-4.1c0 .1-.1.2-.2.2h-2.4v-3.3c0-.4-.3-.7-.7-.7H4.6c-.4 0-.7.3-.7.7v3.3H1.5c-.1 0-.2-.1-.2-.2V6.2c0-.1.1-.2.2-.2h18.6c.1 0 .2.1.2.2v8.4zm0 0"/><path class="st0" d="M18 8.4c0 .5-.4.9-.9.9s-.9-.4-.9-.9.4-.9.9-.9.9.4.9.9zm-4.2 5.1h-6c-.4 0-.7.3-.7.7 0 .4.3.7.7.7h6c.4 0 .7-.3.7-.7 0-.4-.3-.7-.7-.7zm0 2.6h-6c-.4 0-.7.3-.7.7 0 .4.3.7.7.7h6c.4 0 .7-.3.7-.7 0-.4-.3-.7-.7-.7zm0 0"/></svg>