<svg id="Слой_1" data-name="Слой 1" xmlns="http://www.w3.org/2000/svg" xmlns:xlink="http://www.w3.org/1999/xlink" viewBox="0 0 200.07 150"><defs><style>.cls-1,.cls-10,.cls-100,.cls-101,.cls-102,.cls-103,.cls-104,.cls-105,.cls-106,.cls-107,.cls-108,.cls-109,.cls-11,.cls-110,.cls-111,.cls-112,.cls-113,.cls-114,.cls-115,.cls-116,.cls-117,.cls-118,.cls-119,.cls-12,.cls-120,.cls-121,.cls-122,.cls-123,.cls-124,.cls-125,.cls-126,.cls-127,.cls-128,.cls-129,.cls-13,.cls-130,.cls-131,.cls-132,.cls-133,.cls-134,.cls-135,.cls-136,.cls-137,.cls-138,.cls-139,.cls-14,.cls-140,.cls-141,.cls-142,.cls-143,.cls-144,.cls-145,.cls-146,.cls-147,.cls-148,.cls-149,.cls-15,.cls-150,.cls-151,.cls-152,.cls-153,.cls-154,.cls-155,.cls-156,.cls-157,.cls-158,.cls-159,.cls-16,.cls-160,.cls-161,.cls-162,.cls-163,.cls-164,.cls-165,.cls-166,.cls-167,.cls-168,.cls-169,.cls-17,.cls-170,.cls-171,.cls-172,.cls-173,.cls-174,.cls-175,.cls-176,.cls-177,.cls-178,.cls-179,.cls-18,.cls-180,.cls-181,.cls-182,.cls-183,.cls-184,.cls-185,.cls-186,.cls-187,.cls-188,.cls-189,.cls-19,.cls-190,.cls-191,.cls-192,.cls-193,.cls-194,.cls-195,.cls-196,.cls-197,.cls-198,.cls-199,.cls-2,.cls-20,.cls-200,.cls-201,.cls-202,.cls-203,.cls-204,.cls-205,.cls-206,.cls-207,.cls-209,.cls-21,.cls-210,.cls-211,.cls-212,.cls-213,.cls-214,.cls-215,.cls-216,.cls-217,.cls-218,.cls-219,.cls-22,.cls-220,.cls-221,.cls-222,.cls-223,.cls-224,.cls-225,.cls-226,.cls-23,.cls-24,.cls-25,.cls-26,.cls-27,.cls-28,.cls-29,.cls-3,.cls-30,.cls-31,.cls-32,.cls-33,.cls-34,.cls-35,.cls-36,.cls-37,.cls-38,.cls-39,.cls-4,.cls-40,.cls-41,.cls-42,.cls-43,.cls-44,.cls-45,.cls-46,.cls-47,.cls-48,.cls-49,.cls-5,.cls-50,.cls-51,.cls-52,.cls-53,.cls-54,.cls-55,.cls-56,.cls-57,.cls-58,.cls-59,.cls-6,.cls-60,.cls-61,.cls-62,.cls-63,.cls-64,.cls-65,.cls-66,.cls-67,.cls-68,.cls-69,.cls-7,.cls-70,.cls-71,.cls-72,.cls-73,.cls-74,.cls-75,.cls-76,.cls-77,.cls-78,.cls-79,.cls-8,.cls-80,.cls-81,.cls-82,.cls-83,.cls-84,.cls-85,.cls-86,.cls-87,.cls-88,.cls-89,.cls-9,.cls-90,.cls-91,.cls-92,.cls-93,.cls-94,.cls-95,.cls-96,.cls-97,.cls-98,.cls-99{fill-rule:evenodd}.cls-1{fill:url(#GradientFill_62)}.cls-2{fill:url(#GradientFill_62-2)}.cls-3{fill:#a68f8a}.cls-4{fill:url(#GradientFill_17)}.cls-5{fill:url(#GradientFill_62-3)}.cls-6{fill:#f8f4f5}.cls-7{fill:url(#GradientFill_62-4)}.cls-8{fill:url(#GradientFill_62-5)}.cls-9{fill:#d6c9b9}.cls-10{fill:#7f6b4c}.cls-11{fill:url(#GradientFill_374)}.cls-12{fill:url(#GradientFill_119)}.cls-13{fill:url(#GradientFill_330)}.cls-14{fill:url(#GradientFill_330-2)}.cls-15{fill:#928063}.cls-16{fill:url(#GradientFill_368)}.cls-17{fill:#b19d80}.cls-18{fill:url(#GradientFill_330-3)}.cls-19{fill:url(#GradientFill_62-6)}.cls-20{fill:url(#GradientFill_119-2)}.cls-21{fill:#f0e5d5}.cls-22{fill:url(#GradientFill_119-3)}.cls-23{fill:url(#GradientFill_119-4)}.cls-24{fill:url(#GradientFill_119-5)}.cls-25{fill:url(#GradientFill_119-6)}.cls-26{fill:#c9b8aa}.cls-27{fill:#8e7f70}.cls-28{fill:url(#GradientFill_119-7)}.cls-29{fill:#6f5b3e}.cls-30{fill:#7a6648}.cls-31{fill:#766243}.cls-32{fill:#715d3f}.cls-33{fill:#6c583a}.cls-34{fill:url(#GradientFill_366)}.cls-35{fill:url(#GradientFill_367)}.cls-36{fill:url(#GradientFill_125)}.cls-37{fill:url(#GradientFill_365)}.cls-38{fill:url(#GradientFill_158)}.cls-39{fill:url(#GradientFill_119-8)}.cls-40{fill:url(#GradientFill_119-9)}.cls-41{fill:url(#GradientFill_366-2)}.cls-42{fill:url(#GradientFill_367-2)}.cls-43{fill:url(#GradientFill_125-2)}.cls-44{fill:url(#GradientFill_365-2)}.cls-45{fill:url(#GradientFill_158-2)}.cls-46{fill:url(#GradientFill_119-10)}.cls-47{fill:url(#GradientFill_119-11)}.cls-48{fill:url(#GradientFill_366-3)}.cls-49{fill:url(#GradientFill_367-3)}.cls-50{fill:url(#GradientFill_125-3)}.cls-51{fill:url(#GradientFill_365-3)}.cls-52{fill:url(#GradientFill_158-3)}.cls-53{fill:url(#GradientFill_119-12)}.cls-54{fill:url(#GradientFill_119-13)}.cls-55{fill:#1d1d1b}.cls-56{fill:url(#GradientFill_62-7)}.cls-57{fill:url(#GradientFill_62-8)}.cls-58{fill:url(#GradientFill_330-4)}.cls-59{fill:#5e4c4c}.cls-60{fill:url(#GradientFill_375)}.cls-61{fill:url(#GradientFill_62-9)}.cls-62{fill:url(#GradientFill_330-5)}.cls-63{fill:url(#GradientFill_375-2)}.cls-64{fill:url(#GradientFill_368-2)}.cls-65{fill:url(#GradientFill_119-14)}.cls-66{fill:url(#GradientFill_374-2)}.cls-67{fill:url(#GradientFill_119-15)}.cls-68{fill:url(#GradientFill_119-16)}.cls-69{fill:url(#GradientFill_330-6)}.cls-70{fill:url(#GradientFill_119-17)}.cls-71{fill:url(#GradientFill_330-7)}.cls-72{fill:#e6e1e3}.cls-73{fill:url(#GradientFill_125-4)}.cls-74{fill:url(#GradientFill_158-4)}.cls-75{fill:#94723b}.cls-76{fill:url(#GradientFill_330-8)}.cls-77{fill:url(#GradientFill_330-9)}.cls-78{fill:url(#GradientFill_125-5)}.cls-79{fill:url(#GradientFill_158-5)}.cls-80{fill:url(#GradientFill_373)}.cls-81{fill:url(#GradientFill_330-10)}.cls-82{fill:url(#GradientFill_119-18)}.cls-83{fill:url(#GradientFill_330-11)}.cls-84{fill:url(#GradientFill_330-12)}.cls-85{fill:url(#GradientFill_119-19)}.cls-86{fill:url(#GradientFill_119-20)}.cls-87{fill:url(#GradientFill_372)}.cls-88{fill:url(#GradientFill_371)}.cls-89{fill:url(#GradientFill_119-21)}.cls-90{fill:url(#GradientFill_370)}.cls-91{fill:url(#GradientFill_363)}.cls-92{fill:url(#GradientFill_369)}.cls-93{fill:url(#GradientFill_119-22)}.cls-94{fill:url(#GradientFill_62-10)}.cls-95{fill:url(#GradientFill_330-13)}.cls-96{fill:url(#GradientFill_119-23)}.cls-97{fill:url(#GradientFill_330-14)}.cls-98{fill:url(#GradientFill_62-11)}.cls-99{fill:url(#GradientFill_363-2)}.cls-100{fill:url(#GradientFill_119-24)}.cls-101{fill:url(#GradientFill_119-25)}.cls-102{fill:url(#GradientFill_119-26)}.cls-103{fill:url(#GradientFill_119-27)}.cls-104{fill:url(#GradientFill_119-28)}.cls-105{fill:url(#GradientFill_330-15)}.cls-106{fill:url(#GradientFill_368-3)}.cls-107{fill:url(#GradientFill_330-16)}.cls-108{fill:url(#GradientFill_62-12)}.cls-109{fill:url(#GradientFill_119-29)}.cls-110{fill:url(#GradientFill_119-30)}.cls-111{fill:url(#GradientFill_119-31)}.cls-112{fill:url(#GradientFill_119-32)}.cls-113{fill:url(#GradientFill_119-33)}.cls-114{fill:url(#GradientFill_368-4)}.cls-115{fill:url(#GradientFill_368-5)}.cls-116{fill:url(#GradientFill_125-6)}.cls-117{fill:url(#GradientFill_158-6)}.cls-118{fill:#c3a275}.cls-119{fill:url(#GradientFill_119-34)}.cls-120{fill:#b29f82}.cls-121{fill:url(#GradientFill_368-6)}.cls-122{fill:url(#GradientFill_368-10)}.cls-123{fill:url(#GradientFill_368-11)}.cls-124{fill:url(#GradientFill_125-8)}.cls-125{fill:url(#GradientFill_158-8)}.cls-126{fill:url(#GradientFill_119-36)}.cls-127{fill:url(#GradientFill_368-12)}.cls-128{fill:url(#GradientFill_368-13)}.cls-129{fill:url(#GradientFill_368-14)}.cls-130{fill:url(#GradientFill_125-9)}.cls-131{fill:url(#GradientFill_158-9)}.cls-132{fill:url(#GradientFill_119-37)}.cls-133{fill:url(#GradientFill_368-15)}.cls-134{fill:url(#GradientFill_368-19)}.cls-135{fill:url(#GradientFill_368-20)}.cls-136{fill:url(#GradientFill_125-11)}.cls-137{fill:url(#GradientFill_158-11)}.cls-138{fill:url(#GradientFill_119-39)}.cls-139{fill:url(#GradientFill_368-21)}.cls-140{fill:url(#GradientFill_368-22)}.cls-141{fill:url(#GradientFill_368-23)}.cls-142{fill:url(#GradientFill_125-12)}.cls-143{fill:url(#GradientFill_158-12)}.cls-144{fill:url(#GradientFill_119-40)}.cls-145{fill:url(#GradientFill_368-24)}.cls-146{fill:url(#GradientFill_368-28)}.cls-147{fill:url(#GradientFill_368-29)}.cls-148{fill:url(#GradientFill_125-14)}.cls-149{fill:url(#GradientFill_158-14)}.cls-150{fill:url(#GradientFill_119-42)}.cls-151{fill:url(#GradientFill_368-30)}.cls-152{fill:url(#GradientFill_368-34)}.cls-153{fill:url(#GradientFill_368-35)}.cls-154{fill:url(#GradientFill_125-16)}.cls-155{fill:url(#GradientFill_158-16)}.cls-156{fill:url(#GradientFill_119-44)}.cls-157{fill:url(#GradientFill_368-36)}.cls-158{fill:url(#GradientFill_368-37)}.cls-159{fill:url(#GradientFill_368-38)}.cls-160{fill:url(#GradientFill_125-17)}.cls-161{fill:url(#GradientFill_158-17)}.cls-162{fill:url(#GradientFill_119-45)}.cls-163{fill:url(#GradientFill_368-39)}.cls-164{fill:url(#GradientFill_367-4)}.cls-165{fill:url(#GradientFill_125-18)}.cls-166{fill:url(#GradientFill_119-46)}.cls-167{fill:url(#GradientFill_366-4)}.cls-168{fill:url(#GradientFill_365-4)}.cls-169{fill:url(#GradientFill_158-18)}.cls-170{fill:url(#GradientFill_119-47)}.cls-171{fill:url(#GradientFill_367-5)}.cls-172{fill:url(#GradientFill_125-19)}.cls-173{fill:url(#GradientFill_119-48)}.cls-174{fill:url(#GradientFill_366-5)}.cls-175{fill:url(#GradientFill_365-5)}.cls-176{fill:url(#GradientFill_158-19)}.cls-177{fill:url(#GradientFill_119-49)}.cls-178{fill:url(#GradientFill_367-6)}.cls-179{fill:url(#GradientFill_125-20)}.cls-180{fill:url(#GradientFill_119-50)}.cls-181{fill:url(#GradientFill_366-6)}.cls-182{fill:url(#GradientFill_365-6)}.cls-183{fill:url(#GradientFill_158-20)}.cls-184{fill:url(#GradientFill_119-51)}.cls-185{fill:url(#GradientFill_367-7)}.cls-186{fill:url(#GradientFill_125-21)}.cls-187{fill:url(#GradientFill_119-52)}.cls-188{fill:url(#GradientFill_366-7)}.cls-189{fill:url(#GradientFill_365-7)}.cls-190{fill:url(#GradientFill_158-21)}.cls-191{fill:url(#GradientFill_119-53)}.cls-192{fill:url(#GradientFill_367-8)}.cls-193{fill:url(#GradientFill_125-22)}.cls-194{fill:url(#GradientFill_119-54)}.cls-195{fill:url(#GradientFill_366-8)}.cls-196{fill:url(#GradientFill_365-8)}.cls-197{fill:url(#GradientFill_158-22)}.cls-198{fill:url(#GradientFill_119-55)}.cls-199{fill:url(#GradientFill_367-9)}.cls-200{fill:url(#GradientFill_125-23)}.cls-201{fill:url(#GradientFill_119-56)}.cls-202{fill:url(#GradientFill_366-9)}.cls-203{fill:url(#GradientFill_365-9)}.cls-204{fill:url(#GradientFill_158-23)}.cls-205{fill:url(#GradientFill_119-57)}.cls-206{fill:url(#GradientFill_119-58)}.cls-207{fill:url(#GradientFill_119-59)}.cls-208{fill:#e3d7c5}.cls-209{fill:url(#GradientFill_119-60)}.cls-210{fill:url(#GradientFill_330-17)}.cls-211{fill:url(#GradientFill_330-18)}.cls-212{fill:url(#GradientFill_330-19)}.cls-213{fill:url(#GradientFill_330-20)}.cls-214{fill:url(#GradientFill_363-3)}.cls-215{fill:url(#GradientFill_363-4)}.cls-216{fill:url(#GradientFill_363-5)}.cls-217{fill:url(#GradientFill_330-21)}.cls-218{fill:url(#GradientFill_363-6)}.cls-219{fill:url(#GradientFill_363-7)}.cls-220{fill:url(#GradientFill_17-2)}.cls-221{fill:url(#GradientFill_62-13)}.cls-222{fill:url(#GradientFill_62-14)}.cls-223{fill:url(#GradientFill_17-3)}.cls-224{fill:url(#GradientFill_330-22)}.cls-225{fill:url(#GradientFill_329)}.cls-226{fill:#4f4f45}</style><linearGradient id="GradientFill_62" x1="82.11" y1="48.48" x2="162.14" y2="48.48" gradientUnits="userSpaceOnUse"><stop offset="0" stop-color="#98898c"/><stop offset=".43" stop-color="#a7999d"/><stop offset="1" stop-color="#b2a3a5"/></linearGradient><linearGradient id="GradientFill_62-2" y1="100.41" x2="200.07" y2="100.41" xlink:href="#GradientFill_62"/><linearGradient id="GradientFill_17" x1="4.26" y1="112.04" x2="-1.79" y2="122.53" gradientUnits="userSpaceOnUse"><stop offset="0" stop-color="#c7b9bc"/><stop offset="1" stop-color="#cebcbd"/></linearGradient><linearGradient id="GradientFill_62-3" x1="117.45" y1="68.81" x2="104.22" y2="44.95" xlink:href="#GradientFill_62"/><linearGradient id="GradientFill_62-4" x1="77.14" y1="43.08" x2="136.64" y2="61.27" xlink:href="#GradientFill_62"/><linearGradient id="GradientFill_62-5" x1="115.02" y1="103.1" x2="153.58" y2="126.28" xlink:href="#GradientFill_62"/><linearGradient id="GradientFill_374" x1="110.48" y1="35.97" x2="104.9" y2="25.91" gradientUnits="userSpaceOnUse"><stop offset="0" stop-color="#7f6b4c"/><stop offset="1" stop-color="#695439"/></linearGradient><linearGradient id="GradientFill_119" x1="101.5" y1="19.52" x2="109.77" y2="31.34" gradientUnits="userSpaceOnUse"><stop offset="0" stop-color="#9f9082"/><stop offset="1" stop-color="#94877a"/></linearGradient><linearGradient id="GradientFill_330" x1="73.65" y1="36.79" x2="86.33" y2="15.69" gradientUnits="userSpaceOnUse"><stop offset="0" stop-color="#887554"/><stop offset="1" stop-color="#695439"/></linearGradient><linearGradient id="GradientFill_330-2" x1="61.32" y1="41.36" x2="63.15" y2="41.36" xlink:href="#GradientFill_330"/><linearGradient id="GradientFill_368" x1="64.75" y1="41.36" x2="62.07" y2="41.36" gradientUnits="userSpaceOnUse"><stop offset="0" stop-color="#6d5e45"/><stop offset="1" stop-color="#53422d"/></linearGradient><linearGradient id="GradientFill_330-3" x1="485.32" y1="2184.02" x2="499.58" y2="2160.27" xlink:href="#GradientFill_330"/><linearGradient id="GradientFill_62-6" x1="62.08" y1="54.9" x2="62.82" y2="57.51" xlink:href="#GradientFill_62"/><linearGradient id="GradientFill_119-2" x1="58.04" y1="47.29" x2="63.36" y2="56.14" xlink:href="#GradientFill_119"/><linearGradient id="GradientFill_119-3" x1="63.65" y1="55.34" x2="62.37" y2="55.34" xlink:href="#GradientFill_119"/><linearGradient id="GradientFill_119-4" x1="118.33" y1="70.03" x2="103.77" y2="45.81" xlink:href="#GradientFill_119"/><linearGradient id="GradientFill_119-5" x1="64.14" y1="55.33" x2="62.19" y2="52.09" xlink:href="#GradientFill_119"/><linearGradient id="GradientFill_119-6" x1="104.03" y1="48.33" x2="109.4" y2="57.27" xlink:href="#GradientFill_119"/><linearGradient id="GradientFill_119-7" x1="88.85" y1="22.17" x2="80.31" y2="9.97" xlink:href="#GradientFill_119"/><linearGradient id="GradientFill_366" x1="118.64" y1="29.98" x2="120.23" y2="29.98" gradientUnits="userSpaceOnUse"><stop offset="0" stop-color="#806d4e"/><stop offset="1" stop-color="#94877a"/></linearGradient><linearGradient id="GradientFill_367" x1="122.06" y1="27.61" x2="122.75" y2="66.78" gradientUnits="userSpaceOnUse"><stop offset="0" stop-color="#6c583a"/><stop offset="1" stop-color="#7b6547"/></linearGradient><linearGradient id="GradientFill_125" x1="91.25" y1="40.51" x2="126.45" y2="36.19" gradientUnits="userSpaceOnUse"><stop offset="0" stop-color="#bdb3b7"/><stop offset="1" stop-color="#afa3a7"/></linearGradient><linearGradient id="GradientFill_365" x1="118.65" y1="39.62" x2="121.07" y2="43.99" gradientUnits="userSpaceOnUse"><stop offset="0" stop-color="#8d7a5c"/><stop offset="1" stop-color="#756148"/></linearGradient><linearGradient id="GradientFill_158" x1="114" y1="37.4" x2="128.4" y2="36.39" gradientUnits="userSpaceOnUse"><stop offset="0" stop-color="#724f2a"/><stop offset="1" stop-color="#3e2c0d"/></linearGradient><linearGradient id="GradientFill_119-8" x1="119.93" y1="24.04" x2="124.25" y2="30.21" xlink:href="#GradientFill_119"/><linearGradient id="GradientFill_119-9" x1="122.43" y1="27.52" x2="122.22" y2="27.15" xlink:href="#GradientFill_119"/><linearGradient id="GradientFill_366-2" x1="110.02" y1="34.96" x2="111.61" y2="34.96" xlink:href="#GradientFill_366"/><linearGradient id="GradientFill_367-2" x1="113.44" y1="32.58" x2="114.13" y2="71.76" xlink:href="#GradientFill_367"/><linearGradient id="GradientFill_125-2" x1="82.63" y1="45.49" x2="117.83" y2="41.17" xlink:href="#GradientFill_125"/><linearGradient id="GradientFill_365-2" x1="110.03" y1="44.6" x2="112.45" y2="48.97" xlink:href="#GradientFill_365"/><linearGradient id="GradientFill_158-2" x1="105.38" y1="42.38" x2="119.78" y2="41.37" xlink:href="#GradientFill_158"/><linearGradient id="GradientFill_119-10" x1="111.31" y1="29.02" x2="115.63" y2="35.19" xlink:href="#GradientFill_119"/><linearGradient id="GradientFill_119-11" x1="113.81" y1="32.5" x2="113.6" y2="32.13" xlink:href="#GradientFill_119"/><linearGradient id="GradientFill_366-3" x1="101.4" y1="39.93" x2="102.99" y2="39.93" xlink:href="#GradientFill_366"/><linearGradient id="GradientFill_367-3" x1="104.82" y1="37.56" x2="105.51" y2="76.73" xlink:href="#GradientFill_367"/><linearGradient id="GradientFill_125-3" x1="74" y1="50.47" x2="109.21" y2="46.15" xlink:href="#GradientFill_125"/><linearGradient id="GradientFill_365-3" x1="101.41" y1="49.57" x2="103.83" y2="53.94" xlink:href="#GradientFill_365"/><linearGradient id="GradientFill_158-3" x1="96.76" y1="47.35" x2="111.16" y2="46.35" xlink:href="#GradientFill_158"/><linearGradient id="GradientFill_119-12" x1="102.69" y1="33.99" x2="107.01" y2="40.16" xlink:href="#GradientFill_119"/><linearGradient id="GradientFill_119-13" x1="105.19" y1="37.47" x2="104.98" y2="37.11" xlink:href="#GradientFill_119"/><linearGradient id="GradientFill_62-7" x1="54.27" y1="118.09" x2="61.83" y2="122.63" xlink:href="#GradientFill_62"/><linearGradient id="GradientFill_62-8" x1="51.52" y1="90.92" x2="57.38" y2="101.06" xlink:href="#GradientFill_62"/><linearGradient id="GradientFill_330-4" x1="16.75" y1="63.53" x2="18.58" y2="63.53" xlink:href="#GradientFill_330"/><linearGradient id="GradientFill_375" x1="101.82" y1="94.73" x2="89.06" y2="94.73" gradientUnits="userSpaceOnUse"><stop offset="0" stop-color="#887554"/><stop offset="1" stop-color="#544129"/></linearGradient><linearGradient id="GradientFill_62-9" x1="89.97" y1="113.01" x2="93.23" y2="118.65" xlink:href="#GradientFill_62"/><linearGradient id="GradientFill_330-5" x1="38.76" y1="74.76" x2="54.94" y2="74.76" xlink:href="#GradientFill_330"/><linearGradient id="GradientFill_375-2" x1="70.22" y1="74.15" x2="49.01" y2="74.15" xlink:href="#GradientFill_375"/><linearGradient id="GradientFill_368-2" x1="20.18" y1="63.53" x2="17.5" y2="63.53" xlink:href="#GradientFill_368"/><linearGradient id="GradientFill_119-14" x1="63.51" y1="53.4" x2="55.72" y2="64.12" xlink:href="#GradientFill_119"/><linearGradient id="GradientFill_374-2" x1="140.9" y1="97.4" x2="135.09" y2="86.91" xlink:href="#GradientFill_374"/><linearGradient id="GradientFill_119-15" x1="135.8" y1="86.64" x2="143.77" y2="98.03" xlink:href="#GradientFill_119"/><linearGradient id="GradientFill_119-16" x1="98.54" y1="73.27" x2="90.79" y2="83.93" xlink:href="#GradientFill_119"/><linearGradient id="GradientFill_330-6" x1="69.87" y1="70.19" x2="83.86" y2="46.9" xlink:href="#GradientFill_330"/><linearGradient id="GradientFill_119-17" x1="475.98" y1="2233.88" x2="471.12" y2="2233.88" xlink:href="#GradientFill_119"/><linearGradient id="GradientFill_330-7" x1="66.28" y1="98.45" x2="62.97" y2="98.45" xlink:href="#GradientFill_330"/><linearGradient id="GradientFill_125-4" x1="79.81" y1="98.67" x2="54.32" y2="98.67" xlink:href="#GradientFill_125"/><linearGradient id="GradientFill_158-4" x1="480.37" y1="2255.87" x2="483.46" y2="2246.9" xlink:href="#GradientFill_158"/><linearGradient id="GradientFill_330-8" x1="469.78" y1="2248.44" x2="476.53" y2="2242.98" xlink:href="#GradientFill_330"/><linearGradient id="GradientFill_330-9" x1="497.28" y1="2248.02" x2="455.12" y2="2248.02" xlink:href="#GradientFill_330"/><linearGradient id="GradientFill_125-5" x1="489.81" y1="2223.47" x2="464.32" y2="2223.47" xlink:href="#GradientFill_125"/><linearGradient id="GradientFill_158-5" x1="488.6" y1="2242.54" x2="475.72" y2="2217.27" xlink:href="#GradientFill_158"/><linearGradient id="GradientFill_373" x1="485.63" y1="2241.57" x2="474.74" y2="2209.94" gradientUnits="userSpaceOnUse"><stop offset="0" stop-color="#493414"/><stop offset="1" stop-color="#2e5222"/></linearGradient><linearGradient id="GradientFill_330-10" x1="478.94" y1="2229.36" x2="491.69" y2="2208.14" xlink:href="#GradientFill_330"/><linearGradient id="GradientFill_119-18" x1="66.61" y1="71" x2="64.65" y2="68.2" xlink:href="#GradientFill_119"/><linearGradient id="GradientFill_330-11" x1="65.19" y1="83.98" x2="67.15" y2="83.98" xlink:href="#GradientFill_330"/><linearGradient id="GradientFill_330-12" x1="82.58" y1="92.03" x2="93.36" y2="92.03" xlink:href="#GradientFill_330"/><linearGradient id="GradientFill_119-19" x1="64.28" y1="68.53" x2="65.91" y2="70.84" xlink:href="#GradientFill_119"/><linearGradient id="GradientFill_119-20" x1="85.74" y1="74.12" x2="93.32" y2="84.94" xlink:href="#GradientFill_119"/><linearGradient id="GradientFill_372" x1="492.4" y1="2258.47" x2="505.53" y2="2241.66" gradientUnits="userSpaceOnUse"><stop offset="0" stop-color="#9f9082"/><stop offset="1" stop-color="#807465"/></linearGradient><linearGradient id="GradientFill_371" x1="59.08" y1="97.62" x2="65.07" y2="88.74" gradientUnits="userSpaceOnUse"><stop offset="0" stop-color="#d6c9b9"/><stop offset="1" stop-color="#ac9f90"/></linearGradient><linearGradient id="GradientFill_119-21" x1="61.77" y1="98.18" x2="64.94" y2="98.18" xlink:href="#GradientFill_119"/><linearGradient id="GradientFill_370" x1="85.65" y1="101.35" x2="76.2" y2="119.9" gradientUnits="userSpaceOnUse"><stop offset="0" stop-color="#9f9082"/><stop offset="1" stop-color="#d6c9b9"/></linearGradient><linearGradient id="GradientFill_363" x1="94.8" y1="110.18" x2="84.47" y2="110.18" gradientUnits="userSpaceOnUse"><stop offset="0" stop-color="#807465"/><stop offset="1" stop-color="#94877a"/></linearGradient><linearGradient id="GradientFill_369" x1="91.73" y1="70.81" x2="83.8" y2="71.51" gradientUnits="userSpaceOnUse"><stop offset="0" stop-color="#a79a8d"/><stop offset="1" stop-color="#9f9486"/></linearGradient><linearGradient id="GradientFill_119-22" x1="69.09" y1="85.34" x2="77.08" y2="96.75" xlink:href="#GradientFill_119"/><linearGradient id="GradientFill_62-10" x1="63.57" y1="101.64" x2="65.05" y2="104.2" xlink:href="#GradientFill_62"/><linearGradient id="GradientFill_330-13" x1="101.27" y1="104.21" x2="114.02" y2="82.99" xlink:href="#GradientFill_330"/><linearGradient id="GradientFill_119-23" x1="45.45" y1="54.01" x2="53.05" y2="64.85" xlink:href="#GradientFill_119"/><linearGradient id="GradientFill_330-14" x1="437.68" y1="2207.72" x2="451.78" y2="2184.26" xlink:href="#GradientFill_330"/><linearGradient id="GradientFill_62-11" x1="17.51" y1="80.63" x2="18.25" y2="83.24" xlink:href="#GradientFill_62"/><linearGradient id="GradientFill_363-2" x1="62.61" y1="91.12" x2="43.04" y2="92.49" xlink:href="#GradientFill_363"/><linearGradient id="GradientFill_119-24" x1="65.53" y1="88.44" x2="63.91" y2="85.74" xlink:href="#GradientFill_119"/><linearGradient id="GradientFill_119-25" x1="13.47" y1="73.02" x2="18.79" y2="81.88" xlink:href="#GradientFill_119"/><linearGradient id="GradientFill_119-26" x1="19.08" y1="81.07" x2="17.8" y2="81.07" xlink:href="#GradientFill_119"/><linearGradient id="GradientFill_119-27" x1="58.25" y1="105.07" x2="43.7" y2="80.86" xlink:href="#GradientFill_119"/><linearGradient id="GradientFill_119-28" x1="19.56" y1="81.06" x2="17.62" y2="77.83" xlink:href="#GradientFill_119"/><linearGradient id="GradientFill_330-15" x1="92.13" y1="107.05" x2="93.95" y2="107.05" xlink:href="#GradientFill_330"/><linearGradient id="GradientFill_368-3" x1="95.56" y1="107.05" x2="92.87" y2="107.05" xlink:href="#GradientFill_368"/><linearGradient id="GradientFill_330-16" x1="513.06" y1="2251.24" x2="527.15" y2="2227.78" xlink:href="#GradientFill_330"/><linearGradient id="GradientFill_62-12" x1="92.88" y1="124.15" x2="93.63" y2="126.76" xlink:href="#GradientFill_62"/><linearGradient id="GradientFill_119-29" x1="88.84" y1="116.54" x2="94.17" y2="125.39" xlink:href="#GradientFill_119"/><linearGradient id="GradientFill_119-30" x1="94.45" y1="124.59" x2="93.17" y2="124.59" xlink:href="#GradientFill_119"/><linearGradient id="GradientFill_119-31" x1="149.13" y1="139.28" x2="134.58" y2="115.06" xlink:href="#GradientFill_119"/><linearGradient id="GradientFill_119-32" x1="94.94" y1="124.58" x2="92.99" y2="121.34" xlink:href="#GradientFill_119"/><linearGradient id="GradientFill_119-33" x1="135.64" y1="118.93" x2="141.24" y2="128.24" xlink:href="#GradientFill_119"/><linearGradient id="GradientFill_368-4" x1="23.22" y1="56.53" x2="24.38" y2="54.59" xlink:href="#GradientFill_368"/><linearGradient id="GradientFill_368-5" x1="19.28" y1="60.46" x2="21.87" y2="60.23" xlink:href="#GradientFill_368"/><linearGradient id="GradientFill_125-6" x1="23.21" y1="58.5" x2="19" y2="58.5" xlink:href="#GradientFill_125"/><linearGradient id="GradientFill_158-6" x1="436.25" y1="2214.27" x2="430.85" y2="2203.66" xlink:href="#GradientFill_158"/><linearGradient id="GradientFill_119-34" x1="27.46" y1="57.65" x2="26.87" y2="56.81" xlink:href="#GradientFill_119"/><linearGradient id="GradientFill_368-6" x1="21.13" y1="63.43" x2="21.13" y2="62.24" xlink:href="#GradientFill_368"/><linearGradient id="GradientFill_368-10" x1="35.49" y1="63.62" x2="36.65" y2="61.68" xlink:href="#GradientFill_368"/><linearGradient id="GradientFill_368-11" x1="31.74" y1="67.66" x2="34.33" y2="67.43" xlink:href="#GradientFill_368"/><linearGradient id="GradientFill_125-8" x1="35.66" y1="65.7" x2="31.46" y2="65.7" xlink:href="#GradientFill_125"/><linearGradient id="GradientFill_158-8" x1="448.71" y1="2221.47" x2="443.3" y2="2210.86" xlink:href="#GradientFill_158"/><linearGradient id="GradientFill_119-36" x1="39.92" y1="64.85" x2="39.33" y2="64.01" xlink:href="#GradientFill_119"/><linearGradient id="GradientFill_368-12" x1="33.58" y1="70.63" x2="33.58" y2="69.44" xlink:href="#GradientFill_368"/><linearGradient id="GradientFill_368-13" x1="23.22" y1="70.56" x2="24.38" y2="68.62" xlink:href="#GradientFill_368"/><linearGradient id="GradientFill_368-14" x1="19.28" y1="74.49" x2="21.87" y2="74.26" xlink:href="#GradientFill_368"/><linearGradient id="GradientFill_125-9" x1="23.21" y1="72.53" x2="19" y2="72.53" xlink:href="#GradientFill_125"/><linearGradient id="GradientFill_158-9" x1="436.25" y1="2228.3" x2="430.85" y2="2217.69" xlink:href="#GradientFill_158"/><linearGradient id="GradientFill_119-37" x1="27.46" y1="71.68" x2="26.87" y2="70.84" xlink:href="#GradientFill_119"/><linearGradient id="GradientFill_368-15" x1="21.13" y1="77.46" x2="21.13" y2="76.27" xlink:href="#GradientFill_368"/><linearGradient id="GradientFill_368-19" x1="35.49" y1="77.65" x2="36.65" y2="75.71" xlink:href="#GradientFill_368"/><linearGradient id="GradientFill_368-20" x1="31.74" y1="81.69" x2="34.33" y2="81.46" xlink:href="#GradientFill_368"/><linearGradient id="GradientFill_125-11" x1="35.66" y1="79.73" x2="31.46" y2="79.73" xlink:href="#GradientFill_125"/><linearGradient id="GradientFill_158-11" x1="448.71" y1="2235.5" x2="443.3" y2="2224.9" xlink:href="#GradientFill_158"/><linearGradient id="GradientFill_119-39" x1="39.92" y1="78.88" x2="39.33" y2="78.04" xlink:href="#GradientFill_119"/><linearGradient id="GradientFill_368-21" x1="33.58" y1="84.66" x2="33.58" y2="83.47" xlink:href="#GradientFill_368"/><linearGradient id="GradientFill_368-22" x1="98.59" y1="100.04" x2="99.75" y2="98.11" xlink:href="#GradientFill_368"/><linearGradient id="GradientFill_368-23" x1="94.66" y1="103.97" x2="97.25" y2="103.75" xlink:href="#GradientFill_368"/><linearGradient id="GradientFill_125-12" x1="98.58" y1="102.02" x2="94.38" y2="102.02" xlink:href="#GradientFill_125"/><linearGradient id="GradientFill_158-12" x1="511.63" y1="2257.79" x2="506.22" y2="2247.18" xlink:href="#GradientFill_158"/><linearGradient id="GradientFill_119-40" x1="102.84" y1="101.17" x2="102.25" y2="100.32" xlink:href="#GradientFill_119"/><linearGradient id="GradientFill_368-24" x1="96.5" y1="106.94" x2="96.5" y2="105.75" xlink:href="#GradientFill_368"/><linearGradient id="GradientFill_368-28" x1="98.59" y1="114.07" x2="99.75" y2="112.14" xlink:href="#GradientFill_368"/><linearGradient id="GradientFill_368-29" x1="94.66" y1="118.01" x2="97.25" y2="117.78" xlink:href="#GradientFill_368"/><linearGradient id="GradientFill_125-14" x1="98.58" y1="116.05" x2="94.38" y2="116.05" xlink:href="#GradientFill_125"/><linearGradient id="GradientFill_158-14" x1="511.63" y1="2271.82" x2="506.22" y2="2261.21" xlink:href="#GradientFill_158"/><linearGradient id="GradientFill_119-42" x1="102.84" y1="115.2" x2="102.25" y2="114.35" xlink:href="#GradientFill_119"/><linearGradient id="GradientFill_368-30" x1="96.5" y1="120.97" x2="96.5" y2="119.78" xlink:href="#GradientFill_368"/><linearGradient id="GradientFill_368-34" x1="110.86" y1="107.13" x2="112.02" y2="105.2" xlink:href="#GradientFill_368"/><linearGradient id="GradientFill_368-35" x1="107.11" y1="111.18" x2="109.7" y2="110.95" xlink:href="#GradientFill_368"/><linearGradient id="GradientFill_125-16" x1="111.04" y1="109.22" x2="106.83" y2="109.22" xlink:href="#GradientFill_125"/><linearGradient id="GradientFill_158-16" x1="524.08" y1="2264.99" x2="518.68" y2="2254.38" xlink:href="#GradientFill_158"/><linearGradient id="GradientFill_119-44" x1="115.29" y1="108.37" x2="114.7" y2="107.53" xlink:href="#GradientFill_119"/><linearGradient id="GradientFill_368-36" x1="108.95" y1="114.15" x2="108.95" y2="112.95" xlink:href="#GradientFill_368"/><linearGradient id="GradientFill_368-37" x1="110.86" y1="121.16" x2="112.02" y2="119.23" xlink:href="#GradientFill_368"/><linearGradient id="GradientFill_368-38" x1="107.11" y1="125.21" x2="109.7" y2="124.98" xlink:href="#GradientFill_368"/><linearGradient id="GradientFill_125-17" x1="111.04" y1="123.25" x2="106.83" y2="123.25" xlink:href="#GradientFill_125"/><linearGradient id="GradientFill_158-17" x1="524.08" y1="2279.02" x2="518.68" y2="2268.41" xlink:href="#GradientFill_158"/><linearGradient id="GradientFill_119-45" x1="115.29" y1="122.4" x2="114.7" y2="121.56" xlink:href="#GradientFill_119"/><linearGradient id="GradientFill_368-39" x1="108.95" y1="128.18" x2="108.95" y2="126.98" xlink:href="#GradientFill_368"/><linearGradient id="GradientFill_367-4" x1="139.35" y1="97.01" x2="139.51" y2="106.3" xlink:href="#GradientFill_367"/><linearGradient id="GradientFill_125-18" x1="139.62" y1="102.98" x2="143.83" y2="102.98" xlink:href="#GradientFill_125"/><linearGradient id="GradientFill_119-46" x1="139.73" y1="97.44" x2="139.51" y2="97.07" xlink:href="#GradientFill_119"/><linearGradient id="GradientFill_366-4" x1="134.73" y1="100.36" x2="136.32" y2="100.36" xlink:href="#GradientFill_366"/><linearGradient id="GradientFill_365-4" x1="139.06" y1="107.74" x2="141.53" y2="112.19" xlink:href="#GradientFill_365"/><linearGradient id="GradientFill_158-18" x1="539.39" y1="2258.5" x2="552.17" y2="2251.12" xlink:href="#GradientFill_158"/><linearGradient id="GradientFill_119-47" x1="137.27" y1="94.03" x2="141.59" y2="100.2" xlink:href="#GradientFill_119"/><linearGradient id="GradientFill_367-5" x1="139.35" y1="111.04" x2="139.51" y2="120.33" xlink:href="#GradientFill_367"/><linearGradient id="GradientFill_125-19" x1="139.62" y1="117.01" x2="143.83" y2="117.01" xlink:href="#GradientFill_125"/><linearGradient id="GradientFill_119-48" x1="139.73" y1="111.47" x2="139.51" y2="111.11" xlink:href="#GradientFill_119"/><linearGradient id="GradientFill_366-5" x1="134.73" y1="114.39" x2="136.32" y2="114.39" xlink:href="#GradientFill_366"/><linearGradient id="GradientFill_365-5" x1="139.06" y1="121.77" x2="141.53" y2="126.22" xlink:href="#GradientFill_365"/><linearGradient id="GradientFill_158-19" x1="539.39" y1="2272.53" x2="552.17" y2="2265.15" xlink:href="#GradientFill_158"/><linearGradient id="GradientFill_119-49" x1="137.27" y1="108.06" x2="141.59" y2="114.23" xlink:href="#GradientFill_119"/><linearGradient id="GradientFill_367-6" x1="152.05" y1="89.67" x2="152.22" y2="98.96" xlink:href="#GradientFill_367"/><linearGradient id="GradientFill_125-20" x1="152.33" y1="95.65" x2="156.53" y2="95.65" xlink:href="#GradientFill_125"/><linearGradient id="GradientFill_119-50" x1="152.43" y1="90.11" x2="152.22" y2="89.74" xlink:href="#GradientFill_119"/><linearGradient id="GradientFill_366-6" x1="147.43" y1="93.03" x2="149.03" y2="93.03" xlink:href="#GradientFill_366"/><linearGradient id="GradientFill_365-6" x1="151.77" y1="100.4" x2="154.24" y2="104.85" xlink:href="#GradientFill_365"/><linearGradient id="GradientFill_158-20" x1="552.09" y1="2251.17" x2="564.87" y2="2243.79" xlink:href="#GradientFill_158"/><linearGradient id="GradientFill_119-51" x1="149.98" y1="86.69" x2="154.3" y2="92.86" xlink:href="#GradientFill_119"/><linearGradient id="GradientFill_367-7" x1="152.05" y1="103.7" x2="152.22" y2="112.99" xlink:href="#GradientFill_367"/><linearGradient id="GradientFill_125-21" x1="152.33" y1="109.68" x2="156.53" y2="109.68" xlink:href="#GradientFill_125"/><linearGradient id="GradientFill_119-52" x1="152.43" y1="104.14" x2="152.22" y2="103.77" xlink:href="#GradientFill_119"/><linearGradient id="GradientFill_366-7" x1="147.43" y1="107.06" x2="149.03" y2="107.06" xlink:href="#GradientFill_366"/><linearGradient id="GradientFill_365-7" x1="151.77" y1="114.43" x2="154.24" y2="118.89" xlink:href="#GradientFill_365"/><linearGradient id="GradientFill_158-21" x1="552.09" y1="2265.2" x2="564.87" y2="2257.82" xlink:href="#GradientFill_158"/><linearGradient id="GradientFill_119-53" x1="149.98" y1="100.72" x2="154.3" y2="106.89" xlink:href="#GradientFill_119"/><linearGradient id="GradientFill_367-8" x1="126.64" y1="104.35" x2="126.8" y2="113.63" xlink:href="#GradientFill_367"/><linearGradient id="GradientFill_125-22" x1="126.91" y1="110.32" x2="131.12" y2="110.32" xlink:href="#GradientFill_125"/><linearGradient id="GradientFill_119-54" x1="127.02" y1="104.78" x2="126.81" y2="104.41" xlink:href="#GradientFill_119"/><linearGradient id="GradientFill_366-8" x1="122.02" y1="107.7" x2="123.61" y2="107.7" xlink:href="#GradientFill_366"/><linearGradient id="GradientFill_365-8" x1="126.36" y1="115.07" x2="128.83" y2="119.53" xlink:href="#GradientFill_365"/><linearGradient id="GradientFill_158-22" x1="526.68" y1="2265.84" x2="539.46" y2="2258.46" xlink:href="#GradientFill_158"/><linearGradient id="GradientFill_119-55" x1="124.57" y1="101.36" x2="128.89" y2="107.53" xlink:href="#GradientFill_119"/><linearGradient id="GradientFill_367-9" x1="126.64" y1="118.38" x2="126.8" y2="127.66" xlink:href="#GradientFill_367"/><linearGradient id="GradientFill_125-23" x1="126.91" y1="124.35" x2="131.12" y2="124.35" xlink:href="#GradientFill_125"/><linearGradient id="GradientFill_119-56" x1="127.02" y1="118.81" x2="126.81" y2="118.44" xlink:href="#GradientFill_119"/><linearGradient id="GradientFill_366-9" x1="122.02" y1="121.73" x2="123.61" y2="121.73" xlink:href="#GradientFill_366"/><linearGradient id="GradientFill_365-9" x1="126.36" y1="129.1" x2="128.83" y2="133.56" xlink:href="#GradientFill_365"/><linearGradient id="GradientFill_158-23" x1="526.68" y1="2279.87" x2="539.46" y2="2272.49" xlink:href="#GradientFill_158"/><linearGradient id="GradientFill_119-57" x1="124.57" y1="115.39" x2="128.89" y2="121.56" xlink:href="#GradientFill_119"/><linearGradient id="GradientFill_119-58" x1="110.92" y1="97.34" x2="102.56" y2="85.4" xlink:href="#GradientFill_119"/><linearGradient id="GradientFill_119-59" x1="56.87" y1="59.72" x2="34.56" y2="26.64" xlink:href="#GradientFill_119"/><linearGradient id="GradientFill_119-60" x1="88.62" y1="68.81" x2="92.68" y2="74.6" xlink:href="#GradientFill_119"/><linearGradient id="GradientFill_330-17" x1="49.61" y1="111.33" x2="50.72" y2="109.4" xlink:href="#GradientFill_330"/><linearGradient id="GradientFill_330-18" x1="458.46" y1="2266.57" x2="461.15" y2="2261.92" xlink:href="#GradientFill_330"/><linearGradient id="GradientFill_330-19" x1="52.37" y1="105.89" x2="64.61" y2="127.09" xlink:href="#GradientFill_330"/><linearGradient id="GradientFill_330-20" x1="60.95" y1="118.99" x2="58.24" y2="114.82" xlink:href="#GradientFill_330"/><linearGradient id="GradientFill_363-3" x1="42.19" y1="109.54" x2="41.34" y2="109.59" xlink:href="#GradientFill_363"/><linearGradient id="GradientFill_363-4" x1="58.07" y1="114.64" x2="57.1" y2="114.7" xlink:href="#GradientFill_363"/><linearGradient id="GradientFill_363-5" x1="61.17" y1="119.68" x2="60.21" y2="119.75" xlink:href="#GradientFill_363"/><linearGradient id="GradientFill_330-21" x1="49.49" y1="121.68" x2="49.99" y2="112.13" xlink:href="#GradientFill_330"/><linearGradient id="GradientFill_363-6" x1="463.21" y1="2267.78" x2="472.43" y2="2267.13" xlink:href="#GradientFill_363"/><linearGradient id="GradientFill_363-7" x1="54.12" y1="120.15" x2="57.41" y2="119.92" xlink:href="#GradientFill_363"/><linearGradient id="GradientFill_17-2" x1="89.47" y1="160.56" x2="82.83" y2="172.06" xlink:href="#GradientFill_17"/><linearGradient id="GradientFill_62-13" x1="149.54" y1="137.31" x2="136.31" y2="113.45" xlink:href="#GradientFill_62"/><linearGradient id="GradientFill_62-14" x1="120.99" y1="208.75" x2="119.16" y2="205.58" xlink:href="#GradientFill_62"/><linearGradient id="GradientFill_17-3" x1="40.34" y1="131.67" x2="33.24" y2="143.96" xlink:href="#GradientFill_17"/><linearGradient id="GradientFill_330-22" x1="483.55" y1="2220.53" x2="482.89" y2="2215.21" xlink:href="#GradientFill_330"/><linearGradient id="GradientFill_329" x1="483.05" y1="2214.21" x2="484.22" y2="2216.31" gradientUnits="userSpaceOnUse"><stop offset="0" stop-color="#f0e5d5"/><stop offset="1" stop-color="#9f9082"/></linearGradient></defs><title>usage-item-2</title><path class="cls-1" d="M88.33 72h1.69l-1.69.97h3.23l1.68-.97h20.32l1.68.97h2.33l44.57-25.73L121.88 24h-2.32L82.11 49.73l22.4 12.93-3.78 2.18h-.01L88.33 72z"/><path class="cls-2" d="M98.08 57.61h-2.33l-14.47 8.35-26.22-15.13-.6.34-.61-.34L0 81.92l33.01 19.05-13.8 7.97 51.91 29.97h1.21l13.19-7.62 32.4 18.71h1.22l15.15-8.75h17.2l1.68.97h2.33l44.57-25.73L98.08 57.61z"/><path class="cls-3" d="M85.52 131.29l-13.19 7.62h-1.21l-51.91-29.97 13.8-7.97L0 81.92l85.52 49.37z"/><path class="cls-4" d="M33.01 99.76L0 80.7v1.22l33.01 19.05v-1.21z"/><path class="cls-5" d="M85.84 80.28l58.04-33.51v1.21L85.84 81.5v-1.22z"/><path class="cls-6" d="M0 80.7l101.33-58.5 42.55 24.57-43.29 24.99 75.38 43.52-58.05 33.51-33-19.06-13.8 7.97-51.91-29.97 13.8-7.97L0 80.7z"/><path class="cls-7" d="M87.12 70.79h1.68l-1.68.97h3.22l1.69-.97h10.24l41.61-24.02-32.85-18.96L80.9 48.52l22.4 12.93-3.79 2.18-12.39 7.16z"/><path class="cls-8" d="M117.92 140.04h1.69l-1.69.97h3.23l1.68-.97h10.25l42.89-24.76-75.38-43.52 11.45-6.61-15.17-8.76h-2.33L49.97 82.13l84.13 48.57-3.78 2.18h-.01l-12.39 7.16z"/><path class="cls-9" d="M87.12 70.79V41.55L59.73 25.73v29.24l27.39 15.82zm0 0V41.55l42.89-24.76v29.24L87.12 70.79z"/><path class="cls-10" d="M87.12 70.79V41.55l42.89-24.76v29.24L87.12 70.79z"/><path class="cls-11" d="M87.12 48.24v-6.69l42.89-24.76v6.69L87.12 48.24z"/><path class="cls-12" d="M87.12 44.85v-2.33l44.57-25.73v2.33L87.12 44.85z"/><path class="cls-9" d="M87.12 44.85v-2.33L58.04 25.73v2.33l29.08 16.79z"/><path class="cls-13" d="M87.12 45.31v-.46L59.73 29.04v.45l27.39 15.82z"/><path class="cls-14" d="M61.89 56.22V26.98l.84-.48v29.23l-.84.49z"/><path class="cls-15" d="M85.8 69.05V39.81L62.73 26.5v29.23L85.8 69.05z"/><path class="cls-16" d="M63.58 56.22V32.17L85.8 45v-2.33L63.58 29.84v-2.86l-.85-.48v29.23l.85.49z"/><path class="cls-9" d="M87.12 44.85v-2.33L58.04 25.73v2.33l29.08 16.79z"/><path class="cls-17" d="M497.12 2220.79v-29.24l-2.12-1.25v29.24l2.17 1.25zm-25.23-14.57V2177l-2.16-1.25V2205z" transform="translate(-410 -2150)"/><path class="cls-9" d="M87.12 44.85v-2.33L58.04 25.73v2.33l29.08 16.79z"/><path class="cls-18" d="M497.12 2195.31v-.46l-2.12-1.25v.46l2.16 1.25zm-25.23-15l-2.16-1.25v.46l2.16 1.25v-.46z" transform="translate(-410 -2150)"/><path class="cls-19" d="M61.89 57.19h1.69l-.85-.48-.84.48z"/><path class="cls-20" d="M61.89 53.97l1.69-.97v3.22l-1.69.97v-3.22z"/><path class="cls-9" d="M61.89 53.97l-3.85-2.22v3.22l3.85 2.22v-3.22z"/><path class="cls-21" d="M84.95 66.31L61.89 53l.84-.49 22.22 12.83v.97z"/><path class="cls-9" d="M84.11 65.83L62.73 53.48v3.23l21.38 12.34v-3.22z"/><path class="cls-9" d="M62.73 53.48v3.23l1.61.93-1.61-4.16z"/><path class="cls-22" d="M62.73 53.48v3.23l.85.48v-1.54l-.85-2.17z"/><path class="cls-9" d="M87.12 68.53l-3.85-2.22v3.23l3.85 2.22v-3.23z"/><path class="cls-21" d="M497.12 2218.54l-3.85-2.22 1.68-1v1l2.17 1.25 12.4-7.16.84.49-13.24 7.64zM471.89 2204l-3.85-2.22 1.68-1v1l2.17 1.25.84-.49.84.49z" transform="translate(-410 -2150)"/><path class="cls-23" d="M87.12 67.56l42.89-24.76v-.97l1.68.97L88.8 67.56h-1.68z"/><path class="cls-24" d="M61.89 53l.84-.49.85.49h-1.69z"/><path class="cls-21" d="M58.04 25.73L102.61 0l29.08 16.79-44.57 25.73-29.08-16.79z"/><path class="cls-25" d="M87.12 68.53l44.57-25.73v3.23L87.12 71.76v-3.23z"/><path class="cls-9" d="M64.78 25.73l22.34 12.9 37.84-21.84-22.35-12.9-37.83 21.84z"/><path class="cls-17" d="M65.65 26.24l21.47 12.39 36.96-21.34-22.34-12.9L76.3 19.08l.87.51-11.52 6.65z"/><path class="cls-26" d="M123.39 17.69l-20.78-12-36.27 20.95-4.01-2.32 24.79 14.31 36.27-20.94z"/><path class="cls-27" d="M102.61 5.69l-18.52 10.7-17.75 10.25.9.52 36.28-20.95-.91-.52z"/><path class="cls-28" d="M102.61 5.69l.91.52-.91-2.32-37.83 21.84 1.56.91 36.27-20.95z"/><path class="cls-29" d="M102.61 5.69l.91.52-.4-1.02-.51-.29-36.96 21.34.69.4 36.27-20.95z"/><path class="cls-10" d="M528.75 2179.31a10.11 10.11 0 0 0-.47 2.38c.44 1.4 8.91-.43 7.11-6.22z" transform="translate(-410 -2150)"/><path class="cls-30" d="M528.75 2179.31c0 .48-.21 1.54.5 1.61.78.74 7.26-.55 6.15-5.45z" transform="translate(-410 -2150)"/><path class="cls-31" d="M528.75 2179.31c0 1 .13 1.23 1.46.84 1.12.08 5.62-.67 5.19-4.68z" transform="translate(-410 -2150)"/><path class="cls-32" d="M528.75 2179.31c.06 1.45.48.92 2.42.07 1.46-.58 4-.78 4.23-3.91z" transform="translate(-410 -2150)"/><path class="cls-33" d="M528.75 2179.31c.08 1.94.82.61 3.38-.7 1.8-1.25 2.32-.9 3.27-3.14z" transform="translate(-410 -2150)"/><path class="cls-34" d="M119.59 30.65v-.86l-.84-.49v.86l.84.49z"/><path class="cls-35" d="M123.61 43.94l-3.91-14.32 4.75-2.74v17.55l-.84-.49z"/><path class="cls-36" d="M123.61 27.36v16.58l-3.91 2.26V29.62l3.91-2.26z"/><path class="cls-37" d="M119.7 47.17l4.75-2.74-.84-.49-3.91 2.26v.97z"/><path class="cls-38" d="M123.27 27.94v15.81l-3.57 2.06V30l3.57-2.06z"/><path class="cls-39" d="M119.59 30.65v-.86l6.65-3.84v.86l-6.65 3.84z"/><path class="cls-40" d="M119.59 29.79l6.65-3.84-.84-.48-6.65 3.83.84.49z"/><path class="cls-10" d="M520.13 2184.28a10.11 10.11 0 0 0-.47 2.38c.44 1.4 8.91-.43 7.11-6.22z" transform="translate(-410 -2150)"/><path class="cls-30" d="M520.13 2184.28c0 .48-.21 1.54.5 1.61.78.74 7.26-.55 6.15-5.45z" transform="translate(-410 -2150)"/><path class="cls-31" d="M520.13 2184.28c0 1 .13 1.23 1.46.84 1.12.08 5.62-.67 5.19-4.68z" transform="translate(-410 -2150)"/><path class="cls-32" d="M520.13 2184.28c.06 1.45.48.92 2.42.07 1.46-.58 4-.78 4.23-3.91z" transform="translate(-410 -2150)"/><path class="cls-33" d="M520.13 2184.28c.08 1.94.82.61 3.38-.7 1.8-1.25 2.32-.9 3.27-3.14z" transform="translate(-410 -2150)"/><path class="cls-41" d="M110.97 35.63v-.86l-.84-.49v.86l.84.49z"/><path class="cls-42" d="M114.99 48.92l-3.91-14.33 4.75-2.74v17.56l-.84-.49z"/><path class="cls-43" d="M114.99 32.34v16.58l-3.91 2.26V34.59l3.91-2.25z"/><path class="cls-44" d="M111.08 52.15l4.75-2.74-.84-.49-3.91 2.26v.97z"/><path class="cls-45" d="M114.65 32.92v15.81l-3.57 2.06V34.98l3.57-2.06z"/><path class="cls-46" d="M110.97 35.63v-.86l6.65-3.84v.86l-6.65 3.84z"/><path class="cls-47" d="M110.97 34.77l6.65-3.84-.84-.49-6.65 3.84.84.49z"/><path class="cls-10" d="M511.51 2189.26a10.11 10.11 0 0 0-.47 2.38c.44 1.4 8.91-.43 7.11-6.22z" transform="translate(-410 -2150)"/><path class="cls-30" d="M511.51 2189.26c0 .49-.21 1.54.5 1.61.78.74 7.26-.55 6.15-5.45z" transform="translate(-410 -2150)"/><path class="cls-31" d="M511.51 2189.26c0 1 .13 1.23 1.46.84 1.12.08 5.62-.67 5.19-4.68z" transform="translate(-410 -2150)"/><path class="cls-32" d="M511.51 2189.26c.06 1.46.48.92 2.42.07 1.46-.58 4-.78 4.23-3.91z" transform="translate(-410 -2150)"/><path class="cls-33" d="M511.51 2189.26c.08 1.94.82.61 3.38-.7 1.8-1.25 2.32-.9 3.27-3.14z" transform="translate(-410 -2150)"/><path class="cls-48" d="M102.35 40.6v-.86l-.84-.48v.86l.84.48z"/><path class="cls-49" d="M106.37 53.9l-3.91-14.33 4.75-2.74v17.55l-.84-.48z"/><path class="cls-50" d="M106.37 37.31V53.9l-3.91 2.25V39.57l3.91-2.26z"/><path class="cls-51" d="M102.46 57.13l4.75-2.75-.84-.48-3.91 2.25v.98z"/><path class="cls-52" d="M106.03 37.9v15.8l-3.57 2.07V39.96l3.57-2.06z"/><path class="cls-53" d="M102.35 40.6v-.86l6.65-3.83v.86l-6.65 3.83z"/><path class="cls-54" d="M102.35 39.74l6.65-3.83-.84-.49-6.65 3.84.84.48z"/><path class="cls-21" d="M67.1 122.7l3.53 2.03-3.62 2.09-3.52-2.04 3.61-2.08z"/><path class="cls-55" d="M67.1 123.18l-2.77 1.6 2.68 1.55 2.77-1.6-2.68-1.55z"/><path class="cls-56" d="M50.71 116.92l-5.36-3.09h-6.6l21.67 12.5h4.89l.84.49h.86l3.62-2.09-1.48-.85 1.62-.94-16.29-9.41-.43.25-.43-.25-3.61 2.09 1.48.85-.78.45z"/><path class="cls-57" d="M42.55 96.52h1.68l-1.68.97h3.22l1.69-.97h20.07l-12.59-7.15-12.39 7.15z"/><path class="cls-58" d="M17.32 81.95V45.59l.84-.49v36.37l-.84.48z"/><path class="cls-59" d="M59.04 98.89l33.59-19.4 27.39 15.82-33.59 19.39-27.39-15.81z"/><path class="cls-59" d="M59.04 98.89l6.19-3.58 27.4 15.81-6.2 3.58-27.39-15.81z"/><path class="cls-17" d="M102.92 117.07V80.7l-10.29-5.94v36.36l10.29 5.95z"/><path class="cls-60" d="M98.83 114.7V78.34l-6.2-3.58v36.36l6.2 3.58z"/><path class="cls-9" d="M117.92 140.04v-36.37L90.53 87.86v36.36l27.39 15.82zm0 0v-36.37l42.89-24.76v36.37l-42.89 24.76z"/><path class="cls-61" d="M85.59 116.16h12.39l-6.19-3.58-6.2 3.58z"/><path class="cls-62" d="M42.55 96.52V60.15L54.94 53v36.37l-12.39 7.15z"/><path class="cls-63" d="M65.23 95.31V58.94L54.94 53v36.37l10.29 5.94z"/><path class="cls-15" d="M41.23 94.78V58.42L18.16 45.1v36.37l23.07 13.31z"/><path class="cls-64" d="M19 81.95V50.78l22.23 12.83v-2.33L19 48.45v-2.86l-.84-.49v36.37l.84.48z"/><path class="cls-9" d="M42.55 63.46v-2.33L13.47 44.34v2.33l29.08 16.79z"/><path class="cls-65" d="M65.23 59.91l-10.29-5.94v2.33l10.29 5.94v-2.33z"/><path class="cls-21" d="M59.04 62.52l36.69-21.18 27.39 15.81-36.69 21.19-27.39-15.82z"/><path class="cls-10" d="M117.92 140.04v-36.37l42.89-24.76v36.37l-42.89 24.76z"/><path class="cls-66" d="M117.92 110.37v-6.7l42.89-24.76v6.7l-42.89 24.76z"/><path class="cls-67" d="M117.92 106.97v-2.33l44.58-25.73v2.33l-44.58 25.73z"/><path class="cls-9" d="M102.08 81.19l-10.29-5.95v2.33l10.29 5.95v-2.33z"/><path class="cls-68" d="M96.08 77.72l-3.45-1.99v2.33l4.61 2.66-1.16-3z"/><path class="cls-21" d="M53.26 53l32.18-18.58 49.66 28.67-32.18 18.58L53.26 53z"/><path class="cls-21" d="M54.94 53l47.98 27.7 30.5-17.61-47.98-27.7L54.94 53z"/><path class="cls-17" d="M86.43 114.7V71.44l-6.16-3.55-7.53-13.06-7.54 4.36-6.16-3.56v43.26l27.39 15.81z"/><path class="cls-69" d="M86.43 75.2v-3.76l-6.16-3.55-7.53-13.06-7.54 4.35v.01l-6.16-3.56v3.76l6.88 3.97 7.53-4.35 7.54 13.05 5.44 3.14z"/><path class="cls-9" d="M491.18 2261.67v-36.37l-16.89-9.75v36.37z" transform="translate(-410 -2150)"/><path class="cls-17" d="M491.18 2261.67v-16l-16.89-9.75v16z" transform="translate(-410 -2150)"/><path class="cls-70" d="M476 2252.89v-16l-.84-.49v-15.15l1.43.83v-1.43l14.38 8.3v-.46l-14.38-8.3v-.44l-.59-1.61v-1.59l-1.36-.79-.32-.19v36.37l1.68 1zm-1.36-37.15l.17.1h-.09l-.09-.05zm.17.1l.35.2h-.06z" transform="translate(-410 -2150)"/><path class="cls-71" d="M65.97 102.89v-3.78l1.56 4.02 13.65 7.88v-14.4l-15.21-8.78v-.97l-1.68-.97v16.03l1.68.97z"/><path class="cls-17" d="M495.59 2265.19v-36.37l-5.25-3v36.37z" transform="translate(-410 -2150)"/><path class="cls-72" d="M490.34 2261.18v-15.58l-15.21-8.78v15.58z" transform="translate(-410 -2150)"/><path class="cls-73" d="M80.34 110.52V96.13l-14.37-8.3v-.52l-.84-.49v15.58l.73.43.11.06v-3.78l1.56 4.02 12.81 7.39z"/><path class="cls-74" d="M490 2260.6v-14.8l-3.38-2v14.8l3.38 2zm-3.72-16.95l-3.38-2v14.8l3.38 2v-14.8zm-3.72-2.15l-3.38-2v14.8l3.38 2v-14.8zm-3.72-2.15l-3.38-2v14.8l3.38 2v-14.8z" transform="translate(-410 -2150)"/><path class="cls-75" d="M490 2260.6v-.51l-2.16-1.25H487l3 1.76zm-3.38-2.46v.51h.89l-.89-.51zm-.34-.19l-2.16-1.25h-.89l3 1.76v-.51zm-2.49-1.44l-.89-.51.89.51zm-1.22-.71l-2.16-1.25h-.89l3 1.76v-.51zm.34.71zm-2.83-2.15l-.89-.51v.51h.89zm-1.22-.71l-2.16-1.25h-.89l3 1.76v-.51z" transform="translate(-410 -2150)"/><path class="cls-76" d="M479.64 2239.82v7.06l-.46.26v-7.59l.46.26zm-.79 7.52l-3.38 2v-11.89l3.38 2v8z" transform="translate(-410 -2150)"/><path class="cls-17" d="M496.43 2264.7v-36.37l-6.16-3.56v36.37l6.16 3.56zm-23-12.3V2216l-5.25-3v36.37z" transform="translate(-410 -2150)"/><path class="cls-77" d="M496.43 2261v-3.76l-3.79-9.77-2.37-1.37v11.35l6.16 3.56zm-23-20l-2.3-5.93 2.3 1.33v4.6z" transform="translate(-410 -2150)"/><path class="cls-72" d="M490.34 2243.69v-16.55l-3.52-2v16.55l3.52 2zm-11.69-6.75v-16.54l-3.52-2v16.55l3.52 2zm7.17 4.14l-6.17-3.56V2221l6.17 3.56v16.55z" transform="translate(-410 -2150)"/><path class="cls-78" d="M490.34 2228.58v-.46l-3.52-2v.46l3.52 2zm-13.78-6.52v-1.43l2.09 1.21v-.46l-2.09-1.21v-.44l-.25-.68-1.18-.68v2.86l1.43.83zm3.09.35l6.17 3.56v-.46l-6.17-3.56v.46z" transform="translate(-410 -2150)"/><path class="cls-79" d="M490 2243.11v-5l-1.26-.73v5l1.26.73zm-1.59-5.92l-1.26-.73v5l1.26.73v-5zm1.59.53l-1.26-.73v-5l1.26.73v5zm-1.59-5.92v5l-1.26-.73v-5l1.26.73zm1.59.53v-5l-.21-.12-1-.56v5l1.26.73zm-1.59-5.92l-1.26-.73v5l1.26.73v-5zm-10.09 9.94v-5l-1.26-.73v5l1.26.73zm-1.59-5.92l-1.26-.73v5l1.26.73v-5zm1.59.53l-1.26-.73v-5l1.26.73v5zm-1.59-5.92v5l-1.26-.73v-5l1.26.73zm1.59.53v-5l-1.26-.73v5l1.26.73zm-1.59-5.92l-1.26-.73v5l1.26.73v-5zm8.76 20.83v-5l-1.21-.7v5l1.21.7zm-1.55-5.89l-2.4-1.39v5l2.4 1.39v-5zm-2.74-1.59l-1.21-.7v5l1.21.7v-5zm4.29 2.08l-1.21-.7v-5l1.21.7v5zm-1.55-5.89v5l-2.4-1.39v-5l2.4 1.39zm-2.74-1.58v5l-1.21-.7v-5l1.21.7zm4.29 2.08v-5l-1.21-.7v5l1.21.7zm-1.55-5.89l-2.4-1.39v5l2.4 1.39v-5zm-2.74-1.58l-1.21-.7v5l1.21.7v-5z" transform="translate(-410 -2150)"/><path class="cls-75" d="M490 2242.16v-.7h-1.26v.7H490zm0-.89l-1.26-.73v.76H490zm0-.26l-1.26-.73v-.41H490v1.13zm0-1.33v-.68h-1.26v.7H490zm-1.26-2.29v.61h1.08l-1.08-.62zm-7.56.62v-.73H480l1.2.69zm.35 0h2.4v-.29l-.76-.44h-1.65v.72zm2.74 0h.16l-.16-.09v.08zm-1.43-.92l-.63-.36h-.68v.36h1.31zm-1.65-.36H480v.36h1.21v-.36zm3.63 1.28l-.55-.32v-.41h1.21v.72h-.66zm2.33 0h1.26v-.73h-1.26v.72zm-3.22-.73v.21l-.37-.21h.37zm4.3-.19l-.63-.36h-.45v.36h1.08zm-2.75-.36h-1.21v.36h1.21v-.36zm-1.55 0v.36h-.7l-.63-.36h1.33zm6.07.56v.43l-.74-.43h.74zm0-.56h-1.26v.27l.18.1H490v-.36zm-1.59 0h-.11l.11.07v-.07zm-.06 5.42h.06v-.7h-1.26l1.2.69zm.06-1.84l-.75-.44h-.5v1.39h1.26v-1zm-2.93-.44h-1.08l1.08.62v-.62zm1.84-.19l-.17-.1v.1h.17zm-1.84-.7h-1.21v.7h1.21v-.68zm-1.55 0h-1.08l1.08.62v-.6zm4.47.89v.21l-.37-.21h.37zm0-.89v.7h-.7l-.55-.32v-.36h1.26z" transform="translate(-410 -2150)"/><path class="cls-80" d="M487.25 2225.75l-.09.05v-.11l.09.05zm-1.76 1l-1.21.7V2224l1.21.7v2zm-1.55.89l-1 .59-1.39-.8v-5l2.4 1.39v3.82zm-1.35.78l-1-.61v1.19l1-.61zm-1.39.8l-1.21.7v-3l1.21.7v1.6zm-2.88 1.66h-.06l-1.19-.69v-5l1.26.73v4.93zm-.4.23l-.86-.5v1l.86-.49zm-1.19.69l-1.26.73v-2.83l1.26.73v1.38zm0-6.77l-1.26-.73v5l1.26.73v-5zm1.59.53v-5l-1.26-.73v5l1.26.73zm-1.59-5.92v5l-1.26-.73v-5l1.26.73zm4.47 2.58l-1.21-.7v5l1.21.7v-5z" transform="translate(-410 -2150)"/><path class="cls-81" d="M490.27 2229.05v.46l5.32 3.07v-.46l-5.32-3.07zm-16.83-9.26l-5.25-3v-.46l5.25 3v.46z" transform="translate(-410 -2150)"/><path class="cls-21" d="M59.04 56.64l6.16 3.56 6.19-3.58-6.16-3.56-6.19 3.58z"/><path class="cls-9" d="M86.43 79.31L57.35 62.52v2.33l29.08 16.79v-2.33z"/><path class="cls-82" d="M64.29 66.52v2.33l.71.42v-.9l-.71-1.85z"/><path class="cls-83" d="M63.45 102.4V66.04l.84-.49v36.37l-.84.48z"/><path class="cls-84" d="M85.59 115.19V78.82l.84-.48v-5.89l6.2-3.57v42.24l-6.2 3.58-.84.49z"/><path class="cls-9" d="M63.45 67.01l-6.94-4v2.32l6.94 4.01v-2.33z"/><path class="cls-21" d="M56.51 63.01l2.53-1.46v.97l6.09 3.52-1.68.97-6.94-4z"/><path class="cls-85" d="M63.45 67.01l.84-.49v2.33l-.84.49v-2.33z"/><path class="cls-9" d="M85.59 79.79l-6.93-4v2.33l6.93 4v-2.33z"/><path class="cls-86" d="M85.59 79.79l7.04-4.06v2.33l-7.04 4.06v-2.33z"/><path class="cls-21" d="M56.51 90.93l1.69-.97v.98l5.25 3.03.84-.49-1.68.97-6.1-3.52z"/><path class="cls-87" d="M491.18 2253.23l-.84.49 5.25 3 5.77-3.33.84.49-6.61 3.82-6.1-3.52z" transform="translate(-410 -2150)"/><path class="cls-88" d="M62.61 94.45l-6.1-3.52v8.44l6.1 3.52v-8.44z"/><path class="cls-89" d="M62.61 94.45l1.68-.97v8.44l-1.68.97v-8.44z"/><path class="cls-9" d="M85.59 107.72l-6.09-3.52v8.44l6.09 3.52v-8.44z"/><path class="cls-90" d="M85.59 107.72l-6.09-3.52v2.97l6.09 3.52v-2.97z"/><path class="cls-91" d="M85.59 107.72l6.1-3.52v8.44l-6.1 3.52v-8.44z"/><path class="cls-9" d="M117.92 106.97v-2.33L88.84 87.86v2.33l29.08 16.78z"/><path class="cls-21" d="M495.59 2229.79l-6.94-4 .84-.49-22.14-12.78 1.68-1v1l27.39 15.82 6.2-3.58.84.49z" transform="translate(-410 -2150)"/><path class="cls-92" d="M86.43 78.34l5.36-3.09v-.01l.84-.48v-5.88l-5.94 3.42-.21-.12v-8.2h.01l.25.07.25.07.26.07.25.07.25.06.26.07.25.07.26.07.25.06.25.07.26.07.25.07.25.07.26.07.25.06.25.07.26.07.25.07.26.07.25.06.25.07.26.07.25.07.26.06.25.07.25.07.26.07.25.07.25.06.26.07.25.07.26.07.25.07.25.07.26.06-.04.14-.03.14-.04.13-.04.14-.03.13-.04.14-.04.13-.03.14-.04.14-.04.13-.03.14-.04.14-.04.13-.03.14-.04.13-.04.14-.03.13-.04.14-.03.14-.04.13-.04.14-.03.14-.04.13-.04.14-.03.13-.04.14-.04.13-.03.14-.04.14-.03.13-.04.14-.04.14.22.12.22.13.22.12.22.13.22.13.22.12.21.13.22.13.22.12.22.13.22.12.22.13.22.13.22.12.21.13.22.13.22.12.22.13.22.13.22.12.22.13.22.12.21.13.22.13.22.12.22.13.22.13.22.12.22.13.22.13.22.12.21.13-5.12 2.96-3.45-1.99-4.51 2.61h-1.69z"/><path class="cls-93" d="M76.24 101.16l6.4-3.7v1.61l-6.4 3.7v-1.61z"/><path class="cls-94" d="M62.61 102.89h3.36l-1.68-.97-1.68.97z"/><path class="cls-95" d="M117.92 107.43v-.46L90.53 91.16v.46l27.39 15.81z"/><path class="cls-17" d="M452.55 2246.52v-36.37l-2.16-1.25v36.37l2.17 1.25zM427.32 2232v-36.37l-2.16-1.25v36.37z" transform="translate(-410 -2150)"/><path class="cls-96" d="M42.55 63.46v-2.33l12.39-7.16v2.33l-12.39 7.16z"/><path class="cls-21" d="M15.15 44.34l42.89-24.76 27.4 15.81-42.89 24.76-27.4-15.81z"/><path class="cls-21" d="M13.47 44.34l44.57-25.73 29.08 16.78-44.57 25.74-29.08-16.79z"/><path class="cls-9" d="M42.55 63.46v-2.33L13.47 44.34v2.33l29.08 16.79z"/><path class="cls-55" d="M449.11 2238.22v-10.12l-6.36-3.67v10.12l6.36 3.67zm0-14v-10.12l-6.36-3.67v10.12z" transform="translate(-410 -2150)"/><path class="cls-97" d="M452.55 2213.91v-.46l-2.16-1.25v.46l2.16 1.25zm-25.23-15l-2.16-1.25v.46l2.16 1.25v-.46z" transform="translate(-410 -2150)"/><path class="cls-98" d="M17.32 82.93H19l-.84-.49-.84.49z"/><path class="cls-99" d="M42.55 94.27l13.24-7.65v3.23l-13.24 7.64v-3.22z"/><path class="cls-21" d="M54.74 88.75l6.41-3.7 2.3 1.33.84-.49 15.98 9.23v.97l2.37 1.37-6.4 3.7-21.5-12.41z"/><path class="cls-100" d="M63.45 86.38l.84-.49.84.49h-1.68z"/><path class="cls-9" d="M76.24 101.16l-21.5-12.41v1.61l21.5 12.41v-1.61z"/><path class="cls-101" d="M17.32 79.7l1.68-.97v3.22l-1.68.98V79.7z"/><path class="cls-9" d="M17.32 79.7l-3.85-2.22v3.22l3.85 2.23V79.7z"/><path class="cls-21" d="M40.38 92.05L17.32 78.73l.84-.49 22.22 12.83v.98z"/><path class="cls-9" d="M39.54 91.56L18.16 79.22v3.22l21.38 12.34v-3.22z"/><path class="cls-9" d="M18.16 79.22v3.22l1.61.93-1.61-4.15z"/><path class="cls-102" d="M18.16 79.22v3.22l.84.49v-1.54l-.84-2.17z"/><path class="cls-9" d="M42.55 94.27l-3.85-2.22v3.22l3.85 2.22v-3.22z"/><path class="cls-21" d="M452.55 2244.27l-3.85-2.27 1.68-1v1l2.17 1.25 12.4-7.16.84.49-13.24 7.64zm-25.23-14.57l-3.85-2.22 1.68-1v1l2.17 1.25.84-.49.84.49z" transform="translate(-410 -2150)"/><path class="cls-103" d="M42.55 93.3l12.4-7.16.84.48-11.56 6.68h-1.68z"/><path class="cls-104" d="M17.32 78.73l.84-.49.84.49h-1.68z"/><path class="cls-105" d="M92.69 125.47V89.11l.85-.49v36.37l-.85.48z"/><path class="cls-15" d="M116.6 138.3v-36.36L93.54 88.62v36.37l23.06 13.31z"/><path class="cls-106" d="M94.38 125.47V94.3l22.22 12.83v-2.33L94.38 91.97v-2.86l-.84-.49v36.37l.84.48z"/><path class="cls-9" d="M117.92 106.97v-2.33L88.84 87.86v2.32l29.08 16.79z"/><path class="cls-17" d="M527.92 2290v-36.37l-2.16-1.25v36.37l2.17 1.25zm-25.23-14.57v-36.37l-2.16-1.25v36.37z" transform="translate(-410 -2150)"/><path class="cls-9" d="M117.92 106.97v-2.33L88.84 87.86v2.32l29.08 16.79z"/><path class="cls-107" d="M527.92 2257.43v-.43l-2.16-1.25v.46l2.16 1.25zm-25.23-15l-2.16-1.25v.46l2.16 1.25v-.46z" transform="translate(-410 -2150)"/><path class="cls-108" d="M92.69 126.44h1.69l-.84-.48-.85.48z"/><path class="cls-109" d="M92.69 123.22l1.69-.97v3.22l-1.69.97v-3.22z"/><path class="cls-9" d="M92.69 123.22L88.84 121v3.22l3.85 2.22v-3.22z"/><path class="cls-21" d="M115.76 135.56l-23.07-13.31.85-.49 22.22 12.83v.97z"/><path class="cls-9" d="M114.92 135.08l-21.38-12.35v3.23l21.38 12.34v-3.22z"/><path class="cls-9" d="M93.54 122.73v3.23l1.61.93-1.61-4.16z"/><path class="cls-110" d="M93.54 122.73v3.23l.84.48v-1.54l-.84-2.17z"/><path class="cls-9" d="M117.92 137.79l-3.85-2.23v3.23l3.85 2.22v-3.22z"/><path class="cls-21" d="M527.92 2287.79l-3.85-2.22 1.68-1v1l2.17 1.25 12.4-7.16.84.49-13.24 7.64zm-25.23-14.57l-3.85-2.22 1.68-1v1l2.17 1.25.84-.49.84.49z" transform="translate(-410 -2150)"/><path class="cls-111" d="M117.92 136.81l42.89-24.76v-.97l1.69.97-42.89 24.76h-1.69z"/><path class="cls-112" d="M92.69 122.25l.85-.49.84.49h-1.69z"/><path class="cls-21" d="M88.84 87.86l44.58-25.74 29.08 16.79-44.58 25.73-29.08-16.78z"/><path class="cls-113" d="M117.92 137.79l44.58-25.74v3.23l-44.58 25.73v-3.22z"/><path class="cls-55" d="M26.64 66.98V56.87l-6.36-3.67v10.11l6.36 3.67z"/><path class="cls-114" d="M28.31 59.26v-.86l-.72-1.84-8.26-4.77v.86l.72 1.84 8.26 4.77z"/><path class="cls-115" d="M26.64 66.98V56.87l-6.36-3.67v10.11l6.36 3.67z"/><path class="cls-72" d="M21.13 53.69v9.14l5.51 3.18v-9.14l-5.51-3.18z"/><path class="cls-116" d="M21.13 54.26v8.57l.84.48v-7.12l4.67 2.69v-1.44l-4.67-2.7v-.57l-.84-.48v.57z"/><path class="cls-117" d="M431.46 2204.27v8.37l1.14.66v-8.37l-1.14-.66zm5.18 11.36v-8.37l-.47-.27v8.37l.47.27zm-3.64-2.13l2.86 1.65v-8.37l-2.86-1.65v8.37z" transform="translate(-410 -2150)"/><path class="cls-75" d="M434.77 2214.54h1.05v.27h-.59l-.47-.27zm-.3-3.07h1.35v-.27h-.89l-.47.27zm1.71 0h.47v-.27h-.47v.27zm.47-1.26l-.47.27v.52h.47v-.78zm-.82.47l-.53.31h.53v-.31zm.35 3.85h.47v.27h-.47v-.27zm-.59.47h.23v.14l-.23-.14zm.59 0h.47v.61l-.47-.27v-.34z" transform="translate(-410 -2150)"/><path class="cls-118" d="M432.6 2209.14v-4.21l-.3-.17v4.55l.3-.17zm.84-3.72v3.24l-.49.28v-3.8l.49.28zm2.8 1.62h-.07v-.04h.07zm-.43.25l-2 1.17v-2.83l2 1.17v.49z" transform="translate(-410 -2150)"/><path class="cls-9" d="M26.75 57.9v-.85l-8.26-4.77v.86l8.26 4.76z"/><path class="cls-21" d="M26.75 57.05l-8.26-4.77.84-.49 8.26 4.77-.84.49z"/><path class="cls-119" d="M26.75 57.9v-.85l.84-.49v.86l-.84.48z"/><path class="cls-120" d="M26.64 66.98l-6.36-3.67.85-.48 5.51 3.18v.97z"/><path class="cls-121" d="M20.28 63.31l.85-.48.84.48h-1.69z"/><path class="cls-9" d="M26.75 57.9v-.85l-8.26-4.77v.86l8.26 4.76z"/><path class="cls-55" d="M26.64 66.98V56.87l-6.36-3.67v10.11l6.36 3.67z"/><path class="cls-114" d="M28.31 59.26v-.86l-.72-1.84-8.26-4.77v.86l.72 1.84 8.26 4.77z"/><path class="cls-115" d="M26.64 66.98V56.87l-6.36-3.67v10.11l6.36 3.67z"/><path class="cls-72" d="M21.13 53.69v9.14l5.51 3.18v-9.14l-5.51-3.18z"/><path class="cls-116" d="M21.13 54.26v8.57l.84.48v-7.12l4.67 2.69v-1.44l-4.67-2.7v-.57l-.84-.48v.57z"/><path class="cls-117" d="M431.46 2204.27v8.37l1.14.66v-8.37l-1.14-.66zm5.18 11.36v-8.37l-.47-.27v8.37l.47.27zm-3.64-2.13l2.86 1.65v-8.37l-2.86-1.65v8.37z" transform="translate(-410 -2150)"/><path class="cls-75" d="M434.77 2214.54h1.05v.27h-.59l-.47-.27zm-.3-3.07h1.35v-.27h-.89l-.47.27zm1.71 0h.47v-.27h-.47v.27zm.47-1.26l-.47.27v.52h.47v-.78zm-.82.47l-.53.31h.53v-.31zm.35 3.85h.47v.27h-.47v-.27zm-.59.47h.23v.14l-.23-.14zm.59 0h.47v.61l-.47-.27v-.34z" transform="translate(-410 -2150)"/><path class="cls-118" d="M432.6 2209.14v-4.21l-.3-.17v4.55l.3-.17zm.84-3.72v3.24l-.49.28v-3.8l.49.28zm2.8 1.62h-.07v-.04h.07zm-.43.25l-2 1.17v-2.83l2 1.17v.49z" transform="translate(-410 -2150)"/><path class="cls-9" d="M26.75 57.9v-.85l-8.26-4.77v.86l8.26 4.76z"/><path class="cls-21" d="M26.75 57.05l-8.26-4.77.84-.49 8.26 4.77-.84.49z"/><path class="cls-119" d="M26.75 57.9v-.85l.84-.49v.86l-.84.48z"/><path class="cls-120" d="M26.64 66.98l-6.36-3.67.85-.48 5.51 3.18v.97z"/><path class="cls-121" d="M20.28 63.31l.85-.48.84.48h-1.69z"/><path class="cls-9" d="M26.75 57.9v-.85l-8.26-4.77v.86l8.26 4.76z"/><path class="cls-55" d="M39.1 74.19l-.01-10.12-6.35-3.67v10.12l6.36 3.67z"/><path class="cls-122" d="M40.38 64.63l-.33-.87-8.26-4.77v.86l.71 1.85 7.88 4.55v-1.62z"/><path class="cls-123" d="M39.1 74.19l-.01-10.12-6.35-3.67v10.12l6.36 3.67z"/><path class="cls-72" d="M33.58 60.89v9.14l5.52 3.19-.01-9.15-5.51-3.18z"/><path class="cls-124" d="M33.58 61.46v8.57l.84.49v-7.13l4.67 2.7v-1.45l-4.67-2.69v-.58l-.84-.48v.57z"/><path class="cls-125" d="M443.92 2211.47v8.37l1.14.66v-8.37l-1.14-.66zm5.18 11.36v-8.37l-.47-.27v8.37l.47.27zm-3.68-2.13l2.86 1.65V2214l-2.86-1.65v8.37z" transform="translate(-410 -2150)"/><path class="cls-75" d="M447.22 2221.74h1.05v.26h-.59l-.47-.27zm-3.3-5.86v.88h1.14v-.22l-1.14-.66zm0 1.09v.56h1.14v-.53h-1.14zm2.86.56h-1.36v-.53h.39l1 .56zm-1.36-.79zm3.22 5h.47v.26h-.47v-.27zm-.59.47h.23v.14l-.23-.14zm.59 0h.47v.61l-.47-.27v-.34z" transform="translate(-410 -2150)"/><path class="cls-9" d="M39.2 65.11v-.86l-8.25-4.77v.86l8.25 4.77z"/><path class="cls-21" d="M39.2 64.25l-8.25-4.77.84-.49 8.26 4.77-.85.49z"/><path class="cls-126" d="M39.2 65.11v-.86l.85-.49v.86l-.85.49z"/><path class="cls-120" d="M39.1 74.19l-6.36-3.67.84-.49 5.52 3.19v.97z"/><path class="cls-127" d="M32.74 70.52l.84-.49.84.49h-1.68z"/><path class="cls-9" d="M39.2 65.11v-.86l-8.25-4.77v.86l8.25 4.77z"/><path class="cls-55" d="M26.64 81.02V70.9l-6.36-3.67v10.12l6.36 3.67z"/><path class="cls-128" d="M28.31 73.29v-.86l-.72-1.84-8.26-4.77v.86l.72 1.85 8.26 4.76z"/><path class="cls-129" d="M26.64 81.02V70.9l-6.36-3.67v10.12l6.36 3.67z"/><path class="cls-72" d="M21.13 67.72v9.14l5.51 3.18V70.9l-5.51-3.18z"/><path class="cls-130" d="M21.13 68.29v8.57l.84.49v-7.13l4.67 2.69v-1.44l-4.67-2.7v-.57l-.84-.48v.57z"/><path class="cls-131" d="M431.46 2218.3v8.37l1.14.66V2219l-1.14-.66zm5.18 11.36v-8.37l-.47-.27v8.37l.47.27zm-3.68-2.13l2.86 1.65v-8.37l-2.86-1.65v8.37z" transform="translate(-410 -2150)"/><path class="cls-75" d="M434.77 2228.57h1.05v.27h-.59l-.47-.27zm-.3-3.07h1.35v-.27h-.89l-.47.27zm1.71 0h.47v-.27h-.47v.27zm.47-1.26l-.47.27v.49h.47v-.78zm-.82.47l-.53.31h.53v-.31zm.35 3.85h.47v.27h-.47v-.27zm-.59.47h.23v.14l-.23-.14zm.59 0h.47v.61l-.47-.27v-.37z" transform="translate(-410 -2150)"/><path class="cls-118" d="M432.6 2223.17V2219l-.3-.17v4.55l.3-.17zm.84-3.72v3.24l-.44.31v-3.8l.49.28zm2.8 1.62h-.07v-.07h.07zm-.43.25l-2 1.17v-2.83l2 1.17v.49z" transform="translate(-410 -2150)"/><path class="cls-9" d="M26.75 71.94v-.86l-8.26-4.77v.86l8.26 4.77z"/><path class="cls-21" d="M26.75 71.08l-8.26-4.77.84-.49 8.26 4.77-.84.49z"/><path class="cls-132" d="M26.75 71.94v-.86l.84-.49v.86l-.84.49z"/><path class="cls-120" d="M26.64 81.02l-6.36-3.67.85-.49 5.51 3.18v.98z"/><path class="cls-133" d="M20.28 77.35l.85-.49.84.49h-1.69z"/><path class="cls-9" d="M26.75 71.94v-.86l-8.26-4.77v.86l8.26 4.77z"/><path class="cls-55" d="M26.64 81.02V70.9l-6.36-3.67v10.12l6.36 3.67z"/><path class="cls-128" d="M28.31 73.29v-.86l-.72-1.84-8.26-4.77v.86l.72 1.85 8.26 4.76z"/><path class="cls-129" d="M26.64 81.02V70.9l-6.36-3.67v10.12l6.36 3.67z"/><path class="cls-72" d="M21.13 67.72v9.14l5.51 3.18V70.9l-5.51-3.18z"/><path class="cls-130" d="M21.13 68.29v8.57l.84.49v-7.13l4.67 2.69v-1.44l-4.67-2.7v-.57l-.84-.48v.57z"/><path class="cls-131" d="M431.46 2218.3v8.37l1.14.66V2219l-1.14-.66zm5.18 11.36v-8.37l-.47-.27v8.37l.47.27zm-3.68-2.13l2.86 1.65v-8.37l-2.86-1.65v8.37z" transform="translate(-410 -2150)"/><path class="cls-75" d="M434.77 2228.57h1.05v.27h-.59l-.47-.27zm-.3-3.07h1.35v-.27h-.89l-.47.27zm1.71 0h.47v-.27h-.47v.27zm.47-1.26l-.47.27v.49h.47v-.78zm-.82.47l-.53.31h.53v-.31zm.35 3.85h.47v.27h-.47v-.27zm-.59.47h.23v.14l-.23-.14zm.59 0h.47v.61l-.47-.27v-.37z" transform="translate(-410 -2150)"/><path class="cls-118" d="M432.6 2223.17V2219l-.3-.17v4.55l.3-.17zm.84-3.72v3.24l-.44.31v-3.8l.49.28zm2.8 1.62h-.07v-.07h.07zm-.43.25l-2 1.17v-2.83l2 1.17v.49z" transform="translate(-410 -2150)"/><path class="cls-9" d="M26.75 71.94v-.86l-8.26-4.77v.86l8.26 4.77z"/><path class="cls-21" d="M26.75 71.08l-8.26-4.77.84-.49 8.26 4.77-.84.49z"/><path class="cls-132" d="M26.75 71.94v-.86l.84-.49v.86l-.84.49z"/><path class="cls-120" d="M26.64 81.02l-6.36-3.67.85-.49 5.51 3.18v.98z"/><path class="cls-133" d="M20.28 77.35l.85-.49.84.49h-1.69z"/><path class="cls-9" d="M26.75 71.94v-.86l-8.26-4.77v.86l8.26 4.77z"/><path class="cls-55" d="M39.1 88.22l-.01-10.12-6.35-3.67v10.12l6.36 3.67z"/><path class="cls-134" d="M40.38 78.67l-.33-.88-8.26-4.77v.86l.71 1.85 7.88 4.55v-1.61z"/><path class="cls-135" d="M39.1 88.22l-.01-10.12-6.35-3.67v10.12l6.36 3.67z"/><path class="cls-72" d="M33.58 74.92v9.14l5.52 3.19-.01-9.15-5.51-3.18z"/><path class="cls-136" d="M33.58 75.49v8.57l.84.49v-7.13l4.67 2.7v-1.45l-4.67-2.7v-.57l-.84-.48v.57z"/><path class="cls-137" d="M443.92 2225.5v8.37l1.14.66v-8.37l-1.14-.66zm5.18 11.36v-8.37l-.47-.27v8.37l.47.27zm-3.68-2.13l2.86 1.65V2228l-2.86-1.65v8.37z" transform="translate(-410 -2150)"/><path class="cls-75" d="M447.22 2235.77h1.05v.23h-.59l-.47-.27zm-3.3-5.86v.88h1.14v-.22l-1.14-.66zm0 1.09v.56h1.14v-.56h-1.14zm2.86.56h-1.36v-.56h.39l1 .56zm-1.36-.79zm3.22 5h.47v.23h-.47v-.27zm-.59.47h.23v.14l-.23-.14zm.59 0h.47v.61l-.47-.27v-.34z" transform="translate(-410 -2150)"/><path class="cls-9" d="M39.2 79.14v-.86l-8.25-4.77v.86l8.25 4.77z"/><path class="cls-21" d="M39.2 78.28l-8.25-4.77.84-.49 8.26 4.77-.85.49z"/><path class="cls-138" d="M39.2 79.14v-.86l.85-.49v.86l-.85.49z"/><path class="cls-120" d="M39.1 88.22l-6.36-3.67.84-.49 5.52 3.19v.97z"/><path class="cls-139" d="M32.74 84.55l.84-.49.84.49h-1.68z"/><path class="cls-9" d="M39.2 79.14v-.86l-8.25-4.77v.86l8.25 4.77z"/><path class="cls-55" d="M102.01 110.5v-10.11l-6.35-3.67v10.11l6.35 3.67z"/><path class="cls-140" d="M103.68 102.78v-.86l-.72-1.84-8.25-4.77v.86l.71 1.84 8.26 4.77z"/><path class="cls-141" d="M102.01 110.5v-10.11l-6.35-3.67v10.11l6.35 3.67z"/><path class="cls-72" d="M96.5 97.2v9.14l5.51 3.19v-9.14L96.5 97.2z"/><path class="cls-142" d="M96.5 97.77v8.57l.84.49V99.7l4.67 2.7v-1.44l-4.67-2.7v-.57l-.84-.49v.57z"/><path class="cls-143" d="M506.84 2247.79v8.37l1.14.66v-8.37l-1.14-.66zm5.18 11.36v-8.37l-.47-.27v8.37l.47.27zm-3.68-2.13l2.86 1.65v-8.37l-2.86-1.65v8.35z" transform="translate(-410 -2150)"/><path class="cls-75" d="M510.14 2258.06h1.05v.27h-.59l-.47-.27zm-.3-3.07h1.35v-.27h-.89l-.47.27zm1.71 0h.45v-.27h-.47v.28zm.47-1.26l-.47.27v.51h.45v-.78zm-.82.47l-.53.31h.53v-.31zm.35 3.85h.45v.27h-.47v-.27zm-.59.47h.23v.14l-.23-.14zm.59 0h.45v.61l-.47-.27v-.34z" transform="translate(-410 -2150)"/><path class="cls-118" d="M508 2252.65v-4.21l-.3-.17v4.55l.3-.17zm.84-3.72v3.24l-.49.28v-3.8l.49.28zm2.8 1.62h-.07v-.09h.07zm-.43.25l-2 1.17v-2.83l2 1.17v.49z" transform="translate(-410 -2150)"/><path class="cls-9" d="M102.12 101.42v-.86l-8.26-4.77v.86l8.26 4.77z"/><path class="cls-21" d="M102.12 100.56l-8.26-4.77.85-.48 8.25 4.77-.84.48z"/><path class="cls-144" d="M102.12 101.42v-.86l.84-.48v.85l-.84.49z"/><path class="cls-120" d="M102.01 110.5l-6.35-3.67.84-.49 5.51 3.19v.97z"/><path class="cls-145" d="M95.66 106.83l.84-.49.84.49h-1.68z"/><path class="cls-9" d="M102.12 101.42v-.86l-8.26-4.77v.86l8.26 4.77z"/><path class="cls-55" d="M102.01 110.5v-10.11l-6.35-3.67v10.11l6.35 3.67z"/><path class="cls-140" d="M103.68 102.78v-.86l-.72-1.84-8.25-4.77v.86l.71 1.84 8.26 4.77z"/><path class="cls-141" d="M102.01 110.5v-10.11l-6.35-3.67v10.11l6.35 3.67z"/><path class="cls-72" d="M96.5 97.2v9.14l5.51 3.19v-9.14L96.5 97.2z"/><path class="cls-142" d="M96.5 97.77v8.57l.84.49V99.7l4.67 2.7v-1.44l-4.67-2.7v-.57l-.84-.49v.57z"/><path class="cls-143" d="M506.84 2247.79v8.37l1.14.66v-8.37l-1.14-.66zm5.18 11.36v-8.37l-.47-.27v8.37l.47.27zm-3.68-2.13l2.86 1.65v-8.37l-2.86-1.65v8.35z" transform="translate(-410 -2150)"/><path class="cls-75" d="M510.14 2258.06h1.05v.27h-.59l-.47-.27zm1.41 0h.45v.27h-.47v-.27zm-.59.47h.23v.14l-.23-.14zm.59 0h.45v.61l-.47-.27v-.34z" transform="translate(-410 -2150)"/><path class="cls-9" d="M102.12 101.42v-.86l-8.26-4.77v.86l8.26 4.77z"/><path class="cls-21" d="M102.12 100.56l-8.26-4.77.85-.48 8.25 4.77-.84.48z"/><path class="cls-144" d="M102.12 101.42v-.86l.84-.48v.85l-.84.49z"/><path class="cls-120" d="M102.01 110.5l-6.35-3.67.84-.49 5.51 3.19v.97z"/><path class="cls-145" d="M95.66 106.83l.84-.49.84.49h-1.68z"/><path class="cls-9" d="M102.12 101.42v-.86l-8.26-4.77v.86l8.26 4.77z"/><path class="cls-55" d="M102.01 124.53v-10.11l-6.35-3.67v10.11l6.35 3.67z"/><path class="cls-146" d="M103.68 116.81v-.86l-.72-1.84-8.25-4.77v.86l.71 1.84 8.26 4.77z"/><path class="cls-147" d="M102.01 124.53v-10.11l-6.35-3.67v10.11l6.35 3.67z"/><path class="cls-72" d="M96.5 111.23v9.15l5.51 3.18v-9.14l-5.51-3.19z"/><path class="cls-148" d="M96.5 111.8v8.58l.84.48v-7.13l4.67 2.7v-1.44l-4.67-2.7v-.57l-.84-.49v.57z"/><path class="cls-149" d="M506.84 2261.82v8.37l1.14.66v-8.37l-1.14-.66zm5.18 11.36v-8.37l-.47-.27v8.37l.47.27zm-3.68-2.13l2.86 1.65v-8.37l-2.86-1.65v8.32z" transform="translate(-410 -2150)"/><path class="cls-75" d="M510.14 2272.09h1.05v.27h-.59l-.47-.27zm-.3-3.07h1.35v-.27h-.89l-.47.27zm1.71 0h.45v-.27h-.47v.25zm.47-1.26l-.47.27v.51h.45v-.78zm-.82.47l-.53.31h.53v-.31zm.35 3.85h.45v.27h-.47v-.27zm-.59.47h.23v.14l-.23-.14zm.59 0h.45v.61l-.47-.27v-.34z" transform="translate(-410 -2150)"/><path class="cls-118" d="M508 2266.68v-4.21l-.3-.17v4.55l.3-.17zm.84-3.72v3.24l-.49.28v-3.8l.49.28zm2.8 1.62h-.07v-.09h.07zm-.43.25l-2 1.17v-2.83l2 1.17v.49z" transform="translate(-410 -2150)"/><path class="cls-9" d="M102.12 115.45v-.86l-8.26-4.77v.86l8.26 4.77z"/><path class="cls-21" d="M102.12 114.59l-8.26-4.77.85-.48 8.25 4.77-.84.48z"/><path class="cls-150" d="M102.12 115.45v-.86l.84-.48v.86l-.84.48z"/><path class="cls-120" d="M102.01 124.53l-6.35-3.67.84-.48 5.51 3.18v.97z"/><path class="cls-151" d="M95.66 120.86l.84-.48.84.48h-1.68z"/><path class="cls-9" d="M102.12 115.45v-.86l-8.26-4.77v.86l8.26 4.77z"/><path class="cls-55" d="M102.01 124.53v-10.11l-6.35-3.67v10.11l6.35 3.67z"/><path class="cls-146" d="M103.68 116.81v-.86l-.72-1.84-8.25-4.77v.86l.71 1.84 8.26 4.77z"/><path class="cls-147" d="M102.01 124.53v-10.11l-6.35-3.67v10.11l6.35 3.67z"/><path class="cls-72" d="M96.5 111.23v9.15l5.51 3.18v-9.14l-5.51-3.19z"/><path class="cls-148" d="M96.5 111.8v8.58l.84.48v-7.13l4.67 2.7v-1.44l-4.67-2.7v-.57l-.84-.49v.57z"/><path class="cls-149" d="M506.84 2261.82v8.37l1.14.66v-8.37l-1.14-.66zm5.18 11.36v-8.37l-.47-.27v8.37l.47.27zm-3.68-2.13l2.86 1.65v-8.37l-2.86-1.65v8.32z" transform="translate(-410 -2150)"/><path class="cls-75" d="M510.14 2272.09h1.05v.27h-.59l-.47-.27zm1.41 0h.45v.27h-.47v-.27zm-.59.47h.23v.14l-.23-.14zm.59 0h.45v.61l-.47-.27v-.34z" transform="translate(-410 -2150)"/><path class="cls-9" d="M102.12 115.45v-.86l-8.26-4.77v.86l8.26 4.77z"/><path class="cls-21" d="M102.12 114.59l-8.26-4.77.85-.48 8.25 4.77-.84.48z"/><path class="cls-150" d="M102.12 115.45v-.86l.84-.48v.86l-.84.48z"/><path class="cls-120" d="M102.01 124.53l-6.35-3.67.84-.48 5.51 3.18v.97z"/><path class="cls-151" d="M95.66 120.86l.84-.48.84.48h-1.68z"/><path class="cls-9" d="M102.12 115.45v-.86l-8.26-4.77v.86l8.26 4.77z"/><path class="cls-55" d="M114.47 117.7v-10.11l-6.36-3.67v10.11l6.36 3.67z"/><path class="cls-152" d="M115.76 108.15l-.34-.87-8.26-4.77v.86l.72 1.84 7.88 4.55v-1.61z"/><path class="cls-153" d="M114.47 117.7v-10.11l-6.36-3.67v10.11l6.36 3.67z"/><path class="cls-72" d="M108.95 104.4v9.15l5.52 3.18v-9.14l-5.52-3.19z"/><path class="cls-154" d="M108.95 104.97v8.58l.85.48v-7.13l4.67 2.7v-1.44l-4.67-2.7v-.57l-.85-.49v.57z"/><path class="cls-155" d="M519.29 2255v8.37l1.14.66v-8.37l-1.14-.66zm5.18 11.36V2258l-.47-.27v8.37l.47.27zm-3.68-2.13l2.86 1.65v-8.37l-2.86-1.65v8.37z" transform="translate(-410 -2150)"/><path class="cls-75" d="M522.59 2265.26h1.05v.27h-.59l-.47-.27zm-3.3-5.86v.88h1.14v-.22l-1.14-.66zm0 1.09v.51h1.14v-.56h-1.14zm2.86.56h-1.36v-.56h.39l1 .56zm-1.36-.79zm3.22 5h.47v.27H524v-.27zm-.59.47h.23v.14l-.23-.14zm.59 0h.47v.61l-.47-.27v-.34z" transform="translate(-410 -2150)"/><path class="cls-9" d="M114.58 108.62v-.86l-8.26-4.76v.86l8.26 4.76z"/><path class="cls-21" d="M114.58 107.76l-8.26-4.76.84-.49 8.26 4.77-.84.48z"/><path class="cls-156" d="M114.58 108.62v-.86l.84-.48v.86l-.84.48z"/><path class="cls-120" d="M114.47 117.7l-6.36-3.67.84-.48 5.52 3.18v.97z"/><path class="cls-157" d="M108.11 114.03l.84-.48.85.48h-1.69z"/><path class="cls-9" d="M114.58 108.62v-.86l-8.26-4.76v.86l8.26 4.76z"/><path class="cls-55" d="M114.47 131.73v-10.11l-6.36-3.67v10.11l6.36 3.67z"/><path class="cls-158" d="M115.76 122.18l-.34-.87-8.26-4.77v.86l.72 1.84 7.88 4.55v-1.61z"/><path class="cls-159" d="M114.47 131.73v-10.11l-6.36-3.67v10.11l6.36 3.67z"/><path class="cls-72" d="M108.95 118.43v9.15l5.52 3.18v-9.14l-5.52-3.19z"/><path class="cls-160" d="M108.95 119v8.58l.85.48v-7.13l4.67 2.7v-1.44l-4.67-2.7v-.57l-.85-.49v.57z"/><path class="cls-161" d="M519.29 2269v8.37l1.14.66v-8.37l-1.14-.66zm5.18 11.36V2272l-.47-.27v8.37l.47.27zm-3.68-2.13l2.86 1.65v-8.37l-2.86-1.65v8.37z" transform="translate(-410 -2150)"/><path class="cls-75" d="M522.59 2279.29h1.05v.27h-.59l-.47-.27zm-3.3-5.86v.88h1.14v-.22l-1.14-.66zm0 1.09v.56h1.14v-.56h-1.14zm2.86.56h-1.36v-.56h.39l1 .56zm-1.36-.79zm3.22 5h.47v.27H524v-.27zm-.59.47h.23v.14l-.23-.14zm.59 0h.47v.61l-.47-.27v-.34z" transform="translate(-410 -2150)"/><path class="cls-9" d="M114.58 122.65v-.86l-8.26-4.76v.86l8.26 4.76z"/><path class="cls-21" d="M114.58 121.79l-8.26-4.76.84-.49 8.26 4.77-.84.48z"/><path class="cls-162" d="M114.58 122.65v-.86l.84-.48v.86l-.84.48z"/><path class="cls-120" d="M114.47 131.73l-6.36-3.67.84-.48 5.52 3.18v.97z"/><path class="cls-163" d="M108.11 128.06l.84-.48.85.48h-1.69z"/><path class="cls-9" d="M114.58 122.65v-.86l-8.26-4.76v.86l8.26 4.76z"/><path class="cls-10" d="M545.24 2249.69a5.5 5.5 0 0 0-.55 1.91c.09.53 1.23 1.29 5.3-.8s4.25-3.55 3.51-5.88z" transform="translate(-410 -2150)"/><path class="cls-30" d="M545.24 2249.69a3.72 3.72 0 0 0-.12 1.72c.21.46.85.8 4.92-1.29 3.51-1.88 3.77-2.88 3.45-5.19z" transform="translate(-410 -2150)"/><path class="cls-31" d="M545.24 2249.69a2.84 2.84 0 0 0 .32 1.53c.33.39.47.31 4.55-1.79 2.94-1.67 3.28-2.22 3.39-4.51z" transform="translate(-410 -2150)"/><path class="cls-32" d="M545.24 2249.69a2.72 2.72 0 0 0 .76 1.31c.45.32.09-.18 4.17-2.28 2.37-1.46 2.8-1.56 3.33-3.82z" transform="translate(-410 -2150)"/><path class="cls-33" d="M545.24 2249.69a3.37 3.37 0 0 0 1.2 1.14c.57.24-.29-.68 3.79-2.77 1.8-1.25 2.32-.9 3.27-3.14z" transform="translate(-410 -2150)"/><path class="cls-164" d="M141.71 105.96l-5.52-5.96 6.36-3.67v10.12l-.84-.49z"/><path class="cls-165" d="M141.71 96.82v9.14l-5.52 3.19V100l5.52-3.18z"/><path class="cls-166" d="M136.08 100.18l8.26-4.77-.84-.49-8.26 4.77.84.49z"/><path class="cls-167" d="M136.08 101.04v-.86l-.84-.49v.86l.84.49z"/><path class="cls-168" d="M136.19 110.12l6.36-3.67-.84-.49-5.52 3.19v.97z"/><path class="cls-169" d="M551.37 2247.4v8.37l-1.14.66v-8.37l1.14-.66zm-5.18 11.36v-8.37l.47-.27v8.37l-.47.27zm3.68-2.13l-2.86 1.65v-8.37l2.86-1.65v8.37z" transform="translate(-410 -2150)"/><path class="cls-170" d="M136.08 101.04v-.86l8.26-4.77v.86l-8.26 4.77z"/><path class="cls-10" d="M545.24 2263.72a5.5 5.5 0 0 0-.55 1.91c.09.53 1.23 1.29 5.3-.8s4.25-3.55 3.51-5.88z" transform="translate(-410 -2150)"/><path class="cls-30" d="M545.24 2263.72a3.73 3.73 0 0 0-.12 1.72c.21.46.85.8 4.92-1.29 3.51-1.88 3.76-2.88 3.45-5.19z" transform="translate(-410 -2150)"/><path class="cls-31" d="M545.24 2263.72a2.84 2.84 0 0 0 .32 1.53c.33.39.47.31 4.55-1.79 2.94-1.67 3.28-2.22 3.39-4.51z" transform="translate(-410 -2150)"/><path class="cls-32" d="M545.24 2263.72a2.72 2.72 0 0 0 .76 1.33c.45.32.09-.18 4.17-2.28 2.37-1.46 2.8-1.56 3.33-3.82z" transform="translate(-410 -2150)"/><path class="cls-33" d="M545.24 2263.72a3.37 3.37 0 0 0 1.2 1.14c.57.24-.29-.68 3.79-2.77 1.8-1.25 2.32-.9 3.27-3.14z" transform="translate(-410 -2150)"/><path class="cls-171" d="M141.71 119.99l-5.52-5.96 6.36-3.67v10.12l-.84-.49z"/><path class="cls-172" d="M141.71 110.85v9.14l-5.52 3.19v-9.15l5.52-3.18z"/><path class="cls-173" d="M136.08 114.21l8.26-4.77-.84-.49-8.26 4.77.84.49z"/><path class="cls-174" d="M136.08 115.07v-.86l-.84-.49v.86l.84.49z"/><path class="cls-175" d="M136.19 124.15l6.36-3.67-.84-.49-5.52 3.19v.97z"/><path class="cls-176" d="M551.37 2261.43v8.37l-1.14.66v-8.37l1.14-.66zm-5.18 11.36v-8.37l.47-.27v8.37l-.47.27zm3.68-2.13l-2.86 1.65v-8.37l2.86-1.65v8.37z" transform="translate(-410 -2150)"/><path class="cls-177" d="M136.08 115.07v-.86l8.26-4.77v.86l-8.26 4.77z"/><path class="cls-10" d="M557.95 2242.36a5.5 5.5 0 0 0-.55 1.91c.09.53 1.23 1.29 5.3-.8s4.25-3.55 3.51-5.88z" transform="translate(-410 -2150)"/><path class="cls-30" d="M557.95 2242.36a3.72 3.72 0 0 0-.12 1.72c.21.46.85.8 4.92-1.29 3.51-1.88 3.77-2.89 3.45-5.19z" transform="translate(-410 -2150)"/><path class="cls-31" d="M557.95 2242.36a2.84 2.84 0 0 0 .32 1.53c.33.39.47.31 4.55-1.79 2.94-1.67 3.28-2.22 3.39-4.51z" transform="translate(-410 -2150)"/><path class="cls-32" d="M557.95 2242.36a2.72 2.72 0 0 0 .76 1.33c.45.32.09-.18 4.17-2.28 2.37-1.46 2.8-1.56 3.33-3.82z" transform="translate(-410 -2150)"/><path class="cls-33" d="M557.95 2242.36a3.37 3.37 0 0 0 1.2 1.14c.57.25-.29-.68 3.79-2.77 1.8-1.25 2.32-.9 3.27-3.14z" transform="translate(-410 -2150)"/><path class="cls-178" d="M154.41 98.63l-5.51-5.96 6.35-3.67v10.11l-.84-.48z"/><path class="cls-179" d="M154.41 89.48v9.15l-5.51 3.18v-9.14l5.51-3.19z"/><path class="cls-180" d="M148.79 92.84l8.25-4.77-.84-.48-8.26 4.77.85.48z"/><path class="cls-181" d="M148.79 93.7v-.86l-.85-.48v.86l.85.48z"/><path class="cls-182" d="M148.9 102.78l6.35-3.67-.84-.48-5.51 3.18v.97z"/><path class="cls-183" d="M564.07 2240.07v8.37l-1.14.66v-8.37l1.14-.66zm-5.18 11.36v-8.37l.47-.27v8.37l-.47.27zm3.68-2.13l-2.86 1.65v-8.37l2.86-1.65v8.37z" transform="translate(-410 -2150)"/><path class="cls-184" d="M148.79 93.7v-.86l8.25-4.77v.86l-8.25 4.77z"/><path class="cls-10" d="M557.95 2256.39a5.5 5.5 0 0 0-.55 1.91c.09.53 1.23 1.29 5.3-.8s4.25-3.55 3.51-5.88z" transform="translate(-410 -2150)"/><path class="cls-30" d="M557.95 2256.39a3.72 3.72 0 0 0-.12 1.72c.21.46.85.8 4.92-1.29 3.51-1.88 3.76-2.89 3.45-5.19z" transform="translate(-410 -2150)"/><path class="cls-31" d="M557.95 2256.39a2.84 2.84 0 0 0 .32 1.53c.33.39.47.31 4.55-1.79 2.94-1.67 3.28-2.22 3.39-4.51z" transform="translate(-410 -2150)"/><path class="cls-32" d="M557.95 2256.39a2.72 2.72 0 0 0 .76 1.33c.45.32.09-.18 4.17-2.28 2.37-1.46 2.8-1.56 3.33-3.82z" transform="translate(-410 -2150)"/><path class="cls-33" d="M557.95 2256.39a3.37 3.37 0 0 0 1.2 1.14c.57.25-.29-.68 3.79-2.77 1.8-1.25 2.32-.9 3.27-3.14z" transform="translate(-410 -2150)"/><path class="cls-185" d="M154.41 112.66l-5.51-5.96 6.35-3.67v10.11l-.84-.48z"/><path class="cls-186" d="M154.41 103.51v9.15l-5.51 3.18v-9.14l5.51-3.19z"/><path class="cls-187" d="M148.79 106.87l8.25-4.76-.84-.49-8.26 4.77.85.48z"/><path class="cls-188" d="M148.79 107.73v-.86l-.85-.48v.86l.85.48z"/><path class="cls-189" d="M148.9 116.81l6.35-3.67-.84-.48-5.51 3.18v.97z"/><path class="cls-190" d="M564.07 2254.1v8.37l-1.14.66v-8.37l1.14-.66zm-5.18 11.36v-8.37l.47-.27v8.37l-.47.27zm3.68-2.13l-2.86 1.65v-8.37l2.86-1.65v8.37z" transform="translate(-410 -2150)"/><path class="cls-191" d="M148.79 107.73v-.86l8.25-4.76v.86l-8.25 4.76z"/><path class="cls-10" d="M532.53 2257a5.5 5.5 0 0 0-.55 1.91c.09.53 1.23 1.29 5.3-.8s4.25-3.55 3.51-5.88z" transform="translate(-410 -2150)"/><path class="cls-30" d="M532.53 2257a3.72 3.72 0 0 0-.12 1.72c.21.46.85.8 4.92-1.29 3.51-1.88 3.77-2.89 3.45-5.19z" transform="translate(-410 -2150)"/><path class="cls-31" d="M532.53 2257a2.84 2.84 0 0 0 .32 1.53c.33.39.47.31 4.55-1.79 2.94-1.67 3.28-2.22 3.39-4.51z" transform="translate(-410 -2150)"/><path class="cls-32" d="M532.53 2257a2.72 2.72 0 0 0 .76 1.33c.45.32.09-.18 4.17-2.28 2.37-1.46 2.8-1.56 3.33-3.82z" transform="translate(-410 -2150)"/><path class="cls-33" d="M532.53 2257a3.36 3.36 0 0 0 1.2 1.14c.57.25-.29-.68 3.79-2.77 1.8-1.25 2.32-.9 3.27-3.14z" transform="translate(-410 -2150)"/><path class="cls-192" d="M129 113.3l-5.52-5.96 6.36-3.67v10.11l-.84-.48z"/><path class="cls-193" d="M129 104.15v9.15l-5.52 3.18v-9.14l5.52-3.19z"/><path class="cls-194" d="M123.38 107.51l8.25-4.76-.84-.49-8.26 4.77.85.48z"/><path class="cls-195" d="M123.38 108.37v-.86l-.85-.48v.86l.85.48z"/><path class="cls-196" d="M123.48 117.45l6.36-3.67-.84-.48-5.52 3.18v.97z"/><path class="cls-197" d="M538.66 2254.74v8.37l-1.14.66v-8.37l1.14-.66zm-5.18 11.36v-8.37l.47-.27v8.37l-.47.27zm3.68-2.13l-2.86 1.65v-8.37l2.86-1.65v8.4z" transform="translate(-410 -2150)"/><path class="cls-198" d="M123.38 108.37v-.86l8.25-4.76v.86l-8.25 4.76z"/><path class="cls-10" d="M532.53 2271.06a5.5 5.5 0 0 0-.53 1.94c.09.53 1.23 1.29 5.3-.8s4.25-3.55 3.51-5.88z" transform="translate(-410 -2150)"/><path class="cls-30" d="M532.53 2271.06a3.73 3.73 0 0 0-.12 1.72c.21.46.85.8 4.92-1.29 3.51-1.88 3.76-2.89 3.45-5.19z" transform="translate(-410 -2150)"/><path class="cls-31" d="M532.53 2271.06a2.84 2.84 0 0 0 .32 1.53c.33.39.47.31 4.55-1.79 2.94-1.67 3.28-2.22 3.39-4.51z" transform="translate(-410 -2150)"/><path class="cls-32" d="M532.53 2271.06a2.72 2.72 0 0 0 .76 1.33c.45.32.09-.18 4.17-2.28 2.37-1.46 2.8-1.56 3.33-3.82z" transform="translate(-410 -2150)"/><path class="cls-33" d="M532.53 2271.06a3.37 3.37 0 0 0 1.2 1.14c.57.25-.29-.68 3.79-2.77 1.8-1.25 2.32-.9 3.27-3.14z" transform="translate(-410 -2150)"/><path class="cls-199" d="M129 127.33l-5.52-5.96 6.36-3.67v10.11l-.84-.48z"/><path class="cls-200" d="M129 118.19v9.14l-5.52 3.18v-9.14l5.52-3.18z"/><path class="cls-201" d="M123.38 121.54l8.25-4.76-.84-.49-8.26 4.77.85.48z"/><path class="cls-202" d="M123.38 122.4v-.86l-.85-.48v.86l.85.48z"/><path class="cls-203" d="M123.48 131.49l6.36-3.68-.84-.48-5.52 3.18v.98z"/><path class="cls-204" d="M538.66 2268.77v8.37l-1.14.66v-8.37l1.14-.66zm-5.18 11.36v-8.37l.47-.27v8.37l-.47.27zm3.68-2.13l-2.86 1.65v-8.37l2.86-1.65v8.37z" transform="translate(-410 -2150)"/><path class="cls-205" d="M123.38 122.4v-.86l8.25-4.76v.86l-8.25 4.76z"/><path class="cls-9" d="M95.58 87.86l22.34 12.89 37.84-21.84-97.72-56.42-37.83 21.85 22.34 12.9 12.39-7.16 13.01 7.51 4.79-2.76 4.78 8.29 12.54 7.24 2.57-1.48v2.96l15.34 8.86-12.39 7.16z"/><path class="cls-17" d="M96.45 88.36l21.47 12.39 36.96-21.33L58.04 23.5 21.08 44.84l21.47 12.4 12.39-7.16 13.01 7.51 4.79-2.76 4.78 8.29 12.54 7.24 2.57-1.48v2.96l15.34 8.86-.87.51.87.5-11.52 6.65z"/><path class="cls-206" d="M95.58 87.86l2.02 1.16 10.37-5.99V80.7l-12.39 7.16z"/><path class="cls-29" d="M96.45 88.36l1.15.66 10.37-5.99v-1.32l-11.52 6.65z"/><path class="cls-207" d="M22.22 45.5l35.82-20.68h.91l-.91-2.33-37.83 21.85 2.01 1.16z"/><path class="cls-29" d="M22.22 45.5l35.82-20.68h.91l-.4-1.02-.51-.3-36.96 21.34 1.14.66z"/><path class="cls-26" d="M154.2 79.81L58.04 24.3 21.77 45.24l20.78 12 12.39-7.16 13.01 7.51 4.79-2.76 4.78 8.29 12.54 7.24 2.57-1.48v2.96l15.34 8.86v1.8l-10.83 6.26 20.78 11.99 36.28-20.94z"/><path class="cls-27" d="M76.42 61.21l1.1 1.91 12.54 7.24 2.57-1.48v2.96l9.28 5.36 1.1-.64-.22-.12-.22-.13-.22-.13-.22-.12-.21-.13-.22-.13-.22-.12-.22-.13-.22-.13-.22-.12-.22-.13-.22-.12-.22-.13-.22-.13-.21-.12-.22-.13-.22-.13-.22-.12-.22-.13-.22-.13-.22-.12-.22-.13-.21-.12-.22-.13-.22-.13-.22-.12-.22-.13-.22-.12-.22-.13-.22-.13-.21-.12-.22-.13.03-.14.04-.13.04-.14.03-.13.04-.14.03-.14.04-.13.04-.14.03-.13.04-.14.04-.14.03-.13.04-.14.04-.13.03-.14.04-.14.04-.13.03-.14.04-.13.03-.14.04-.14.04-.13.03-.14.04-.13.04-.14.03-.14.04-.13.04-.14.03-.13.04-.14.04-.14.03-.13-.25-.07-.25-.07-.26-.07-.25-.06-.26-.07-.25-.07-.26-.07-.25-.07-.25-.06-.26-.07-.25-.07-.25-.07-.26-.07-.25-.06-.26-.07-.25-.07-.25-.07-.26-.07-.25-.06-.26-.07-.25-.07-.25-.07-.26-.07-.25-.07-.25-.06-.26-.07-.25-.07-.26-.07-.25-.07-.25-.06-.25-.07-.26-.07-.25-.07-.25-.06-.26-.07-.25-.07-.26-.07-.25-.07-.25-.06-.26-.07-.25-.07-.25-.07-.26-.06-.25-.07-.26-.07-.25-.07-.25-.07-.26-.06-.25-.07-.25-.07-.26-.07-.25-.07-.26-.07-.25-.06-.25-.07-.26-.07-.25-.07-.25-.07-.26-.06-.25-.07-.26-.07-.25-.07-.25-.07-.25-.06-.22-.13-.22-.13-.22-.12-.22-.13-.22-.12-.22-.13-.22-.13-.22-.12-.21-.13-.22-.13-.22-.12-.22-.13-.22-.13-.22-.12-.22-.13-.22-.12-.22-.13-.21-.13-.22-.12-.22-.13-.14-.08z"/><path class="cls-27" d="M468.94 2174.82l-.9-.52-36.27 20.94.9.52 36.27-20.94zM484 2207l3.55 6.15 1.14.66-4.12-7.14-.57.33zm34 24.5v1l-10.83 6.25.9.52 11.73-6.77z" transform="translate(-410 -2150)"/><path class="cls-21" d="M79.43 68.37l7.88-4.55 7 4.05-7.88 4.55-7-4.05z"/><path class="cls-208" transform="rotate(-30 -3727.402 1899.546)" d="M485.05 2202.03h9.1v15.07h-9.1z"/><path class="cls-21" d="M57.35 55.63l7.88-4.55 7.01 4.04-7.88 4.55-7.01-4.04z"/><path class="cls-9" d="M64.36 59.67l-7.01-4.04v2.33L64.36 62l7.53-4.35 7.54 13.05 7 4.05v-2.33l-7-4.05-7.54-13.05-7.53 4.35z"/><path class="cls-209" d="M86.43 74.75v-2.33l7.88-4.55v2.33l-7.88 4.55z"/><path class="cls-17" d="M60.42 119.73l-3.11-1.79v-3.25l-15.45-8.92v3.25l-3.11-1.79v6.6l21.67 12.5v-6.6z"/><path class="cls-210" d="M57.31 116.26v-.85l-15.45-8.93v.86l15.45 8.92z"/><path class="cls-211" d="M448.75 2257.93v.87l3.46 2v-.86l-.36-.92-3.11-1.09zm21.66 13.38v-.37l-3.17-1.83v.37z" transform="translate(-410 -2150)"/><path class="cls-21" d="M37.91 107.23l3.61-2.09.34.2v3.68l-.42.25-3.53-2.04z"/><path class="cls-212" d="M60.42 126.33l2.77-1.6v-6.59l-2.77 1.59v6.6z"/><path class="cls-21" d="M60.5 116.1l3.53 2.04-3.61 2.08-3.53-2.03 3.61-2.09z"/><path class="cls-213" d="M57.31 117.94l2.77-1.6v-3.25l-2.77 1.6v3.25z"/><path class="cls-21" d="M41.02 105.77l3.61-2.09 16.29 9.41-3.61 2.09-16.29-9.41z"/><path class="cls-9" d="M41.44 110.13v-.86l-3.53-2.04v.86l3.53 2.04z"/><path class="cls-214" d="M41.44 110.13v-.86l.42-.25v.86l-.42.25z"/><path class="cls-9" d="M57.31 116.03v-.85l-16.29-9.41v.86l16.29 9.4z"/><path class="cls-215" d="M57.31 116.03v-.85l3.61-2.09v.86l-3.61 2.08z"/><path class="cls-9" d="M60.42 121.08v-.86l-3.53-2.03v.86l3.53 2.03z"/><path class="cls-216" d="M60.42 121.08v-.86l3.61-2.08v.86l-3.61 2.08z"/><path class="cls-217" d="M42.92 109.82l13.33 7.69.35.92v4.77l-13.32-7.69-.36-.92v-4.77z"/><path class="cls-218" d="M467.31 2267.94l.78-.45 2-1.15.42-.24 2 1.18-2 1.15h-.81l-.84-.49h-1.55z" transform="translate(-410 -2150)"/><path class="cls-21" d="M41.02 105.77l3.61-2.09 16.29 9.41-3.61 2.09-16.29-9.41z"/><path class="cls-9" d="M42.5 110.06l13.33 7.7v4.77l-13.33-7.7v-4.77z"/><path class="cls-21" d="M42.92 109.82l13.33 7.69-.42.25-13.33-7.7.42-.24z"/><path class="cls-219" d="M56.25 117.51l-.42.25v4.77l.42-.25v-4.77z"/><path class="cls-220" d="M117.92 148.79l-33-19.06v1.21l33 19.06v-1.21z"/><path class="cls-221" d="M117.92 148.79l58.04-33.52v1.22L117.92 150v-1.21z"/><path class="cls-222" d="M71.12 137.7l13.8-7.97v1.21l-13.8 7.97v-1.21z"/><path class="cls-223" d="M71.12 137.7l-51.91-29.97v1.21l51.91 29.97v-1.21z"/><path class="cls-224" d="M480.86 2215.16l.3.78.11.27.13.27.14.26.16.25.17.24.18.23.19.22.2.2.21.18.22.16.22.14.22.12.22.09.21.06h.74l.16-.07.14-.1.13-.12.11-.15.09-.17.07-.19.05-.21v-1.02l-.05-.27-.07-.27-.09-.27-.36-.92a4.82 4.82 0 0 0-1.93-2.44 1.34 1.34 0 0 0-2.19 1.27 4 4 0 0 0 .26 1.36z" transform="translate(-410 -2150)"/><path class="cls-225" d="M483.86 2217.85l.42-.24.14-.1.13-.12.11-.15.09-.17.07-.19.05-.21v-1.02l-.05-.27-.07-.28-.09-.27-.11-.27-.13-.27-.14-.26-.16-.25a4.44 4.44 0 0 0-1.39-1.38l-.22-.12-.22-.09-.21-.06h-.74l-.16.07-.42.24z" transform="translate(-410 -2150)"/><path class="cls-9" d="M482.31 2212.63a1.34 1.34 0 0 0-2.19 1.27 4.84 4.84 0 0 0 2.19 3.8 1.34 1.34 0 0 0 2.19-1.27 4.85 4.85 0 0 0-2.19-3.8z" transform="translate(-410 -2150)"/><path class="cls-226" d="M70.8 63.46l1.41 1.74.21.06-.06-.28-1.41-1.74-.15.22z"/><path class="cls-226" d="M480.57 2213a.13.13 0 0 0 0 .14s.09.06.11 0a.14.14 0 0 0 0-.14s-.09-.06-.11 0zm.74-.43s-.05.05 0 .11a.14.14 0 0 0 .11.1s.05-.05 0-.11a.14.14 0 0 0-.11-.1zm1 .28a.09.09 0 0 0-.14.08.31.31 0 0 0 .14.24.08.08 0 0 0 .14-.08.31.31 0 0 0-.14-.24zm1 .89s-.09-.06-.11 0a.13.13 0 0 0 0 .14s.09.06.11 0a.14.14 0 0 0 0-.14zm.74 1.28a.13.13 0 0 0-.11-.1s-.05.05 0 .11a.14.14 0 0 0 .11.1s.05-.05 0-.11zm.27 1.32a.18.18 0 0 0-.08-.14h-.08a.18.18 0 0 0 .08.14h.08zm-.27 1a.13.13 0 0 0 0-.14s-.09-.06-.11 0a.14.14 0 0 0 0 .14s.09.06.11 0zm-.74.43s.05-.05 0-.11a.14.14 0 0 0-.11-.1s-.05.05 0 .11a.13.13 0 0 0 .11.1zm-1-.27h.08a.18.18 0 0 0-.08-.14h-.08a.18.18 0 0 0 .08.14zm-1-.89s.09.06.11 0a.13.13 0 0 0 0-.14s-.09-.06-.11 0a.14.14 0 0 0 0 .14zm-.74-1.28a.13.13 0 0 0 .11.1s.05-.05 0-.11a.14.14 0 0 0-.11-.1s-.05.05 0 .11zm-.27-1.33a.18.18 0 0 0 .08.14h.08a.18.18 0 0 0-.08-.14h-.08z" transform="translate(-410 -2150)"/><path class="cls-226" d="M73.25 64.85l-.95.09-.08.22.24.18.94-.1-.15-.39z"/><path class="cls-226" d="M482.32 2214.76a.2.2 0 0 0-.33.19.74.74 0 0 0 .33.58.2.2 0 0 0 .33-.19.74.74 0 0 0-.33-.58z" transform="translate(-410 -2150)"/><path class="cls-9" d="M482.32 2214.95a.1.1 0 0 0-.17.1.37.37 0 0 0 .17.29.1.1 0 0 0 .17-.1.37.37 0 0 0-.17-.29z" transform="translate(-410 -2150)"/></svg>