<svg id="Слой_1" data-name="Слой 1" xmlns="http://www.w3.org/2000/svg" xmlns:xlink="http://www.w3.org/1999/xlink" viewBox="0 0 160.5 110"><defs><style>.cls-1,.cls-10,.cls-11,.cls-12,.cls-13,.cls-14,.cls-15,.cls-16,.cls-17,.cls-18,.cls-19,.cls-2,.cls-20,.cls-21,.cls-22,.cls-23,.cls-24,.cls-25,.cls-26,.cls-27,.cls-28,.cls-29,.cls-3,.cls-30,.cls-31,.cls-32,.cls-33,.cls-34,.cls-35,.cls-36,.cls-37,.cls-38,.cls-39,.cls-4,.cls-40,.cls-41,.cls-42,.cls-43,.cls-44,.cls-45,.cls-46,.cls-47,.cls-48,.cls-49,.cls-5,.cls-50,.cls-51,.cls-52,.cls-53,.cls-6,.cls-7,.cls-8,.cls-9{fill-rule:evenodd}.cls-1{fill:url(#GradientFill_62)}.cls-2{fill:#f8f4f5}.cls-3{fill:#c5bcbd}.cls-4{fill:#d5cbce}.cls-5{fill:url(#GradientFill_128)}.cls-6{fill:url(#GradientFill_128-2)}.cls-7{fill:#cdc1c3}.cls-8{fill:url(#GradientFill_128-3)}.cls-9{fill:url(#GradientFill_485)}.cls-10{fill:url(#GradientFill_128-4)}.cls-11{fill:url(#GradientFill_128-5)}.cls-12{fill:url(#GradientFill_128-6)}.cls-13{fill:#3a3437}.cls-14{fill:#554449}.cls-15{fill:#100c08}.cls-16{fill:#005e5d}.cls-17{fill:#004141}.cls-18{fill:#ab6724}.cls-19{fill:#935118}.cls-20{fill:#4e6225}.cls-21{fill:#3d501f}.cls-22{fill:#d75713}.cls-23{fill:#e7ab10}.cls-24{fill:url(#GradientFill_128-7)}.cls-25{fill:url(#GradientFill_128-8)}.cls-26{fill:url(#GradientFill_128-9)}.cls-27{fill:url(#GradientFill_485-2)}.cls-28{fill:url(#GradientFill_128-10)}.cls-29{fill:url(#GradientFill_128-11)}.cls-30{fill:url(#GradientFill_128-12)}.cls-31{fill:url(#GradientFill_128-13)}.cls-32{fill:#ef8000}.cls-33{fill:url(#GradientFill_484)}.cls-34{fill:#1d1d1b}.cls-35{fill:#9f3816}.cls-36{fill:url(#GradientFill_326)}.cls-37{fill:#c07c24}.cls-38{fill:#aa9da1}.cls-39{fill:url(#GradientFill_479)}.cls-40{fill:url(#GradientFill_479-2)}.cls-41{fill:url(#GradientFill_479-3)}.cls-42{fill:url(#GradientFill_483)}.cls-43{fill:#ffcc0c}.cls-44{fill:url(#GradientFill_482)}.cls-45{fill:url(#GradientFill_326-2)}.cls-46{fill:#e19b1f}.cls-47{fill:#b0a4a7}.cls-48{fill:url(#GradientFill_479-4)}.cls-49{fill:url(#GradientFill_479-5)}.cls-50{fill:url(#GradientFill_481)}.cls-51{fill:url(#GradientFill_480)}.cls-52{fill:url(#GradientFill_479-6)}.cls-53{fill:url(#GradientFill_478)}</style><linearGradient id="GradientFill_62" x1="187.83" y1="2504.76" x2="330" y2="2504.76" gradientUnits="userSpaceOnUse"><stop offset="0" stop-color="#98898c"/><stop offset=".43" stop-color="#a7999d"/><stop offset="1" stop-color="#b2a3a5"/></linearGradient><linearGradient id="GradientFill_128" x1="40.6" y1="82.65" x2="46.64" y2="95.61" gradientUnits="userSpaceOnUse"><stop offset="0" stop-color="#a29497"/><stop offset=".43" stop-color="#aea2a6"/><stop offset="1" stop-color="#bbaeaf"/></linearGradient><linearGradient id="GradientFill_128-2" x1="71.06" y1="64.85" x2="77.11" y2="77.82" xlink:href="#GradientFill_128"/><linearGradient id="GradientFill_128-3" x1="46.58" y1="68.58" x2="43.8" y2="63.57" xlink:href="#GradientFill_128"/><linearGradient id="GradientFill_485" x1="46.68" y1="58.13" x2="45.09" y2="52.6" gradientUnits="userSpaceOnUse"><stop offset="0" stop-color="#a29497"/><stop offset="1" stop-color="#918486"/></linearGradient><linearGradient id="GradientFill_128-4" x1="44.49" y1="67.29" x2="40.15" y2="55.36" xlink:href="#GradientFill_128"/><linearGradient id="GradientFill_128-5" x1="37.4" y1="60.25" x2="41.19" y2="49.84" xlink:href="#GradientFill_128"/><linearGradient id="GradientFill_128-6" x1="51.49" y1="61.8" x2="54.06" y2="66.26" xlink:href="#GradientFill_128"/><linearGradient id="GradientFill_128-7" x1="78.53" y1="104.55" x2="84.57" y2="117.51" xlink:href="#GradientFill_128"/><linearGradient id="GradientFill_128-8" x1="108.99" y1="86.75" x2="115.04" y2="99.72" xlink:href="#GradientFill_128"/><linearGradient id="GradientFill_128-9" x1="83.32" y1="88.36" x2="86.29" y2="93.5" xlink:href="#GradientFill_128"/><linearGradient id="GradientFill_485-2" x1="84.61" y1="80.03" x2="83.02" y2="74.5" xlink:href="#GradientFill_485"/><linearGradient id="GradientFill_128-10" x1="82.42" y1="89.19" x2="78.08" y2="77.26" xlink:href="#GradientFill_128"/><linearGradient id="GradientFill_128-11" x1="75.33" y1="82.15" x2="79.12" y2="71.74" xlink:href="#GradientFill_128"/><linearGradient id="GradientFill_128-12" x1="89.42" y1="83.7" x2="91.99" y2="88.16" xlink:href="#GradientFill_128"/><linearGradient id="GradientFill_128-13" x1="134.38" y1="141.96" x2="89.13" y2="44.91" xlink:href="#GradientFill_128"/><linearGradient id="GradientFill_484" x1="104.09" y1="66.02" x2="101.56" y2="61.44" gradientUnits="userSpaceOnUse"><stop offset="0" stop-color="#9f3816"/><stop offset="1" stop-color="#772b10"/></linearGradient><linearGradient id="GradientFill_326" x1="109.76" y1="74.63" x2="92.52" y2="44.76" gradientUnits="userSpaceOnUse"><stop offset="0" stop-color="#a15d25"/><stop offset="1" stop-color="#e19b1f"/></linearGradient><linearGradient id="GradientFill_479" x1="106.15" y1="38.64" x2="108.15" y2="41.96" gradientUnits="userSpaceOnUse"><stop offset="0" stop-color="#f8f4f5"/><stop offset=".52" stop-color="#d7cfd1"/><stop offset="1" stop-color="#aa9da1"/></linearGradient><linearGradient id="GradientFill_479-2" x1="94.42" y1="32.02" x2="95.9" y2="34.21" xlink:href="#GradientFill_479"/><linearGradient id="GradientFill_479-3" x1="97.25" y1="32.52" x2="98.85" y2="35.29" xlink:href="#GradientFill_479"/><linearGradient id="GradientFill_483" x1="272.03" y1="2464.74" x2="269.72" y2="2468.73" gradientUnits="userSpaceOnUse"><stop offset="0" stop-color="#d5cbce"/><stop offset="1" stop-color="#e7ab10"/></linearGradient><linearGradient id="GradientFill_482" x1="236.03" y1="2488.98" x2="238.29" y2="2485.22" gradientUnits="userSpaceOnUse"><stop offset="0" stop-color="#c07c24"/><stop offset="1" stop-color="#e7ab10"/></linearGradient><linearGradient id="GradientFill_326-2" x1="46.95" y1="8.17" x2="79.4" y2="66.71" xlink:href="#GradientFill_326"/><linearGradient id="GradientFill_479-4" x1="57.25" y1="53.56" x2="58.37" y2="55.51" xlink:href="#GradientFill_479"/><linearGradient id="GradientFill_479-5" x1="61.72" y1="55.5" x2="62.92" y2="57.58" xlink:href="#GradientFill_479"/><linearGradient id="GradientFill_481" x1="61.67" y1="57.84" x2="61.41" y2="55.33" gradientUnits="userSpaceOnUse"><stop offset="0" stop-color="#f8f4f5"/><stop offset="1" stop-color="#d5cbce"/></linearGradient><linearGradient id="GradientFill_480" x1="230.11" y1="2484.75" x2="230.41" y2="2486.66" gradientUnits="userSpaceOnUse"><stop offset="0" stop-color="#aa9da1"/><stop offset="1" stop-color="#fff"/></linearGradient><linearGradient id="GradientFill_479-6" x1="73.11" y1="61.94" x2="75.19" y2="65.26" xlink:href="#GradientFill_479"/><linearGradient id="GradientFill_478" x1="241.68" y1="2492.8" x2="241.86" y2="2494.54" gradientUnits="userSpaceOnUse"><stop offset="0" stop-color="#aa9da1"/><stop offset="1" stop-color="#d5cbce"/></linearGradient></defs><title>usage-item-5</title><path class="cls-1" d="M324 2514.37h1l.93-.54-.18-.1-.17-.1-.17-.1-.17-.1-.17-.1-.17-.1-.17-.1-.17-.1H324v-.13l-.06-.05-.06-.05-.07-.05-.08-.06-.09-.06-.1-.06-.2-.11-.21-.1-.22-.1-.23-.09-.24-.08-.25-.08-.26-.07-.28-.06-.28-.06-.29-.05H319l.76-.44.08-.07v-.28l-.07-.11-.11-.12-.15-.13-.18-.14-.22-.15-.26-.16-.26-.14-.26-.13-.27-.12-.27-.12-.27-.11-.28-.1-.28-.09-.28-.08-.29-.07-.29-.06h-.23l.09-.05h.4l.93-.54-.17-.1-.17-.1-.17-.1-.17-.1-.17-.1-.17-.1-.17-.1-.17-.1h-1.46l-.17-.1-.17-.1-.17-.1-.17-.1-.17-.1-.17-.1-.17-.1-.17-.1H312l-.89.51-.51-.3h1l.93-.54-.17-.1-.17-.1-.17-.1-.17-.1-.17-.1-.17-.1-.17-.1-.17-.1h-.73v-.83h-1.83l-.7.4-.26-.15.93-.54.08-.07v-.27l-.07-.11-.1-.12-.14-.13-.18-.14-.22-.15-.25-.15-.28-.15-.28-.15-.29-.14-.3-.13-.31-.12-.31-.11-.32-.1-.33-.09-.33-.08-.33-.07-.33-.06h-.15 1.4l.93-.54-.17-.1-.17-.1-.17-.1-.17-.1-.17-.1-.17-.1-.17-.1-.17-.1h-5.31l-50.8-29.96h-4.16l-2.68-1.55h-1.88L202 2491.68l4.77 2.76-18.9 10.91 7 4.05h1.88l5.22-3h25.48l17.23 9.95-18.9 10.91 7 4.05h1.88l5.22-3h25.48l20.3 11.72h1.88l2.68-1.55h4l35.78-20.67zm-117.31-10.74l2.06-1.19h9.53l1.15-.66 3.21 1.85h-15.92zm37.93 21.9l2.06-1.19h9.53l1.15-.66 3.21 1.85h-15.92zm60.48-22.09l-.27-.15.33.16z" transform="translate(-169.5 -2430)"/><path class="cls-2" d="M25.35 77.52l-7.02-4.06 40.45-23.35 7.03 4.05-40.46 23.36z"/><path class="cls-3" d="M35.6 63.49l23.18-13.38 7.03 4.05-23.18 13.39-7.03-4.06zm-.26 8.26l-4.77 2.75h-5.22l-1.8-1.04 2.97-1.71h8.82z"/><path class="cls-3" d="M224.79 2490.23l-17.89 10.33h-2.77l-4.25-2.45.39-.23.39-.23.39-.23.39-.23.39-.23.39-.23.39-.23.39-.23.39-.23.39-.23.39-.23.39-.23.39-.23.39-.23.39-.23.39-.23.39-.23.39-.23.39-.23.39-.23.39-.23.39-.23.39-.23.39-.23.39-.23.39-.23.39-.23.39-.23.39-.23.39-.23.39-.23.39-.23.14-.08.14-.08.14-.08.14-.08.14-.08.14-.08.14-.08.14-.08h11.27z" transform="translate(-169.5 -2430)"/><path class="cls-4" d="M25.35 74.5V33.48l-1.8-1.04v41.02l1.8 1.04z"/><path class="cls-5" d="M25.35 74.5V33.48l2.97-1.71v41.02l-2.97 1.71z"/><path class="cls-3" d="M62.84 55.88h-5.22l-1.8-1.04 2.96-1.72H64l1.81 1.04-2.97 1.72z"/><path class="cls-6" d="M57.62 55.88V24.24l2.96-1.71v31.63l-2.96 1.72z"/><path class="cls-7" d="M25.35 77.52l-7.02-4.05v1.87l7.02 4.06v-1.88z"/><path class="cls-8" d="M25.35 79.4v-1.88l40.46-23.36v1.88L25.35 79.4z"/><path class="cls-9" d="M47.15 52.74l-4.25-2.46V52l4.25 2.45v-1.71z"/><path class="cls-3" d="M34.63 61.68l-4.25-2.45L42.9 52l4.25 2.45-12.52 7.23z"/><path class="cls-10" d="M34.63 70.56v-12.3l5.84-3.37v3.42l6.68-3.86v-1.71l-4.52 2.61v-4.78l5.64-3.26v15.38l-1.12.64-12.52 7.23z"/><path class="cls-7" d="M34.63 58.26l-4.25-2.46v12.31l4.25 2.45v-12.3z"/><path class="cls-11" d="M42.63 50.57l-4.26-2.46v4.79l4.26 2.45v-4.78z"/><path class="cls-2" d="M42.63 50.57l-4.26-2.46 5.65-3.26 4.25 2.46-5.64 3.26z"/><path class="cls-12" d="M42.63 55.35v-4.78l5.64-3.26v4.78l-5.64 3.26z"/><path class="cls-13" d="M43.43 54.21v-3.43l4.03-2.33v3.43l-4.03 2.33z"/><path class="cls-14" d="M43.98 53.42v-2.49l2.93-1.69v2.49l-2.93 1.69z"/><path class="cls-2" d="M34.63 58.26l-4.25-2.46 5.64-3.25L40.27 55l-5.64 3.26z"/><path class="cls-3" d="M34.63 58.26l-4.25-2.46 5.64-3.25L40.27 55l-5.64 3.26z"/><path class="cls-14" d="M37.02 57.7l1.06-.61v10.59l-1.06.61V57.7zm1.46-.85l1.07-.61v10.59l-1.07.61V56.85z"/><path class="cls-15" d="M38.48 56.85l1.07-.61v7.27l-1.07.62v-7.28z"/><path class="cls-16" d="M38.48 64.42l1.07-.62v3.03l-1.07.61v-3.02z"/><path class="cls-15" d="M208.73 2488.55a4.46 4.46 0 0 0 .48 2.14 4.08 4.08 0 0 1 .55 1.91 1.79 1.79 0 0 1-.13.75.77.77 0 0 1-.55.47 1.42 1.42 0 0 1-.86-.14l.17-.38a1 1 0 0 0 .61.12.38.38 0 0 0 .26-.23 1.39 1.39 0 0 0 .09-.57 3.61 3.61 0 0 0-.48-1.68 4.85 4.85 0 0 1-.55-2.36h.42z" transform="translate(-169.5 -2430)"/><path class="cls-17" d="M208.43 2487l.18-.11a.1.1 0 0 1 .16.1v.82a.36.36 0 0 1-.16.28l-.18.11a.1.1 0 0 1-.16-.1v-.82a.35.35 0 0 1 .16-.28z" transform="translate(-169.5 -2430)"/><path class="cls-16" d="M208.4 2487.63l.24-.14a.13.13 0 0 1 .21.13v1.09a.47.47 0 0 1-.21.37l-.24.14a.13.13 0 0 1-.21-.13V2488a.47.47 0 0 1 .21-.37z" transform="translate(-169.5 -2430)"/><path class="cls-13" d="M208.52 2488.27a.15.15 0 0 1 .24.15.54.54 0 0 1-.24.42.15.15 0 0 1-.24-.15.54.54 0 0 1 .24-.42z" transform="translate(-169.5 -2430)"/><path class="cls-15" d="M37.02 57.7l1.06-.61v7.27l-1.06.61V57.7z"/><path class="cls-18" d="M37.02 65.26l1.06-.61v3.03l-1.06.61v-3.03z"/><path class="cls-15" d="M207.26 2489.4a4.46 4.46 0 0 0 .48 2.14 4.08 4.08 0 0 1 .55 1.91 1.79 1.79 0 0 1-.13.75.77.77 0 0 1-.55.47 1.42 1.42 0 0 1-.86-.14l.17-.38a1 1 0 0 0 .61.12.38.38 0 0 0 .26-.23 1.38 1.38 0 0 0 .09-.57 3.61 3.61 0 0 0-.48-1.68 4.85 4.85 0 0 1-.55-2.37h.42z" transform="translate(-169.5 -2430)"/><path class="cls-19" d="M207 2487.86l.18-.1a.1.1 0 0 1 .16.1v.82a.35.35 0 0 1-.16.28l-.18.11a.1.1 0 0 1-.16-.1v-.82a.36.36 0 0 1 .16-.29z" transform="translate(-169.5 -2430)"/><path class="cls-18" d="M206.93 2488.48l.24-.14a.13.13 0 0 1 .21.13v1.09a.47.47 0 0 1-.21.37l-.24.14a.13.13 0 0 1-.21-.13v-1.09a.47.47 0 0 1 .21-.37z" transform="translate(-169.5 -2430)"/><path class="cls-13" d="M207 2489.12a.15.15 0 0 1 .24.15.54.54 0 0 1-.24.42.15.15 0 0 1-.24-.15.54.54 0 0 1 .24-.42z" transform="translate(-169.5 -2430)"/><path class="cls-15" d="M35.55 58.55l1.06-.62v7.28l-1.06.61v-7.27z"/><path class="cls-20" d="M35.55 66.11l1.06-.61v3.03l-1.06.61v-3.03z"/><path class="cls-15" d="M205.79 2490.25a4.45 4.45 0 0 0 .48 2.14 4.08 4.08 0 0 1 .55 1.91 1.78 1.78 0 0 1-.13.75.78.78 0 0 1-.55.47 1.42 1.42 0 0 1-.86-.14l.17-.38a1 1 0 0 0 .61.12.38.38 0 0 0 .26-.23 1.37 1.37 0 0 0 .09-.57 3.61 3.61 0 0 0-.48-1.68 4.84 4.84 0 0 1-.55-2.36h.42z" transform="translate(-169.5 -2430)"/><path class="cls-21" d="M205.49 2488.71l.18-.11a.1.1 0 0 1 .16.1v.82a.35.35 0 0 1-.16.28l-.18.11a.1.1 0 0 1-.16-.1v-.81a.36.36 0 0 1 .16-.29z" transform="translate(-169.5 -2430)"/><path class="cls-20" d="M205.46 2489.32l.24-.14a.13.13 0 0 1 .21.13v1.09a.47.47 0 0 1-.21.37l-.24.14a.13.13 0 0 1-.21-.13v-1.09a.47.47 0 0 1 .21-.37z" transform="translate(-169.5 -2430)"/><path class="cls-13" d="M205.58 2490a.15.15 0 0 1 .24.15.54.54 0 0 1-.24.42.15.15 0 0 1-.24-.15.54.54 0 0 1 .24-.42z" transform="translate(-169.5 -2430)"/><path class="cls-22" d="M202 2490.76l.8 1.38c.44.76.44 1.59 0 1.84s-1.15-.16-1.59-.92c-.44-.76-.44-1.59 0-1.84z" transform="translate(-169.5 -2430)"/><path class="cls-23" d="M202 2491.22l.58 1a1 1 0 0 1 0 1.33 1 1 0 0 1-1.15-.66 1 1 0 0 1 0-1.33z" transform="translate(-169.5 -2430)"/><path class="cls-23" d="M199.88 2492.31l.84.48a3.56 3.56 0 0 0 .23.49c.58 1 1.53 1.55 2.11 1.22a.74.74 0 0 0 .23-.22l.84.48v5.8l-4.25-2.45v-5.8z" transform="translate(-169.5 -2430)"/><path class="cls-22" d="M204.13 2494.25l-.67-.39a1.6 1.6 0 0 0 0-.27l.64.37v.29zm-4.25-2.75v.29l.67.39a2.35 2.35 0 0 1 0-.31z" transform="translate(-169.5 -2430)"/><path class="cls-4" d="M57.62 55.88V14.85l-1.8-1.04v41.03l1.8 1.04z"/><path class="cls-2" d="M34.63 58.26l-4.25-2.46 1.14-.66 4.26 2.46-1.15.66zm28.65 41.16l-7.02-4.06 40.45-23.35 7.02 4.05-40.45 23.36z"/><path class="cls-3" d="M73.53 85.39l23.18-13.38 7.02 4.05-23.17 13.38-7.03-4.05zm-.26 8.26L68.5 96.4h-5.22l-1.8-1.04 2.97-1.71h8.82z"/><path class="cls-3" d="M262.72 2512.13l-17.89 10.33h-2.77l-4.25-2.45.39-.23.39-.23.39-.23.39-.23.39-.23.39-.23.39-.23.39-.23.39-.23.39-.23.39-.23.39-.23.39-.23.39-.23.39-.23.39-.23.39-.23.39-.23.39-.23.39-.23.39-.23.39-.23.39-.23.39-.23.39-.23.39-.23.39-.23.39-.23.39-.23.39-.23.39-.23.39-.23.14-.08.14-.08.14-.08.14-.08.14-.08.14-.08.14-.08.14-.08h11.27z" transform="translate(-169.5 -2430)"/><path class="cls-4" d="M63.28 96.4V55.38l-1.8-1.04v41.02l1.8 1.04z"/><path class="cls-24" d="M63.28 96.4V55.38l2.97-1.72v41.03l-2.97 1.71z"/><path class="cls-3" d="M100.77 77.78h-5.22l-1.8-1.05 2.96-1.71h5.22l1.8 1.04-2.96 1.72z"/><path class="cls-25" d="M95.55 77.78V46.14l2.96-1.71v31.63l-2.96 1.72z"/><path class="cls-7" d="M63.28 99.42l-7.02-4.06v1.88l7.02 4.06v-1.88z"/><path class="cls-26" d="M63.28 101.3v-1.88l40.45-23.36v1.88L63.28 101.3z"/><path class="cls-27" d="M85.08 74.64l-4.25-2.46v1.71l4.25 2.46v-1.71z"/><path class="cls-3" d="M72.56 83.58l-4.25-2.45 12.52-7.24 4.25 2.46-12.52 7.23z"/><path class="cls-28" d="M72.56 92.46v-12.3l5.83-3.37v3.42l6.69-3.86v-1.71l-4.52 2.61v-4.78l5.63-3.26v15.38l-1.11.64-12.52 7.23z"/><path class="cls-7" d="M72.56 80.16l-4.25-2.46v12.31l4.25 2.45v-12.3z"/><path class="cls-29" d="M80.56 72.47l-4.26-2.46v4.79l4.26 2.45v-4.78z"/><path class="cls-2" d="M80.56 72.47l-4.26-2.46 5.64-3.26 4.25 2.46-5.63 3.26z"/><path class="cls-30" d="M80.56 77.25v-4.78l5.63-3.26v4.78l-5.63 3.26z"/><path class="cls-13" d="M81.36 76.11v-3.43l4.03-2.33v3.43l-4.03 2.33z"/><path class="cls-14" d="M81.91 75.32v-2.49l2.93-1.69v2.49l-2.93 1.69z"/><path class="cls-2" d="M72.56 80.16l-4.25-2.46 5.64-3.25 4.25 2.45-5.64 3.26z"/><path class="cls-3" d="M72.56 80.16l-4.25-2.46 5.64-3.25 4.25 2.45-5.64 3.26z"/><path class="cls-14" d="M74.94 79.6l1.07-.62v10.6l-1.07.61V79.6zm1.47-.85l1.06-.61v10.59l-1.06.61V78.75z"/><path class="cls-15" d="M76.41 78.75l1.06-.61v7.27l-1.06.62v-7.28z"/><path class="cls-16" d="M76.41 86.31l1.06-.61v3.03l-1.06.61v-3.03z"/><path class="cls-15" d="M246.65 2510.45a4.45 4.45 0 0 0 .48 2.14 4.08 4.08 0 0 1 .55 1.91 1.79 1.79 0 0 1-.13.75.78.78 0 0 1-.55.47 1.42 1.42 0 0 1-.86-.14l.17-.38a1 1 0 0 0 .61.12.38.38 0 0 0 .26-.23 1.39 1.39 0 0 0 .09-.57 3.61 3.61 0 0 0-.48-1.68 4.85 4.85 0 0 1-.55-2.37h.42z" transform="translate(-169.5 -2430)"/><path class="cls-17" d="M246.35 2508.91l.18-.1a.1.1 0 0 1 .16.1v.82a.36.36 0 0 1-.16.28l-.18.1a.1.1 0 0 1-.16-.1v-.82a.35.35 0 0 1 .16-.28z" transform="translate(-169.5 -2430)"/><path class="cls-16" d="M246.32 2509.53l.24-.14a.13.13 0 0 1 .21.13v1.09a.47.47 0 0 1-.21.37l-.24.14a.13.13 0 0 1-.21-.13v-1.09a.47.47 0 0 1 .21-.37z" transform="translate(-169.5 -2430)"/><path class="cls-13" d="M246.45 2510.17a.15.15 0 0 1 .24.15.54.54 0 0 1-.24.42.15.15 0 0 1-.24-.15.54.54 0 0 1 .24-.42z" transform="translate(-169.5 -2430)"/><path class="cls-15" d="M74.94 79.6l1.07-.62v7.28l-1.07.61V79.6z"/><path class="cls-18" d="M74.94 87.16l1.07-.61v3.03l-1.07.61v-3.03z"/><path class="cls-15" d="M245.19 2511.3a4.46 4.46 0 0 0 .48 2.14 4.08 4.08 0 0 1 .55 1.91 1.78 1.78 0 0 1-.13.75.78.78 0 0 1-.55.47 1.42 1.42 0 0 1-.86-.14l.17-.38a1 1 0 0 0 .61.12.38.38 0 0 0 .26-.23 1.38 1.38 0 0 0 .09-.57 3.61 3.61 0 0 0-.48-1.68 4.85 4.85 0 0 1-.55-2.36h.42z" transform="translate(-169.5 -2430)"/><path class="cls-19" d="M244.89 2509.76l.18-.11a.1.1 0 0 1 .16.1v.82a.35.35 0 0 1-.16.28l-.18.11a.1.1 0 0 1-.16-.1v-.86a.35.35 0 0 1 .16-.24z" transform="translate(-169.5 -2430)"/><path class="cls-18" d="M244.86 2510.38l.24-.14a.13.13 0 0 1 .21.13v1.09a.47.47 0 0 1-.21.37l-.24.14a.13.13 0 0 1-.21-.13v-1.09a.47.47 0 0 1 .21-.37z" transform="translate(-169.5 -2430)"/><path class="cls-13" d="M245 2511a.15.15 0 0 1 .24.15.54.54 0 0 1-.24.42.15.15 0 0 1-.24-.15.54.54 0 0 1 .24-.42z" transform="translate(-169.5 -2430)"/><path class="cls-15" d="M73.48 80.44l1.06-.61v7.28l-1.06.61v-7.28z"/><path class="cls-20" d="M73.48 88.01l1.06-.62v3.03l-1.06.62v-3.03z"/><path class="cls-15" d="M243.72 2512.15a4.46 4.46 0 0 0 .48 2.14 4.08 4.08 0 0 1 .55 1.91 1.78 1.78 0 0 1-.13.75.78.78 0 0 1-.55.47 1.42 1.42 0 0 1-.86-.14l.17-.38a1 1 0 0 0 .61.12.38.38 0 0 0 .26-.23 1.37 1.37 0 0 0 .09-.57 3.59 3.59 0 0 0-.48-1.68 4.85 4.85 0 0 1-.55-2.36h.42z" transform="translate(-169.5 -2430)"/><path class="cls-21" d="M243.42 2510.6l.18-.1a.1.1 0 0 1 .16.1v.82a.36.36 0 0 1-.16.28l-.18.11a.1.1 0 0 1-.16-.1v-.82a.36.36 0 0 1 .16-.29z" transform="translate(-169.5 -2430)"/><path class="cls-20" d="M243.39 2511.22l.24-.14a.13.13 0 0 1 .21.13v1.09a.47.47 0 0 1-.21.37l-.24.14a.13.13 0 0 1-.21-.13v-1.09a.47.47 0 0 1 .21-.37z" transform="translate(-169.5 -2430)"/><path class="cls-13" d="M243.51 2511.86a.15.15 0 0 1 .24.15.54.54 0 0 1-.24.42.15.15 0 0 1-.24-.15.54.54 0 0 1 .24-.42z" transform="translate(-169.5 -2430)"/><path class="cls-22" d="M239.93 2512.66l.8 1.38c.44.76.44 1.59 0 1.84s-1.15-.16-1.59-.92c-.44-.76-.44-1.59 0-1.84z" transform="translate(-169.5 -2430)"/><path class="cls-23" d="M239.93 2513.12l.58 1a1 1 0 0 1 0 1.33 1 1 0 0 1-1.15-.66 1 1 0 0 1 0-1.33z" transform="translate(-169.5 -2430)"/><path class="cls-23" d="M237.81 2514.21l.84.48a3.59 3.59 0 0 0 .23.49c.58 1 1.53 1.55 2.11 1.22a.75.75 0 0 0 .23-.22l.84.48v5.8l-4.25-2.45v-5.8z" transform="translate(-169.5 -2430)"/><path class="cls-22" d="M242.06 2516.14l-.67-.39a1.59 1.59 0 0 0 0-.27l.64.37v.29zm-4.25-2.75v.29l.67.39a2.34 2.34 0 0 1 0-.31z" transform="translate(-169.5 -2430)"/><path class="cls-31" d="M95.55 77.78V36.75l-1.8-1.04v41.02l1.8 1.05z"/><path class="cls-2" d="M72.56 80.16l-4.25-2.46 1.14-.66 4.26 2.46-1.15.66z"/><path class="cls-32" d="M83.7 75.66L0 27.34 38.37 5.18l83.69 48.33L83.7 75.66z"/><path class="cls-33" d="M87.78 33.71l34.28 19.8-35.75 20.64H83.7V33.71h4.08z"/><path class="cls-2" d="M83.7 74.15l35.75-20.64L38.37 6.69 2.61 27.34 83.7 74.15z"/><path class="cls-34" d="M83.7 72.64l33.14-19.13L38.37 8.2 5.22 27.34l78.48 45.3z"/><path class="cls-22" d="M83.7 75.66L0 27.34v1.87l83.7 48.33v-1.88z"/><path class="cls-35" d="M83.7 75.66l38.36-22.15v1.88L83.7 77.54v-1.88z"/><path class="cls-23" d="M83.7 74.15v-6.77L2.75 20.64v6.77L83.7 74.15z"/><path class="cls-36" d="M83.7 74.15v-6.77l35.75-20.64v6.77L83.7 74.15z"/><path class="cls-35" d="M54.68 57.65l.22-.13 1.39.81-.23.12-1.38-.8z"/><path class="cls-37" d="M225.79 2486.26v2.07l-1.42-.82-.35-.92v-7l1.39.8.18.47a1.68 1.68 0 0 1 .44-.07 1.49 1.49 0 0 1 .73.24 2.92 2.92 0 0 1 1.2 1.4l.1.24.38 1 .09.25.07.26.06.27v1.97l-.06.22-.08.2-.09.17-.11.15-.13.12-.14.1-.15.07h-.67l-.19-.07-.19-.1h-.08l-.08-.05-.08-.05-.07-.05-.07-.05-.07-.06-.07-.06-.06-.06-.06-.06-.06-.06-.06-.07-.07-.07-.07-.07-.07-.08-.07-.08-.07-.08zm1.15-3v-.05l-.08-.08-.09-.08-.1-.07a1.22 1.22 0 0 0-.66-.23h-.18v1.89l.18.11a.61.61 0 0 0 .76.05 1.45 1.45 0 0 0 .25-1 4.43 4.43 0 0 0 0-.55zm6.6 7.44h-1.75l-.31-.19-.29-.2-.27-.21-.25-.22-.23-.23-.21-.24-.2-.25-.18-.27-.16-.27-.14-.28-.12-.29-.33-.88-.05-.13a4.46 4.46 0 0 1-.26-1.53 1.8 1.8 0 0 1 .63-1.65 1.72 1.72 0 0 1 1.75.26 4 4 0 0 1 1.54 1.53 12.58 12.58 0 0 1 .61 1.49l.09.25.07.26.06.27v1.43l-.4-.23.31.83v1.33zm-.71-2.38l-2.26-1.3v.18a2.44 2.44 0 0 0 .42.44 3.68 3.68 0 0 0 .52.36 2.36 2.36 0 0 0 .48.21 1.79 1.79 0 0 0 .43.08h.37zm-1-2.47l-.06-.07-.08-.07-.08-.07-.09-.06-.1-.06-.1-.05h-.18a.49.49 0 0 0-.3 0l1 .6v-.17zm5.28 7.17v-1.13l-.38-1-.12-.07a.91.91 0 0 1-.25 0 1.24 1.24 0 0 1-.29-.11 1.73 1.73 0 0 1-.29-.2v-2.18l1.34.77v-1.11l-.38-1-1-.55v-.68l-.38-1-1.39-.8v1.47l-.53-.31v1.12l.38 1 .14.08v1.62a3.13 3.13 0 0 0 .22 1.21l.38 1 .08.17.09.16.1.15.12.15.13.15.15.14.16.14.18.13.19.13.2.12.09.05h1.01zm3.38-1.73zm0 .09h-.95v3.44l-1.39-.8-.38-1v-5.13l1.39.8.24.64a1.51 1.51 0 0 1 .31-.07 1.25 1.25 0 0 1 .35 0 1.22 1.22 0 0 1 .38.14l.15.09.15.1.38 1v.54a1.09 1.09 0 0 1 .42-.52 1.67 1.67 0 0 1 1.7.25 4.46 4.46 0 0 1 1.7 1.71 4.63 4.63 0 0 1 .26.55l.06.17.32.84.1.28.09.29.07.3v1.76l-.07.22-.08.19-.1.16-.12.14-.14.11-.16.08h-.78l-.24-.08-.25-.11-.27-.14-.27-.16-.25-.18-.23-.19-.22-.21-.2-.22-.19-.23-.17-.25-.16-.26-.14-.27-.12-.28-.38-1a4.74 4.74 0 0 1-.34-1.79v-.28zm3.12 1.43h-.34v1.58l.09.11a1.63 1.63 0 0 0 .37.3.85.85 0 0 0 .34.11.33.33 0 0 0 .28-.09.8.8 0 0 0 .19-.36 3.08 3.08 0 0 0 .06-.73 4.53 4.53 0 0 0 0-.69zm4 6.3l-1.39-.8-.38-1v-7.12l1.39.8.38 1v7.12z" transform="translate(-169.5 -2430)"/><path class="cls-38" d="M112.49 48.77l.94-.54v-7.02l-.94.54v7.02z"/><path class="cls-2" d="M111.11 41.49l.93-.54-.08-.12-.07-.11-.08-.12-.08-.1-.08-.11-.08-.1-.07-.1-.08-.09-.09-.09-.08-.09-.09-.08-.09-.08-.09-.07-.1-.07-.1-.07-.1-.06-.19-.1-.17-.07-.17-.04-.16-.01-.14.01-.13.05-.94.54.14-.05.14-.01.16.01.16.04.18.07.19.1.1.06.1.07.1.07.09.07.09.08.09.08.08.09.08.09.08.09.08.1.08.1.08.11.08.1.07.12.08.11.08.12z"/><path class="cls-2" d="M112.49 41.75l.94-.54-1.39-.8-.93.54 1.38.8zm-1.38 3.17l.93-.54-.03-.01h-.06l-.03-.01-.03-.01-.03-.01-.03-.01-.03-.02-.04-.01-.03-.02-.04-.01-.04-.02-.04-.02-.04-.03-.05-.02-.04-.03-.12-.07-.12-.09-.11-.09-.1-.1-.09-.1-.08-.12-.07-.12-.07-.12-.05-.14-.06-.14-.04-.15-.03-.16-.03-.16-.02-.18-.01-.18-.01-.19.01-.18.01-.16.01-.15.03-.13.02-.11.04-.1.04-.08.05-.06.05-.05-.93.54-.06.05-.04.06-.04.08-.04.1-.03.11-.02.13-.02.15v.16l-.01.18.01.19.01.18.02.17.02.17.04.16.04.15.05.14.06.13.06.13.08.12.08.11.09.11.1.1.11.09.11.09.13.07.04.03.04.02.05.03.04.02.03.01.04.02.04.02.03.01.03.02.04.01.03.01.03.01h.03l.03.01h.03l.03.01zm-5.08-3.16l.93-.54-.04.02-.04.01-.05.01-.04.01h-.2l-.06-.01-.06-.02-.05-.01-.06-.03-.06-.02-.07-.02-.06-.03-.07-.03-.07-.04-.06-.03-.07-.04-.06-.04-.06-.04-.06-.03-.06-.05-.06-.04-.06-.05-.06-.04-.06-.05-.06-.05-.06-.05-.05-.05-.06-.05-.05-.06-.05-.05-.05-.05-.05-.06-.04-.04-.04-.05-.05-.05-.03-.04-.04-.05-.04-.04-.04-.05-.04-.05-.03-.04-.03-.05-.04-.04-.03-.04-.03-.04-.02-.03-.03-.04-.02-.03-.94.54.03.03.02.03.03.04.03.04.03.04.03.04.03.05.04.04.04.05.03.04.04.05.04.05.04.04.04.05.04.05.05.04.04.06.06.05.05.05.05.05.05.06.06.05.06.05.05.05.06.05.06.04.06.05.06.04.06.04.06.04.06.04.06.04.07.04.07.03.07.04.06.03.07.03.06.02.06.02.06.03.06.01.06.02h.05l.06.01h.14l.05-.01.04-.01.05-.02.04-.01zm-2.53-1.67l.94-.54-.15-.09-.93.54.14.09z"/><path class="cls-38" d="M105.57 38.59l.01-.12.01-.11.02-.1.02-.09.03-.08.03-.06.04-.06.05-.04.05-.03-.94.53-.05.04-.04.04-.04.06-.04.06-.02.08-.03.09-.01.1-.02.11v.12l1.69.97.93-.53-1.69-.98z"/><path class="cls-39" d="M107.04 43.18l.93-.53.16-.1.14-.12.11-.15.1-.19.07-.21.06-.25.03-.27.01-.31-.01-.31-.03-.31-.05-.3-.07-.3-.09-.29-.11-.29-.12-.29-.15-.28-.16-.27-.19-.25-.19-.25-.21-.22-.23-.22-.24-.2-.26-.18-.27-.17-.25-.13-.24-.11-.21-.07-.2-.05-.19-.02-.16.02-.16.04-.14.07-.93.54.14-.07.15-.04.17-.02.19.02.2.05.21.07.23.11.25.13.28.17.25.18.25.2.22.21.22.23.19.24.18.26.17.27.14.28.13.29.11.29.09.29.07.3.04.3.03.31.01.31-.01.31-.03.27-.05.25-.07.21-.1.19-.12.15-.13.12-.16.09z"/><path class="cls-38" d="M102.09 40.58l.94-.54.09-.05.08-.08.06-.1.06-.13.04-.15.03-.17.02-.19.01-.22v-2.4l-.94.54v2.62l-.02.19-.03.17-.04.15-.06.12-.07.11-.07.08-.1.05z"/><path class="cls-38" d="M103.01 37.39l.93-.54v-1.11l-.93.54v1.11z"/><path class="cls-2" d="M103.01 36.28l.93-.54-.52-.31-.94.54.53.31z"/><path class="cls-38" d="M102.48 35.97l.94-.54v-1.47l-.94.54v1.47z"/><path class="cls-2" d="M102.48 34.5l.94-.54-1.39-.8-.94.54 1.39.8z"/><path class="cls-38" d="M99.2 39.21l.93-.54v-5.13l-.93.54v5.13z"/><path class="cls-2" d="M100.92 39.02l.94-.54-.03.01-.03.01-.04.01h-.03l-.04-.01-.05-.01-.05-.01-.05-.02-.06-.03-.06-.03-.07-.04-.03-.01-.03-.02-.03-.03-.04-.02-.03-.03-.04-.04-.04-.03-.05-.04-.04-.04-.04-.04-.04-.03-.03-.03-.03-.03-.03-.03-.02-.03-.02-.02-.93.54.01.02.03.03.02.03.03.03.04.03.03.03.04.04.05.04.04.04.04.03.04.04.04.02.04.03.03.03.03.02.03.01.06.04.07.03.05.03.06.02.05.01.04.01.04.01h.04l.03-.01.03-.01.03-.01z"/><path class="cls-2" d="M99.88 38.43l.93-.54-.12-.07-.94.54.13.07zm1.21-3.26l.94-.54-1.34-.77-.94.54 1.34.77z"/><path class="cls-40" d="M95.4 36.45l.93-.54.15-.11.12-.14.1-.16.09-.19.06-.22.05-.25.03-.28.01-.3-.01-.31-.03-.32-.05-.3-.06-.3-.09-.29-.1-.28-.12-.28-.15-.27-.15-.26-.18-.25-.19-.23-.2-.22-.22-.21-.24-.19-.25-.18-.26-.16-.27-.15-.25-.11-.23-.07-.22-.05-.21-.02-.19.02-.17.05-.16.08-.93.54.16-.08.17-.05.19-.02.2.02.22.04.24.08.25.11.27.15.26.16.25.18.24.19.21.21.21.22.19.23.17.25.16.26.14.27.13.28.1.28.09.29.06.3.05.3.03.31.01.32-.01.3-.03.28-.05.25-.06.22-.09.19-.1.16-.13.14-.14.11z"/><path class="cls-41" d="M97.81 34.01l.94-.54-.03-.04-.03-.04-.03-.05-.03-.05-.03-.05-.04-.05-.04-.06-.04-.06-.04-.06-.04-.06-.04-.06-.04-.05-.04-.06-.03-.05-.04-.04-.04-.05-.03-.04-.05-.05-.04-.05-.04-.05-.04-.05-.05-.04-.05-.05-.05-.05-.05-.05-.05-.04-.05-.04-.04-.04-.05-.04-.05-.03-.04-.03-.05-.03h-.02l-.01-.01-.02-.01-.02-.01-.02-.01-.02-.01-.02-.02-.02-.01-.02-.01-.02-.01-.02-.01-.02-.01-.02-.01h-.02l-.01-.01-.02-.01-.93.54.01.01.02.01h.02l.02.01.02.01.02.01.02.01.02.01.02.01.02.01.02.01.02.02.01.01h.02l.02.01.02.01.04.03.05.03.04.03.05.04.05.04.05.04.05.04.05.05.05.05.04.05.05.04.05.05.04.05.04.05.04.05.04.04.04.05.03.04.04.05.04.06.03.05.05.06.04.05.04.06.04.07.04.06.03.05.04.05.03.05.03.05.03.04.02.04z"/><path class="cls-2" d="M99.2 34.08l.93-.54-1.38-.8-.94.54 1.39.8zm-4.92 1.04l.94-.54-.03.02-.04.01-.04.01-.03.01h-.12l-.05-.01-.04-.01-.05-.02-.05-.02-.04-.02-.05-.02-.05-.03-.04-.02-.05-.03-.04-.03-.04-.04-.04-.03-.05-.04-.04-.04-.04-.05-.04-.05-.05-.04-.03-.05-.04-.05-.03-.05-.03-.06-.03-.05-.03-.05-.03-.07-.03-.07-.02-.07-.03-.07-.02-.08-.02-.07-.02-.08-.02-.07-.01-.08-.01-.09-.02-.09v-.1l-.01-.1-.01-.11v-.45l.01-.1.01-.09.01-.09.01-.08.01-.07.02-.07.01-.07.02-.06.02-.05.02-.05.03-.05.02-.04.03-.03.03-.03.03-.03.03-.03.03-.02-.93.54-.03.02-.04.03-.03.03-.02.03-.03.03-.03.04-.02.05-.02.05-.02.05-.02.06-.02.07-.01.07-.02.07-.01.08-.01.09-.01.09v.66l.01.1.01.1.01.09.01.08.02.08.02.08.01.08.02.07.03.08.02.07.03.07.03.07.03.06.02.06.03.05.03.06.04.05.03.05.04.05.04.04.04.05.05.04.04.05.04.03.05.04.04.03.04.04.04.02.04.03.05.03.05.02.05.02.05.02.04.02.05.01h.04l.04.01h.08l.04-.01.04-.01.03-.01.03-.02z"/><path class="cls-38" d="M90.67 34.29l.94-.54v-7.12l-.94.54v7.12z"/><path class="cls-2" d="M90.67 27.17l.94-.54-1.39-.8-.93.54 1.38.8z"/><path class="cls-42" d="M277.62 2471.73a5 5 0 0 0 .54 2.3 3.54 3.54 0 0 0 1.34 1.53 2.16 2.16 0 0 0 .58.25 1.8 1.8 0 0 0 .52 0v2.19l1.39.8v-7l-1.39-.8v.54a7.83 7.83 0 0 0-.62-.85 2.83 2.83 0 0 0-.73-.61.89.89 0 0 0-1.2 0 2.53 2.53 0 0 0-.43 1.68zm1.42.85a1.58 1.58 0 0 1 .2-1 .47.47 0 0 1 .63 0 2 2 0 0 1 .37.28 3.22 3.22 0 0 1 .36.42v2.58a.81.81 0 0 1-.24-.06l-.32-.16a1.82 1.82 0 0 1-.76-.82 3 3 0 0 1-.25-1.29zm-4.44.18a2.24 2.24 0 0 0 1.94.42 1.58 1.58 0 0 0 .67-1.59 4.75 4.75 0 0 0-.63-2.37 4.64 4.64 0 0 0-1.75-1.76 1.51 1.51 0 0 0-1.54-.25 1.74 1.74 0 0 0-.52 1.52v.58l3 1.76a1.12 1.12 0 0 1-.13.52.45.45 0 0 1-.3.21.84.84 0 0 1-.42 0 2.66 2.66 0 0 1-.52-.24 3.19 3.19 0 0 1-.48-.34 4.45 4.45 0 0 1-.43-.41l-.32-.37-.24-.32-.15-.09v1.32l.31.32c.09.1.22.22.39.36s.31.26.47.38a6 6 0 0 0 .59.38zm-.47-3.63a.87.87 0 0 1 .21-.66.53.53 0 0 1 .59.07 1.66 1.66 0 0 1 .64.65 2.07 2.07 0 0 1 .25.91l-1.69-1zm-3.78 1.14a1.5 1.5 0 0 0 1.24.31 1.12 1.12 0 0 0 .39-1.09v-2.4l.53.3v-1.11l-.51-.28v-1.47l-1.39-.8v1.47l-1.34-.77v1.11l1.34.77v2.29a.84.84 0 0 1-.06.33.23.23 0 0 1-.2.14.8.8 0 0 1-.41-.14 1.89 1.89 0 0 1-.29-.22 2.54 2.54 0 0 1-.25-.25l-.12-.07v1.13c.15.13.31.26.48.39a7.14 7.14 0 0 0 .62.4zm-4.65-6.41l.11.07a.93.93 0 0 1 .23.08l.33.18a3 3 0 0 1 .46.34q.24.21.47.44v3.44l1.39.8v-5.13l-1.39-.8v.72l-.27-.41c-.11-.17-.22-.31-.31-.42a4 4 0 0 0-.35-.38 2 2 0 0 0-.38-.29l-.15-.08-.15-.07v1.52zm-4.8-1.72a4.72 4.72 0 0 0 .6 2.34 4.47 4.47 0 0 0 1.7 1.71 1.65 1.65 0 0 0 1.7.25 1.82 1.82 0 0 0 .6-1.65 4.71 4.71 0 0 0-.6-2.35 4.48 4.48 0 0 0-1.7-1.7 1.65 1.65 0 0 0-1.7-.25 1.83 1.83 0 0 0-.6 1.65zm1.42.83a3.1 3.1 0 0 1 .07-.72.83.83 0 0 1 .18-.38.34.34 0 0 1 .28-.11.9.9 0 0 1 .35.13 1.59 1.59 0 0 1 .34.26 1.55 1.55 0 0 1 .28.41 2.51 2.51 0 0 1 .19.6 4.19 4.19 0 0 1 .07.82 2.94 2.94 0 0 1-.07.72.82.82 0 0 1-.18.36.33.33 0 0 1-.28.1.92.92 0 0 1-.37-.13 1.6 1.6 0 0 1-.34-.28 1.52 1.52 0 0 1-.28-.4 2.65 2.65 0 0 1-.19-.58 4.22 4.22 0 0 1-.06-.8zm-3.54.51l1.39.8v-7.12l-1.39-.8v7.12z" transform="translate(-169.5 -2430)"/><path class="cls-43" d="M2.75 20.64L83.7 67.38l35.75-20.64L38.5 0 2.75 20.64z"/><path class="cls-44" d="M246.22 2493.35l1.39.8h2.16l.93-.54-.17-.1-.17-.1-.17-.1-.17-.1-.17-.1-.17-.1-.17-.1-.17-.1h-3.48l-.27.16.66.38zm-22.48-13l.28-.16h1.49l.17.1.17.1.17.1.17.1.17.1.17.1.17.1.17.1-.18.11h1l.12.05.12.05.11.05.11.06.11.06.11.06.18.11.14.1.11.1.08.09v.23l-.05.06-.66.38-.13-.08-1.8-1-.43-.25-.18-.11-1.2-.69-.66-.38zm6.54 3.78l1.26.73 1.19.68.22.13.62-.36v-.21l-.06-.1-.09-.11-.13-.12-.17-.12-.2-.13-.24-.14-.29-.16-.29-.15-.3-.14-.31-.13-.32-.12-.32-.11-.33-.1-.34-.09h-1.41l-.27.16 1.61.93zm3.66 2.11h-.05l-.13-.08-.34-.2.46-.27H237l.17.1.17.1.17.1.17.1.17.1.17.1.17.1.17.1-.74.42.1.06.17.1.17.1.17.1-.55.32h1.11l.21.41.17.1.17.1.17.1.17.1.17.1.17.1.17.1-.25.14h1.74l-.51.29h.72l.33.09.32.1.31.11.31.12.3.13.29.14.28.14.28.15.25.15.22.15.18.14.14.13.1.12.06.11v.26l-.52.3-.31-.18-1.19-.69-1.3-.75-1.25-.72-.33-.19-.6-.35-.68-.39-.28-.16-1.11-.64-.55-.32-.14.92z" transform="translate(-169.5 -2430)"/><path class="cls-34" d="M7.97 20.64L83.7 64.37l30.53-17.63L38.5 3.01 7.97 20.64z"/><path class="cls-45" d="M83.7 64.37l30.53-17.63L38.5 3.01 7.97 20.64 83.7 64.37z"/><path class="cls-46" d="M107.73 50.49l6.5-3.75L38.5 3.01l5.09 13.13 64.14 34.35z"/><path class="cls-2" d="M83.7 64.37l27.06-15.63L38.5 7.02 11.44 22.65 83.7 64.37z"/><path class="cls-47" d="M13.44 23.8L40.5 8.18l-2-1.16-27.06 15.63 2 1.15z"/><path class="cls-4" d="M228.39 2484.59a2.08 2.08 0 0 1-.54 1.67 1.11 1.11 0 0 1-1.34 0 3.21 3.21 0 0 1-.58-.42 5.6 5.6 0 0 1-.52-.57v2.14l-1.39-.8v-7l1.39.8v.54a1.75 1.75 0 0 1 .63-.13 1.48 1.48 0 0 1 .73.24 2.93 2.93 0 0 1 1.2 1.4 5.3 5.3 0 0 1 .43 2.18zm-1.42-.79a3 3 0 0 0-.2-1.2 1.48 1.48 0 0 0-.63-.7 1.26 1.26 0 0 0-.37-.15.92.92 0 0 0-.36 0v2.58a1.81 1.81 0 0 0 .25.22l.32.21a.61.61 0 0 0 .76.05 1.45 1.45 0 0 0 .25-1zm4.44 5.3a5.38 5.38 0 0 1-1.94-1.81 4.41 4.41 0 0 1-.67-2.37 1.8 1.8 0 0 1 .63-1.65 1.72 1.72 0 0 1 1.75.26 4 4 0 0 1 1.54 1.53 4.31 4.31 0 0 1 .52 2.12v.58l-3.05-1.76a2.32 2.32 0 0 0 .13.67 2.23 2.23 0 0 0 .29.55 2.57 2.57 0 0 0 .42.44 3.64 3.64 0 0 0 .52.36 2.34 2.34 0 0 0 .48.21 1.82 1.82 0 0 0 .43.08 1.76 1.76 0 0 0 .32 0h.24l.15.08v1.33h-.31a2.37 2.37 0 0 1-.39-.09 4.47 4.47 0 0 1-.47-.16 5.22 5.22 0 0 1-.59-.3zm.47-3.09a2.07 2.07 0 0 0-.21-.9 1.47 1.47 0 0 0-.59-.61.61.61 0 0 0-.64-.09.75.75 0 0 0-.25.62l1.69 1zm3.78 5.51a3.42 3.42 0 0 1-1.24-1.12 2.88 2.88 0 0 1-.39-1.54v-2.4l-.53-.31V2485l.53.3v-1.47l1.39.8v1.47l1.34.77v1.13l-1.34-.77v2.3a1.49 1.49 0 0 0 .06.4 1.07 1.07 0 0 0 .2.37 1.45 1.45 0 0 0 .41.33 1.24 1.24 0 0 0 .29.11.91.91 0 0 0 .25 0l.12.07v1.19a3.66 3.66 0 0 1-.48-.17 6 6 0 0 1-.62-.32zm4.65-1l-.12-.07a1.72 1.72 0 0 0-.23-.18l-.33-.21a2 2 0 0 0-.46-.19 3.59 3.59 0 0 0-.47-.1v3.44l-1.39-.8v-5.13l1.39.8v.74l.27-.1a1.47 1.47 0 0 1 .31-.07 1.19 1.19 0 0 1 .35 0 1.21 1.21 0 0 1 .38.14l.15.09.15.1v1.52zm4.8 3.82a1.83 1.83 0 0 1-.6 1.65 1.65 1.65 0 0 1-1.7-.25 4.46 4.46 0 0 1-1.7-1.71 4.7 4.7 0 0 1-.6-2.34 1.82 1.82 0 0 1 .6-1.65 1.67 1.67 0 0 1 1.7.25 4.46 4.46 0 0 1 1.7 1.71 4.72 4.72 0 0 1 .6 2.35zm-1.42-.81a4.25 4.25 0 0 0-.07-.8 2.6 2.6 0 0 0-.18-.59 1.61 1.61 0 0 0-.28-.43 1.56 1.56 0 0 0-.35-.28 1 1 0 0 0-.34-.13.33.33 0 0 0-.28.09.77.77 0 0 0-.19.38 3 3 0 0 0-.07.74 4.06 4.06 0 0 0 .07.8 2.62 2.62 0 0 0 .18.56 1.55 1.55 0 0 0 .28.42 1.63 1.63 0 0 0 .37.3.86.86 0 0 0 .34.11.32.32 0 0 0 .28-.09.8.8 0 0 0 .19-.36 3 3 0 0 0 .06-.73zm3.54 4.6l-1.39-.8v-7.12l1.39.8v7.12z" transform="translate(-169.5 -2430)"/><path class="cls-48" d="M54.97 51.44l.93-.54.08-.03.08-.02.08-.02.07-.02.08-.02.08-.01h.08l.08-.01.08.01.08.01.09.02.09.02.09.04.1.04.1.04.1.06.19.12.18.14.17.15.15.17.14.18.14.2.12.21.11.23.1.25.09.25.07.26.06.26.05.28.03.28.02.3.01.3-.01.29-.03.28-.04.24-.06.22-.07.2-.09.17-.12.15-.12.12-.14.1-.94.54.14-.1.13-.12.11-.15.09-.17.08-.2.06-.22.04-.25.03-.27.01-.29-.01-.3-.02-.3-.03-.28-.05-.28-.06-.26-.07-.26-.09-.25-.1-.25-.11-.23-.12-.21-.14-.2-.14-.19-.16-.16-.16-.15-.18-.14-.19-.12-.1-.06-.1-.04-.1-.05-.09-.03-.09-.03-.09-.01-.08-.01-.09-.01-.07.01h-.08l-.08.01-.08.02-.08.02-.08.02-.07.02-.08.03z"/><path class="cls-38" d="M54.97 55.79l.93-.54v2.13l-.93.54v-2.13z"/><path class="cls-2" d="M53.58 50.1l.94-.53 1.38.8-.93.54-1.39-.81z"/><path class="cls-38" d="M54.97 50.91l.93-.54v.53l-.93.54v-.53zm0 1.38l.93-.54v2.58l-.93.54v-2.58z"/><path class="cls-2" d="M54.97 54.87l.93-.54.03.03.03.03.03.03.03.03.03.02.03.03.04.03.03.02.03.03.04.02.04.03.04.02.04.03.04.02.04.03.05.03.12.06.11.05.11.03.1.02H57l.08-.02.08-.04-.94.54-.07.04-.08.01-.09.01-.1-.02-.11-.03-.11-.05-.13-.06-.04-.03-.05-.03-.04-.02-.04-.03-.04-.03-.04-.02-.03-.02-.03-.03-.04-.03-.03-.02-.03-.03-.03-.02-.03-.03-.03-.03-.03-.03-.03-.03z"/><path class="cls-38" d="M54.97 54.87l.93-.54.03.03.03.03.03.03.03.03.03.02.03.03.04.03.03.02.03.03.04.02.04.03.01.01-1.3.23z"/><path class="cls-49" d="M58.99 53.82l.93-.54.17-.08.18-.05.2-.02.21.02.22.05.25.08.26.12.27.14.25.16.23.16.22.17.2.19.18.2.17.2.15.22.14.23.12.24.11.24.08.25.08.26.05.28.04.27.03.29v.86l-.93.54v-.57l-.01-.29-.02-.29-.04-.28-.06-.27-.07-.26-.09-.25-.1-.25-.12-.23-.14-.23-.15-.22-.17-.21-.19-.19-.2-.19-.21-.17-.24-.17-.25-.15-.27-.14-.26-.12-.24-.08-.23-.05-.21-.02-.19.02-.18.05-.17.08z"/><path class="cls-50" d="M59.75 56.54l.94-.54v.09l.01.1.01.08.02.09.02.08.02.08.02.08.03.08.03.07.03.08.03.07.04.07.03.07.04.06.05.07.04.06.05.06.04.06.05.06.05.05.06.06.05.05.06.05.06.05.06.05.06.05.06.05.07.05.06.04.07.04.07.04.07.05.06.03.06.03.06.03.06.03.06.03.06.02.06.02.06.02.05.02.06.01.06.02.05.01h.05l.06.01.05.01H63l.04.01h.04l.04-.01h.11l.04-.01h.04l.03-.01h.03l.03-.01h.03l.03-.01h.02l.03-.01-.94.54-.02.01h-.03l-.02.01h-.03l-.03.01h-.03l-.04.01h-.03l-.04.01h-.33l-.05-.01-.05-.01-.05-.01-.06-.01-.05-.01-.06-.01-.06-.02-.06-.02-.05-.02-.07-.02-.06-.03-.05-.03-.06-.03-.07-.03-.05-.03-.07-.05-.07-.04-.07-.04-.07-.05-.06-.04-.06-.05-.06-.05-.07-.05-.05-.05-.06-.05-.06-.05-.05-.06-.05-.05-.05-.06-.05-.06-.04-.06-.05-.06-.04-.07-.04-.06-.04-.07-.03-.07-.04-.07-.03-.08-.03-.07-.02-.08-.03-.08-.02-.08-.01-.08-.02-.09-.01-.09-.01-.09-.01-.09z"/><path class="cls-2" d="M62.57 58.82l.94-.54.15.08-.94.54-.15-.08z"/><path class="cls-38" d="M62.72 58.9l.94-.54v1.33l-.94.54V58.9zM60 54.95l.94-.53-.06.04-.05.05-.04.06-.03.08-.03.08-.02.09-.02.1-.01.12-.93.54.01-.12.01-.1.03-.09.02-.08.04-.08.04-.06.05-.05.05-.05z"/><path class="cls-2" d="M59.75 55.58l.93-.54 1.69.97-.93.54-1.69-.97z"/><path class="cls-51" d="M229.25 2485.57l.93-.54 1.06.61a4.68 4.68 0 0 0-1.99-.07z" transform="translate(-169.5 -2430)"/><path class="cls-2" d="M63.07 55.58l.93-.54.53.31-.93.54-.53-.31zm.53-1.17l.93-.53 1.39.8-.94.54-1.38-.81z"/><path class="cls-38" d="M64.98 55.22l.94-.54v1.47l-.94.54v-1.47z"/><path class="cls-2" d="M64.98 56.69l.94-.54 1.34.77-.94.54-1.34-.77z"/><path class="cls-38" d="M64.98 56.69l.94-.54.93.54h-1.87zm1.34.77l.94-.54v1.12l-.94.53v-1.11z"/><path class="cls-2" d="M64.98 57.8l.94-.54v2.35l.01.05v.05l.01.05.01.05.01.05.01.05.01.05.02.05.02.05.02.04.02.05.03.05.03.04.03.04.03.05.04.04.04.04.04.05.05.04.06.04.06.04.06.04.06.04.03.01.03.02.04.02.03.01.04.01.04.02.04.01.04.01.05.01.04.01.03.01.04.01h.05l.03.01.02-.01-.94.54h-.1l-.03-.01-.04-.01-.04-.01-.04-.01-.04-.01-.05-.01-.04-.02-.03-.01-.04-.02-.03-.01-.03-.02-.03-.01-.07-.04-.06-.04-.06-.04-.05-.04-.05-.04-.04-.05-.05-.04-.03-.04-.04-.05-.03-.04-.03-.05-.02-.04-.02-.05-.03-.05-.01-.04-.02-.05-.01-.05-.01-.05-.01-.05-.01-.05-.01-.05-.01-.05v-.21l-.01-.05V57.8z"/><path class="cls-38" d="M234.49 2487.8l.93-.54v2.7a2.83 2.83 0 0 1-1.28-.06v-2.6z" transform="translate(-169.5 -2430)"/><path class="cls-2" d="M66.2 61.35l.94-.54.12.07-.94.54-.12-.07z"/><path class="cls-38" d="M66.32 61.42l.94-.54v1.13l-.94.54v-1.13zm1.95-1.14l.93-.54v3.44l-.93.54v-3.44z"/><path class="cls-2" d="M66.88 57.78l.93-.54 1.39.8-.93.54-1.39-.8z"/><path class="cls-38" d="M68.27 58.58l.93-.54v.74l-.93.54v-.74z"/><path class="cls-2" d="M68.27 59.32l.93-.54.02-.01.03-.01.03-.02.03-.01.04-.01.03-.02.04-.01.04-.01.05-.02.04-.01.04-.01.04-.01h.03l.04-.01.04-.01h.07l.04-.01.04.01h.09l.05.01h.04l.05.01.05.01.05.02.05.01.05.02.04.02.05.02.05.02.04.03.02.01.02.01.02.01.01.01.02.01.02.01.02.02.02.01.02.01.02.02.02.01.02.01.02.01.02.02.02.01.02.01-.94.54-.02-.01-.01-.02-.02-.01-.02-.01-.02-.01-.02-.02-.02-.01-.02-.01-.02-.01-.02-.02-.02-.01-.02-.01-.02-.01-.02-.01-.01-.01-.02-.01-.04-.03-.05-.02-.05-.02-.04-.02-.05-.02-.05-.01-.05-.02-.05-.01-.05-.01h-.05l-.04-.01h-.25l-.03.01h-.04l-.04.01-.04.01-.04.01-.04.01-.04.02-.04.01-.04.01-.04.02-.03.01-.03.01-.03.01-.03.02-.02.01z"/><path class="cls-38" d="M69.87 59.51l.94-.54v1.52l-.94.54v-1.52z"/><path class="cls-52" d="M70.68 60.54l.93-.54.16-.08.17-.04.19-.02.21.02.22.04.23.08.25.11.27.14.26.17.25.18.24.19.22.21.2.22.19.23.17.25.16.26.14.27.13.28.1.29.08.29.07.29.05.31.03.31.01.31-.01.3-.03.28-.05.25-.07.22-.08.19-.1.16-.12.14-.15.11-.93.54.14-.11.12-.14.11-.16.08-.2.07-.22.04-.24.03-.28.01-.3-.01-.32-.03-.3-.04-.31-.07-.29-.08-.29-.11-.29-.12-.28-.14-.27-.16-.26-.17-.25-.19-.23-.21-.22-.22-.21-.23-.19-.25-.18-.27-.17-.26-.14-.25-.11-.24-.08-.22-.05-.2-.01-.19.01-.18.05-.15.08z"/><path class="cls-2" d="M71.82 61.86l.93-.54-.03.02-.03.03-.03.03-.03.03-.03.04-.02.05-.02.05-.03.05-.01.06-.02.06-.02.08-.01.07-.02.09-.01.08v.1l-.01.1-.01.11v.23l.01.11.01.11v.1l.01.1.01.09.02.09.01.08.02.08.02.08.02.07.02.08.02.07.03.06.02.06.03.06.03.06.03.06.03.06.03.05.04.05.04.05.04.05.04.04.04.05.04.04.05.04.04.04.05.03.05.04.05.03.05.03.04.02.04.03.04.01.05.02.04.01.04.01.04.01h.05l.04.01h.04l.04-.01.03-.01.04-.01.03-.02-.94.54-.03.02-.03.01-.04.01-.03.01h-.09l-.04-.01-.04-.01-.05-.01-.04-.01-.04-.02-.04-.02-.05-.02-.04-.02-.05-.03-.05-.03-.04-.04-.05-.03-.05-.04-.04-.04-.04-.04-.05-.05-.04-.04-.04-.05-.03-.05-.04-.05-.03-.05-.04-.06-.03-.06-.03-.06-.02-.06-.03-.06-.02-.07-.02-.06-.02-.08-.03-.07-.01-.08-.02-.08-.02-.08-.01-.09-.01-.1-.01-.09-.01-.11v-.1l-.01-.11v-.23l.01-.11v-.1l.01-.1.01-.09.01-.08.02-.08.01-.07.02-.06.02-.06.02-.06.03-.04.02-.05.03-.04.02-.03.03-.03.04-.03.03-.02z"/><path class="cls-53" d="M241.32 2491.86l.93-.54v2.54a3 3 0 0 1-1.22 0v-2z" transform="translate(-169.5 -2430)"/><path class="cls-2" d="M75.4 60.72l.94-.54 1.38.8-.93.54-1.39-.8z"/><path class="cls-38" d="M76.79 61.52l.93-.54v7.12l-.93.54v-7.12z"/><path class="cls-4" d="M227.46 2485.13a2.08 2.08 0 0 1-.54 1.67 1.1 1.1 0 0 1-1.34 0 3.2 3.2 0 0 1-.58-.42 5.55 5.55 0 0 1-.52-.57v2.14l-1.39-.8v-7l1.39.8v.54a1.73 1.73 0 0 1 .63-.13 1.48 1.48 0 0 1 .73.24 2.93 2.93 0 0 1 1.2 1.4 5.29 5.29 0 0 1 .43 2.18zm-1.42-.79a3 3 0 0 0-.2-1.2 1.48 1.48 0 0 0-.63-.7 1.28 1.28 0 0 0-.37-.15.92.92 0 0 0-.36 0v2.58a1.81 1.81 0 0 0 .25.22l.32.21a.61.61 0 0 0 .76.05 1.45 1.45 0 0 0 .25-1zm4.44 5.3a5.39 5.39 0 0 1-1.94-1.81 4.41 4.41 0 0 1-.67-2.37 1.8 1.8 0 0 1 .63-1.65 1.72 1.72 0 0 1 1.75.26 4 4 0 0 1 1.54 1.53 4.31 4.31 0 0 1 .52 2.12v.58l-3.05-1.76a2.31 2.31 0 0 0 .13.67 2.17 2.17 0 0 0 .29.55 2.53 2.53 0 0 0 .42.44 3.64 3.64 0 0 0 .52.36 2.3 2.3 0 0 0 .48.21 1.77 1.77 0 0 0 .43.08h.55l.15.08v1.33h-.31a2.36 2.36 0 0 1-.39-.09 4.61 4.61 0 0 1-.47-.16 5 5 0 0 1-.59-.3zm.47-3.09a2.08 2.08 0 0 0-.21-.9 1.49 1.49 0 0 0-.59-.61.61.61 0 0 0-.64-.09.74.74 0 0 0-.25.62l1.69 1zm3.78 5.51a3.41 3.41 0 0 1-1.24-1.12 2.88 2.88 0 0 1-.39-1.54v-2.4l-.53-.3v-1.12l.53.31v-1.47l1.39.8v1.47l1.34.77v1.11l-1.34-.77v2.29a1.51 1.51 0 0 0 .06.4 1.07 1.07 0 0 0 .2.37 1.45 1.45 0 0 0 .41.33 1.19 1.19 0 0 0 .29.11.89.89 0 0 0 .25 0l.12.07v1.13a3.59 3.59 0 0 1-.48-.17 5.93 5.93 0 0 1-.62-.32zm4.65-1l-.11-.07a1.69 1.69 0 0 0-.23-.18l-.33-.21a1.94 1.94 0 0 0-.46-.19 3.61 3.61 0 0 0-.47-.1v3.44l-1.39-.8v-5.13l1.39.8v.74l.27-.1a1.43 1.43 0 0 1 .31-.07 1.27 1.27 0 0 1 .73.17l.15.09.15.1v1.45zm4.8 3.82a1.83 1.83 0 0 1-.6 1.65 1.65 1.65 0 0 1-1.7-.25 4.47 4.47 0 0 1-1.7-1.71 4.71 4.71 0 0 1-.6-2.34 1.82 1.82 0 0 1 .6-1.65 1.66 1.66 0 0 1 1.7.25 4.46 4.46 0 0 1 1.7 1.71 4.73 4.73 0 0 1 .6 2.35zm-1.42-.81a4.3 4.3 0 0 0-.07-.8 2.6 2.6 0 0 0-.18-.59 1.6 1.6 0 0 0-.28-.43 1.56 1.56 0 0 0-.35-.28 1 1 0 0 0-.34-.13.33.33 0 0 0-.28.09.77.77 0 0 0-.19.38 3 3 0 0 0-.07.74 4.07 4.07 0 0 0 .07.8 2.65 2.65 0 0 0 .18.56 1.57 1.57 0 0 0 .28.42 1.65 1.65 0 0 0 .37.3.86.86 0 0 0 .34.11.32.32 0 0 0 .28-.09.79.79 0 0 0 .19-.36 3 3 0 0 0 .06-.73zm3.54 4.6l-1.39-.8v-7.12l1.39.8v7.12z" transform="translate(-169.5 -2430)"/></svg>