<svg id="Слой_1" data-name="Слой 1" xmlns="http://www.w3.org/2000/svg" xmlns:xlink="http://www.w3.org/1999/xlink" viewBox="0 0 193.2 150"><defs><style>.cls-1,.cls-10,.cls-106,.cls-11,.cls-12,.cls-13,.cls-14,.cls-15,.cls-16,.cls-17,.cls-18,.cls-19,.cls-2,.cls-20,.cls-21,.cls-22,.cls-23,.cls-24,.cls-25,.cls-26,.cls-27,.cls-28,.cls-29,.cls-3,.cls-30,.cls-31,.cls-32,.cls-33,.cls-34,.cls-35,.cls-36,.cls-37,.cls-38,.cls-39,.cls-4,.cls-40,.cls-41,.cls-42,.cls-43,.cls-44,.cls-45,.cls-46,.cls-47,.cls-48,.cls-49,.cls-5,.cls-50,.cls-51,.cls-52,.cls-53,.cls-54,.cls-55,.cls-56,.cls-57,.cls-58,.cls-59,.cls-6,.cls-60,.cls-61,.cls-62,.cls-63,.cls-64,.cls-65,.cls-66,.cls-7,.cls-76,.cls-8,.cls-86,.cls-9,.cls-96{fill-rule:evenodd}.cls-1{fill:url(#GradientFill_62)}.cls-2{fill:url(#GradientFill_834)}.cls-3{fill:#fcf0e5}.cls-4{fill:url(#GradientFill_834-2)}.cls-5{fill:url(#GradientFill_757)}.cls-6{fill:url(#GradientFill_833)}.cls-7{fill:url(#GradientFill_757-2)}.cls-8{fill:url(#GradientFill_757-3)}.cls-9{fill:url(#GradientFill_757-4)}.cls-10{fill:#1d1d1b}.cls-11{fill:#dcc7b4}.cls-12{fill:#988b7c}.cls-13{fill:url(#GradientFill_827)}.cls-14{fill:url(#GradientFill_757-5)}.cls-15{fill:#9a9689}.cls-16{fill:#c5bca8}.cls-17{fill:#8d7961}.cls-18{fill:url(#GradientFill_832)}.cls-19{fill:#3c341a}.cls-20{fill:#60543f}.cls-21{fill:#f1e8ea}.cls-22{fill:#c1b6b9}.cls-23{fill:#7f6e71}.cls-24{fill:#392b21}.cls-25{fill:url(#GradientFill_832-2)}.cls-26{fill:url(#linear-gradient)}.cls-27{fill:url(#linear-gradient-2)}.cls-28{fill:url(#linear-gradient-3)}.cls-29{fill:url(#GradientFill_831)}.cls-30{fill:#636155}.cls-31{fill:url(#GradientFill_830)}.cls-32{fill:url(#GradientFill_829)}.cls-33{fill:url(#GradientFill_757-6)}.cls-34{fill:url(#GradientFill_757-7)}.cls-35{fill:url(#GradientFill_828)}.cls-36{fill:url(#GradientFill_828-2)}.cls-37{fill:#363527}.cls-38{fill:#948487}.cls-39{fill:url(#GradientFill_827-2)}.cls-40{fill:#3a3437}.cls-41{fill:url(#GradientFill_827-3)}.cls-42{fill:url(#GradientFill_827-4)}.cls-43{fill:#4d4d42}.cls-44{fill:#6b6a5d}.cls-45{fill:url(#GradientFill_826)}.cls-46{fill:url(#GradientFill_826-2)}.cls-47{fill:url(#GradientFill_826-3)}.cls-48{fill:url(#GradientFill_826-4)}.cls-49{fill:url(#GradientFill_757-8)}.cls-50{fill:url(#GradientFill_825)}.cls-51{fill:url(#GradientFill_825-2)}.cls-52{fill:url(#GradientFill_822)}.cls-53{fill:url(#GradientFill_620)}.cls-54{fill:url(#GradientFill_824)}.cls-55{fill:url(#GradientFill_823)}.cls-56{fill:url(#GradientFill_822-2)}.cls-57{fill:url(#GradientFill_757-9)}.cls-58{fill:url(#linear-gradient-4)}.cls-59{fill:url(#linear-gradient-5)}.cls-60{fill:url(#linear-gradient-6)}.cls-61{fill:url(#GradientFill_821)}.cls-62{fill:url(#linear-gradient-7)}.cls-63{fill:url(#linear-gradient-8)}.cls-64{fill:url(#linear-gradient-9)}.cls-65{fill:url(#GradientFill_821-2)}.cls-66{fill:url(#GradientFill_757-10)}.cls-67{fill:url(#GradientFill_23)}.cls-68{fill:url(#linear-gradient-10)}.cls-69{fill:url(#linear-gradient-11)}.cls-70{fill:url(#linear-gradient-12)}.cls-71{fill:url(#GradientFill_40)}.cls-72{fill:url(#linear-gradient-13)}.cls-73{fill:url(#linear-gradient-14)}.cls-74{fill:url(#linear-gradient-15)}.cls-75{fill:url(#GradientFill_59)}.cls-76{fill:url(#GradientFill_757-11)}.cls-77{fill:url(#GradientFill_23-2)}.cls-78{fill:url(#linear-gradient-16)}.cls-79{fill:url(#linear-gradient-17)}.cls-80{fill:url(#linear-gradient-18)}.cls-81{fill:url(#GradientFill_40-2)}.cls-82{fill:url(#linear-gradient-19)}.cls-83{fill:url(#linear-gradient-20)}.cls-84{fill:url(#linear-gradient-21)}.cls-85{fill:url(#GradientFill_59-2)}.cls-86{fill:url(#GradientFill_757-12)}.cls-87{fill:url(#GradientFill_23-3)}.cls-88{fill:url(#linear-gradient-22)}.cls-89{fill:url(#linear-gradient-23)}.cls-90{fill:url(#linear-gradient-24)}.cls-91{fill:url(#GradientFill_40-3)}.cls-92{fill:url(#linear-gradient-25)}.cls-93{fill:url(#linear-gradient-26)}.cls-94{fill:url(#linear-gradient-27)}.cls-95{fill:url(#GradientFill_59-3)}.cls-96{fill:url(#GradientFill_757-13)}.cls-97{fill:url(#GradientFill_23-4)}.cls-98{fill:url(#linear-gradient-28)}.cls-99{fill:url(#linear-gradient-29)}.cls-100{fill:url(#linear-gradient-30)}.cls-101{fill:url(#GradientFill_40-4)}.cls-102{fill:url(#linear-gradient-31)}.cls-103{fill:url(#linear-gradient-32)}.cls-104{fill:url(#linear-gradient-33)}.cls-105{fill:url(#GradientFill_59-4)}.cls-106{fill:#989598}</style><linearGradient id="GradientFill_62" y1="94.89" x2="193.2" y2="94.89" gradientUnits="userSpaceOnUse"><stop offset="0" stop-color="#98898c"/><stop offset=".43" stop-color="#a7999d"/><stop offset="1" stop-color="#b2a3a5"/></linearGradient><linearGradient id="GradientFill_834" x1="116.17" y1="80.39" x2="110.15" y2="71.12" gradientUnits="userSpaceOnUse"><stop offset="0" stop-color="#a19587"/><stop offset="1" stop-color="#867b6c"/></linearGradient><linearGradient id="GradientFill_834-2" x1="1065.85" y1="2253.92" x2="1043.54" y2="2219.57" xlink:href="#GradientFill_834"/><linearGradient id="GradientFill_757" x1="39.95" y1="67.42" x2="45.32" y2="92.68" gradientUnits="userSpaceOnUse"><stop offset="0" stop-color="#988b7c"/><stop offset="1" stop-color="#867b6c"/></linearGradient><linearGradient id="GradientFill_833" x1="62.52" y1="112.09" x2="60.25" y2="116.02" gradientUnits="userSpaceOnUse"><stop offset="0" stop-color="#dcc7b4"/><stop offset="1" stop-color="#988b7c"/></linearGradient><linearGradient id="GradientFill_757-2" x1="154.64" y1="117.63" x2="161.89" y2="151.73" xlink:href="#GradientFill_757"/><linearGradient id="GradientFill_757-3" x1="-7.6" y1="64.39" x2="4.93" y2="78.81" xlink:href="#GradientFill_757"/><linearGradient id="GradientFill_757-4" x1="6.91" y1="80.84" x2="9.57" y2="94.5" xlink:href="#GradientFill_757"/><linearGradient id="GradientFill_827" x1="74.24" y1="79.25" x2="67.85" y2="79.25" gradientUnits="userSpaceOnUse"><stop offset="0" stop-color="#988b7c"/><stop offset="1" stop-color="#8d8072"/></linearGradient><linearGradient id="GradientFill_757-5" x1="122.34" y1="62.89" x2="125.34" y2="77.03" xlink:href="#GradientFill_757"/><linearGradient id="GradientFill_832" x1="58.12" y1="90.74" x2="48.65" y2="66.06" gradientUnits="userSpaceOnUse"><stop offset="0" stop-color="#675a48"/><stop offset="1" stop-color="#584b35"/></linearGradient><linearGradient id="GradientFill_832-2" x1="65.2" y1="101.66" x2="67.69" y2="77.99" xlink:href="#GradientFill_832"/><linearGradient id="linear-gradient" x1="53.07" y1="61.1" x2="48.11" y2="69.36" gradientUnits="userSpaceOnUse"><stop offset="0" stop-color="#9a9689"/><stop offset="1" stop-color="#b3ada0"/></linearGradient><linearGradient id="linear-gradient-2" x1="52.64" y1="60.86" x2="47.7" y2="69.09" gradientUnits="userSpaceOnUse"><stop offset="0" stop-color="#9a9689"/><stop offset="1" stop-color="#cbc3b7"/></linearGradient><linearGradient id="linear-gradient-3" x1="52.24" y1="60.63" x2="47.31" y2="68.84" gradientUnits="userSpaceOnUse"><stop offset="0" stop-color="#9a9689"/><stop offset="1" stop-color="#e4dace"/></linearGradient><linearGradient id="GradientFill_831" x1="52.24" y1="60.64" x2="47.32" y2="68.82" gradientUnits="userSpaceOnUse"><stop offset="0" stop-color="#9a9689"/><stop offset="1" stop-color="#fcf0e5"/></linearGradient><linearGradient id="GradientFill_830" x1="54.9" y1="54.6" x2="56.35" y2="57.7" gradientUnits="userSpaceOnUse"><stop offset="0" stop-color="#636155"/><stop offset="1" stop-color="#54554a"/></linearGradient><linearGradient id="GradientFill_829" x1="1009.72" y1="2212.98" x2="1005.65" y2="2219.76" gradientUnits="userSpaceOnUse"><stop offset="0" stop-color="#c5bca8"/><stop offset="1" stop-color="#9a9689"/></linearGradient><linearGradient id="GradientFill_757-6" x1="19.3" y1="62.59" x2="12.87" y2="68.38" xlink:href="#GradientFill_757"/><linearGradient id="GradientFill_757-7" x1="51.63" y1="75.09" x2="60.22" y2="86.9" xlink:href="#GradientFill_757"/><linearGradient id="GradientFill_828" x1="51.54" y1="57.62" x2="52.08" y2="61.45" gradientUnits="userSpaceOnUse"><stop offset="0" stop-color="#636155"/><stop offset="1" stop-color="#9a9689"/></linearGradient><linearGradient id="GradientFill_828-2" x1="52.06" y1="55.57" x2="52.3" y2="57.21" xlink:href="#GradientFill_828"/><linearGradient id="GradientFill_827-2" x1="82.98" y1="86.54" x2="80.34" y2="86.54" xlink:href="#GradientFill_827"/><linearGradient id="GradientFill_827-3" x1="95.49" y1="93.76" x2="92.85" y2="93.76" xlink:href="#GradientFill_827"/><linearGradient id="GradientFill_827-4" x1="89.24" y1="90.15" x2="86.59" y2="90.15" xlink:href="#GradientFill_827"/><linearGradient id="GradientFill_826" x1="115.42" y1="77.5" x2="115.42" y2="126.43" gradientUnits="userSpaceOnUse"><stop offset="0" stop-color="#392b21"/><stop offset="1" stop-color="#7f6e71"/></linearGradient><linearGradient id="GradientFill_826-2" x1="119.61" y1="75.07" x2="119.61" y2="124.01" xlink:href="#GradientFill_826"/><linearGradient id="GradientFill_826-3" x1="123.81" y1="72.65" x2="123.81" y2="121.58" xlink:href="#GradientFill_826"/><linearGradient id="GradientFill_826-4" x1="128" y1="70.23" x2="128" y2="119.16" xlink:href="#GradientFill_826"/><linearGradient id="GradientFill_757-8" x1="93.14" y1="38.36" x2="105.38" y2="95.96" xlink:href="#GradientFill_757"/><linearGradient id="GradientFill_825" x1="132.67" y1="105.96" x2="135.16" y2="110.27" gradientUnits="userSpaceOnUse"><stop offset="0" stop-color="#988b7c"/><stop offset="1" stop-color="#05838b"/></linearGradient><linearGradient id="GradientFill_825-2" x1="170.26" y1="98.33" x2="165.58" y2="106.44" xlink:href="#GradientFill_825"/><linearGradient id="GradientFill_822" x1="148.57" y1="104.78" x2="158.33" y2="87.87" gradientUnits="userSpaceOnUse"><stop offset="0" stop-color="#59aaa8"/><stop offset="1" stop-color="#74c5c4"/></linearGradient><linearGradient id="GradientFill_620" x1="140.92" y1="131.39" x2="126.55" y2="106.51" gradientUnits="userSpaceOnUse"><stop offset="0" stop-color="#34a09f"/><stop offset="1" stop-color="#007580"/></linearGradient><linearGradient id="GradientFill_824" x1="135.77" y1="90.94" x2="149.42" y2="115.57" gradientUnits="userSpaceOnUse"><stop offset="0" stop-color="#007480"/><stop offset="1" stop-color="#34a09f"/></linearGradient><linearGradient id="GradientFill_823" x1="134.06" y1="111.9" x2="149.22" y2="139.24" gradientUnits="userSpaceOnUse"><stop offset="0" stop-color="#1d8f93"/><stop offset="1" stop-color="#5ebebd"/></linearGradient><linearGradient id="GradientFill_822-2" x1="135.37" y1="111.47" x2="140.54" y2="120.8" xlink:href="#GradientFill_822"/><linearGradient id="GradientFill_757-9" x1="128.53" y1="60.94" x2="131.79" y2="76.3" xlink:href="#GradientFill_757"/><linearGradient id="linear-gradient-4" x1="78.18" y1="52.85" x2="73.81" y2="60.11" gradientUnits="userSpaceOnUse"><stop offset="0" stop-color="#dcc7b4"/><stop offset="1" stop-color="#ccbba9"/></linearGradient><linearGradient id="linear-gradient-5" x1="77.8" y1="52.64" x2="73.45" y2="59.88" gradientUnits="userSpaceOnUse"><stop offset="0" stop-color="#dcc7b4"/><stop offset="1" stop-color="#bbaf9f"/></linearGradient><linearGradient id="linear-gradient-6" x1="77.79" y1="52.65" x2="73.46" y2="59.86" gradientUnits="userSpaceOnUse"><stop offset="0" stop-color="#dcc7b4"/><stop offset="1" stop-color="#aba294"/></linearGradient><linearGradient id="GradientFill_821" x1="77.79" y1="52.66" x2="73.47" y2="59.85" gradientUnits="userSpaceOnUse"><stop offset="0" stop-color="#dcc7b4"/><stop offset="1" stop-color="#9a9689"/></linearGradient><linearGradient id="linear-gradient-7" x1="52.36" y1="25" x2="47.99" y2="32.27" xlink:href="#linear-gradient-4"/><linearGradient id="linear-gradient-8" x1="51.99" y1="24.79" x2="47.63" y2="32.04" xlink:href="#linear-gradient-5"/><linearGradient id="linear-gradient-9" x1="51.98" y1="24.81" x2="47.64" y2="32.02" xlink:href="#linear-gradient-6"/><linearGradient id="GradientFill_821-2" x1="51.97" y1="24.82" x2="47.65" y2="32" xlink:href="#GradientFill_821"/><linearGradient id="GradientFill_757-10" x1="964.8" y1="2203.05" x2="965.57" y2="2206.7" xlink:href="#GradientFill_757"/><linearGradient id="GradientFill_23" x1="19.18" y1="48.4" x2="21.95" y2="51.17" gradientUnits="userSpaceOnUse"><stop offset="0" stop-color="#d0ca77"/><stop offset="1" stop-color="#6c794c"/></linearGradient><linearGradient id="linear-gradient-10" x1="19.3" y1="48.5" x2="21.9" y2="51.09" gradientUnits="userSpaceOnUse"><stop offset="0" stop-color="#cac572"/><stop offset="1" stop-color="#6a764b"/></linearGradient><linearGradient id="linear-gradient-11" x1="19.43" y1="48.6" x2="21.84" y2="51.01" gradientUnits="userSpaceOnUse"><stop offset="0" stop-color="#c4c16d"/><stop offset="1" stop-color="#67744a"/></linearGradient><linearGradient id="linear-gradient-12" x1="19.57" y1="48.71" x2="21.77" y2="50.92" gradientUnits="userSpaceOnUse"><stop offset="0" stop-color="#bebc68"/><stop offset="1" stop-color="#657149"/></linearGradient><linearGradient id="GradientFill_40" x1="19.7" y1="48.83" x2="21.71" y2="50.83" gradientUnits="userSpaceOnUse"><stop offset="0" stop-color="#b8b763"/><stop offset="1" stop-color="#626e48"/></linearGradient><linearGradient id="linear-gradient-13" x1="19.76" y1="48.88" x2="21.48" y2="50.62" gradientUnits="userSpaceOnUse"><stop offset="0" stop-color="#b2b264"/><stop offset="1" stop-color="#69744b"/></linearGradient><linearGradient id="linear-gradient-14" x1="19.82" y1="48.95" x2="21.25" y2="50.39" gradientUnits="userSpaceOnUse"><stop offset="0" stop-color="#adae64"/><stop offset="1" stop-color="#717a4e"/></linearGradient><linearGradient id="linear-gradient-15" x1="19.9" y1="49.03" x2="21.01" y2="50.16" gradientUnits="userSpaceOnUse"><stop offset="0" stop-color="#a7a965"/><stop offset="1" stop-color="#788051"/></linearGradient><linearGradient id="GradientFill_59" x1="19.99" y1="49.13" x2="20.76" y2="49.92" gradientUnits="userSpaceOnUse"><stop offset="0" stop-color="#a1a465"/><stop offset="1" stop-color="#7f8654"/></linearGradient><linearGradient id="GradientFill_757-11" x1="975.32" y1="2209.12" x2="976.1" y2="2212.78" xlink:href="#GradientFill_757"/><linearGradient id="GradientFill_23-2" x1="29.71" y1="54.47" x2="32.48" y2="57.25" xlink:href="#GradientFill_23"/><linearGradient id="linear-gradient-16" x1="29.83" y1="54.58" x2="32.42" y2="57.17" xlink:href="#linear-gradient-10"/><linearGradient id="linear-gradient-17" x1="29.96" y1="54.68" x2="32.36" y2="57.09" xlink:href="#linear-gradient-11"/><linearGradient id="linear-gradient-18" x1="30.09" y1="54.79" x2="32.3" y2="57" xlink:href="#linear-gradient-12"/><linearGradient id="GradientFill_40-2" x1="30.23" y1="54.91" x2="32.23" y2="56.91" xlink:href="#GradientFill_40"/><linearGradient id="linear-gradient-19" x1="30.29" y1="54.96" x2="32.01" y2="56.7" xlink:href="#linear-gradient-13"/><linearGradient id="linear-gradient-20" x1="30.35" y1="55.03" x2="31.77" y2="56.47" xlink:href="#linear-gradient-14"/><linearGradient id="linear-gradient-21" x1="30.43" y1="55.11" x2="31.53" y2="56.24" xlink:href="#linear-gradient-15"/><linearGradient id="GradientFill_59-2" x1="30.52" y1="55.2" x2="31.29" y2="56" xlink:href="#GradientFill_59"/><linearGradient id="GradientFill_757-12" x1="985.85" y1="2215.2" x2="986.63" y2="2218.86" xlink:href="#GradientFill_757"/><linearGradient id="GradientFill_23-3" x1="40.23" y1="60.55" x2="43" y2="63.32" xlink:href="#GradientFill_23"/><linearGradient id="linear-gradient-22" x1="40.36" y1="60.65" x2="42.95" y2="63.25" xlink:href="#linear-gradient-10"/><linearGradient id="linear-gradient-23" x1="40.48" y1="60.76" x2="42.89" y2="63.17" xlink:href="#linear-gradient-11"/><linearGradient id="linear-gradient-24" x1="40.62" y1="60.87" x2="42.83" y2="63.08" xlink:href="#linear-gradient-12"/><linearGradient id="GradientFill_40-3" x1="40.76" y1="60.99" x2="42.76" y2="62.99" xlink:href="#GradientFill_40"/><linearGradient id="linear-gradient-25" x1="40.81" y1="61.04" x2="42.53" y2="62.77" xlink:href="#linear-gradient-13"/><linearGradient id="linear-gradient-26" x1="40.88" y1="61.1" x2="42.3" y2="62.55" xlink:href="#linear-gradient-14"/><linearGradient id="linear-gradient-27" x1="40.95" y1="61.18" x2="42.06" y2="62.32" xlink:href="#linear-gradient-15"/><linearGradient id="GradientFill_59-3" x1="41.04" y1="61.28" x2="41.81" y2="62.08" xlink:href="#GradientFill_59"/><linearGradient id="GradientFill_757-13" x1="976.06" y1="2196.53" x2="976.83" y2="2200.19" xlink:href="#GradientFill_757"/><linearGradient id="GradientFill_23-4" x1="30.44" y1="41.88" x2="33.21" y2="44.65" xlink:href="#GradientFill_23"/><linearGradient id="linear-gradient-28" x1="30.56" y1="41.98" x2="33.16" y2="44.57" xlink:href="#linear-gradient-10"/><linearGradient id="linear-gradient-29" x1="30.69" y1="42.09" x2="33.1" y2="44.49" xlink:href="#linear-gradient-11"/><linearGradient id="linear-gradient-30" x1="30.83" y1="42.2" x2="33.04" y2="44.41" xlink:href="#linear-gradient-12"/><linearGradient id="GradientFill_40-4" x1="30.97" y1="42.31" x2="32.97" y2="44.31" xlink:href="#GradientFill_40"/><linearGradient id="linear-gradient-31" x1="31.02" y1="42.37" x2="32.74" y2="44.1" xlink:href="#linear-gradient-13"/><linearGradient id="linear-gradient-32" x1="31.09" y1="42.43" x2="32.51" y2="43.88" xlink:href="#linear-gradient-14"/><linearGradient id="linear-gradient-33" x1="31.16" y1="42.51" x2="32.27" y2="43.65" xlink:href="#linear-gradient-15"/><linearGradient id="GradientFill_59-4" x1="31.25" y1="42.61" x2="32.02" y2="43.4" xlink:href="#GradientFill_59"/></defs><title>usage-item-4</title><path class="cls-1" d="M169.03 97.14l12-6.93-23.32-13.47 11.14-6.43-47.16-27.23H80.46l-2.53 1.46-8.22-4.75-1.15.66-1.16-.66L0 78.7 123.49 150h2.31l67.4-38.92-24.17-13.94z"/><path class="cls-2" d="M110.44 63.3l15.6 9.01-21.99 12.7-7.8-13.52 14.19-8.19z"/><path class="cls-3" d="M123.49 148.16L0 76.86l67.4-38.91 123.49 71.29-67.4 38.92z"/><path class="cls-4" d="M1020.18 2193.36l91.1 52.6-3.48 2 1.91 1.1-26.34 15.21h-34.88l-7.51-4.34 3.93-2.27-36.37-21 11.14-6.43-31.68-18.28 32.19-18.59zm27.15 65.72z" transform="translate(-943.4 -2150)"/><path class="cls-5" d="M13.31 77.23L8.76 74.6l4.55-2.62h15.42L60 53.88h4.52l.02 8.2 2.7 1.56-.65.38v17.31l2.63 1.52h6.19v3.57l1.49.86-1.49.86v3.88h-6.72l-1.49.86 3.42 1.97-4.55 2.63H48.38l-4.54-2.63 4.54-2.62h6.34l-25.98-15H13.31z"/><path class="cls-6" d="M123.49 150v-1.84L0 76.86v1.84L123.49 150z"/><path class="cls-7" d="M123.49 150v-1.84l67.4-38.92v1.84L123.49 150z"/><path class="cls-3" d="M34.78 98.78v-1.84l1.49-1.33-28.7-16.57-1.49 3.17 28.7 16.57z"/><path class="cls-8" d="M7.87 80.12l-1.79 2.09.68-1.45 1.11-.64z"/><path class="cls-9" d="M7.87 80.12l-1.79 2.09 1.62-1.12.17-.97z"/><path class="cls-10" d="M91.75 89.17l35.86-20.7-47.15-27.23-35.87 20.71 47.16 27.22z"/><path class="cls-11" d="M44.59 61.95V20.71l31.68 18.3v41.23L44.59 61.95z"/><path class="cls-12" d="M57.35 37.89V32.2l1.68 2.63v4.03l-1.68-.97z"/><path class="cls-3" d="M103.93 67.84l35.87-20.71-23.33-13.47 11.14-6.43L80.46 0 44.59 20.71l31.68 18.3-11.14 6.43 38.8 22.4z"/><path class="cls-10" d="M103.93 63.97l29.16-16.84-23.32-13.47 11.14-6.43L80.46 3.87 51.29 20.71l31.69 18.3-11.15 6.43 32.1 18.53z"/><path class="cls-11" d="M1008.53 2236.68v-41.24l38.8 22.4v6.36l-2.43-1.4-3.93 2.27v30.35z" transform="translate(-943.4 -2150)"/><path class="cls-13" d="M65.13 86.68V66.49h9.25v25.53l-9.25-5.34z"/><path class="cls-12" d="M65.13 70.72V49.51l23.42 13.52 3.38 5.85v17.31l-26.8-15.47z"/><path class="cls-14" d="M103.93 74.19v-6.35l35.87-20.71v41.24L129 94.6l2.43-30.41-5.09-2.93-22.41 12.93z"/><path class="cls-15" d="M41.23 39.33v-2.79l3.36 1.94v-8.52l-3.36-1.93v-3.2l14.45 8.34v14.5l-14.45-8.34z"/><path class="cls-16" d="M1027.41 2215.65l4.59-2.65-23.42-13.52v-4.07l7.62-4.4-10.43-6-15.77 9.07z" transform="translate(-943.4 -2150)"/><path class="cls-17" d="M46.64 81.34v-21.9l18.49 10.67v21.91L46.64 81.34z"/><path class="cls-18" d="M46.64 81.34V66.69l5.95-3.82 3.49 2.02.86 2.44 8.19 21.3v3.39L46.64 81.34z"/><path class="cls-19" d="M64.01 89.6V76.56l-3.05-1.76v13.03l3.05 1.77z"/><path class="cls-20" d="M64.01 89.6v-2.22l-2.72.24-.33.21 3.05 1.77z"/><path class="cls-21" d="M61.29 74.98v12.66l2.72 1.58V76.56l-2.72-1.58z"/><path class="cls-22" d="M61.29 78.63v9.01l2.72 1.58v-3.5l-2.72-7.09z"/><path class="cls-23" d="M63.92 88.68V76.61l-2.22-1.28V87.4l2.22 1.28z"/><path class="cls-24" d="M63.92 88.68v-3.2l-2.22-5.76v7.68l2.22 1.28z"/><path class="cls-19" d="M59.84 87.19V74.15l-3.05-1.76v13.04l3.05 1.76z"/><path class="cls-20" d="M59.84 87.19v-2.21l-2.72.23-.33.22 3.05 1.76z"/><path class="cls-22" d="M57.12 72.58v12.66l2.72 1.57V74.15l-2.72-1.57z"/><path class="cls-24" d="M59.75 86.28V74.2l-2.21-1.27V85l2.21 1.28z"/><path class="cls-19" d="M55.68 84.78V71.75l-3.06-1.77v13.04l3.06 1.76z"/><path class="cls-20" d="M55.68 84.78v-2.21l-2.73.24-.33.21 3.06 1.76z"/><path class="cls-22" d="M52.95 70.17v12.66l2.73 1.58V71.75l-2.73-1.58z"/><path class="cls-24" d="M55.59 83.87V71.8l-2.22-1.28v12.07l2.22 1.28z"/><path class="cls-25" d="M69.68 89.39V69.44l-4.55 2.62v19.96l4.55-2.63z"/><path class="cls-15" d="M46.64 61.39V44.08l37.37 21.58v17.3L46.64 61.39z"/><path class="cls-15" d="M46.64 61.39v-5.95l15.45 8.92-5.15 2.97h-.01l-10.29-5.94z"/><path class="cls-26" d="M46.64 61.39v-5.95l14.6 8.43-4.3 3.46h-.01l-10.29-5.94z"/><path class="cls-27" d="M46.64 61.39v-5.95l13.75 7.94-3.45 3.95h-.01l-10.29-5.94z"/><path class="cls-28" d="M46.64 61.39v-5.95l12.9 7.45-2.6 4.44h-.01l-10.29-5.94z"/><path class="cls-29" d="M46.64 61.39v-5.95l12.05 6.95-1.75 4.94h-.01l-10.29-5.94z"/><path class="cls-30" d="M49.99 58.61l25.1 14.5v-9.57l-25.1-14.49v9.56z"/><path class="cls-31" d="M60.33 55.02l-4.2-2.43-4.45 3.37.4 3.82 8.25-4.76z"/><path class="cls-32" d="M1000.68 2212.83l17.81 10.28v-4.94l-9.25-5.34h-8.56zm3.52-2.91l-3.74-2.16-3.74 2.16h7.49z" transform="translate(-943.4 -2150)"/><path class="cls-3" d="M55.13 52.01l-5.14-2.96v5.93l5.14-2.97z"/><path class="cls-30" d="M49.99 58.61l1.69.98v-9.57l-1.69-.97v9.56zm38.56 21.73V63.03l-4.54 2.63v17.3l4.54-2.62z"/><path class="cls-33" d="M17.86 74.6V54.65l-4.55 2.62v19.96l4.55-2.63z"/><path class="cls-3" d="M46.64 44.08l.65-.38-2.7-1.56-7.1-4.1L8.76 54.66l35.07 20.25 13.12-7.57-10.31-5.95V44.08z"/><path class="cls-11" d="M8.76 74.6V54.65l4.55 2.62v19.96L8.76 74.6z"/><path class="cls-11" d="M8.76 59.17v-4.52L43.84 74.9v4.52L8.76 59.17z"/><path class="cls-34" d="M56.94 71.85v-4.52l-13.1 7.57v4.52l13.1-7.57z"/><path class="cls-30" d="M52.93 94.85V77.16l-4.55 2.62v17.7l4.55-2.63z"/><path class="cls-15" d="M43.84 94.85V77.16l4.54 2.62v17.7l-4.54-2.63z"/><path class="cls-16" d="M48.38 74.54l4.55 2.62-4.55 2.62-4.54-2.62 4.54-2.62z"/><path class="cls-30" d="M48.38 74.54l1.13.65-3.41 1.97h-2.26l4.54-2.62z"/><path class="cls-16" d="M51.68 57.64l23.41 13.51v1.96l-25.1-14.5 1.69-.97z"/><path class="cls-35" d="M51.68 57.64l1.69.97h-3.38l1.69-.97z"/><path class="cls-16" d="M51.68 55.96l5.14-2.97-1.69-.98L51.68 54v1.96z"/><path class="cls-36" d="M51.68 55.96l.81-.47h-.81v.47z"/><path class="cls-30" d="M131.43 99.07V64.19L105.09 79.4v34.88l26.34-15.21z"/><path class="cls-16" d="M105.09 79.4l26.34-15.21-4.24-2.44-.85-.49-22.41 12.93-2.43-1.39-3.92 2.26 7.51 4.34z"/><path class="cls-30" d="M127.3 61.81l-.96-.55-22.41 12.93h7.09l18.87-10.89-2.59-1.49z"/><path class="cls-15" d="M1041 2259.94v-34.88l7.51 4.34v34.88z" transform="translate(-943.4 -2150)"/><path class="cls-30" d="M57.35 37.89V32.2l-1.67.97v5.69l1.67-.97z"/><path class="cls-16" d="M55.68 33.17l-14.45-8.34 3.36-1.93v1.93l12.76 7.37-1.67.97zm-5.22 8.7l-9.23-5.33 3.36-1.94v1.94l6.15 3.55v1.62l-.28.16z"/><path class="cls-37" d="M44.59 29.96l6.15 3.56v6.57l-6.15-3.55v-6.58z"/><path class="cls-23" d="M44.95 30.18l5.79 3.34v6.15l-5.79-3.34v-6.15z"/><path class="cls-38" d="M44.95 30.18l5.33 3.07-5.33 3.08v-6.15z"/><path class="cls-39" d="M83.04 92.15v-9.01l-3.83-2.21v9.01l3.83 2.21z"/><path class="cls-3" d="M83.04 92.15v-2.21h-3.83l3.83 2.21z"/><path class="cls-40" d="M79.54 81.12v8.63l3.5 2.02v-8.63l-3.5-2.02z"/><path class="cls-23" d="M82.95 91.23V83.2l-3-1.73v8.03l3 1.73z"/><path class="cls-41" d="M95.55 99.37v-9l-3.83-2.21v9l3.83 2.21z"/><path class="cls-3" d="M95.55 99.37v-2.21h-3.83l3.83 2.21z"/><path class="cls-40" d="M92.05 88.34v8.63l3.5 2.02v-8.62l-3.5-2.03z"/><path class="cls-23" d="M95.46 98.45v-8.03l-3-1.73v8.04l3 1.72z"/><path class="cls-42" d="M89.3 95.76v-9l-3.84-2.22v9.01l3.84 2.21z"/><path class="cls-3" d="M89.3 95.76v-2.21h-3.84l3.84 2.21z"/><path class="cls-40" d="M85.79 84.73v8.63l3.51 2.02v-8.62l-3.51-2.03z"/><path class="cls-23" d="M89.2 94.84v-8.03l-2.99-1.73v8.04l2.99 1.72z"/><path class="cls-43" d="M114.41 108.03V78.5l2.67-1.54v29.53l-2.67 1.54z"/><path class="cls-44" d="M114.41 108.03v-2.21l2.34.46.33.21-2.67 1.54z"/><path class="cls-24" d="M116.75 77.15v29.15l-2.34 1.36V78.5l2.34-1.35z"/><path class="cls-45" d="M114.5 107.12V78.55l1.83-1.05v28.56l-1.83 1.06z"/><path class="cls-43" d="M118.61 105.61V76.08l2.66-1.54v29.53l-2.66 1.54z"/><path class="cls-44" d="M118.61 105.61v-2.21l2.33.46.33.21-2.66 1.54z"/><path class="cls-24" d="M120.95 74.72v29.16l-2.34 1.35V76.08l2.34-1.36z"/><path class="cls-46" d="M118.7 104.69V76.13l1.83-1.06v28.57l-1.83 1.05z"/><path class="cls-43" d="M122.8 103.19V73.66l2.67-1.55v29.54l-2.67 1.54z"/><path class="cls-44" d="M122.8 103.19v-2.22l2.34.46.33.22-2.67 1.54z"/><path class="cls-24" d="M125.14 72.3v29.16l-2.34 1.35V73.66l2.34-1.36z"/><path class="cls-47" d="M122.89 102.27V73.71l1.83-1.06v28.57l-1.83 1.05z"/><path class="cls-43" d="M127 100.77V71.23l2.67-1.54v29.53l-2.67 1.55z"/><path class="cls-44" d="M127 100.77v-2.22l2.33.46.34.21-2.67 1.55z"/><path class="cls-24" d="M129.34 69.88v29.15l-2.34 1.36V71.23l2.34-1.35z"/><path class="cls-48" d="M127.09 99.85V71.28l1.83-1.05v28.56l-1.83 1.06z"/><path class="cls-49" d="M103.93 63.97l29.16-16.84-23.32-13.47 11.14-6.43L80.46 3.87 51.29 20.71l31.69 18.3-11.15 6.43 32.1 18.53z"/><path class="cls-16" d="M103.93 63.97l27.63-15.95-20.57-11.88-1.22-.7v-1.78l9.61-5.55-37.7-21.76L54.05 22.3l28.93 16.71v1.77l1.22.7-9.61 5.55 29.34 16.94z"/><path class="cls-30" d="M82.98 39.72v1.06l-9.61 5.55 1.22.7 10.56-6.1-2.17-1.21zM80.46 5.64L52.83 21.6l1.22.7L81.68 6.35l-1.22-.71z"/><path class="cls-11" d="M81.68 6.35l-1.22-2.48 40.45 23.36-1.53.88-37.7-21.76zm28.09 29.09v-1.78l23.32 13.47-1.53.89-21.79-12.58z"/><path class="cls-50" d="M123.49 144.29l60.7-35.05-27.47-15.85-60.7 35.04 27.47 15.86z"/><path class="cls-51" d="M123.49 144.29l60.7-35.05-27.47-15.85v1.19l-33.23 49.71z"/><path class="cls-11" d="M184.19 109.24l-19.66-11.35.35 1.4 17.31 11.11 2-1.16z"/><path class="cls-52" d="M183.15 109.84l-26.43-15.26-59.66 34.45 26.43 15.26 59.66-34.45z"/><path class="cls-53" d="M164.88 99.29l-8.16-4.71-59.66 34.45 26.43 15.26 46.67-35.21-5.28-9.79z"/><path class="cls-54" d="M131.51 115.88h8.46l20.98-12.12-4.23-2.44-25.21 14.56z"/><path class="cls-55" d="M102.89 132.4l20.6 11.89 53.83-31.08-20.6-11.89-53.83 31.08z"/><path class="cls-56" d="M107.46 135.03l16.03 9.26 53.83-31.08-7.16-4.13-23.45 13.54h-17.74l-21.51 12.41z"/><path class="cls-57" d="M127.61 27.23v12.86l-11.14-6.43 11.14-6.43z"/><path class="cls-11" d="M65.13 45.44l26.74 15.44-3.32 2.15-23.42-13.52v-4.07z"/><path class="cls-58" d="M65.13 45.44l25.98 15-2.56 2.59-23.42-13.52v-4.07z"/><path class="cls-59" d="M65.13 45.44L90.36 60l-1.81 3.03-23.42-13.52v-4.07z"/><path class="cls-60" d="M65.13 45.44l24.46 14.12-1.04 3.47-23.42-13.52v-4.07z"/><path class="cls-61" d="M65.13 45.44l23.7 13.69-.28 3.9-23.42-13.52v-4.07z"/><path class="cls-11" d="M44.59 20.77l16.08 9.28-3.32 2.15-12.76-7.37v-4.06z"/><path class="cls-62" d="M44.59 20.77l15.32 8.84-2.56 2.59-12.76-7.37v-4.06z"/><path class="cls-63" d="M44.59 20.77l14.56 8.41-1.8 3.02-12.76-7.37v-4.06z"/><path class="cls-64" d="M44.59 20.77l13.8 7.97-1.04 3.46-12.76-7.37v-4.06z"/><path class="cls-65" d="M44.59 20.77l13.04 7.53-.28 3.9-12.76-7.37v-4.06z"/><path class="cls-66" d="M963.9 2201.55h2.27l1.42.82a2.84 2.84 0 0 1 2.67 1.54l.46.26-.42.24c-.12 1-1.42 1.75-3 1.75l-1.11.64h-2.29l-4.55-2.62z" transform="translate(-943.4 -2150)"/><path class="cls-30" d="M25.04 54.17v-2.52l-4.54 2.62v2.53l4.54-2.63z"/><path class="cls-15" d="M15.95 54.17v-2.52l4.55 2.62v2.53l-4.55-2.63z"/><path class="cls-16" d="M20.5 49.02l4.54 2.63-4.54 2.62-4.55-2.62 4.55-2.63z"/><path class="cls-30" d="M965.31 2199.84l2.67 1.54a1.23 1.23 0 0 1 .05.35 1.21 1.21 0 0 1 0 .15l-3 1.75c-1.65 0-3-.86-3-1.9s1.35-1.9 3-1.9h.29z" transform="translate(-943.4 -2150)"/><path class="cls-37" d="M20.5 49.83l3.14 1.82-3.14 1.81-3.15-1.81 3.15-1.82z"/><circle class="cls-67" cx="20.56" cy="49.78" r="3.01"/><circle class="cls-68" cx="20.6" cy="49.79" r="2.76"/><circle class="cls-69" cx="20.64" cy="49.81" r="2.51"/><circle class="cls-70" cx="20.67" cy="49.82" r="2.25"/><circle class="cls-71" cx="20.71" cy="49.83" r="2"/><circle class="cls-72" cx="20.63" cy="49.76" r="1.68"/><circle class="cls-73" cx="20.55" cy="49.68" r="1.35"/><circle class="cls-74" cx="20.46" cy="49.61" r="1.02"/><circle class="cls-75" cx="20.38" cy="49.53" r=".69"/><path class="cls-76" d="M974.42 2207.63h2.27l1.42.82a2.84 2.84 0 0 1 2.67 1.54l.46.26-.42.24c-.12 1-1.42 1.75-3 1.75l-1.11.64h-2.27l-4.55-2.62z" transform="translate(-943.4 -2150)"/><path class="cls-30" d="M35.57 60.25v-2.53l-4.55 2.63v2.53l4.55-2.63z"/><path class="cls-15" d="M26.48 60.25v-2.53l4.54 2.63v2.53l-4.54-2.63z"/><path class="cls-16" d="M31.02 55.1l4.55 2.62-4.55 2.63-4.54-2.63 4.54-2.62z"/><path class="cls-30" d="M975.84 2205.92l2.67 1.54a1.24 1.24 0 0 1 .05.35 1.2 1.2 0 0 1 0 .15l-3 1.75c-1.65 0-3-.86-3-1.9s1.35-1.9 3-1.9h.29z" transform="translate(-943.4 -2150)"/><path class="cls-37" d="M31.02 55.91l3.15 1.81-3.15 1.82-3.14-1.82 3.14-1.81z"/><circle class="cls-77" cx="31.09" cy="55.86" r="3.01"/><circle class="cls-78" cx="31.13" cy="55.87" r="2.76"/><circle class="cls-79" cx="31.16" cy="55.88" r="2.51"/><circle class="cls-80" cx="31.2" cy="55.9" r="2.25"/><circle class="cls-81" cx="31.23" cy="55.91" r="2"/><circle class="cls-82" cx="31.15" cy="55.83" r="1.68"/><circle class="cls-83" cx="31.07" cy="55.76" r="1.35"/><circle class="cls-84" cx="30.99" cy="55.69" r="1.02"/><circle class="cls-85" cx="30.91" cy="55.61" r=".69"/><path class="cls-86" d="M985 2213.7h2.27l1.42.82a2.84 2.84 0 0 1 2.67 1.54l.46.26-.41.24c-.12 1-1.42 1.75-3 1.75l-1.11.64H985l-4.55-2.62z" transform="translate(-943.4 -2150)"/><path class="cls-30" d="M46.1 66.33V63.8l-4.55 2.63v2.52l4.55-2.62z"/><path class="cls-15" d="M37 66.33V63.8l4.55 2.63v2.52L37 66.33z"/><path class="cls-16" d="M41.55 61.18l4.55 2.62-4.55 2.63L37 63.8l4.55-2.62z"/><path class="cls-30" d="M986.37 2212l2.67 1.54a1.22 1.22 0 0 1 .05.35 1.2 1.2 0 0 1 0 .15l-3 1.75c-1.65 0-3-.86-3-1.9s1.35-1.9 3-1.9h.29z" transform="translate(-943.4 -2150)"/><path class="cls-37" d="M41.55 61.98l3.15 1.82-3.15 1.82-3.15-1.82 3.15-1.82z"/><circle class="cls-87" cx="41.62" cy="61.94" r="3.01"/><circle class="cls-88" cx="41.65" cy="61.95" r="2.76"/><circle class="cls-89" cx="41.69" cy="61.96" r="2.51"/><circle class="cls-90" cx="41.72" cy="61.97" r="2.25"/><circle class="cls-91" cx="41.76" cy="61.99" r="2"/><circle class="cls-92" cx="41.68" cy="61.91" r="1.68"/><circle class="cls-93" cx="41.6" cy="61.84" r="1.35"/><circle class="cls-94" cx="41.52" cy="61.76" r="1.02"/><circle class="cls-95" cx="41.44" cy="61.69" r=".69"/><path class="cls-96" d="M975.16 2195h2.27l1.42.82a2.84 2.84 0 0 1 2.67 1.54l.46.26-.41.24c-.12 1-1.42 1.75-3 1.75l-1.11.64h-2.27l-4.55-2.62z" transform="translate(-943.4 -2150)"/><path class="cls-30" d="M36.3 47.66v-2.53l-4.54 2.62v2.53l4.54-2.62z"/><path class="cls-15" d="M27.21 47.66v-2.53l4.55 2.62v2.53l-4.55-2.62z"/><path class="cls-16" d="M31.76 42.51l4.54 2.62-4.54 2.62-4.55-2.62 4.55-2.62z"/><path class="cls-30" d="M976.57 2193.32l2.67 1.54a1.22 1.22 0 0 1 .05.35 1.2 1.2 0 0 1 0 .15l-3 1.75c-1.65 0-3-.86-3-1.9s1.35-1.9 3-1.9h.29z" transform="translate(-943.4 -2150)"/><path class="cls-37" d="M31.76 43.31l3.15 1.82-3.15 1.82-3.15-1.82 3.15-1.82z"/><circle class="cls-97" cx="31.83" cy="43.27" r="3.01"/><circle class="cls-98" cx="31.86" cy="43.28" r="2.76"/><circle class="cls-99" cx="31.9" cy="43.29" r="2.51"/><circle class="cls-100" cx="31.93" cy="43.3" r="2.25"/><circle class="cls-101" cx="31.97" cy="43.31" r="2"/><circle class="cls-102" cx="31.89" cy="43.24" r="1.68"/><circle class="cls-103" cx="31.81" cy="43.17" r="1.35"/><circle class="cls-104" cx="31.73" cy="43.09" r="1.02"/><circle class="cls-105" cx="31.65" cy="43.02" r=".69"/><path class="cls-106" d="M15.1 78.75l.24.13.25.36-.24-.14-.25-.35z"/></svg>