<?xml version="1.0" encoding="utf-8"?>
<!-- Generator: Adobe Illustrator 19.2.1, SVG Export Plug-In . SVG Version: 6.00 Build 0)  -->
<svg version="1.1" id="Слой_1" xmlns="http://www.w3.org/2000/svg" xmlns:xlink="http://www.w3.org/1999/xlink" x="0px" y="0px"
	 viewBox="0 0 176.7 150" style="enable-background:new 0 0 176.7 150;" xml:space="preserve">
<style type="text/css">
	.st0{fill:url(#SVGID_1_);}
	.st1{fill:#F59E19;}
	.st2{fill:url(#SVGID_2_);}
	.st3{fill:#FBB814;}
	.st4{fill:url(#SVGID_3_);}
	.st5{fill:url(#SVGID_4_);}
	.st6{fill:url(#SVGID_5_);}
	.st7{fill:url(#SVGID_6_);}
	.st8{fill:#FCC120;}
	.st9{fill:#203869;}
	.st10{fill:url(#SVGID_7_);}
	.st11{fill:url(#SVGID_8_);}
</style>
<g>
	
		<radialGradient id="SVGID_1_" cx="88.36" cy="282.6991" r="88.3586" gradientTransform="matrix(1 0 0 0.7584 0 -131.4091)" gradientUnits="userSpaceOnUse">
		<stop  offset="0" style="stop-color:#535353"/>
		<stop  offset="3.028625e-002" style="stop-color:#5F5F5F"/>
		<stop  offset="0.1699" style="stop-color:#8F8F8F"/>
		<stop  offset="0.3086" style="stop-color:#B7B7B7"/>
		<stop  offset="0.4439" style="stop-color:#D7D7D7"/>
		<stop  offset="0.5748" style="stop-color:#EDEDED"/>
		<stop  offset="0.6995" style="stop-color:#FAFAFA"/>
		<stop  offset="0.811" style="stop-color:#FFFFFF"/>
	</radialGradient>
	<ellipse class="st0" cx="88.4" cy="83" rx="88.4" ry="67"/>
	<g>
		<g>
			<path class="st1" d="M125.7,59.4c-1.9,1.1-4,2.1-6.1,3v34.8c2.1-0.9,4.2-1.9,6.1-3c1.9-1.1,3.6-2.3,5.2-3.5V55.8
				C129.3,57,127.7,58.2,125.7,59.4z"/>
			<linearGradient id="SVGID_2_" gradientUnits="userSpaceOnUse" x1="22.9219" y1="55.6231" x2="35.8565" y2="55.6231">
				<stop  offset="0" style="stop-color:#FDC618"/>
				<stop  offset="0.5245" style="stop-color:#F8AA1A"/>
				<stop  offset="1" style="stop-color:#F3921B"/>
			</linearGradient>
			<path class="st2" d="M29.2,40.1c-3.8-0.6-6.3-2.6-6.3-4.8v34.8c0,2.2,2.5,4.2,6.3,4.8l6.6,1V41.1L29.2,40.1z"/>
			<path class="st1" d="M35.9,75.9V41.1c0.6,3.1,2,6.1,4.2,8.9v34.8C37.8,82,36.4,79,35.9,75.9z"/>
			<polygon class="st3" points="55.3,44.2 55.3,9.4 57.1,13.2 57.1,48 			"/>
			<linearGradient id="SVGID_3_" gradientUnits="userSpaceOnUse" x1="32.678" y1="80.5368" x2="67.1101" y2="80.5368">
				<stop  offset="0" style="stop-color:#FAB216"/>
				<stop  offset="6.685232e-003" style="stop-color:#FAB316"/>
				<stop  offset="0.2275" style="stop-color:#FCC014"/>
				<stop  offset="0.387" style="stop-color:#FDC514"/>
				<stop  offset="0.5661" style="stop-color:#FCC015"/>
				<stop  offset="0.8029" style="stop-color:#FAB416"/>
				<stop  offset="1" style="stop-color:#F7A518"/>
			</linearGradient>
			<path class="st4" d="M62.3,68.5c-3.3,1.9-8.7,1.9-12.1,0l-15-8.7c-1.7-1-2.5-2.2-2.5-3.5v34.8c0,1.3,0.8,2.5,2.5,3.5l15,8.7
				c3.3,1.9,8.7,1.9,12.1,0l4.8-2.8V65.7L62.3,68.5z"/>
			<path class="st1" d="M67.1,100.5V65.7c5,1.3,10.2,2.1,15.5,2.4v34.8C77.3,102.6,72.1,101.8,67.1,100.5z"/>
			<linearGradient id="SVGID_4_" gradientUnits="userSpaceOnUse" x1="82.5931" y1="88.9139" x2="121.6688" y2="88.9139">
				<stop  offset="0" style="stop-color:#FAB216"/>
				<stop  offset="6.685232e-003" style="stop-color:#FAB316"/>
				<stop  offset="0.2275" style="stop-color:#FCC014"/>
				<stop  offset="0.387" style="stop-color:#FDC514"/>
				<stop  offset="0.5661" style="stop-color:#FCC015"/>
				<stop  offset="0.8029" style="stop-color:#FAB416"/>
				<stop  offset="1" style="stop-color:#F7A518"/>
			</linearGradient>
			<path class="st5" d="M115.3,72.2l-20.5,3.2c-4.5,0.7-9.2-0.9-10.4-3.5l-1.8-3.8v34.8l1.8,3.8c1.2,2.6,5.9,4.2,10.4,3.5l20.5-3.2
				c3.8-0.6,6.3-2.6,6.3-4.8V67.5C121.7,69.6,119.1,71.6,115.3,72.2z"/>
			<linearGradient id="SVGID_5_" gradientUnits="userSpaceOnUse" x1="136.7046" y1="39.7783" x2="144.0419" y2="39.7783">
				<stop  offset="0" style="stop-color:#FDC618"/>
				<stop  offset="0.5245" style="stop-color:#F8AA1A"/>
				<stop  offset="1" style="stop-color:#F3921B"/>
			</linearGradient>
			<path class="st6" d="M141.6,22.7l-4.8,2.8v34.8l4.8-2.8c1.7-1,2.5-2.2,2.5-3.5V19.2C144,20.5,143.2,21.8,141.6,22.7z"/>
			<linearGradient id="SVGID_6_" gradientUnits="userSpaceOnUse" x1="130.9135" y1="66.0311" x2="153.798" y2="66.0311">
				<stop  offset="0" style="stop-color:#FAB216"/>
				<stop  offset="6.685232e-003" style="stop-color:#FAB316"/>
				<stop  offset="0.2275" style="stop-color:#FCC014"/>
				<stop  offset="0.387" style="stop-color:#FDC514"/>
				<stop  offset="0.5661" style="stop-color:#FCC015"/>
				<stop  offset="0.8029" style="stop-color:#FAB416"/>
				<stop  offset="1" style="stop-color:#F7A518"/>
			</linearGradient>
			<path class="st7" d="M153.5,41.5L148,53.4c-1.2,2.6-5.9,4.2-10.4,3.5l-6.6-1v34.8l6.6,1c4.5,0.7,9.2-0.9,10.4-3.5l5.5-11.9
				c0.2-0.4,0.3-0.8,0.3-1.3V40.2C153.8,40.7,153.7,41.1,153.5,41.5z"/>
			<path class="st8" d="M121.4,66.2l-1.8-3.8c2.1-0.9,4.2-1.9,6.1-3c1.9-1.1,3.6-2.3,5.2-3.5l6.6,1c4.5,0.7,9.2-0.9,10.4-3.5
				l5.5-11.9c0.2-0.4,0.3-0.8,0.3-1.3c0-2.2-2.5-4.2-6.3-4.8l-6.6-1c-0.6-3.1-2-6.1-4.2-8.9l4.8-2.8c1.7-1,2.5-2.2,2.5-3.5
				s-0.8-2.5-2.5-3.5l-15-8.7c-3.3-1.9-8.7-1.9-12.1,0l-4.8,2.8c-5-1.3-10.2-2.1-15.5-2.4l-1.8-3.8C91.1,1,86.4-0.5,81.9,0.2
				L61.4,3.3c-3.8,0.6-6.3,2.6-6.3,4.8c0,0.4,0.1,0.8,0.3,1.3l1.8,3.8c-2.1,0.9-4.2,1.9-6.1,3c-1.9,1.1-3.6,2.3-5.2,3.5l-6.6-1
				c-4.5-0.7-9.2,0.9-10.4,3.5l-5.5,11.9c-0.2,0.4-0.3,0.8-0.3,1.3c0,2.2,2.5,4.2,6.3,4.8l6.6,1c0.6,3.1,2,6.1,4.2,8.9l-4.8,2.8
				c-1.7,1-2.5,2.2-2.5,3.5c0,1.3,0.8,2.5,2.5,3.5l15,8.7c3.3,1.9,8.7,1.9,12.1,0l4.8-2.8c5,1.3,10.2,2.1,15.5,2.4l1.8,3.8
				c1.2,2.6,5.9,4.2,10.4,3.5l20.5-3.2c3.8-0.6,6.3-2.6,6.3-4.8C121.7,67,121.6,66.6,121.4,66.2z"/>
			<path class="st9" d="M119,55.5c-16.9,9.8-44.4,9.8-61.4,0c-16.9-9.8-16.9-25.6,0-35.4c16.9-9.8,44.4-9.8,61.4,0
				C136,29.8,136,45.7,119,55.5z"/>
			<radialGradient id="SVGID_7_" cx="88.36" cy="63.6402" r="54.1013" gradientUnits="userSpaceOnUse">
				<stop  offset="0.4988" style="stop-color:#FCBE22"/>
				<stop  offset="0.6081" style="stop-color:#FBBC22"/>
				<stop  offset="0.7016" style="stop-color:#FAB422"/>
				<stop  offset="0.7893" style="stop-color:#F7A621"/>
				<stop  offset="0.8735" style="stop-color:#F39220"/>
				<stop  offset="0.9545" style="stop-color:#EF781E"/>
				<stop  offset="1" style="stop-color:#EC641D"/>
			</radialGradient>
			<path class="st10" d="M108.8,46.8c-11.3,6.5-29.6,6.5-40.9,0c-11.3-6.5-11.3-17.1,0-23.6c11.3-6.5,29.6-6.5,40.9,0
				C120.1,29.7,120.1,40.3,108.8,46.8z"/>
			<path class="st9" d="M103.9,41.3c-8.6,5-22.5,5-31.1,0c-8.6-5-8.6-13,0-18s22.5-5,31.1,0S112.5,36.3,103.9,41.3z"/>
			<radialGradient id="SVGID_8_" cx="88.36" cy="12.2644" r="30.6537" gradientUnits="userSpaceOnUse">
				<stop  offset="0.4988" style="stop-color:#FCBE22"/>
				<stop  offset="0.6081" style="stop-color:#FBBC22"/>
				<stop  offset="0.7016" style="stop-color:#FAB422"/>
				<stop  offset="0.7893" style="stop-color:#F7A621"/>
				<stop  offset="0.8735" style="stop-color:#F39220"/>
				<stop  offset="0.9545" style="stop-color:#EF781E"/>
				<stop  offset="1" style="stop-color:#EC641D"/>
			</radialGradient>
			<path class="st11" d="M101,36.8c-7,4-18.3,4-25.3,0s-7-10.6,0-14.6s18.3-4,25.3,0C108,26.2,108,32.8,101,36.8z"/>
		</g>
	</g>
</g>
</svg>
