<?xml version="1.0" encoding="utf-8"?>
<!-- Generator: Adobe Illustrator 19.2.1, SVG Export Plug-In . SVG Version: 6.00 Build 0)  -->
<svg version="1.1" id="Слой_1" xmlns="http://www.w3.org/2000/svg" xmlns:xlink="http://www.w3.org/1999/xlink" x="0px" y="0px"
	 viewBox="0 0 152 150" style="enable-background:new 0 0 152 150;" xml:space="preserve">
<style type="text/css">
	.st0{fill:url(#SVGID_1_);}
	.st1{fill:#DF3F1B;}
	.st2{fill:#EC662C;}
	.st3{fill:#FABD22;}
	.st4{fill:url(#SVGID_2_);}
	.st5{fill:url(#SVGID_3_);}
	.st6{fill:#FFDB34;}
	.st7{fill:#1B3741;}
	.st8{fill:url(#SVGID_4_);}
	.st9{fill:#3B3B3B;}
	.st10{fill:#E9E8E8;}
</style>
<g>
	
		<radialGradient id="SVGID_1_" cx="162.7186" cy="2262.3994" r="38.6202" gradientTransform="matrix(1.968 0 0 1.4925 -244.2198 -3284.2703)" gradientUnits="userSpaceOnUse">
		<stop  offset="0" style="stop-color:#535353"/>
		<stop  offset="3.028625e-002" style="stop-color:#5F5F5F"/>
		<stop  offset="0.1699" style="stop-color:#8F8F8F"/>
		<stop  offset="0.3086" style="stop-color:#B7B7B7"/>
		<stop  offset="0.4439" style="stop-color:#D7D7D7"/>
		<stop  offset="0.5748" style="stop-color:#EDEDED"/>
		<stop  offset="0.6995" style="stop-color:#FAFAFA"/>
		<stop  offset="0.811" style="stop-color:#FFFFFF"/>
	</radialGradient>
	<ellipse class="st0" cx="76" cy="92.4" rx="76" ry="57.6"/>
	<g>
		<g>
			<g>
				<g>
					<g>
						<path class="st1" d="M133.2,66.2l-57.4,8.9l15.4-33.2c-19.8-3.1-41.9-0.1-57.4,8.9c-11.6,6.7-17.4,15.5-17.4,24.3
							c0,3,0.7,6,2,8.9c2.6,5.6,7.7,11,15.4,15.4c7.7,4.4,16.9,7.4,26.6,8.9c19.8,3.1,41.9,0.1,57.4-8.9
							c11.6-6.7,17.4-15.5,17.4-24.3C135.3,72.1,134.6,69.1,133.2,66.2z"/>
					</g>
				</g>
			</g>
			<path class="st2" d="M143.1,64.7c-3.1-6.6-9.1-12.8-18-18c-9-5.2-19.8-8.6-31.2-10.4l-18,38.8L143.1,64.7z"/>
			<path class="st2" d="M143.1,46.8v17.9c-3.1-6.6-9.1-12.8-18-18V28.8C134,34,140,40.2,143.1,46.8z"/>
			<polygon class="st3" points="75.8,57.2 75.8,75.1 143.1,64.7 143.1,46.8 			"/>
			<linearGradient id="SVGID_2_" gradientUnits="userSpaceOnUse" x1="16.3921" y1="83.2964" x2="135.2656" y2="83.2964">
				<stop  offset="0" style="stop-color:#EB5D16"/>
				<stop  offset="7.102407e-002" style="stop-color:#E95017"/>
				<stop  offset="0.1678" style="stop-color:#E84618"/>
				<stop  offset="0.3006" style="stop-color:#E74319"/>
				<stop  offset="0.3343" style="stop-color:#E64018"/>
				<stop  offset="0.5685" style="stop-color:#DF2F15"/>
				<stop  offset="0.7441" style="stop-color:#DD2815"/>
				<stop  offset="1" style="stop-color:#831B11"/>
			</linearGradient>
			<path class="st4" d="M117.9,81.5c-15.6,9-37.6,11.9-57.4,8.9c-9.8-1.5-19-4.5-26.6-8.9C26.1,77,21,71.7,18.4,66.1
				c-1.3-2.9-2-5.9-2-8.9v17.9c0,3,0.7,6,2,8.9c2.6,5.6,7.7,11,15.4,15.4c7.7,4.4,16.9,7.4,26.6,8.9c19.8,3.1,41.9,0.1,57.4-8.9
				c11.6-6.7,17.4-15.5,17.4-24.3V57.2C135.3,66,129.5,74.8,117.9,81.5z"/>
			
				<radialGradient id="SVGID_3_" cx="134.9213" cy="1524.2852" r="77.823" gradientTransform="matrix(1.968 0 0 1.968 -244.2198 -3025.6626)" gradientUnits="userSpaceOnUse">
				<stop  offset="0" style="stop-color:#FAB73E"/>
				<stop  offset="2.664126e-002" style="stop-color:#F9B240"/>
				<stop  offset="0.1008" style="stop-color:#F7A643"/>
				<stop  offset="0.185" style="stop-color:#F59F45"/>
				<stop  offset="0.3006" style="stop-color:#F59C45"/>
				<stop  offset="0.3944" style="stop-color:#F18835"/>
				<stop  offset="0.5322" style="stop-color:#ED6F24"/>
				<stop  offset="0.6534" style="stop-color:#EB601A"/>
				<stop  offset="0.7441" style="stop-color:#EA5A16"/>
				<stop  offset="1" style="stop-color:#D94115"/>
			</radialGradient>
			<path class="st5" d="M133.2,48.3l-57.4,8.9L91.2,24C71.4,21,49.4,24,33.8,32.9c-11.6,6.7-17.4,15.5-17.4,24.3c0,3,0.7,6,2,8.9
				c2.6,5.6,7.7,11,15.4,15.4c7.7,4.4,16.9,7.4,26.6,8.9c19.8,3.1,41.9,0.1,57.4-8.9c11.6-6.7,17.4-15.5,17.4-24.3
				C135.3,54.2,134.6,51.2,133.2,48.3z"/>
			<polygon class="st3" points="75.8,50 75.8,57.2 143.1,46.8 143.1,39.6 			"/>
			<path class="st6" d="M143.1,39.6c-3.1-6.6-9.1-12.8-18-18c-9-5.2-19.8-8.6-31.2-10.4L75.8,50L143.1,39.6z"/>
		</g>
		<g>
			<polygon class="st7" points="123,33.8 117.1,37.2 103.8,29.5 109.8,26.1 			"/>
			<linearGradient id="SVGID_4_" gradientUnits="userSpaceOnUse" x1="108.2268" y1="-0.9326" x2="128.0599" y2="33.4192">
				<stop  offset="0" style="stop-color:#383938"/>
				<stop  offset="0.15" style="stop-color:#3E3C3D"/>
				<stop  offset="0.3793" style="stop-color:#403E3F"/>
				<stop  offset="0.4242" style="stop-color:#383738"/>
				<stop  offset="0.597" style="stop-color:#1F1F23"/>
				<stop  offset="0.7563" style="stop-color:#0D0F11"/>
				<stop  offset="0.8957" style="stop-color:#030405"/>
				<stop  offset="1" style="stop-color:#010202"/>
			</linearGradient>
			<path class="st8" d="M123,8.4l-13.3-7.7c-1.5-0.8-2.8-0.9-3.8-0.4l-5.9,3.4c1-0.6,2.3-0.5,3.8,0.4l13.3,7.7
				c2.9,1.7,5.3,5.9,5.3,9.2v13.1c0,1.7-0.6,2.9-1.6,3.4l5.9-3.4c1-0.6,1.6-1.8,1.6-3.4V17.6C128.4,14.2,126,10.1,123,8.4z"/>
			<g>
				<g>
					<g>
						<path class="st9" d="M98.5,7.2c0-1.7,0.6-2.9,1.6-3.4c1-0.6,2.3-0.5,3.8,0.4l13.3,7.7c2.9,1.7,5.3,5.9,5.3,9.2v13.1
							c0,1.7-0.6,2.9-1.6,3.4c-1,0.6-2.3,0.5-3.8-0.4l-13.3-7.7c-2.9-1.7-5.3-5.9-5.3-9.2V7.2z"/>
						<path class="st10" d="M101.7,9.6c0-1.8,1.1-2.1,3.3-0.8c2.1,1.2,3.3,2.9,3.3,4.6V19c0,1.8-1.1,2.1-3.3,0.8
							c-2.1-1.2-3.3-2.9-3.3-4.6L101.7,9.6z M103.8,16.6c0,0.8,0.4,1.3,1.1,1.7c0.7,0.4,1.1,0.3,1.1-0.4V12c0-0.8-0.4-1.3-1.1-1.7
							c-0.7-0.4-1.1-0.3-1.1,0.4V16.6z M113.5,13.8l2,1.2L107,27.2l-2-1.2L113.5,13.8z M112.4,22.1c0-1.8,1.1-2.1,3.3-0.9
							c2.1,1.2,3.3,2.9,3.3,4.7v5.6c0,1.8-1.1,2.1-3.3,0.8c-2.1-1.2-3.3-2.9-3.3-4.6V22.1z M114.6,29.1c0,0.8,0.4,1.3,1.1,1.7
							c0.7,0.4,1.1,0.3,1.1-0.4v-5.9c0-0.8-0.4-1.3-1.1-1.7c-0.7-0.4-1.1-0.3-1.1,0.4V29.1z"/>
					</g>
				</g>
			</g>
		</g>
	</g>
</g>
</svg>
