<?xml version="1.0" encoding="utf-8"?>
<!-- Generator: Adobe Illustrator 19.2.1, SVG Export Plug-In . SVG Version: 6.00 Build 0)  -->
<svg version="1.1" id="Слой_1" xmlns="http://www.w3.org/2000/svg" xmlns:xlink="http://www.w3.org/1999/xlink" x="0px" y="0px"
	 viewBox="0 0 149.4 150" style="enable-background:new 0 0 149.4 150;" xml:space="preserve">
<style type="text/css">
	.st0{fill:url(#SVGID_1_);}
	.st1{fill:url(#SVGID_2_);}
	.st2{fill:#42ABE2;}
	.st3{fill:#407FC1;}
	.st4{fill:#262626;}
	.st5{fill:#FFFFFF;}
	.st6{fill:#747374;}
	.st7{fill:#185079;}
	.st8{fill:url(#SVGID_3_);}
	.st9{fill:#363636;}
	.st10{fill:url(#SVGID_4_);}
	.st11{fill:url(#SVGID_5_);}
	.st12{fill:#E3E3E2;}
</style>
<g>
	
		<radialGradient id="SVGID_1_" cx="74.7102" cy="296.6662" r="74.7094" gradientTransform="matrix(1 0 0 0.7584 0 -131.6507)" gradientUnits="userSpaceOnUse">
		<stop  offset="0" style="stop-color:#535353"/>
		<stop  offset="3.028625e-002" style="stop-color:#5F5F5F"/>
		<stop  offset="0.1699" style="stop-color:#8F8F8F"/>
		<stop  offset="0.3086" style="stop-color:#B7B7B7"/>
		<stop  offset="0.4439" style="stop-color:#D7D7D7"/>
		<stop  offset="0.5748" style="stop-color:#EDEDED"/>
		<stop  offset="0.6995" style="stop-color:#FAFAFA"/>
		<stop  offset="0.811" style="stop-color:#FFFFFF"/>
	</radialGradient>
	<ellipse class="st0" cx="74.7" cy="93.3" rx="74.7" ry="56.7"/>
	<g>
		<g>
			<g>
				<linearGradient id="SVGID_2_" gradientUnits="userSpaceOnUse" x1="62.4222" y1="2.3021" x2="111.5676" y2="87.4244">
					<stop  offset="0" style="stop-color:#45A2DA"/>
					<stop  offset="0.1118" style="stop-color:#459FD8"/>
					<stop  offset="0.3524" style="stop-color:#459DD7"/>
					<stop  offset="0.5618" style="stop-color:#2A7EC1"/>
					<stop  offset="0.7441" style="stop-color:#1966B0"/>
					<stop  offset="1" style="stop-color:#1E4999"/>
				</linearGradient>
				<path class="st1" d="M87,4.7c-9.6-5.5-18.3-6.1-24.6-2.4L37.9,16.5c6.3-3.6,15-3.1,24.6,2.4c19.2,11.1,34.8,38,34.8,60.2
					c0,11.1-3.9,18.9-10.2,22.5l24.5-14.2c6.3-3.6,10.2-11.4,10.2-22.5C121.7,42.8,106.2,15.8,87,4.7z"/>
				<path class="st2" d="M62.4,18.9c-9.6-5.5-18.3-6.1-24.6-2.4C31.6,20.1,27.7,27.9,27.7,39c0,22.2,15.6,49.1,34.7,60.2
					c9.6,5.5,18.3,6.1,24.6,2.4c6.3-3.6,10.2-11.4,10.2-22.5C97.2,56.9,81.6,30,62.4,18.9z M62.4,95.6C45,85.5,30.8,61,30.8,40.8
					c0-10.1,3.5-17.2,9.3-20.5c5.7-3.3,13.6-2.8,22.4,2.2c17.5,10.1,31.6,34.6,31.6,54.8c0,10.1-3.5,17.2-9.3,20.5
					C79.1,101.1,71.2,100.6,62.4,95.6z"/>
			</g>
			<path class="st3" d="M62.4,22.5C45,12.4,30.8,20.6,30.8,40.8C30.8,61,45,85.5,62.4,95.6c17.5,10.1,31.6,1.9,31.6-18.3
				C94.1,57.1,79.9,32.6,62.4,22.5z"/>
			<g>
				<g>
					<path class="st4" d="M63.6,24.3c-16.3-9.4-29.4-1.8-29.4,17s13.2,41.6,29.4,51c16.3,9.4,29.4,1.8,29.4-17
						C93,56.5,79.8,33.7,63.6,24.3z"/>
				</g>
			</g>
		</g>
		<g>
			<g>
				<g>
					<path class="st5" d="M63.6,24.3c-16.3-9.4-29.4-1.8-29.4,17c0,18.8,13.2,41.6,29.4,51c16.3,9.4,29.4,1.8,29.4-17
						S79.9,33.7,63.6,24.3z"/>
				</g>
			</g>
			<g>
				<g>
					<path class="st6" d="M75.9,51.3c-0.5-0.9-1.3-1.3-1.8-1.1l0,0l-10,5.8c0,0,0.1,0,0.1,0.1c0.4,0.4,0.8,0.8,1.1,1.3
						c0.3,0.6,0.5,1.2,0.6,1.7l10-5.8C76.4,53.1,76.4,52.2,75.9,51.3z"/>
					<path class="st6" d="M63.1,55.4l-6.2-10.7c-0.5-0.9-1.3-1.3-1.8-1.1h0c-0.5,0.3-0.5,1.2,0,2.1l6.1,10.6c0,0,0-0.1,0-0.1
						c0.1-0.4,0.3-0.7,0.6-0.9C62.2,55.3,62.6,55.3,63.1,55.4z"/>
					<path class="st7" d="M64.2,56.1c0,0-0.1,0-0.1-0.1c-0.3-0.3-0.7-0.5-1-0.6c-0.5-0.2-0.9-0.1-1.2,0.1c-0.3,0.2-0.5,0.4-0.6,0.9
						c0,0,0,0.1,0,0.1c-0.2,0.8,0.1,1.9,0.6,2.9c0.3,0.5,0.7,1,1.1,1.3c0.9,0.8,1.7,1,2.3,0.6c0.3-0.2,0.5-0.5,0.6-0.9
						c0.1-0.4,0.1-0.8,0-1.3c-0.1-0.6-0.3-1.2-0.6-1.7C65,56.9,64.6,56.4,64.2,56.1z"/>
					<path class="st2" d="M60.1,58.4c0,0-0.1,0-0.1-0.1c-0.3-0.3-0.7-0.5-1-0.6c-0.5-0.2-0.9-0.1-1.2,0.1c-0.3,0.2-0.5,0.4-0.6,0.9
						c0,0,0,0.1,0,0.1c-0.2,0.8,0.1,1.9,0.6,2.9c0.3,0.5,0.7,1,1.1,1.3c0.9,0.8,1.7,1,2.3,0.6c0.3-0.2,0.5-0.5,0.6-0.9
						c0.1-0.4,0.1-0.8,0-1.3c-0.1-0.6-0.3-1.2-0.6-1.7C60.9,59.2,60.6,58.8,60.1,58.4z"/>
					<linearGradient id="SVGID_3_" gradientUnits="userSpaceOnUse" x1="60.6884" y1="56.1492" x2="64.0742" y2="62.0136">
						<stop  offset="0" style="stop-color:#45A2DA"/>
						<stop  offset="0.1118" style="stop-color:#459FD8"/>
						<stop  offset="0.3524" style="stop-color:#459DD7"/>
						<stop  offset="0.4599" style="stop-color:#429AD5"/>
						<stop  offset="0.5791" style="stop-color:#3A90CF"/>
						<stop  offset="0.704" style="stop-color:#2C81C4"/>
						<stop  offset="0.8319" style="stop-color:#1D6CB4"/>
						<stop  offset="0.8634" style="stop-color:#1966B0"/>
						<stop  offset="1" style="stop-color:#1E4999"/>
					</linearGradient>
					<path class="st8" d="M65.9,59.2c-0.1-0.6-0.3-1.2-0.6-1.7c-0.3-0.5-0.7-1-1.1-1.3c0,0-0.1,0-0.1-0.1c-0.3-0.3-0.7-0.5-1-0.6
						c-0.5-0.2-0.9-0.1-1.2,0.1l-4,2.3c0.3-0.2,0.8-0.2,1.2-0.1c0.3,0.1,0.7,0.3,1,0.6c0,0,0.1,0,0.1,0.1c0.4,0.4,0.8,0.8,1.1,1.3
						c0.3,0.6,0.5,1.2,0.6,1.7c0.1,0.5,0.1,0.9,0,1.3c-0.1,0.4-0.3,0.7-0.6,0.9l4-2.3c0.3-0.2,0.5-0.5,0.6-0.9
						C66,60.1,66,59.6,65.9,59.2z"/>
				</g>
				<g>
					<path class="st9" d="M73.8,52.4c-0.5-0.9-1.3-1.3-1.8-1.1l0,0l-10,5.8c0,0,0.1,0,0.1,0.1c0.4,0.4,0.8,0.8,1.1,1.3
						c0.3,0.6,0.5,1.2,0.6,1.7l10-5.8C74.3,54.3,74.4,53.3,73.8,52.4z"/>
					<g>
						<path class="st9" d="M60.8,56.1l-5.9-10.2c-0.5-0.9-1.3-1.3-1.8-1.1h0c-0.5,0.3-0.5,1.2,0,2.1l5.9,10.2l0.9-0.5c0,0,0,0,0,0
							c0,0,0,0,0,0c0.3-0.2,0.8-0.2,1.2-0.1L60.8,56.1z"/>
					</g>
					<linearGradient id="SVGID_4_" gradientUnits="userSpaceOnUse" x1="73.4894" y1="50.5424" x2="75.3189" y2="53.7112">
						<stop  offset="0" style="stop-color:#686868"/>
						<stop  offset="0.1208" style="stop-color:#636363"/>
						<stop  offset="0.2952" style="stop-color:#555657"/>
						<stop  offset="0.5023" style="stop-color:#404244"/>
						<stop  offset="0.7344" style="stop-color:#26272B"/>
						<stop  offset="0.9847" style="stop-color:#050607"/>
						<stop  offset="1" style="stop-color:#040505"/>
					</linearGradient>
					<path class="st10" d="M75.9,51.3c-0.5-0.9-1.3-1.3-1.8-1.1l-2,1.2c0.5-0.3,1.3,0.2,1.8,1.1c0.5,0.9,0.5,1.8,0,2.1l2-1.2
						C76.4,53.1,76.4,52.2,75.9,51.3z"/>
					<linearGradient id="SVGID_5_" gradientUnits="userSpaceOnUse" x1="54.5265" y1="44.0237" x2="61.6002" y2="56.2755">
						<stop  offset="0" style="stop-color:#797879"/>
						<stop  offset="3.678052e-002" style="stop-color:#6D6D6D"/>
						<stop  offset="0.1075" style="stop-color:#525252"/>
						<stop  offset="0.1172" style="stop-color:#4E4E4E"/>
						<stop  offset="0.3056" style="stop-color:#474747"/>
						<stop  offset="0.5889" style="stop-color:#424242"/>
						<stop  offset="1" style="stop-color:#404040"/>
					</linearGradient>
					<path class="st11" d="M56.9,44.8c-0.5-0.9-1.3-1.3-1.8-1.1l-2,1.2c0.5-0.3,1.3,0.2,1.8,1.1L61,56.6l2-1.2L56.9,44.8z"/>
				</g>
			</g>
			<g>
				<polygon class="st12" points="65.5,38 61.7,35.8 61.7,29.2 65.5,31.4 				"/>
				<polygon class="st12" points="54.9,33.1 52.8,33.3 50.9,28.4 53,28.2 				"/>
				<polygon class="st12" points="47.3,36.4 46.1,38.2 42.8,34.1 44.1,32.4 				"/>
				<polygon class="st12" points="45.1,45.4 45.1,49.8 39.3,46.5 39.3,42.1 				"/>
				<polygon class="st12" points="46.1,58.2 47.3,61.4 44.1,61.7 42.8,58.5 				"/>
				<polygon class="st12" points="52.8,70.8 54.9,73.5 53,76.2 50.9,73.5 				"/>
				<polygon class="st12" points="61.7,78.6 65.5,80.8 65.5,87.4 61.7,85.2 				"/>
				<polygon class="st12" points="72.3,83.5 74.4,83.3 76.3,88.2 74.2,88.4 				"/>
				<polygon class="st12" points="79.9,80.2 81.1,78.4 84.4,82.5 83.1,84.3 				"/>
				<polygon class="st12" points="82.1,71.2 82.1,66.8 87.8,70.1 87.8,74.5 				"/>
				<polygon class="st12" points="81.1,58.4 79.9,55.2 83.1,54.9 84.4,58.1 				"/>
				<polygon class="st12" points="74.4,45.8 72.3,43.1 74.2,40.4 76.3,43.1 				"/>
			</g>
		</g>
	</g>
</g>
</svg>
