<?xml version="1.0" encoding="utf-8"?>
<!-- Generator: Adobe Illustrator 19.2.1, SVG Export Plug-In . SVG Version: 6.00 Build 0)  -->
<svg version="1.1" id="Слой_1" xmlns="http://www.w3.org/2000/svg" xmlns:xlink="http://www.w3.org/1999/xlink" x="0px" y="0px"
	 viewBox="0 0 147.9 150" style="enable-background:new 0 0 147.9 150;" xml:space="preserve">
<style type="text/css">
	.st0{fill:url(#SVGID_1_);}
	.st1{fill:url(#SVGID_2_);}
	.st2{fill:#B0CA0A;}
	.st3{fill:url(#SVGID_3_);}
	.st4{fill:#383938;}
	.st5{fill:#E94F22;}
	.st6{fill:#D93B15;}
	.st7{fill:#EB5F25;}
</style>
<g>
	
		<radialGradient id="SVGID_1_" cx="73.9438" cy="297.1133" r="73.9434" gradientTransform="matrix(1 0 0 0.7584 0 -131.4091)" gradientUnits="userSpaceOnUse">
		<stop  offset="0" style="stop-color:#535353"/>
		<stop  offset="3.028625e-002" style="stop-color:#5F5F5F"/>
		<stop  offset="0.1699" style="stop-color:#8F8F8F"/>
		<stop  offset="0.3086" style="stop-color:#B7B7B7"/>
		<stop  offset="0.4439" style="stop-color:#D7D7D7"/>
		<stop  offset="0.5748" style="stop-color:#EDEDED"/>
		<stop  offset="0.6995" style="stop-color:#FAFAFA"/>
		<stop  offset="0.811" style="stop-color:#FFFFFF"/>
	</radialGradient>
	<ellipse class="st0" cx="73.9" cy="93.9" rx="73.9" ry="56.1"/>
	<g>
		<g>
			<linearGradient id="SVGID_2_" gradientUnits="userSpaceOnUse" x1="22.9845" y1="91.1618" x2="124.9005" y2="91.1618">
				<stop  offset="0" style="stop-color:#ABC922"/>
				<stop  offset="0.3006" style="stop-color:#ABC920"/>
				<stop  offset="0.3419" style="stop-color:#ABC91E"/>
				<stop  offset="0.7441" style="stop-color:#ABC810"/>
				<stop  offset="1" style="stop-color:#ABC213"/>
			</linearGradient>
			<path class="st1" d="M108,93.5c-22.5,13-45.7,13-68.2,0C28.6,87,23,80.4,23,73.8v5.2c0,6.6,5.6,13.2,16.9,19.7
				c22.5,13,45.7,13,68.2,0c11.2-6.5,16.9-13.1,16.9-19.7v-5.2C124.9,80.4,119.3,87,108,93.5z"/>
			<path class="st2" d="M108,54.2c-22.5-13-45.7-13-68.2,0l0,0C28.6,60.7,23,67.3,23,73.8c0,6.6,5.6,13.2,16.9,19.7
				c22.5,13,45.7,13,68.2,0c11.2-6.5,16.9-13.1,16.9-19.7C124.9,67.3,119.3,60.7,108,54.2z"/>
		</g>
		<g>
			<g>
				<linearGradient id="SVGID_3_" gradientUnits="userSpaceOnUse" x1="64.2918" y1="43.7497" x2="85.5296" y2="43.7497">
					<stop  offset="0" style="stop-color:#494949"/>
					<stop  offset="0.1122" style="stop-color:#4D4D4D"/>
					<stop  offset="0.3006" style="stop-color:#4F4F4F"/>
					<stop  offset="0.4105" style="stop-color:#474747"/>
					<stop  offset="0.6012" style="stop-color:#3E3E3D"/>
					<stop  offset="0.7441" style="stop-color:#3B3A3A"/>
					<stop  offset="1" style="stop-color:#161617"/>
				</linearGradient>
				<path class="st3" d="M82.4,10.5c-4.1,2.4-10.9,2.4-15,0c-2.1-1.2-3.1-2.8-3.1-4.3v69.1c0,1.6,1,3.1,3.1,4.3
					c4.1,2.4,10.9,2.4,15,0c2.1-1.2,3.1-2.8,3.1-4.3V6.1C85.5,7.7,84.5,9.3,82.4,10.5z"/>
				<path class="st4" d="M82.4,10.5c-4.1,2.4-10.9,2.4-15,0c-2.1-1.2-3.1-2.8-3.1-4.3c0-1.6,1-3.1,3.1-4.3c4.1-2.4,10.9-2.4,15,0
					c2.1,1.2,3.1,2.8,3.1,4.3C85.5,7.7,84.5,9.3,82.4,10.5z"/>
			</g>
			<g>
				<polygon class="st5" points="75.9,61.5 75.9,18.3 110.8,38.4 110.8,81.6 				"/>
				<polygon class="st6" points="110.8,81.6 110.8,38.4 120.4,32.9 120.4,76.1 				"/>
				<path class="st7" d="M120.4,32.9L85.5,12.8c-0.2,1.4-1.2,2.7-3.1,3.7c-1.8,1-4.1,1.6-6.5,1.8l34.9,20.2L120.4,32.9z"/>
			</g>
		</g>
	</g>
</g>
</svg>
