<?xml version="1.0" encoding="utf-8"?>
<!-- Generator: Adobe Illustrator 19.2.1, SVG Export Plug-In . SVG Version: 6.00 Build 0)  -->
<svg version="1.1" id="Слой_1" xmlns="http://www.w3.org/2000/svg" xmlns:xlink="http://www.w3.org/1999/xlink" x="0px" y="0px"
	 viewBox="0 0 154 150" style="enable-background:new 0 0 154 150;" xml:space="preserve">
<style type="text/css">
	.st0{fill:url(#SVGID_1_);}
	.st1{fill:#192743;}
	.st2{fill:#203869;}
	.st3{fill:url(#SVGID_2_);}
	.st4{fill:url(#SVGID_3_);}
	.st5{fill:#FFCD07;}
	.st6{fill:url(#SVGID_4_);}
	.st7{fill:url(#SVGID_5_);}
</style>
<g>
	
		<radialGradient id="SVGID_1_" cx="77.0166" cy="294.0415" r="77.0157" gradientTransform="matrix(1 0 0 0.7584 0 -131.4091)" gradientUnits="userSpaceOnUse">
		<stop  offset="0" style="stop-color:#535353"/>
		<stop  offset="3.028625e-002" style="stop-color:#5F5F5F"/>
		<stop  offset="0.1699" style="stop-color:#8F8F8F"/>
		<stop  offset="0.3086" style="stop-color:#B7B7B7"/>
		<stop  offset="0.4439" style="stop-color:#D7D7D7"/>
		<stop  offset="0.5748" style="stop-color:#EDEDED"/>
		<stop  offset="0.6995" style="stop-color:#FAFAFA"/>
		<stop  offset="0.811" style="stop-color:#FFFFFF"/>
	</radialGradient>
	<ellipse class="st0" cx="77" cy="91.6" rx="77" ry="58.4"/>
	<g>
		<g>
			<g>
				<path class="st1" d="M112.5,94.5c-23.4,13.5-47.6,13.5-71,0C29.8,87.7,23.9,80.9,23.9,74v5.4c0,6.9,5.9,13.7,17.6,20.5
					c23.4,13.5,47.6,13.5,71,0c11.7-6.8,17.6-13.6,17.6-20.5V74C130.1,80.9,124.2,87.7,112.5,94.5z"/>
				<path class="st2" d="M112.5,53.5c-23.4-13.5-47.6-13.5-71,0l0,0C29.8,60.2,23.9,67.1,23.9,74c0,6.9,5.9,13.7,17.6,20.5
					c23.4,13.5,47.6,13.5,71,0c11.7-6.8,17.6-13.6,17.6-20.5C130.1,67.1,124.2,60.2,112.5,53.5z"/>
			</g>
		</g>
		<g>
			<linearGradient id="SVGID_2_" gradientUnits="userSpaceOnUse" x1="92.2258" y1="59.6649" x2="102.769" y2="77.9261">
				<stop  offset="0" style="stop-color:#F9AE15"/>
				<stop  offset="0.4148" style="stop-color:#FBC317"/>
				<stop  offset="1" style="stop-color:#FFE31A"/>
			</linearGradient>
			<path class="st3" d="M106.8,51.3l-16,9.3c-2.4,1.4-3.9,5.9-3.3,10L89,81.8c0.4,2.9-0.2,4.1-0.8,4.5l16-9.3
				c0.6-0.5,1.2-1.6,0.8-4.5l-1.5-11.3C102.9,57.2,104.4,52.6,106.8,51.3z"/>
			<linearGradient id="SVGID_3_" gradientUnits="userSpaceOnUse" x1="54.1879" y1="8.1561" x2="60.55" y2="19.1756">
				<stop  offset="0" style="stop-color:#FFE31A"/>
				<stop  offset="0.5542" style="stop-color:#FCC818"/>
				<stop  offset="1" style="stop-color:#FAB216"/>
			</linearGradient>
			<path class="st4" d="M68.2,11.2l-9.1-3.7c-1.7-0.7-2.7-0.6-3.3-0.2l-16,9.3c0.6-0.4,1.7-0.5,3.4,0.2l9.1,3.7
				c2.3,0.9,4.9,0.7,6.8-0.4l16-9.3C73.1,11.9,70.5,12.1,68.2,11.2z"/>
			<g>
				<path class="st5" d="M40.6,24.1c-2.2-3.7-2-5.7-1.7-6.5c0.1-0.4,0.4-0.8,0.9-1.1c0.6-0.4,1.7-0.5,3.4,0.2l9.1,3.7
					c2.3,0.9,4.9,0.7,6.8-0.4c0.8-0.5,1.5-1.1,2-1.9L65,11c0.4-0.7,0.9-1.2,1.3-1.4c1-0.6,2-0.2,2.7,0.1c0.9,0.5,2.7,2,4,5.9
					L77,27.4c1.5,4.3,5.5,10,8.8,12.5l9.1,6.8c3,2.2,3.9,4.5,4.2,5.7c0.3,1.2,0.4,3.2-1.6,4.4c0,0-0.1,0-0.1,0.1l-6.6,3.6
					c0,0,0,0-0.1,0c-2.4,1.4-3.9,5.9-3.3,10L89,81.8c0.4,2.9-0.2,4.1-0.8,4.5c-0.1,0.1-0.1,0.1-0.2,0.1c-0.6,0.4-1.5,0.3-2.5-0.3
					c-0.9-0.5-1.9-1.4-2.9-2.7l-8.1-9.6c-1.4-1.7-3.4-3.3-5.4-4.5c-2.1-1.2-4-1.8-5.4-1.8l-8.1,0.2c-1,0-2-0.2-2.9-0.7
					c-1.1-0.6-2-1.7-2.7-2.9c-0.6-1.2-1.2-3-0.8-5.5l1.5-9.5c0.6-3.5-1-9.8-3.4-13.9L40.6,24.1z"/>
			</g>
			<linearGradient id="SVGID_4_" gradientUnits="userSpaceOnUse" x1="77.4803" y1="3.1262" x2="105.7327" y2="52.061">
				<stop  offset="0" style="stop-color:#FFD009"/>
				<stop  offset="3.372730e-002" style="stop-color:#FFD20B"/>
				<stop  offset="0.2388" style="stop-color:#FFDD16"/>
				<stop  offset="0.387" style="stop-color:#FFE119"/>
				<stop  offset="0.5539" style="stop-color:#FFDD17"/>
				<stop  offset="0.7749" style="stop-color:#FED313"/>
				<stop  offset="1" style="stop-color:#FDC20B"/>
			</linearGradient>
			<path class="st6" d="M115.2,43.1c-0.3-1.2-1.2-3.5-4.2-5.7l-9.1-6.8c-3.3-2.5-7.3-8.2-8.8-12.5L89,6.4c-1.3-3.9-3.1-5.4-4-5.9
				c-0.6-0.4-1.7-0.7-2.7-0.1l-16,9.3c1-0.6,2-0.2,2.7,0.1c0.9,0.5,2.7,2,4,5.9L77,27.4c1.5,4.3,5.5,10,8.8,12.5l9.1,6.8
				c3,2.2,3.9,4.5,4.2,5.7c0.3,1.2,0.4,3.2-1.6,4.4l16-9.3C115.6,46.4,115.4,44.3,115.2,43.1z"/>
			<radialGradient id="SVGID_5_" cx="74.5539" cy="54.761" r="24.1641" gradientUnits="userSpaceOnUse">
				<stop  offset="0" style="stop-color:#FFE32E"/>
				<stop  offset="0.1798" style="stop-color:#FEDF2D"/>
				<stop  offset="0.4251" style="stop-color:#FDD428"/>
				<stop  offset="0.7081" style="stop-color:#FAC021"/>
				<stop  offset="1" style="stop-color:#F7A418"/>
			</radialGradient>
			<path class="st7" d="M79.4,52.1c0,6.7-4.7,9.4-10.4,6c-5.8-3.3-10.4-11.4-10.4-18.1c0-6.7,4.7-9.4,10.4-6
				C74.8,37.4,79.4,45.5,79.4,52.1z"/>
		</g>
	</g>
</g>
</svg>
