<?xml version="1.0" encoding="utf-8"?>
<!-- Generator: Adobe Illustrator 19.2.1, SVG Export Plug-In . SVG Version: 6.00 Build 0)  -->
<svg version="1.1" id="Слой_1" xmlns="http://www.w3.org/2000/svg" xmlns:xlink="http://www.w3.org/1999/xlink" x="0px" y="0px"
	 viewBox="0 0 14 60" style="enable-background:new 0 0 14 60;" xml:space="preserve">
<style type="text/css">
	.st0{fill:#FFFFFF;}
	.st1{fill:#E29D46;}
	.st2{fill:#1B97D5;}
	.st3{fill:#BDBCBC;}
</style>
<g>
	<polygon class="st0" points="7,15 7,10.3 9.7,7.5 7,4.7 7,0 14,7.5 	"/>
	<polygon class="st0" points="0,7.5 7,0 7,4.7 4.3,7.5 7,10.3 7,15 	"/>
</g>
<g>
	<polygon class="st1" points="7,45 7,40.3 9.7,37.5 7,34.7 7,30 14,37.5 	"/>
	<polygon class="st1" points="0,37.5 7,30 7,34.7 4.3,37.5 7,40.3 7,45 	"/>
</g>
<g>
	<polygon class="st2" points="7,30 7,25.3 9.7,22.5 7,19.7 7,15 14,22.5 	"/>
	<polygon class="st2" points="0,22.5 7,15 7,19.7 4.3,22.5 7,25.3 7,30 	"/>
</g>
<g>
	<polygon class="st3" points="7,60 7,55.3 9.7,52.5 7,49.7 7,45 14,52.5 	"/>
	<polygon class="st3" points="0,52.5 7,45 7,49.7 4.3,52.5 7,55.3 7,60 	"/>
</g>
</svg>
