<svg id="Слой_1" data-name="Слой 1" xmlns="http://www.w3.org/2000/svg" viewBox="0 0 21.87 20"><defs><style>.cls-1{fill:#003171;fill-rule:evenodd;}</style></defs><title>clip-icon</title><path class="cls-1" d="M5037.9,1267.06l-0.1-.1a5.8,5.8,0,0,0-8.13.07l-10.36,10.36a5.52,5.52,0,0,0-1.62,3.47,4.47,4.47,0,0,0,7.64,3.16l8.94-8.94a3.15,3.15,0,0,0,0-4.45,3.15,3.15,0,0,0-4.45,0l-6.84,6.85a0.94,0.94,0,1,0,1.32,1.33h0l6.85-6.86a1.27,1.27,0,1,1,1.8,1.8l-8.94,8.94a2.6,2.6,0,0,1-4.44-1.83,3.76,3.76,0,0,1,1.07-2.15l10.36-10.36a3.93,3.93,0,0,1,5.51,0l0.1,0.1a3.93,3.93,0,0,1-.06,5.49l-8.57,8.57a0.94,0.94,0,0,0,.66,1.61,0.92,0.92,0,0,0,.66-0.27h0l8.57-8.58a5.81,5.81,0,0,0,0-8.17h0Zm0,0" transform="translate(-5017.69 -1265.33)"/></svg>