<svg id="Слой_1" data-name="Слой 1" xmlns="http://www.w3.org/2000/svg" xmlns:xlink="http://www.w3.org/1999/xlink" viewBox="0 0 82.98 60"><defs><style>.cls-1{fill:#b3b3b3;}.cls-1,.cls-10,.cls-11,.cls-12,.cls-13,.cls-14,.cls-15,.cls-16,.cls-17,.cls-18,.cls-19,.cls-2,.cls-20,.cls-21,.cls-22,.cls-23,.cls-24,.cls-25,.cls-26,.cls-27,.cls-28,.cls-29,.cls-3,.cls-30,.cls-31,.cls-32,.cls-33,.cls-34,.cls-35,.cls-36,.cls-37,.cls-38,.cls-39,.cls-4,.cls-40,.cls-41,.cls-42,.cls-43,.cls-44,.cls-45,.cls-46,.cls-47,.cls-48,.cls-49,.cls-5,.cls-50,.cls-51,.cls-52,.cls-53,.cls-54,.cls-55,.cls-56,.cls-57,.cls-58,.cls-59,.cls-6,.cls-60,.cls-61,.cls-62,.cls-63,.cls-64,.cls-65,.cls-66,.cls-7,.cls-8,.cls-9{fill-rule:evenodd;}.cls-2{fill:#f8f4f5;}.cls-3{fill:url(#linear-gradient);}.cls-4{fill:url(#linear-gradient-2);}.cls-5{fill:url(#linear-gradient-3);}.cls-6{fill:url(#GradientFill_495);}.cls-7{fill:url(#linear-gradient-4);}.cls-8{fill:url(#linear-gradient-5);}.cls-9{fill:url(#linear-gradient-6);}.cls-10{fill:url(#GradientFill_495-2);}.cls-11{fill:url(#linear-gradient-7);}.cls-12{fill:url(#linear-gradient-8);}.cls-13{fill:url(#linear-gradient-9);}.cls-14{fill:url(#GradientFill_495-3);}.cls-15{fill:url(#GradientFill_534);}.cls-16{fill:url(#GradientFill_128);}.cls-17{fill:#ffcc0c;}.cls-18{fill:#e7ab10;}.cls-19{fill:#1d1d1b;}.cls-20{fill:url(#GradientFill_326);}.cls-21{fill:url(#GradientFill_326-2);}.cls-22{fill:url(#GradientFill_533);}.cls-23{fill:url(#GradientFill_326-3);}.cls-24{fill:url(#GradientFill_533-2);}.cls-25{fill:url(#GradientFill_326-4);}.cls-26{fill:url(#GradientFill_326-5);}.cls-27{fill:url(#GradientFill_326-6);}.cls-28{fill:url(#GradientFill_326-7);}.cls-29{fill:url(#GradientFill_326-8);}.cls-30{fill:url(#GradientFill_326-9);}.cls-31{fill:url(#GradientFill_326-10);}.cls-32{fill:#3a3437;}.cls-33{fill:#7f6e71;}.cls-34{fill:url(#GradientFill_520);}.cls-35{fill:url(#GradientFill_326-11);}.cls-36{fill:url(#GradientFill_326-12);}.cls-37{fill:url(#GradientFill_524);}.cls-38{fill:url(#GradientFill_326-13);}.cls-39{fill:url(#GradientFill_523);}.cls-40{fill:url(#GradientFill_326-14);}.cls-41{fill:url(#GradientFill_326-15);}.cls-42{fill:url(#GradientFill_326-16);}.cls-43{fill:url(#GradientFill_520-2);}.cls-44{fill:url(#GradientFill_326-17);}.cls-45{fill:#c2b7b9;}.cls-46{fill:url(#GradientFill_326-18);}.cls-47{fill:url(#GradientFill_533-3);}.cls-48{fill:url(#GradientFill_326-19);}.cls-49{fill:url(#GradientFill_326-20);}.cls-50{fill:url(#GradientFill_326-21);}.cls-51{fill:url(#GradientFill_326-22);}.cls-52{fill:url(#GradientFill_326-23);}.cls-53{fill:url(#GradientFill_326-24);}.cls-54{fill:url(#GradientFill_533-4);}.cls-55{fill:#736367;}.cls-56{fill:#48414f;}.cls-57{fill:#cdc1c3;}.cls-58{fill:url(#GradientFill_532);}.cls-59{fill:url(#GradientFill_531);}.cls-60{fill:url(#GradientFill_532-2);}.cls-61{fill:url(#GradientFill_531-2);}.cls-62{fill:url(#GradientFill_512);}.cls-63{fill:url(#GradientFill_486);}.cls-64{fill:#f1e8ea;}.cls-65{fill:url(#GradientFill_128-2);}.cls-66{fill:#4f4853;}</style><linearGradient id="linear-gradient" x1="12.84" y1="36.49" x2="5.97" y2="47.92" gradientUnits="userSpaceOnUse"><stop offset="0" stop-color="#f9efe4"/><stop offset="1" stop-color="#f8f4f5"/></linearGradient><linearGradient id="linear-gradient-2" x1="12.17" y1="37.01" x2="6.22" y2="46.92" gradientUnits="userSpaceOnUse"><stop offset="0" stop-color="#f9ead3"/><stop offset="1" stop-color="#f8f4f5"/></linearGradient><linearGradient id="linear-gradient-3" x1="11.5" y1="37.54" x2="6.46" y2="45.92" gradientUnits="userSpaceOnUse"><stop offset="0" stop-color="#fae4c1"/><stop offset="1" stop-color="#f8f4f5"/></linearGradient><linearGradient id="GradientFill_495" x1="10.82" y1="38.06" x2="6.7" y2="44.93" gradientUnits="userSpaceOnUse"><stop offset="0" stop-color="#fadfb0"/><stop offset="1" stop-color="#f8f4f5"/></linearGradient><linearGradient id="linear-gradient-4" x1="23.55" y1="42.67" x2="16.68" y2="54.1" xlink:href="#linear-gradient"/><linearGradient id="linear-gradient-5" x1="22.87" y1="43.19" x2="16.92" y2="53.1" xlink:href="#linear-gradient-2"/><linearGradient id="linear-gradient-6" x1="22.2" y1="43.72" x2="17.16" y2="52.1" xlink:href="#linear-gradient-3"/><linearGradient id="GradientFill_495-2" x1="21.53" y1="44.24" x2="17.4" y2="51.11" xlink:href="#GradientFill_495"/><linearGradient id="linear-gradient-7" x1="33.88" y1="50.21" x2="27.87" y2="60.21" xlink:href="#linear-gradient"/><linearGradient id="linear-gradient-8" x1="33.58" y1="50.4" x2="28.17" y2="59.4" xlink:href="#linear-gradient-2"/><linearGradient id="linear-gradient-9" x1="33.29" y1="50.59" x2="28.48" y2="58.6" xlink:href="#linear-gradient-3"/><linearGradient id="GradientFill_495-3" x1="33" y1="50.78" x2="28.78" y2="57.8" xlink:href="#GradientFill_495"/><linearGradient id="GradientFill_534" x1="3740.84" y1="163.88" x2="3747.52" y2="172.44" gradientUnits="userSpaceOnUse"><stop offset="0" stop-color="#ac9fa2"/><stop offset="0.43" stop-color="#ac9fa2"/><stop offset="1" stop-color="#bbaeaf"/></linearGradient><linearGradient id="GradientFill_128" x1="42.82" y1="51.1" x2="40.42" y2="46.76" gradientUnits="userSpaceOnUse"><stop offset="0" stop-color="#a29497"/><stop offset="0.43" stop-color="#aea2a6"/><stop offset="1" stop-color="#bbaeaf"/></linearGradient><linearGradient id="GradientFill_326" x1="3737.44" y1="187.46" x2="3698.62" y2="120.22" gradientUnits="userSpaceOnUse"><stop offset="0" stop-color="#a15d25"/><stop offset="1" stop-color="#e19b1f"/></linearGradient><linearGradient id="GradientFill_326-2" x1="26.67" y1="44.66" x2="30.65" y2="44.87" xlink:href="#GradientFill_326"/><linearGradient id="GradientFill_533" x1="28.45" y1="43.37" x2="27.97" y2="42.7" gradientUnits="userSpaceOnUse"><stop offset="0" stop-color="#a15d25"/><stop offset="1" stop-color="#814816"/></linearGradient><linearGradient id="GradientFill_326-3" x1="15.78" y1="38.37" x2="19.76" y2="38.58" xlink:href="#GradientFill_326"/><linearGradient id="GradientFill_533-2" x1="17.56" y1="37.08" x2="17.08" y2="36.42" xlink:href="#GradientFill_533"/><linearGradient id="GradientFill_326-4" x1="3.03" y1="50.04" x2="14.15" y2="11.28" xlink:href="#GradientFill_326"/><linearGradient id="GradientFill_326-5" x1="7.42" y1="51" x2="18.38" y2="12.79" xlink:href="#GradientFill_326"/><linearGradient id="GradientFill_326-6" x1="13.18" y1="52.65" x2="24.14" y2="14.44" xlink:href="#GradientFill_326"/><linearGradient id="GradientFill_326-7" x1="16.05" y1="53.48" x2="27.01" y2="15.26" xlink:href="#GradientFill_326"/><linearGradient id="GradientFill_326-8" x1="20.25" y1="55.11" x2="31.44" y2="16.11" xlink:href="#GradientFill_326"/><linearGradient id="GradientFill_326-9" x1="9.41" y1="28.21" x2="9.61" y2="30.98" xlink:href="#GradientFill_326"/><linearGradient id="GradientFill_326-10" x1="8.99" y1="24.65" x2="-1.72" y2="30.83" xlink:href="#GradientFill_326"/><linearGradient id="GradientFill_520" x1="9.52" y1="42.69" x2="9.82" y2="41.17" gradientUnits="userSpaceOnUse"><stop offset="0" stop-color="#b0a4a7"/><stop offset="1" stop-color="#c07c24"/></linearGradient><linearGradient id="GradientFill_326-11" x1="8.99" y1="36.96" x2="-1.72" y2="43.14" xlink:href="#GradientFill_326"/><linearGradient id="GradientFill_326-12" x1="22.44" y1="12.05" x2="15.88" y2="0.22" xlink:href="#GradientFill_326"/><linearGradient id="GradientFill_524" x1="34.37" y1="7.92" x2="37.33" y2="2.79" gradientUnits="userSpaceOnUse"><stop offset="0" stop-color="#f8f4f5"/><stop offset="1" stop-color="#e7ab10"/></linearGradient><linearGradient id="GradientFill_326-13" x1="29.64" y1="3.54" x2="31.68" y2="3.18" xlink:href="#GradientFill_326"/><linearGradient id="GradientFill_523" x1="22.05" y1="10.61" x2="20.76" y2="8.38" gradientUnits="userSpaceOnUse"><stop offset="0" stop-color="#a29497"/><stop offset="1" stop-color="#bd7924"/></linearGradient><linearGradient id="GradientFill_326-14" x1="3737.49" y1="135.94" x2="3741.98" y2="125.87" xlink:href="#GradientFill_326"/><linearGradient id="GradientFill_326-15" x1="20.3" y1="34.49" x2="20.49" y2="37.26" xlink:href="#GradientFill_326"/><linearGradient id="GradientFill_326-16" x1="19.88" y1="30.93" x2="9.16" y2="37.12" xlink:href="#GradientFill_326"/><linearGradient id="GradientFill_520-2" x1="20.41" y1="48.97" x2="20.71" y2="47.45" xlink:href="#GradientFill_520"/><linearGradient id="GradientFill_326-17" x1="19.88" y1="43.24" x2="9.16" y2="49.43" xlink:href="#GradientFill_326"/><linearGradient id="GradientFill_326-18" x1="17.92" y1="-7.87" x2="65.73" y2="74.93" xlink:href="#GradientFill_326"/><linearGradient id="GradientFill_533-3" x1="3734.28" y1="144.23" x2="3766.2" y2="185.07" xlink:href="#GradientFill_533"/><linearGradient id="GradientFill_326-19" x1="40.12" y1="19.4" x2="50.11" y2="36.7" xlink:href="#GradientFill_326"/><linearGradient id="GradientFill_326-20" x1="51.75" y1="24.65" x2="62.36" y2="31.03" xlink:href="#GradientFill_326"/><linearGradient id="GradientFill_326-21" x1="51.75" y1="36.96" x2="62.36" y2="43.34" xlink:href="#GradientFill_326"/><linearGradient id="GradientFill_326-22" x1="29.23" y1="25.69" x2="39.22" y2="42.99" xlink:href="#GradientFill_326"/><linearGradient id="GradientFill_326-23" x1="40.87" y1="30.94" x2="51.47" y2="37.31" xlink:href="#GradientFill_326"/><linearGradient id="GradientFill_326-24" x1="40.87" y1="43.25" x2="51.47" y2="49.62" xlink:href="#GradientFill_326"/><linearGradient id="GradientFill_533-4" x1="3729.93" y1="141.48" x2="3716.63" y2="124.46" xlink:href="#GradientFill_533"/><linearGradient id="GradientFill_532" x1="11" y1="35.93" x2="23.01" y2="15.14" gradientUnits="userSpaceOnUse"><stop offset="0" stop-color="#564845"/><stop offset="1" stop-color="#e7ab10"/></linearGradient><linearGradient id="GradientFill_531" x1="16.12" y1="37.48" x2="23.56" y2="37.48" gradientUnits="userSpaceOnUse"><stop offset="0" stop-color="#3a3437"/><stop offset="1" stop-color="#c27e23"/></linearGradient><linearGradient id="GradientFill_532-2" x1="21.89" y1="42.22" x2="33.9" y2="21.42" xlink:href="#GradientFill_532"/><linearGradient id="GradientFill_531-2" x1="27.01" y1="43.77" x2="34.45" y2="43.77" xlink:href="#GradientFill_531"/><linearGradient id="GradientFill_512" x1="33.49" y1="11.65" x2="38.45" y2="16.61" gradientUnits="userSpaceOnUse"><stop offset="0" stop-color="#a29497"/><stop offset="1" stop-color="#bbaeaf"/></linearGradient><linearGradient id="GradientFill_486" x1="28.44" y1="10.86" x2="29.87" y2="8.4" gradientUnits="userSpaceOnUse"><stop offset="0" stop-color="#c7b9bc"/><stop offset="1" stop-color="#aea0a5"/></linearGradient><linearGradient id="GradientFill_128-2" x1="33.22" y1="9.18" x2="34.81" y2="12.06" xlink:href="#GradientFill_128"/></defs><title>contacts-icon</title><path class="cls-1" d="M3736.34,148.61l-3.42-2.63h-1.23L3700,164.28,3727.23,180h1.23l6.56-3.79h2.15l2.68,1.55h0.68l2.64-1.53,0,0h15.93l23.9-13.8-23.9-13.8h-22.74Zm12.8,23.82,1.09,0.64H3748l1.1-.64h0Zm-1.5.87h3l0.72,0.42h-4.47Z" transform="translate(-3700 -120)"/><polygon class="cls-2" points="57.82 41.11 30.59 25.39 0 43.05 27.23 58.77 57.82 41.11"/><polygon class="cls-2" points="9.54 41.49 6.46 41.18 5.44 45.16 10.24 47.93 9.54 41.49"/><polygon class="cls-3" points="9.54 41.49 6.46 41.18 5.69 44.59 10.03 47.09 9.54 41.49"/><polygon class="cls-4" points="9.54 41.49 6.46 41.18 5.95 44.02 9.81 46.26 9.54 41.49"/><polygon class="cls-5" points="9.54 41.49 6.46 41.18 6.21 43.46 9.6 45.42 9.54 41.49"/><polygon class="cls-6" points="9.54 41.49 6.46 41.18 6.46 42.89 9.39 44.58 9.54 41.49"/><polygon class="cls-2" points="20.24 47.67 17.17 47.36 16.14 51.34 20.94 54.11 20.24 47.67"/><polygon class="cls-7" points="20.24 47.67 17.17 47.36 16.4 50.77 20.73 53.27 20.24 47.67"/><polygon class="cls-8" points="20.24 47.67 17.17 47.36 16.66 50.2 20.52 52.44 20.24 47.67"/><polygon class="cls-9" points="20.24 47.67 17.17 47.36 16.91 49.64 20.31 51.6 20.24 47.67"/><polygon class="cls-10" points="20.24 47.67 17.17 47.36 17.17 49.07 20.09 50.76 20.24 47.67"/><polygon class="cls-2" points="32.69 53.65 28.06 53.65 26.01 58.06 27.23 59.38 34.7 55.69 32.69 53.65"/><polygon class="cls-11" points="32.74 53.64 28.06 53.65 26.5 57.5 27.98 58.98 34.26 55.82 32.74 53.64"/><polygon class="cls-12" points="32.8 53.63 28.06 53.65 26.98 56.94 28.73 58.57 33.82 55.95 32.8 53.63"/><polygon class="cls-13" points="32.86 53.62 28.06 53.65 27.47 56.38 29.48 58.16 33.39 56.08 32.86 53.62"/><polygon class="cls-14" points="32.92 53.61 28.06 53.65 27.95 55.81 30.23 57.76 32.95 56.21 32.92 53.61"/><path class="cls-15" d="M3757.82,161.11l-17.29-10h-11.26c0,11.63,1.1,22,1.1,22.06V175h3.42Z" transform="translate(-3700 -120)"/><polygon class="cls-16" points="27.23 60 27.23 58.77 57.82 41.11 57.82 42.34 27.23 60"/><polygon class="cls-17" points="54.27 13.8 30.37 0 6.46 13.8 30.37 27.6 54.27 13.8"/><path class="cls-18" d="M3726.5,122.24l-0.13.08,3.87,2.24-3.87,2.24-3.87-2.24-0.13.08,3.87,2.24-3.87,2.24-3.87-2.24-0.13.08,3.87,2.24-3.87,2.24-3.87-2.24-0.13.08,3.87,2.24-3.87,2.24-3.87-2.24-0.13.08,3.87,2.24-3.87,2.24,0.13,0.08,3.87-2.24,3.87,2.24-3.87,2.24,0.13,0.08,3.87-2.24,3.87,2.24-3.87,2.24,0.13,0.08,3.87-2.24,3.87,2.24-3.87,2.24,0.13,0.08,3.87-2.24,3.87,2.24-3.87,2.24,0.13,0.08,3.87-2.24,3.87,2.24,0.13-.08-3.87-2.24,3.87-2.24,3.87,2.24,0.13-.08-3.87-2.24,3.87-2.24,3.87,2.24,0.13-.08-3.87-2.24,3.87-2.24,3.87,2.24,0.13-.08-3.87-2.24,3.87-2.24,3.87,2.24,0.13-.08-3.87-2.24,3.87-2.24-0.13-.08-3.87,2.24-3.87-2.24,3.87-2.24-0.13-.08-3.87,2.24-3.87-2.24,3.87-2.24-0.13-.08-3.87,2.24-3.87-2.24,3.87-2.24-0.13-.08-3.87,2.24-3.87-2.24,3.87-2.24-0.13-.08-3.87,2.24-3.87-2.24h0Zm3.87,2.39,3.87,2.24-3.87,2.24-3.87-2.24,3.87-2.24h0Zm4,2.31,3.87,2.24-3.87,2.24-3.87-2.24,3.87-2.24h0Zm4,2.31,3.87,2.24-3.87,2.24-3.87-2.24,3.87-2.24h0Zm4,2.31,3.87,2.24-3.87,2.24-3.87-2.24,3.87-2.24h0Zm-16-4.63,3.87,2.24-3.87,2.24-3.87-2.24,3.87-2.24h0Zm-4,2.31,3.87,2.24-3.87,2.24-3.87-2.24,3.87-2.24h0Zm-4,2.31,3.87,2.24-3.87,2.24-3.87-2.24,3.87-2.24h0Zm12-2.31,3.87,2.24-3.87,2.24-3.87-2.24,3.87-2.24h0Zm-4,2.31,3.87,2.24-3.87,2.24-3.87-2.24,3.87-2.24h0Zm-4,2.31,3.87,2.24-3.87,2.24-3.87-2.24,3.87-2.24h0Zm12-2.31,3.87,2.24-3.87,2.24-3.87-2.24,3.87-2.24h0Zm-4,2.31,3.87,2.24-3.87,2.24-3.87-2.24,3.87-2.24h0Zm-4,2.31,3.87,2.24-3.87,2.24-3.87-2.24,3.87-2.24h0Zm12-2.31,3.87,2.24-3.87,2.24-3.87-2.24,3.87-2.24h0Zm-4,2.31,3.87,2.24-3.87,2.24-3.87-2.24,3.87-2.24h0Zm-4,2.31,3.87,2.24-3.87,2.24-3.87-2.24Z" transform="translate(-3700 -120)"/><polygon class="cls-19" points="50.85 13.8 30.37 1.98 9.89 13.8 30.37 25.63 50.85 13.8"/><polygon class="cls-18" points="30.37 27.6 6.46 13.8 6.46 41.18 8.78 42.52 8.78 31.62 17.17 36.47 17.17 47.36 19.67 48.8 19.67 37.91 28.06 42.75 28.06 53.65 30.37 54.98 30.37 27.6"/><path class="cls-20" d="M3706.47,139.31v0.15l23.91,13.8v-0.15l-23.91-13.8h0Zm0,5.49,23.91,13.8v0.15l-23.91-13.8V144.8h0Zm0,5.49,2.31,1.34,21.59,12.47v0.15l-23.91-13.8v-0.15h0Zm0,5.49v0.15l2.31,1.34v-0.15l-2.31-1.34h0Zm10.7,6.18v0.15l2.5,1.44V163.4l-2.5-1.44h0Zm10.89,6.29v0.15l2.31,1.34v-0.15Z" transform="translate(-3700 -120)"/><polygon class="cls-21" points="28.06 42.75 28.06 46.01 29.38 46.78 29.38 46.27 28.06 42.75"/><polygon class="cls-22" points="28.06 42.75 28.06 42.9 28.13 42.95 28.06 42.75"/><polygon class="cls-23" points="17.17 36.47 17.17 39.73 18.49 40.49 18.49 39.99 17.17 36.47"/><polygon class="cls-24" points="17.17 36.47 17.17 36.62 17.24 36.66 17.17 36.47"/><polygon class="cls-25" points="10.47 16.11 10.34 16.04 10.34 32.52 10.47 32.6 10.47 16.11"/><polygon class="cls-26" points="14.48 18.43 14.35 18.35 14.35 34.84 14.48 34.91 14.48 18.43"/><polygon class="cls-27" points="18.48 20.74 18.35 20.66 18.35 48.04 18.48 48.12 18.48 20.74"/><polygon class="cls-28" points="22.49 23.05 22.36 22.98 22.36 39.46 22.49 39.54 22.49 23.05"/><polygon class="cls-29" points="26.5 25.37 26.36 25.29 26.36 41.77 26.5 41.85 26.5 25.37"/><polygon class="cls-17" points="17.17 34.17 9.55 29.78 8.78 30.23 17.17 35.07 17.17 34.17"/><polygon class="cls-30" points="10.33 30.23 9.55 29.78 8.78 30.23 10.33 30.23"/><polygon class="cls-31" points="9.55 19.76 9.55 29.78 8.78 30.23 8.78 19.31 9.55 19.76"/><polygon class="cls-32" points="17.17 34.17 9.55 29.78 9.55 19.76 17.17 24.16 17.17 34.17"/><path class="cls-33" d="M3710,140v9.52l2.23,1.29v-9.52L3710,140h0Zm2.65,1.53,2.23,1.29v9.52l-2.23-1.29v-9.52h0Zm2.65,1.53,1.88,1.09v9.52l-1.88-1.08v-9.52Z" transform="translate(-3700 -120)"/><polygon class="cls-34" points="10.33 42.53 9.55 42.09 8.78 42.53 10.33 42.53"/><polygon class="cls-35" points="9.55 32.07 9.55 42.09 8.78 42.53 8.78 31.62 9.55 32.07"/><polygon class="cls-32" points="17.17 46.48 9.55 42.09 9.55 32.07 17.17 36.47 17.17 46.48"/><polygon class="cls-19" points="50.85 13.8 30.37 1.98 9.89 13.8 30.37 25.63 50.85 13.8"/><polygon class="cls-18" points="30.37 25.63 50.85 13.8 30.37 1.98 9.89 13.8 30.37 25.63"/><polygon class="cls-36" points="30.37 25.63 30.37 4.06 30.37 1.98 9.89 13.8 30.37 25.63"/><polygon class="cls-37" points="49.05 14.85 30.37 4.06 11.69 14.85 30.37 25.63 49.05 14.85"/><polygon class="cls-38" points="30.37 4.06 30.37 1.98 31.41 4.66 30.37 4.06"/><polygon class="cls-39" points="31.41 4.66 30.37 4.06 11.69 14.85 12.73 15.45 31.41 4.66"/><path class="cls-40" d="M3748.69,132.55l-0.13-.08v2.09l0.13,0.08v-2.09h0Zm-4-2.31-0.13-.08v2.09l0.13,0.08v-2.09h0Zm-4-2.31-0.13-.08v2.09l0.13,0.08v-2.09h0Zm-4-2.31-0.13-.08v2.09l0.13,0.08v-2.09h0Zm-4-2.31-0.13-.08v2.09l0.13,0.08V123.3Z" transform="translate(-3700 -120)"/><polygon class="cls-17" points="28.06 40.46 20.44 36.06 19.67 36.51 28.06 41.35 28.06 40.46"/><polygon class="cls-41" points="21.21 36.51 20.44 36.06 19.67 36.51 21.21 36.51"/><polygon class="cls-42" points="20.44 26.05 20.44 36.06 19.67 36.51 19.67 25.6 20.44 26.05"/><polygon class="cls-32" points="28.06 40.46 20.44 36.06 20.44 26.05 28.06 30.44 28.06 40.46"/><path class="cls-33" d="M3720.87,146.29v9.52l2.23,1.29v-9.52l-2.23-1.29h0Zm2.65,1.53,2.23,1.29v9.52l-2.23-1.29v-9.52h0Zm2.65,1.53,1.88,1.08V160l-1.88-1.08v-9.52Z" transform="translate(-3700 -120)"/><polygon class="cls-43" points="21.21 48.82 20.44 48.37 19.67 48.82 21.21 48.82"/><polygon class="cls-44" points="20.44 38.35 20.44 48.37 19.67 48.82 19.67 37.91 20.44 38.35"/><polygon class="cls-32" points="28.06 52.77 20.44 48.37 20.44 38.35 28.06 42.75 28.06 52.77"/><path class="cls-33" d="M3720.87,158.6v9.52l2.23,1.29v-9.52l-2.23-1.29h0ZM3710,152.32v9.52l2.23,1.29V153.6l-2.23-1.29h0Zm2.65,1.53,2.23,1.29v9.52l-2.23-1.29v-9.52h0Zm2.65,1.53,1.88,1.09V166l-1.88-1.08v-9.52h0Zm8.23,4.75,2.23,1.29v9.52l-2.23-1.29v-9.52h0Zm2.65,1.53,1.88,1.09v9.52l-1.88-1.09v-9.52Z" transform="translate(-3700 -120)"/><path class="cls-45" d="M3720.87,166.44v0.19h0.33l-0.33-.19h0Zm1.2,2.38,1,0.59v-0.59h-1Zm-9.86-6.29v0.59l-1-.59h1Zm2.65,0v1H3713l-0.34-.19v-0.84h2.23Zm1,1h-0.6v-0.35l0.6,0.35h0Zm-0.6-.56v-0.47h0.82l-0.82.47h0Zm0.76,2.34h1.12V166l-1.12-.64h0Zm-2.65-1.53h1.46v0.85l-1.46-.84h0Zm1.89,0h1l0.86,0.5v0.79h-1.54l-0.34-.19v-1.1h0Zm10.46,5v1h-1.89l-0.34-.19v-0.84h2.23Zm1,1h-0.6v-0.35l0.6,0.35h0Zm-0.6-.56v-0.47H3727l-0.82.47h0Zm0.76,2.34h1.12v0.65l-1.12-.64h0Zm-2.65-1.53h1.46v0.85l-1.46-.85h0Zm1.89,0h1l0.86,0.5v0.79h-1.54l-0.34-.19v-1.1Z" transform="translate(-3700 -120)"/><polygon class="cls-46" points="30.37 27.6 54.27 13.8 54.27 41.18 51.96 42.52 51.96 31.62 43.57 36.47 43.57 47.36 41.08 48.8 41.08 37.91 32.69 42.75 32.69 53.65 30.37 54.98 30.37 27.6"/><path class="cls-47" d="M3750.27,136.11l0.13-.08v5.5l3.87-2.24v0.15l-3.87,2.24V147l3.87-2.24v0.15l-3.87,2.24v5.34l1.56-.9,2.31-1.34v0.15l-11.89,6.86v5.34l1.18-.68v0.15l-1.18.68V168l-0.13.08v-5.25l-1.18.68V163.4l1.18-.68v-5.34l-11.89,6.86v-0.15l3.87-2.24v-5.34l-3.87,2.24V158.6l3.87-2.24V151l-3.87,2.24v-0.15l3.87-2.24v-5.5l0.13-.08v5.5l3.87-2.24v-5.5l0.13-.08v5.5l3.87-2.24v-5.5l0.13-.08v5.5l3.88-2.24v-5.5l0.13-.08v5.5l3.87-2.24v-5.5h0Zm0.06,16.45-0.06,0v-5.34l-3.87,2.24v5.34l-0.13.08v-5.34l-3.88,2.24v5.34l7.95-4.59h0Zm-0.06-5.45v-5.34l-3.87,2.24v5.34l3.87-2.24h0Zm-4,2.31v-5.34l-3.88,2.24v5.34l3.88-2.24h0Zm-4,7.8v-5.34l-3.87,2.24v5.34l3.87-2.24h0Zm0-5.49V146.4l-3.87,2.24V154l3.87-2.24h0Zm-4,7.8V154.2l-3.87,2.24v5.34l-0.06,0,3.93-2.27h0Zm0-5.49v-5.34l-3.87,2.24v5.34l3.87-2.24h0Zm16,1.73-2.31,1.34v0.15l2.31-1.34v-0.15h0Zm-21.59,12.47v0.15l-2.31,1.34v-0.15Z" transform="translate(-3700 -120)"/><polygon class="cls-48" points="43.57 34.17 51.19 29.78 51.96 30.23 43.57 35.07 43.57 34.17"/><polygon class="cls-49" points="51.19 19.76 51.19 29.78 51.96 30.23 51.96 19.31 51.19 19.76"/><polygon class="cls-32" points="43.57 34.17 51.19 29.78 51.19 19.76 43.57 24.16 43.57 34.17"/><path class="cls-33" d="M3750.76,140v9.52l-2.23,1.29v-9.52l2.23-1.29h0Zm-2.65,1.53-2.23,1.29v9.52l2.23-1.29v-9.52h0Zm-2.65,1.53-1.88,1.09v9.52l1.88-1.08v-9.52Z" transform="translate(-3700 -120)"/><polygon class="cls-50" points="51.19 32.07 51.19 42.09 51.96 42.53 51.96 31.62 51.19 32.07"/><polygon class="cls-32" points="43.57 46.48 51.19 42.09 51.19 32.07 43.57 36.47 43.57 46.48"/><path class="cls-33" d="M3750.76,152.32v9.52l-2.23,1.29V153.6l2.23-1.29h0Zm-2.65,1.53-2.23,1.29v9.52l2.23-1.29v-9.52h0Zm-2.65,1.53-1.88,1.09V166l1.88-1.08v-9.52Z" transform="translate(-3700 -120)"/><polygon class="cls-51" points="32.69 40.46 40.3 36.06 41.08 36.51 32.69 41.35 32.69 40.46"/><polygon class="cls-52" points="40.3 26.05 40.3 36.06 41.08 36.51 41.08 25.6 40.3 26.05"/><polygon class="cls-32" points="32.69 40.46 40.3 36.06 40.3 26.05 32.69 30.44 32.69 40.46"/><path class="cls-33" d="M3739.87,146.29v9.52l-2.23,1.29v-9.52l2.23-1.29h0Zm-2.65,1.53-2.23,1.29v9.52l2.23-1.29v-9.52h0Zm-2.65,1.53-1.88,1.08V160l1.88-1.08v-9.52Z" transform="translate(-3700 -120)"/><polygon class="cls-53" points="40.3 38.35 40.3 48.37 41.08 48.82 41.08 37.91 40.3 38.35"/><polygon class="cls-32" points="32.69 52.77 40.3 48.37 40.3 38.35 32.69 42.75 32.69 52.77"/><path class="cls-33" d="M3739.87,158.6v9.52l-2.23,1.29v-9.52l2.23-1.29h0Zm-2.65,1.53-2.23,1.29v9.52l2.23-1.29v-9.52h0Zm-2.65,1.53-1.88,1.09v9.52l1.88-1.09v-9.52Z" transform="translate(-3700 -120)"/><path class="cls-33" d="M3739.87,158.6v9.52l-2.23,1.29v-9.52l2.23-1.29h0Zm-2.65,1.53-2.23,1.29v9.52l2.23-1.29v-9.52h0Zm-2.65,1.53-1.88,1.09v9.52l1.88-1.09v-9.52Z" transform="translate(-3700 -120)"/><path class="cls-45" d="M3732.68,156.61l1.59,0.93h-1.59v-0.93h0Zm0,2.7h1.14l-1.14.66v-0.65h0Zm0-1.54h1.88v1.11l-0.34.19h-1.54v-1.3h0Zm2.31,0.16,0.6,0.35-0.6.35v-0.7Z" transform="translate(-3700 -120)"/><path class="cls-45" d="M3720.87,150.23v1h2.23v-0.17l-1.47-.86h-0.76Zm0,1.27v1.3h2.23v-1.3h-2.23Zm0,1.54v1.3h2.23V153h-2.23Zm1.2,3.48,1,0.59v-0.59h-1Zm-9.86-6.29v0.59l-1-.59h1Zm2.65,0v1H3713l-0.34-.19v-0.84h2.23Zm2.31,0v1h-1.88v-1h1.88Zm-1.12,2.81h1.12v0.65l-1.12-.64h0Zm7.47,0h2.23v1.3h-2.23V153h0Zm2.65,0h0.3l1.58,0.93v0.38h-1.88V153h0Zm-12.78-1.51h1.46v0.85l-1.46-.85h0Zm1.89,0h1.88v1.29h-1.54l-0.34-.19v-1.1h0Zm8.23,0h0.3l1.93,1.13v0.17h-2.23v-1.3h0Zm2.23,5v1h-1.89l-0.34-.19v-0.84h2.23Zm2.31,0v1h-1.88v-1h1.88Zm-1.12,2.81h1.12V160l-1.12-.64h0Zm-2.65-1.53h1.46v0.85l-1.46-.85h0Zm1.89,0h1.88v1.29h-1.54l-0.34-.19v-1.1Z" transform="translate(-3700 -120)"/><path class="cls-54" d="M3712.05,132.55l0.13-.08v2.09l-0.13.08v-2.09h0Zm4-2.31,0.13-.08v2.09l-0.13.08v-2.09h0Zm4-2.31,0.13-.08v2.09l-0.13.08v-2.09h0Zm4-2.31,0.13-.08v2.09l-0.13.08v-2.09h0Zm4-2.31,0.13-.08v2.09l-0.13.08V123.3Z" transform="translate(-3700 -120)"/><path class="cls-32" d="M3750.76,147.75l-2.23-1.29v-5.18l2.23-1.29v7.75h0Zm-2.65-1.53-2.23-1.29v-2.11l2.23-1.29v4.68h0Zm-2.65-1.53-1.4-.81,1.4-.81v1.62Z" transform="translate(-3700 -120)"/><path class="cls-55" d="M3744.48,143.63l1,0.56v-1.12l-1,.56h0Zm4.05,2.34v-4.68l2.23-1.29v7.25l-2.23-1.29h0Zm-0.43-4.43-2.23,1.29v1.62l2.23,1.29v-4.19Z" transform="translate(-3700 -120)"/><path class="cls-56" d="M3750.76,160.06l-2.23-1.29V153.6l2.23-1.29v7.75h0Zm-2.65-1.53-2.23-1.29v-2.11l2.23-1.29v4.68h0Zm-2.65-1.53-1.4-.81,1.4-.81V157Z" transform="translate(-3700 -120)"/><path class="cls-56" d="M3744.48,155.94l1,0.56v-1.12l-1,.56h0Zm4.05,2.34V153.6l2.23-1.29v7.25l-2.23-1.29h0Zm-0.43-4.43-2.23,1.29v1.62l2.23,1.29v-4.19Z" transform="translate(-3700 -120)"/><path class="cls-32" d="M3750.76,160.06l-2.23-1.29v-3l2.23,1.29v3h0Zm-2.65-4.56-1.43-.83-0.8.46v2.11l2.23,1.29v-3h0Zm-2.65,1.5-1.4-.81,1.4-.81V157Z" transform="translate(-3700 -120)"/><path class="cls-55" d="M3744.48,155.94l1,0.56v-1.12l-1,.56h0Zm6.28,1.09-2.23-1.29v2.54l2.23,1.29V157h0Zm-2.65-1.53-1.43-.83-0.8.46v1.62l2.23,1.29V155.5Z" transform="translate(-3700 -120)"/><polygon class="cls-57" points="27.23 58.77 0 43.05 0 44.28 27.23 60 27.23 58.77"/><polygon class="cls-58" points="17.17 36.47 8.78 31.62 6.14 33.15 14.53 37.99 17.17 36.47"/><polygon class="cls-32" points="6.14 33.15 6.14 33.65 14.53 38.49 14.53 37.99 6.14 33.15"/><polygon class="cls-59" points="17.17 36.47 17.17 36.97 14.53 38.49 14.53 37.99 17.17 36.47"/><polygon class="cls-60" points="28.06 42.75 19.67 37.91 17.02 39.43 25.41 44.28 28.06 42.75"/><polygon class="cls-32" points="17.02 39.44 17.02 39.94 25.41 44.78 25.41 44.28 17.02 39.44"/><polygon class="cls-61" points="28.06 42.75 28.06 43.25 25.41 44.78 25.41 44.28 28.06 42.75"/><polygon class="cls-62" points="32.3 12.91 25.54 9.01 29.28 6.85 31.13 6.85 37.89 10.75 34.15 12.91 32.3 12.91"/><polygon class="cls-63" points="32.3 11.06 32.3 12.91 25.54 9.01 25.54 7.16 32.3 11.06"/><polygon class="cls-64" points="36.04 8.9 32.3 11.06 25.54 7.16 29.28 5 36.04 8.9"/><polygon class="cls-65" points="36.04 8.9 32.3 11.06 32.3 12.91 36.04 10.75 36.04 8.9"/><path class="cls-66" d="M3731.07,129.54a2.59,2.59,0,0,0,2.34,0,0.71,0.71,0,0,0,0-1.35,2.59,2.59,0,0,0-2.34,0A0.71,0.71,0,0,0,3731.07,129.54Z" transform="translate(-3700 -120)"/><path class="cls-66" d="M3728.17,127.87a2.59,2.59,0,0,0,2.34,0,0.71,0.71,0,0,0,0-1.35,2.59,2.59,0,0,0-2.34,0A0.71,0.71,0,0,0,3728.17,127.87Z" transform="translate(-3700 -120)"/><path class="cls-64" d="M3728.75,127.54a1.31,1.31,0,0,0,1.18,0,0.36,0.36,0,0,0,0-.68,1.31,1.31,0,0,0-1.18,0A0.36,0.36,0,0,0,3728.75,127.54Z" transform="translate(-3700 -120)"/><path class="cls-64" d="M3731.65,129.21a1.31,1.31,0,0,0,1.18,0,0.36,0.36,0,0,0,0-.68,1.31,1.31,0,0,0-1.18,0A0.36,0.36,0,0,0,3731.65,129.21Z" transform="translate(-3700 -120)"/></svg>