<?xml version="1.0" encoding="utf-8"?>
<!-- Generator: Adobe Illustrator 19.2.1, SVG Export Plug-In . SVG Version: 6.00 Build 0)  -->
<svg version="1.1" id="Слой_1" xmlns="http://www.w3.org/2000/svg" xmlns:xlink="http://www.w3.org/1999/xlink" x="0px" y="0px"
	 viewBox="0 0 21.7 20" style="enable-background:new 0 0 21.7 20;" xml:space="preserve">
<style type="text/css">
	.st0{fill:#203869;}
</style>
<g>
	<g>
		<path class="st0" d="M20.2,4.6h-2.4v-4c0-0.4-0.3-0.7-0.7-0.7H4.6C4.3,0,4,0.3,4,0.7v4H1.5C0.7,4.6,0,5.3,0,6.2v8.4
			c0,0.8,0.7,1.5,1.5,1.5H4v3.3C4,19.7,4.3,20,4.6,20h12.5c0.4,0,0.7-0.3,0.7-0.7v-3.3h2.4c0.8,0,1.5-0.7,1.5-1.5V6.2
			C21.7,5.3,21,4.6,20.2,4.6L20.2,4.6z M5.3,1.3h11.1v3.3H5.3V1.3z M16.4,18.7H5.3v-6.5h11.1V18.7z M20.4,14.6
			c0,0.1-0.1,0.2-0.2,0.2h-2.4v-3.3c0-0.4-0.3-0.7-0.7-0.7H4.6c-0.4,0-0.7,0.3-0.7,0.7v3.3H1.5c-0.1,0-0.2-0.1-0.2-0.2V6.2
			c0-0.1,0.1-0.2,0.2-0.2h18.6c0.1,0,0.2,0.1,0.2,0.2V14.6z M20.4,14.6"/>
		<path class="st0" d="M18,8.4c0,0.5-0.4,0.9-0.9,0.9c-0.5,0-0.9-0.4-0.9-0.9c0-0.5,0.4-0.9,0.9-0.9C17.6,7.5,18,7.9,18,8.4L18,8.4z
			 M18,8.4"/>
		<path class="st0" d="M13.8,13.5h-6c-0.4,0-0.7,0.3-0.7,0.7c0,0.4,0.3,0.7,0.7,0.7h6c0.4,0,0.7-0.3,0.7-0.7
			C14.5,13.8,14.2,13.5,13.8,13.5L13.8,13.5z M13.8,13.5"/>
		<path class="st0" d="M13.8,16.1h-6c-0.4,0-0.7,0.3-0.7,0.7c0,0.4,0.3,0.7,0.7,0.7h6c0.4,0,0.7-0.3,0.7-0.7
			C14.5,16.4,14.2,16.1,13.8,16.1L13.8,16.1z M13.8,16.1"/>
	</g>
</g>
</svg>
