<svg id="Слой_1" data-name="Слой 1" xmlns="http://www.w3.org/2000/svg" xmlns:xlink="http://www.w3.org/1999/xlink" viewBox="0 0 193.2 150"><defs><style>.cls-1,.cls-10,.cls-106,.cls-11,.cls-12,.cls-13,.cls-14,.cls-15,.cls-16,.cls-17,.cls-18,.cls-19,.cls-2,.cls-20,.cls-21,.cls-22,.cls-23,.cls-24,.cls-25,.cls-26,.cls-27,.cls-28,.cls-29,.cls-3,.cls-30,.cls-31,.cls-32,.cls-33,.cls-34,.cls-35,.cls-36,.cls-37,.cls-38,.cls-39,.cls-4,.cls-40,.cls-41,.cls-42,.cls-43,.cls-44,.cls-45,.cls-46,.cls-47,.cls-48,.cls-49,.cls-5,.cls-50,.cls-51,.cls-52,.cls-53,.cls-54,.cls-55,.cls-56,.cls-57,.cls-58,.cls-59,.cls-6,.cls-60,.cls-61,.cls-62,.cls-63,.cls-64,.cls-65,.cls-66,.cls-7,.cls-76,.cls-8,.cls-86,.cls-9,.cls-96{fill-rule:evenodd;}.cls-1{fill:url(#GradientFill_62);}.cls-2{fill:url(#GradientFill_834);}.cls-3{fill:#fcf0e5;}.cls-4{fill:url(#GradientFill_834-2);}.cls-5{fill:url(#GradientFill_757);}.cls-6{fill:url(#GradientFill_833);}.cls-7{fill:url(#GradientFill_757-2);}.cls-8{fill:url(#GradientFill_757-3);}.cls-9{fill:url(#GradientFill_757-4);}.cls-10{fill:#1d1d1b;}.cls-11{fill:#dcc7b4;}.cls-12{fill:#988b7c;}.cls-13{fill:url(#GradientFill_827);}.cls-14{fill:url(#GradientFill_757-5);}.cls-15{fill:#9a9689;}.cls-16{fill:#c5bca8;}.cls-17{fill:#8d7961;}.cls-18{fill:url(#GradientFill_832);}.cls-19{fill:#3c341a;}.cls-20{fill:#60543f;}.cls-21{fill:#f1e8ea;}.cls-22{fill:#c1b6b9;}.cls-23{fill:#7f6e71;}.cls-24{fill:#392b21;}.cls-25{fill:url(#GradientFill_832-2);}.cls-26{fill:url(#linear-gradient);}.cls-27{fill:url(#linear-gradient-2);}.cls-28{fill:url(#linear-gradient-3);}.cls-29{fill:url(#GradientFill_831);}.cls-30{fill:#636155;}.cls-31{fill:url(#GradientFill_830);}.cls-32{fill:url(#GradientFill_829);}.cls-33{fill:url(#GradientFill_757-6);}.cls-34{fill:url(#GradientFill_757-7);}.cls-35{fill:url(#GradientFill_828);}.cls-36{fill:url(#GradientFill_828-2);}.cls-37{fill:#363527;}.cls-38{fill:#948487;}.cls-39{fill:url(#GradientFill_827-2);}.cls-40{fill:#3a3437;}.cls-41{fill:url(#GradientFill_827-3);}.cls-42{fill:url(#GradientFill_827-4);}.cls-43{fill:#4d4d42;}.cls-44{fill:#6b6a5d;}.cls-45{fill:url(#GradientFill_826);}.cls-46{fill:url(#GradientFill_826-2);}.cls-47{fill:url(#GradientFill_826-3);}.cls-48{fill:url(#GradientFill_826-4);}.cls-49{fill:url(#GradientFill_757-8);}.cls-50{fill:url(#GradientFill_825);}.cls-51{fill:url(#GradientFill_825-2);}.cls-52{fill:url(#GradientFill_822);}.cls-53{fill:url(#GradientFill_620);}.cls-54{fill:url(#GradientFill_824);}.cls-55{fill:url(#GradientFill_823);}.cls-56{fill:url(#GradientFill_822-2);}.cls-57{fill:url(#GradientFill_757-9);}.cls-58{fill:url(#linear-gradient-4);}.cls-59{fill:url(#linear-gradient-5);}.cls-60{fill:url(#linear-gradient-6);}.cls-61{fill:url(#GradientFill_821);}.cls-62{fill:url(#linear-gradient-7);}.cls-63{fill:url(#linear-gradient-8);}.cls-64{fill:url(#linear-gradient-9);}.cls-65{fill:url(#GradientFill_821-2);}.cls-66{fill:url(#GradientFill_757-10);}.cls-67{fill:url(#GradientFill_23);}.cls-68{fill:url(#linear-gradient-10);}.cls-69{fill:url(#linear-gradient-11);}.cls-70{fill:url(#linear-gradient-12);}.cls-71{fill:url(#GradientFill_40);}.cls-72{fill:url(#linear-gradient-13);}.cls-73{fill:url(#linear-gradient-14);}.cls-74{fill:url(#linear-gradient-15);}.cls-75{fill:url(#GradientFill_59);}.cls-76{fill:url(#GradientFill_757-11);}.cls-77{fill:url(#GradientFill_23-2);}.cls-78{fill:url(#linear-gradient-16);}.cls-79{fill:url(#linear-gradient-17);}.cls-80{fill:url(#linear-gradient-18);}.cls-81{fill:url(#GradientFill_40-2);}.cls-82{fill:url(#linear-gradient-19);}.cls-83{fill:url(#linear-gradient-20);}.cls-84{fill:url(#linear-gradient-21);}.cls-85{fill:url(#GradientFill_59-2);}.cls-86{fill:url(#GradientFill_757-12);}.cls-87{fill:url(#GradientFill_23-3);}.cls-88{fill:url(#linear-gradient-22);}.cls-89{fill:url(#linear-gradient-23);}.cls-90{fill:url(#linear-gradient-24);}.cls-91{fill:url(#GradientFill_40-3);}.cls-92{fill:url(#linear-gradient-25);}.cls-93{fill:url(#linear-gradient-26);}.cls-94{fill:url(#linear-gradient-27);}.cls-95{fill:url(#GradientFill_59-3);}.cls-96{fill:url(#GradientFill_757-13);}.cls-97{fill:url(#GradientFill_23-4);}.cls-98{fill:url(#linear-gradient-28);}.cls-99{fill:url(#linear-gradient-29);}.cls-100{fill:url(#linear-gradient-30);}.cls-101{fill:url(#GradientFill_40-4);}.cls-102{fill:url(#linear-gradient-31);}.cls-103{fill:url(#linear-gradient-32);}.cls-104{fill:url(#linear-gradient-33);}.cls-105{fill:url(#GradientFill_59-4);}.cls-106{fill:#989598;}</style><linearGradient id="GradientFill_62" y1="94.89" x2="193.2" y2="94.89" gradientUnits="userSpaceOnUse"><stop offset="0" stop-color="#98898c"/><stop offset="0.43" stop-color="#a7999d"/><stop offset="1" stop-color="#b2a3a5"/></linearGradient><linearGradient id="GradientFill_834" x1="116.17" y1="80.39" x2="110.15" y2="71.12" gradientUnits="userSpaceOnUse"><stop offset="0" stop-color="#a19587"/><stop offset="1" stop-color="#867b6c"/></linearGradient><linearGradient id="GradientFill_834-2" x1="1065.85" y1="2253.92" x2="1043.54" y2="2219.57" xlink:href="#GradientFill_834"/><linearGradient id="GradientFill_757" x1="39.95" y1="67.42" x2="45.32" y2="92.68" gradientUnits="userSpaceOnUse"><stop offset="0" stop-color="#988b7c"/><stop offset="1" stop-color="#867b6c"/></linearGradient><linearGradient id="GradientFill_833" x1="62.52" y1="112.09" x2="60.25" y2="116.02" gradientUnits="userSpaceOnUse"><stop offset="0" stop-color="#dcc7b4"/><stop offset="1" stop-color="#988b7c"/></linearGradient><linearGradient id="GradientFill_757-2" x1="154.64" y1="117.63" x2="161.89" y2="151.73" xlink:href="#GradientFill_757"/><linearGradient id="GradientFill_757-3" x1="-7.6" y1="64.39" x2="4.93" y2="78.81" xlink:href="#GradientFill_757"/><linearGradient id="GradientFill_757-4" x1="6.91" y1="80.84" x2="9.57" y2="94.5" xlink:href="#GradientFill_757"/><linearGradient id="GradientFill_827" x1="74.24" y1="79.25" x2="67.85" y2="79.25" gradientUnits="userSpaceOnUse"><stop offset="0" stop-color="#988b7c"/><stop offset="1" stop-color="#8d8072"/></linearGradient><linearGradient id="GradientFill_757-5" x1="122.34" y1="62.89" x2="125.34" y2="77.03" xlink:href="#GradientFill_757"/><linearGradient id="GradientFill_832" x1="58.12" y1="90.74" x2="48.65" y2="66.06" gradientUnits="userSpaceOnUse"><stop offset="0" stop-color="#675a48"/><stop offset="1" stop-color="#584b35"/></linearGradient><linearGradient id="GradientFill_832-2" x1="65.2" y1="101.66" x2="67.69" y2="77.99" xlink:href="#GradientFill_832"/><linearGradient id="linear-gradient" x1="53.07" y1="61.1" x2="48.11" y2="69.36" gradientUnits="userSpaceOnUse"><stop offset="0" stop-color="#9a9689"/><stop offset="1" stop-color="#b3ada0"/></linearGradient><linearGradient id="linear-gradient-2" x1="52.64" y1="60.86" x2="47.7" y2="69.09" gradientUnits="userSpaceOnUse"><stop offset="0" stop-color="#9a9689"/><stop offset="1" stop-color="#cbc3b7"/></linearGradient><linearGradient id="linear-gradient-3" x1="52.24" y1="60.63" x2="47.31" y2="68.84" gradientUnits="userSpaceOnUse"><stop offset="0" stop-color="#9a9689"/><stop offset="1" stop-color="#e4dace"/></linearGradient><linearGradient id="GradientFill_831" x1="52.24" y1="60.64" x2="47.32" y2="68.82" gradientUnits="userSpaceOnUse"><stop offset="0" stop-color="#9a9689"/><stop offset="1" stop-color="#fcf0e5"/></linearGradient><linearGradient id="GradientFill_830" x1="54.9" y1="54.6" x2="56.35" y2="57.7" gradientUnits="userSpaceOnUse"><stop offset="0" stop-color="#636155"/><stop offset="1" stop-color="#54554a"/></linearGradient><linearGradient id="GradientFill_829" x1="1009.72" y1="2212.98" x2="1005.65" y2="2219.76" gradientUnits="userSpaceOnUse"><stop offset="0" stop-color="#c5bca8"/><stop offset="1" stop-color="#9a9689"/></linearGradient><linearGradient id="GradientFill_757-6" x1="19.3" y1="62.59" x2="12.87" y2="68.38" xlink:href="#GradientFill_757"/><linearGradient id="GradientFill_757-7" x1="51.63" y1="75.09" x2="60.22" y2="86.9" xlink:href="#GradientFill_757"/><linearGradient id="GradientFill_828" x1="51.54" y1="57.62" x2="52.08" y2="61.45" gradientUnits="userSpaceOnUse"><stop offset="0" stop-color="#636155"/><stop offset="1" stop-color="#9a9689"/></linearGradient><linearGradient id="GradientFill_828-2" x1="52.06" y1="55.57" x2="52.3" y2="57.21" xlink:href="#GradientFill_828"/><linearGradient id="GradientFill_827-2" x1="82.98" y1="86.54" x2="80.34" y2="86.54" xlink:href="#GradientFill_827"/><linearGradient id="GradientFill_827-3" x1="95.49" y1="93.76" x2="92.85" y2="93.76" xlink:href="#GradientFill_827"/><linearGradient id="GradientFill_827-4" x1="89.24" y1="90.15" x2="86.59" y2="90.15" xlink:href="#GradientFill_827"/><linearGradient id="GradientFill_826" x1="115.42" y1="77.5" x2="115.42" y2="126.43" gradientUnits="userSpaceOnUse"><stop offset="0" stop-color="#392b21"/><stop offset="1" stop-color="#7f6e71"/></linearGradient><linearGradient id="GradientFill_826-2" x1="119.61" y1="75.07" x2="119.61" y2="124.01" xlink:href="#GradientFill_826"/><linearGradient id="GradientFill_826-3" x1="123.81" y1="72.65" x2="123.81" y2="121.58" xlink:href="#GradientFill_826"/><linearGradient id="GradientFill_826-4" x1="128" y1="70.23" x2="128" y2="119.16" xlink:href="#GradientFill_826"/><linearGradient id="GradientFill_757-8" x1="93.14" y1="38.36" x2="105.38" y2="95.96" xlink:href="#GradientFill_757"/><linearGradient id="GradientFill_825" x1="132.67" y1="105.96" x2="135.16" y2="110.27" gradientUnits="userSpaceOnUse"><stop offset="0" stop-color="#988b7c"/><stop offset="1" stop-color="#05838b"/></linearGradient><linearGradient id="GradientFill_825-2" x1="170.26" y1="98.33" x2="165.58" y2="106.44" xlink:href="#GradientFill_825"/><linearGradient id="GradientFill_822" x1="148.57" y1="104.78" x2="158.33" y2="87.87" gradientUnits="userSpaceOnUse"><stop offset="0" stop-color="#59aaa8"/><stop offset="1" stop-color="#74c5c4"/></linearGradient><linearGradient id="GradientFill_620" x1="140.92" y1="131.39" x2="126.55" y2="106.51" gradientUnits="userSpaceOnUse"><stop offset="0" stop-color="#34a09f"/><stop offset="1" stop-color="#007580"/></linearGradient><linearGradient id="GradientFill_824" x1="135.77" y1="90.94" x2="149.42" y2="115.57" gradientUnits="userSpaceOnUse"><stop offset="0" stop-color="#007480"/><stop offset="1" stop-color="#34a09f"/></linearGradient><linearGradient id="GradientFill_823" x1="134.06" y1="111.9" x2="149.22" y2="139.24" gradientUnits="userSpaceOnUse"><stop offset="0" stop-color="#1d8f93"/><stop offset="1" stop-color="#5ebebd"/></linearGradient><linearGradient id="GradientFill_822-2" x1="135.37" y1="111.47" x2="140.54" y2="120.8" xlink:href="#GradientFill_822"/><linearGradient id="GradientFill_757-9" x1="128.53" y1="60.94" x2="131.79" y2="76.3" xlink:href="#GradientFill_757"/><linearGradient id="linear-gradient-4" x1="78.18" y1="52.85" x2="73.81" y2="60.11" gradientUnits="userSpaceOnUse"><stop offset="0" stop-color="#dcc7b4"/><stop offset="1" stop-color="#ccbba9"/></linearGradient><linearGradient id="linear-gradient-5" x1="77.8" y1="52.64" x2="73.45" y2="59.88" gradientUnits="userSpaceOnUse"><stop offset="0" stop-color="#dcc7b4"/><stop offset="1" stop-color="#bbaf9f"/></linearGradient><linearGradient id="linear-gradient-6" x1="77.79" y1="52.65" x2="73.46" y2="59.86" gradientUnits="userSpaceOnUse"><stop offset="0" stop-color="#dcc7b4"/><stop offset="1" stop-color="#aba294"/></linearGradient><linearGradient id="GradientFill_821" x1="77.79" y1="52.66" x2="73.47" y2="59.85" gradientUnits="userSpaceOnUse"><stop offset="0" stop-color="#dcc7b4"/><stop offset="1" stop-color="#9a9689"/></linearGradient><linearGradient id="linear-gradient-7" x1="52.36" y1="25" x2="47.99" y2="32.27" xlink:href="#linear-gradient-4"/><linearGradient id="linear-gradient-8" x1="51.99" y1="24.79" x2="47.63" y2="32.04" xlink:href="#linear-gradient-5"/><linearGradient id="linear-gradient-9" x1="51.98" y1="24.81" x2="47.64" y2="32.02" xlink:href="#linear-gradient-6"/><linearGradient id="GradientFill_821-2" x1="51.97" y1="24.82" x2="47.65" y2="32" xlink:href="#GradientFill_821"/><linearGradient id="GradientFill_757-10" x1="964.8" y1="2203.05" x2="965.57" y2="2206.7" xlink:href="#GradientFill_757"/><linearGradient id="GradientFill_23" x1="19.18" y1="48.4" x2="21.95" y2="51.17" gradientUnits="userSpaceOnUse"><stop offset="0" stop-color="#d0ca77"/><stop offset="1" stop-color="#6c794c"/></linearGradient><linearGradient id="linear-gradient-10" x1="19.3" y1="48.5" x2="21.9" y2="51.09" gradientUnits="userSpaceOnUse"><stop offset="0" stop-color="#cac572"/><stop offset="1" stop-color="#6a764b"/></linearGradient><linearGradient id="linear-gradient-11" x1="19.43" y1="48.6" x2="21.84" y2="51.01" gradientUnits="userSpaceOnUse"><stop offset="0" stop-color="#c4c16d"/><stop offset="1" stop-color="#67744a"/></linearGradient><linearGradient id="linear-gradient-12" x1="19.57" y1="48.71" x2="21.77" y2="50.92" gradientUnits="userSpaceOnUse"><stop offset="0" stop-color="#bebc68"/><stop offset="1" stop-color="#657149"/></linearGradient><linearGradient id="GradientFill_40" x1="19.7" y1="48.83" x2="21.71" y2="50.83" gradientUnits="userSpaceOnUse"><stop offset="0" stop-color="#b8b763"/><stop offset="1" stop-color="#626e48"/></linearGradient><linearGradient id="linear-gradient-13" x1="19.76" y1="48.88" x2="21.48" y2="50.62" gradientUnits="userSpaceOnUse"><stop offset="0" stop-color="#b2b264"/><stop offset="1" stop-color="#69744b"/></linearGradient><linearGradient id="linear-gradient-14" x1="19.82" y1="48.95" x2="21.25" y2="50.39" gradientUnits="userSpaceOnUse"><stop offset="0" stop-color="#adae64"/><stop offset="1" stop-color="#717a4e"/></linearGradient><linearGradient id="linear-gradient-15" x1="19.9" y1="49.03" x2="21.01" y2="50.16" gradientUnits="userSpaceOnUse"><stop offset="0" stop-color="#a7a965"/><stop offset="1" stop-color="#788051"/></linearGradient><linearGradient id="GradientFill_59" x1="19.99" y1="49.13" x2="20.76" y2="49.92" gradientUnits="userSpaceOnUse"><stop offset="0" stop-color="#a1a465"/><stop offset="1" stop-color="#7f8654"/></linearGradient><linearGradient id="GradientFill_757-11" x1="975.32" y1="2209.12" x2="976.1" y2="2212.78" xlink:href="#GradientFill_757"/><linearGradient id="GradientFill_23-2" x1="29.71" y1="54.47" x2="32.48" y2="57.25" xlink:href="#GradientFill_23"/><linearGradient id="linear-gradient-16" x1="29.83" y1="54.58" x2="32.42" y2="57.17" xlink:href="#linear-gradient-10"/><linearGradient id="linear-gradient-17" x1="29.96" y1="54.68" x2="32.36" y2="57.09" xlink:href="#linear-gradient-11"/><linearGradient id="linear-gradient-18" x1="30.09" y1="54.79" x2="32.3" y2="57" xlink:href="#linear-gradient-12"/><linearGradient id="GradientFill_40-2" x1="30.23" y1="54.91" x2="32.23" y2="56.91" xlink:href="#GradientFill_40"/><linearGradient id="linear-gradient-19" x1="30.29" y1="54.96" x2="32.01" y2="56.7" xlink:href="#linear-gradient-13"/><linearGradient id="linear-gradient-20" x1="30.35" y1="55.03" x2="31.77" y2="56.47" xlink:href="#linear-gradient-14"/><linearGradient id="linear-gradient-21" x1="30.43" y1="55.11" x2="31.53" y2="56.24" xlink:href="#linear-gradient-15"/><linearGradient id="GradientFill_59-2" x1="30.52" y1="55.2" x2="31.29" y2="56" xlink:href="#GradientFill_59"/><linearGradient id="GradientFill_757-12" x1="985.85" y1="2215.2" x2="986.63" y2="2218.86" xlink:href="#GradientFill_757"/><linearGradient id="GradientFill_23-3" x1="40.23" y1="60.55" x2="43" y2="63.32" xlink:href="#GradientFill_23"/><linearGradient id="linear-gradient-22" x1="40.36" y1="60.65" x2="42.95" y2="63.25" xlink:href="#linear-gradient-10"/><linearGradient id="linear-gradient-23" x1="40.48" y1="60.76" x2="42.89" y2="63.17" xlink:href="#linear-gradient-11"/><linearGradient id="linear-gradient-24" x1="40.62" y1="60.87" x2="42.83" y2="63.08" xlink:href="#linear-gradient-12"/><linearGradient id="GradientFill_40-3" x1="40.76" y1="60.99" x2="42.76" y2="62.99" xlink:href="#GradientFill_40"/><linearGradient id="linear-gradient-25" x1="40.81" y1="61.04" x2="42.53" y2="62.77" xlink:href="#linear-gradient-13"/><linearGradient id="linear-gradient-26" x1="40.88" y1="61.1" x2="42.3" y2="62.55" xlink:href="#linear-gradient-14"/><linearGradient id="linear-gradient-27" x1="40.95" y1="61.18" x2="42.06" y2="62.32" xlink:href="#linear-gradient-15"/><linearGradient id="GradientFill_59-3" x1="41.04" y1="61.28" x2="41.81" y2="62.08" xlink:href="#GradientFill_59"/><linearGradient id="GradientFill_757-13" x1="976.06" y1="2196.53" x2="976.83" y2="2200.19" xlink:href="#GradientFill_757"/><linearGradient id="GradientFill_23-4" x1="30.44" y1="41.88" x2="33.21" y2="44.65" xlink:href="#GradientFill_23"/><linearGradient id="linear-gradient-28" x1="30.56" y1="41.98" x2="33.16" y2="44.57" xlink:href="#linear-gradient-10"/><linearGradient id="linear-gradient-29" x1="30.69" y1="42.09" x2="33.1" y2="44.49" xlink:href="#linear-gradient-11"/><linearGradient id="linear-gradient-30" x1="30.83" y1="42.2" x2="33.04" y2="44.41" xlink:href="#linear-gradient-12"/><linearGradient id="GradientFill_40-4" x1="30.97" y1="42.31" x2="32.97" y2="44.31" xlink:href="#GradientFill_40"/><linearGradient id="linear-gradient-31" x1="31.02" y1="42.37" x2="32.74" y2="44.1" xlink:href="#linear-gradient-13"/><linearGradient id="linear-gradient-32" x1="31.09" y1="42.43" x2="32.51" y2="43.88" xlink:href="#linear-gradient-14"/><linearGradient id="linear-gradient-33" x1="31.16" y1="42.51" x2="32.27" y2="43.65" xlink:href="#linear-gradient-15"/><linearGradient id="GradientFill_59-4" x1="31.25" y1="42.61" x2="32.02" y2="43.4" xlink:href="#GradientFill_59"/></defs><title>usage-item-4</title><polygon class="cls-1" points="169.03 97.14 181.03 90.21 157.71 76.74 168.85 70.31 121.69 43.08 80.46 43.08 77.93 44.54 69.71 39.79 68.56 40.45 67.4 39.79 0 78.7 123.49 150 125.8 150 193.2 111.08 169.03 97.14"/><polygon class="cls-2" points="110.44 63.3 126.04 72.31 104.05 85.01 96.25 71.49 110.44 63.3"/><polygon class="cls-3" points="123.49 148.16 0 76.86 67.4 37.95 190.89 109.24 123.49 148.16"/><path class="cls-4" d="M1020.18,2193.36l91.1,52.6-3.48,2,1.91,1.1-26.34,15.21h-34.88l-7.51-4.34,3.93-2.27-36.37-21,11.14-6.43L988,2211.95l32.19-18.59h0Zm27.15,65.72h0Z" transform="translate(-943.4 -2150)"/><polygon class="cls-5" points="13.31 77.23 8.76 74.6 13.31 71.98 28.73 71.98 60 53.88 64.52 53.88 64.54 62.08 67.24 63.64 66.59 64.02 66.59 81.33 69.22 82.85 75.41 82.85 75.41 86.42 76.9 87.28 75.41 88.14 75.41 92.02 68.69 92.02 67.2 92.88 70.62 94.85 66.07 97.48 48.38 97.48 43.84 94.85 48.38 92.23 54.72 92.23 28.74 77.23 28.74 77.23 13.31 77.23"/><polygon class="cls-6" points="123.49 150 123.49 148.16 0 76.86 0 78.7 123.49 150"/><polygon class="cls-7" points="123.49 150 123.49 148.16 190.89 109.24 190.89 111.08 123.49 150"/><polygon class="cls-3" points="34.78 98.78 34.78 96.94 36.27 95.61 7.57 79.04 6.08 82.21 34.78 98.78"/><polygon class="cls-8" points="7.87 80.12 6.08 82.21 6.76 80.76 7.87 80.12"/><polygon class="cls-9" points="7.87 80.12 6.08 82.21 7.7 81.09 7.87 80.12"/><polygon class="cls-10" points="91.75 89.17 127.61 68.47 80.46 41.24 44.59 61.95 91.75 89.17"/><polygon class="cls-11" points="44.59 61.95 44.59 20.71 76.27 39.01 76.27 80.24 44.59 61.95"/><polygon class="cls-12" points="57.35 37.89 57.35 32.2 59.03 34.83 59.03 38.86 57.35 37.89"/><polygon class="cls-3" points="103.93 67.84 139.8 47.13 116.47 33.66 127.61 27.23 80.46 0 44.59 20.71 76.27 39.01 65.13 45.44 103.93 67.84"/><polygon class="cls-10" points="103.93 63.97 133.09 47.13 109.77 33.66 120.91 27.23 80.46 3.87 51.29 20.71 82.98 39.01 71.83 45.44 103.93 63.97"/><path class="cls-11" d="M1008.53,2236.68v-41.24l38.8,22.4v6.36l-2.43-1.4-3.93,2.27v30.35Z" transform="translate(-943.4 -2150)"/><polygon class="cls-13" points="65.13 86.68 65.13 66.49 74.38 66.49 74.38 92.02 65.13 86.68"/><polygon class="cls-12" points="65.13 70.72 65.13 49.51 88.55 63.03 91.93 68.88 91.93 86.19 65.13 70.72"/><polygon class="cls-14" points="103.93 74.19 103.93 67.84 139.8 47.13 139.8 60.63 139.8 88.37 129 94.6 131.43 64.19 126.34 61.26 103.93 74.19"/><polygon class="cls-15" points="41.23 39.33 41.23 36.54 44.59 38.48 44.59 29.96 41.23 28.03 41.23 24.83 55.68 33.17 55.68 47.67 41.23 39.33"/><path class="cls-16" d="M1027.41,2215.65L1032,2213l-23.42-13.52v-4.07l7.62-4.4-10.43-6L990,2194.08Z" transform="translate(-943.4 -2150)"/><polygon class="cls-17" points="46.64 81.34 46.64 59.44 65.13 70.11 65.13 92.02 46.64 81.34"/><polygon class="cls-18" points="46.64 81.34 46.64 66.69 52.59 62.87 56.08 64.89 56.94 67.33 65.13 88.63 65.13 92.02 46.64 81.34"/><polygon class="cls-19" points="64.01 89.6 64.01 76.56 60.96 74.8 60.96 87.83 64.01 89.6"/><polygon class="cls-20" points="64.01 89.6 64.01 87.38 61.29 87.62 60.96 87.83 64.01 89.6"/><polygon class="cls-21" points="61.29 74.98 61.29 87.64 64.01 89.22 64.01 76.56 61.29 74.98"/><polygon class="cls-22" points="61.29 78.63 61.29 87.64 64.01 89.22 64.01 85.72 61.29 78.63"/><polygon class="cls-23" points="63.92 88.68 63.92 76.61 61.7 75.33 61.7 87.4 63.92 88.68"/><polygon class="cls-24" points="63.92 88.68 63.92 85.48 61.7 79.72 61.7 87.4 63.92 88.68"/><polygon class="cls-19" points="59.84 87.19 59.84 74.15 56.79 72.39 56.79 85.43 59.84 87.19"/><polygon class="cls-20" points="59.84 87.19 59.84 84.98 57.12 85.21 56.79 85.43 59.84 87.19"/><polygon class="cls-22" points="57.12 72.58 57.12 85.24 59.84 86.81 59.84 74.15 57.12 72.58"/><polygon class="cls-24" points="59.75 86.28 59.75 74.2 57.54 72.93 57.54 85 59.75 86.28"/><polygon class="cls-19" points="55.68 84.78 55.68 71.75 52.62 69.98 52.62 83.02 55.68 84.78"/><polygon class="cls-20" points="55.68 84.78 55.68 82.57 52.95 82.81 52.62 83.02 55.68 84.78"/><polygon class="cls-22" points="52.95 70.17 52.95 82.83 55.68 84.41 55.68 71.75 52.95 70.17"/><polygon class="cls-24" points="55.59 83.87 55.59 71.8 53.37 70.52 53.37 82.59 55.59 83.87"/><polygon class="cls-25" points="69.68 89.39 69.68 69.44 65.13 72.06 65.13 92.02 69.68 89.39"/><polygon class="cls-15" points="46.64 61.39 46.64 44.08 84.01 65.66 84.01 82.96 46.64 61.39"/><polygon class="cls-15" points="46.64 61.39 46.64 55.44 62.09 64.36 56.94 67.33 56.93 67.33 46.64 61.39"/><polygon class="cls-26" points="46.64 61.39 46.64 55.44 61.24 63.87 56.94 67.33 56.93 67.33 46.64 61.39"/><polygon class="cls-27" points="46.64 61.39 46.64 55.44 60.39 63.38 56.94 67.33 56.93 67.33 46.64 61.39"/><polygon class="cls-28" points="46.64 61.39 46.64 55.44 59.54 62.89 56.94 67.33 56.93 67.33 46.64 61.39"/><polygon class="cls-29" points="46.64 61.39 46.64 55.44 58.69 62.39 56.94 67.33 56.93 67.33 46.64 61.39"/><polygon class="cls-30" points="49.99 58.61 75.09 73.11 75.09 63.54 49.99 49.05 49.99 58.61"/><polygon class="cls-31" points="60.33 55.02 56.13 52.59 51.68 55.96 52.08 59.78 60.33 55.02"/><path class="cls-32" d="M1000.68,2212.83l17.81,10.28v-4.94l-9.25-5.34h-8.56Zm3.52-2.91-3.74-2.16-3.74,2.16h7.49Z" transform="translate(-943.4 -2150)"/><polygon class="cls-3" points="55.13 52.01 49.99 49.05 49.99 54.98 55.13 52.01"/><polygon class="cls-30" points="49.99 58.61 51.68 59.59 51.68 50.02 49.99 49.05 49.99 58.61"/><polygon class="cls-30" points="88.55 80.34 88.55 63.03 84.01 65.66 84.01 82.96 88.55 80.34"/><polygon class="cls-33" points="17.86 74.6 17.86 54.65 13.31 57.27 13.31 77.23 17.86 74.6"/><polygon class="cls-3" points="46.64 44.08 47.29 43.7 44.59 42.14 44.59 42.14 37.49 38.04 8.76 54.66 43.83 74.91 56.95 67.34 46.64 61.39 46.64 44.08"/><polygon class="cls-11" points="8.76 74.6 8.76 54.65 13.31 57.27 13.31 77.23 8.76 74.6"/><polygon class="cls-11" points="8.76 59.17 8.76 54.65 43.84 74.9 43.84 79.42 8.76 59.17"/><polygon class="cls-34" points="56.94 71.85 56.94 67.33 43.84 74.9 43.84 79.42 56.94 71.85"/><polygon class="cls-30" points="52.93 94.85 52.93 77.16 48.38 79.78 48.38 97.48 52.93 94.85"/><polygon class="cls-15" points="43.84 94.85 43.84 77.16 48.38 79.78 48.38 97.48 43.84 94.85"/><polygon class="cls-16" points="48.38 74.54 52.93 77.16 48.38 79.78 43.84 77.16 48.38 74.54"/><polygon class="cls-30" points="48.38 74.54 49.51 75.19 46.1 77.16 43.84 77.16 48.38 74.54"/><polygon class="cls-16" points="51.68 57.64 75.09 71.15 75.09 73.11 49.99 58.61 51.68 57.64"/><polygon class="cls-35" points="51.68 57.64 53.37 58.61 49.99 58.61 51.68 57.64"/><polygon class="cls-16" points="51.68 55.96 56.82 52.99 55.13 52.01 51.68 54 51.68 55.96"/><polygon class="cls-36" points="51.68 55.96 52.49 55.49 51.68 55.49 51.68 55.96"/><polygon class="cls-30" points="131.43 99.07 131.43 64.19 105.09 79.4 105.09 114.28 131.43 99.07"/><polygon class="cls-16" points="105.09 79.4 131.43 64.19 127.19 61.75 126.34 61.26 103.93 74.19 101.5 72.8 97.58 75.06 105.09 79.4"/><polygon class="cls-30" points="127.3 61.81 126.34 61.26 103.93 74.19 111.02 74.19 129.89 63.3 127.3 61.81"/><path class="cls-15" d="M1041,2259.94v-34.88l7.51,4.34v34.88Z" transform="translate(-943.4 -2150)"/><polygon class="cls-30" points="57.35 37.89 57.35 32.2 55.68 33.17 55.68 38.86 57.35 37.89"/><polygon class="cls-16" points="55.68 33.17 41.23 24.83 44.59 22.9 44.59 24.83 57.35 32.2 55.68 33.17"/><polygon class="cls-16" points="50.46 41.87 41.23 36.54 44.59 34.6 44.59 36.54 50.74 40.09 50.74 41.71 50.46 41.87"/><polygon class="cls-37" points="44.59 29.96 50.74 33.52 50.74 40.09 44.59 36.54 44.59 29.96"/><polygon class="cls-23" points="44.95 30.18 50.74 33.52 50.74 39.67 44.95 36.33 44.95 30.18"/><polygon class="cls-38" points="44.95 30.18 50.28 33.25 44.95 36.33 44.95 30.18"/><polygon class="cls-39" points="83.04 92.15 83.04 83.14 79.21 80.93 79.21 89.94 83.04 92.15"/><polygon class="cls-3" points="83.04 92.15 83.04 89.94 79.21 89.94 83.04 92.15"/><polygon class="cls-40" points="79.54 81.12 79.54 89.75 83.04 91.77 83.04 83.14 79.54 81.12"/><polygon class="cls-23" points="82.95 91.23 82.95 83.2 79.95 81.47 79.95 89.5 82.95 91.23"/><polygon class="cls-41" points="95.55 99.37 95.55 90.37 91.72 88.16 91.72 97.16 95.55 99.37"/><polygon class="cls-3" points="95.55 99.37 95.55 97.16 91.72 97.16 95.55 99.37"/><polygon class="cls-40" points="92.05 88.34 92.05 96.97 95.55 98.99 95.55 90.37 92.05 88.34"/><polygon class="cls-23" points="95.46 98.45 95.46 90.42 92.46 88.69 92.46 96.73 95.46 98.45"/><polygon class="cls-42" points="89.3 95.76 89.3 86.76 85.46 84.54 85.46 93.55 89.3 95.76"/><polygon class="cls-3" points="89.3 95.76 89.3 93.55 85.46 93.55 89.3 95.76"/><polygon class="cls-40" points="85.79 84.73 85.79 93.36 89.3 95.38 89.3 86.76 85.79 84.73"/><polygon class="cls-23" points="89.2 94.84 89.2 86.81 86.21 85.08 86.21 93.12 89.2 94.84"/><polygon class="cls-43" points="114.41 108.03 114.41 78.5 117.08 76.96 117.08 106.49 114.41 108.03"/><polygon class="cls-44" points="114.41 108.03 114.41 105.82 116.75 106.28 117.08 106.49 114.41 108.03"/><polygon class="cls-24" points="116.75 77.15 116.75 106.3 114.41 107.66 114.41 78.5 116.75 77.15"/><polygon class="cls-45" points="114.5 107.12 114.5 78.55 116.33 77.5 116.33 106.06 114.5 107.12"/><polygon class="cls-43" points="118.61 105.61 118.61 76.08 121.27 74.54 121.27 104.07 118.61 105.61"/><polygon class="cls-44" points="118.61 105.61 118.61 103.4 120.94 103.86 121.27 104.07 118.61 105.61"/><polygon class="cls-24" points="120.95 74.72 120.95 103.88 118.61 105.23 118.61 76.08 120.95 74.72"/><polygon class="cls-46" points="118.7 104.69 118.7 76.13 120.53 75.07 120.53 103.64 118.7 104.69"/><polygon class="cls-43" points="122.8 103.19 122.8 73.66 125.47 72.11 125.47 101.65 122.8 103.19"/><polygon class="cls-44" points="122.8 103.19 122.8 100.97 125.14 101.43 125.47 101.65 122.8 103.19"/><polygon class="cls-24" points="125.14 72.3 125.14 101.46 122.8 102.81 122.8 73.66 125.14 72.3"/><polygon class="cls-47" points="122.89 102.27 122.89 73.71 124.72 72.65 124.72 101.22 122.89 102.27"/><polygon class="cls-43" points="127 100.77 127 71.23 129.67 69.69 129.67 99.22 127 100.77"/><polygon class="cls-44" points="127 100.77 127 98.55 129.33 99.01 129.67 99.22 127 100.77"/><polygon class="cls-24" points="129.34 69.88 129.34 99.03 127 100.39 127 71.23 129.34 69.88"/><polygon class="cls-48" points="127.09 99.85 127.09 71.28 128.92 70.23 128.92 98.79 127.09 99.85"/><polygon class="cls-49" points="103.93 63.97 133.09 47.13 109.77 33.66 120.91 27.23 80.46 3.87 51.29 20.71 82.98 39.01 71.83 45.44 103.93 63.97"/><polygon class="cls-16" points="103.93 63.97 131.56 48.02 110.99 36.14 109.77 35.44 109.77 33.66 119.38 28.11 81.68 6.35 54.05 22.3 82.98 39.01 82.98 40.78 84.2 41.48 74.59 47.03 103.93 63.97"/><polygon class="cls-30" points="82.98 39.72 82.98 40.78 73.37 46.33 74.59 47.03 85.15 40.93 82.98 39.72"/><polygon class="cls-30" points="80.46 5.64 52.83 21.6 54.05 22.3 81.68 6.35 80.46 5.64"/><polygon class="cls-11" points="81.68 6.35 80.46 3.87 120.91 27.23 119.38 28.11 81.68 6.35"/><polygon class="cls-11" points="109.77 35.44 109.77 33.66 133.09 47.13 131.56 48.02 109.77 35.44"/><polygon class="cls-50" points="123.49 144.29 184.19 109.24 156.72 93.39 96.02 128.43 123.49 144.29"/><polygon class="cls-51" points="123.49 144.29 184.19 109.24 156.72 93.39 156.72 94.58 123.49 144.29"/><polygon class="cls-11" points="184.19 109.24 164.53 97.89 164.88 99.29 182.19 110.4 184.19 109.24"/><polygon class="cls-52" points="183.15 109.84 156.72 94.58 97.06 129.03 123.49 144.29 183.15 109.84"/><polygon class="cls-53" points="164.88 99.29 156.72 94.58 97.06 129.03 123.49 144.29 170.16 109.08 164.88 99.29"/><polygon class="cls-54" points="131.51 115.88 139.97 115.88 160.95 103.76 156.72 101.32 131.51 115.88"/><polygon class="cls-55" points="102.89 132.4 123.49 144.29 177.32 113.21 156.72 101.32 102.89 132.4"/><polygon class="cls-56" points="107.46 135.03 123.49 144.29 177.32 113.21 170.16 109.08 146.71 122.62 128.97 122.62 107.46 135.03"/><polygon class="cls-57" points="127.61 27.23 127.61 40.09 116.47 33.66 127.61 27.23"/><polygon class="cls-11" points="65.13 45.44 91.87 60.88 88.55 63.03 65.13 49.51 65.13 45.44"/><polygon class="cls-58" points="65.13 45.44 91.11 60.44 88.55 63.03 65.13 49.51 65.13 45.44"/><polygon class="cls-59" points="65.13 45.44 90.36 60 88.55 63.03 65.13 49.51 65.13 45.44"/><polygon class="cls-60" points="65.13 45.44 89.59 59.56 88.55 63.03 65.13 49.51 65.13 45.44"/><polygon class="cls-61" points="65.13 45.44 88.83 59.13 88.55 63.03 65.13 49.51 65.13 45.44"/><polygon class="cls-11" points="44.59 20.77 60.67 30.05 57.35 32.2 44.59 24.83 44.59 20.77"/><polygon class="cls-62" points="44.59 20.77 59.91 29.61 57.35 32.2 44.59 24.83 44.59 20.77"/><polygon class="cls-63" points="44.59 20.77 59.15 29.18 57.35 32.2 44.59 24.83 44.59 20.77"/><polygon class="cls-64" points="44.59 20.77 58.39 28.74 57.35 32.2 44.59 24.83 44.59 20.77"/><polygon class="cls-65" points="44.59 20.77 57.63 28.3 57.35 32.2 44.59 24.83 44.59 20.77"/><path class="cls-66" d="M963.9,2201.55h2.27l1.42,0.82a2.84,2.84,0,0,1,2.67,1.54l0.46,0.26-0.42.24c-0.12,1-1.42,1.75-3,1.75h0l-1.11.64H963.9l-4.55-2.62Z" transform="translate(-943.4 -2150)"/><polygon class="cls-30" points="25.04 54.17 25.04 51.65 20.5 54.27 20.5 56.8 25.04 54.17"/><polygon class="cls-15" points="15.95 54.17 15.95 51.65 20.5 54.27 20.5 56.8 15.95 54.17"/><polygon class="cls-16" points="20.5 49.02 25.04 51.65 20.5 54.27 15.95 51.65 20.5 49.02"/><path class="cls-30" d="M965.31,2199.84l2.67,1.54a1.23,1.23,0,0,1,.05.35,1.21,1.21,0,0,1,0,.15l-3,1.75c-1.65,0-3-.86-3-1.9s1.35-1.9,3-1.9h0.29Z" transform="translate(-943.4 -2150)"/><polygon class="cls-37" points="20.5 49.83 23.64 51.65 20.5 53.46 17.35 51.65 20.5 49.83"/><circle class="cls-67" cx="20.56" cy="49.78" r="3.01"/><circle class="cls-68" cx="20.6" cy="49.79" r="2.76"/><circle class="cls-69" cx="20.64" cy="49.81" r="2.51"/><circle class="cls-70" cx="20.67" cy="49.82" r="2.25"/><circle class="cls-71" cx="20.71" cy="49.83" r="2"/><circle class="cls-72" cx="20.63" cy="49.76" r="1.68"/><circle class="cls-73" cx="20.55" cy="49.68" r="1.35"/><circle class="cls-74" cx="20.46" cy="49.61" r="1.02"/><circle class="cls-75" cx="20.38" cy="49.53" r="0.69"/><path class="cls-76" d="M974.42,2207.63h2.27l1.42,0.82a2.84,2.84,0,0,1,2.67,1.54l0.46,0.26-0.42.24c-0.12,1-1.42,1.75-3,1.75h0l-1.11.64h-2.27l-4.55-2.62Z" transform="translate(-943.4 -2150)"/><polygon class="cls-30" points="35.57 60.25 35.57 57.72 31.02 60.35 31.02 62.88 35.57 60.25"/><polygon class="cls-15" points="26.48 60.25 26.48 57.72 31.02 60.35 31.02 62.88 26.48 60.25"/><polygon class="cls-16" points="31.02 55.1 35.57 57.72 31.02 60.35 26.48 57.72 31.02 55.1"/><path class="cls-30" d="M975.84,2205.92l2.67,1.54a1.24,1.24,0,0,1,.05.35,1.2,1.2,0,0,1,0,.15l-3,1.75c-1.65,0-3-.86-3-1.9s1.35-1.9,3-1.9h0.29Z" transform="translate(-943.4 -2150)"/><polygon class="cls-37" points="31.02 55.91 34.17 57.72 31.02 59.54 27.88 57.72 31.02 55.91"/><circle class="cls-77" cx="31.09" cy="55.86" r="3.01"/><circle class="cls-78" cx="31.13" cy="55.87" r="2.76"/><circle class="cls-79" cx="31.16" cy="55.88" r="2.51"/><circle class="cls-80" cx="31.2" cy="55.9" r="2.25"/><circle class="cls-81" cx="31.23" cy="55.91" r="2"/><circle class="cls-82" cx="31.15" cy="55.83" r="1.68"/><circle class="cls-83" cx="31.07" cy="55.76" r="1.35"/><circle class="cls-84" cx="30.99" cy="55.69" r="1.02"/><circle class="cls-85" cx="30.91" cy="55.61" r="0.69"/><path class="cls-86" d="M985,2213.7h2.27l1.42,0.82a2.84,2.84,0,0,1,2.67,1.54l0.46,0.26-0.41.24c-0.12,1-1.42,1.75-3,1.75h0l-1.11.64H985l-4.55-2.62Z" transform="translate(-943.4 -2150)"/><polygon class="cls-30" points="46.1 66.33 46.1 63.8 41.55 66.43 41.55 68.95 46.1 66.33"/><polygon class="cls-15" points="37 66.33 37 63.8 41.55 66.43 41.55 68.95 37 66.33"/><polygon class="cls-16" points="41.55 61.18 46.1 63.8 41.55 66.43 37 63.8 41.55 61.18"/><path class="cls-30" d="M986.37,2212l2.67,1.54a1.22,1.22,0,0,1,.05.35,1.2,1.2,0,0,1,0,.15l-3,1.75c-1.65,0-3-.86-3-1.9s1.35-1.9,3-1.9h0.29Z" transform="translate(-943.4 -2150)"/><polygon class="cls-37" points="41.55 61.98 44.7 63.8 41.55 65.62 38.4 63.8 41.55 61.98"/><circle class="cls-87" cx="41.62" cy="61.94" r="3.01"/><circle class="cls-88" cx="41.65" cy="61.95" r="2.76"/><circle class="cls-89" cx="41.69" cy="61.96" r="2.51"/><circle class="cls-90" cx="41.72" cy="61.97" r="2.25"/><circle class="cls-91" cx="41.76" cy="61.99" r="2"/><circle class="cls-92" cx="41.68" cy="61.91" r="1.68"/><circle class="cls-93" cx="41.6" cy="61.84" r="1.35"/><circle class="cls-94" cx="41.52" cy="61.76" r="1.02"/><circle class="cls-95" cx="41.44" cy="61.69" r="0.69"/><path class="cls-96" d="M975.16,2195h2.27l1.42,0.82a2.84,2.84,0,0,1,2.67,1.54l0.46,0.26-0.41.24c-0.12,1-1.42,1.75-3,1.75h0l-1.11.64h-2.27l-4.55-2.62Z" transform="translate(-943.4 -2150)"/><polygon class="cls-30" points="36.3 47.66 36.3 45.13 31.76 47.75 31.76 50.28 36.3 47.66"/><polygon class="cls-15" points="27.21 47.66 27.21 45.13 31.76 47.75 31.76 50.28 27.21 47.66"/><polygon class="cls-16" points="31.76 42.51 36.3 45.13 31.76 47.75 27.21 45.13 31.76 42.51"/><path class="cls-30" d="M976.57,2193.32l2.67,1.54a1.22,1.22,0,0,1,.05.35,1.2,1.2,0,0,1,0,.15l-3,1.75c-1.65,0-3-.86-3-1.9s1.35-1.9,3-1.9h0.29Z" transform="translate(-943.4 -2150)"/><polygon class="cls-37" points="31.76 43.31 34.91 45.13 31.76 46.95 28.61 45.13 31.76 43.31"/><circle class="cls-97" cx="31.83" cy="43.27" r="3.01"/><circle class="cls-98" cx="31.86" cy="43.28" r="2.76"/><circle class="cls-99" cx="31.9" cy="43.29" r="2.51"/><circle class="cls-100" cx="31.93" cy="43.3" r="2.25"/><circle class="cls-101" cx="31.97" cy="43.31" r="2"/><circle class="cls-102" cx="31.89" cy="43.24" r="1.68"/><circle class="cls-103" cx="31.81" cy="43.17" r="1.35"/><circle class="cls-104" cx="31.73" cy="43.09" r="1.02"/><circle class="cls-105" cx="31.65" cy="43.02" r="0.69"/><polygon class="cls-106" points="15.1 78.75 15.34 78.88 15.59 79.24 15.35 79.1 15.1 78.75"/></svg>