<svg id="Слой_1" data-name="Слой 1" xmlns="http://www.w3.org/2000/svg" xmlns:xlink="http://www.w3.org/1999/xlink" viewBox="0 0 160.5 110"><defs><style>.cls-1,.cls-10,.cls-11,.cls-12,.cls-13,.cls-14,.cls-15,.cls-16,.cls-17,.cls-18,.cls-19,.cls-2,.cls-20,.cls-21,.cls-22,.cls-23,.cls-24,.cls-25,.cls-26,.cls-27,.cls-28,.cls-29,.cls-3,.cls-30,.cls-31,.cls-32,.cls-33,.cls-34,.cls-35,.cls-36,.cls-37,.cls-38,.cls-39,.cls-4,.cls-40,.cls-41,.cls-42,.cls-43,.cls-44,.cls-45,.cls-46,.cls-47,.cls-48,.cls-49,.cls-5,.cls-50,.cls-51,.cls-52,.cls-53,.cls-6,.cls-7,.cls-8,.cls-9{fill-rule:evenodd;}.cls-1{fill:url(#GradientFill_62);}.cls-2{fill:#f8f4f5;}.cls-3{fill:#c5bcbd;}.cls-4{fill:#d5cbce;}.cls-5{fill:url(#GradientFill_128);}.cls-6{fill:url(#GradientFill_128-2);}.cls-7{fill:#cdc1c3;}.cls-8{fill:url(#GradientFill_128-3);}.cls-9{fill:url(#GradientFill_485);}.cls-10{fill:url(#GradientFill_128-4);}.cls-11{fill:url(#GradientFill_128-5);}.cls-12{fill:url(#GradientFill_128-6);}.cls-13{fill:#3a3437;}.cls-14{fill:#554449;}.cls-15{fill:#100c08;}.cls-16{fill:#005e5d;}.cls-17{fill:#004141;}.cls-18{fill:#ab6724;}.cls-19{fill:#935118;}.cls-20{fill:#4e6225;}.cls-21{fill:#3d501f;}.cls-22{fill:#d75713;}.cls-23{fill:#e7ab10;}.cls-24{fill:url(#GradientFill_128-7);}.cls-25{fill:url(#GradientFill_128-8);}.cls-26{fill:url(#GradientFill_128-9);}.cls-27{fill:url(#GradientFill_485-2);}.cls-28{fill:url(#GradientFill_128-10);}.cls-29{fill:url(#GradientFill_128-11);}.cls-30{fill:url(#GradientFill_128-12);}.cls-31{fill:url(#GradientFill_128-13);}.cls-32{fill:#ef8000;}.cls-33{fill:url(#GradientFill_484);}.cls-34{fill:#1d1d1b;}.cls-35{fill:#9f3816;}.cls-36{fill:url(#GradientFill_326);}.cls-37{fill:#c07c24;}.cls-38{fill:#aa9da1;}.cls-39{fill:url(#GradientFill_479);}.cls-40{fill:url(#GradientFill_479-2);}.cls-41{fill:url(#GradientFill_479-3);}.cls-42{fill:url(#GradientFill_483);}.cls-43{fill:#ffcc0c;}.cls-44{fill:url(#GradientFill_482);}.cls-45{fill:url(#GradientFill_326-2);}.cls-46{fill:#e19b1f;}.cls-47{fill:#b0a4a7;}.cls-48{fill:url(#GradientFill_479-4);}.cls-49{fill:url(#GradientFill_479-5);}.cls-50{fill:url(#GradientFill_481);}.cls-51{fill:url(#GradientFill_480);}.cls-52{fill:url(#GradientFill_479-6);}.cls-53{fill:url(#GradientFill_478);}</style><linearGradient id="GradientFill_62" x1="187.83" y1="2504.76" x2="330" y2="2504.76" gradientUnits="userSpaceOnUse"><stop offset="0" stop-color="#98898c"/><stop offset="0.43" stop-color="#a7999d"/><stop offset="1" stop-color="#b2a3a5"/></linearGradient><linearGradient id="GradientFill_128" x1="40.6" y1="82.65" x2="46.64" y2="95.61" gradientUnits="userSpaceOnUse"><stop offset="0" stop-color="#a29497"/><stop offset="0.43" stop-color="#aea2a6"/><stop offset="1" stop-color="#bbaeaf"/></linearGradient><linearGradient id="GradientFill_128-2" x1="71.06" y1="64.85" x2="77.11" y2="77.82" xlink:href="#GradientFill_128"/><linearGradient id="GradientFill_128-3" x1="46.58" y1="68.58" x2="43.8" y2="63.57" xlink:href="#GradientFill_128"/><linearGradient id="GradientFill_485" x1="46.68" y1="58.13" x2="45.09" y2="52.6" gradientUnits="userSpaceOnUse"><stop offset="0" stop-color="#a29497"/><stop offset="1" stop-color="#918486"/></linearGradient><linearGradient id="GradientFill_128-4" x1="44.49" y1="67.29" x2="40.15" y2="55.36" xlink:href="#GradientFill_128"/><linearGradient id="GradientFill_128-5" x1="37.4" y1="60.25" x2="41.19" y2="49.84" xlink:href="#GradientFill_128"/><linearGradient id="GradientFill_128-6" x1="51.49" y1="61.8" x2="54.06" y2="66.26" xlink:href="#GradientFill_128"/><linearGradient id="GradientFill_128-7" x1="78.53" y1="104.55" x2="84.57" y2="117.51" xlink:href="#GradientFill_128"/><linearGradient id="GradientFill_128-8" x1="108.99" y1="86.75" x2="115.04" y2="99.72" xlink:href="#GradientFill_128"/><linearGradient id="GradientFill_128-9" x1="83.32" y1="88.36" x2="86.29" y2="93.5" xlink:href="#GradientFill_128"/><linearGradient id="GradientFill_485-2" x1="84.61" y1="80.03" x2="83.02" y2="74.5" xlink:href="#GradientFill_485"/><linearGradient id="GradientFill_128-10" x1="82.42" y1="89.19" x2="78.08" y2="77.26" xlink:href="#GradientFill_128"/><linearGradient id="GradientFill_128-11" x1="75.33" y1="82.15" x2="79.12" y2="71.74" xlink:href="#GradientFill_128"/><linearGradient id="GradientFill_128-12" x1="89.42" y1="83.7" x2="91.99" y2="88.16" xlink:href="#GradientFill_128"/><linearGradient id="GradientFill_128-13" x1="134.38" y1="141.96" x2="89.13" y2="44.91" xlink:href="#GradientFill_128"/><linearGradient id="GradientFill_484" x1="104.09" y1="66.02" x2="101.56" y2="61.44" gradientUnits="userSpaceOnUse"><stop offset="0" stop-color="#9f3816"/><stop offset="1" stop-color="#772b10"/></linearGradient><linearGradient id="GradientFill_326" x1="109.76" y1="74.63" x2="92.52" y2="44.76" gradientUnits="userSpaceOnUse"><stop offset="0" stop-color="#a15d25"/><stop offset="1" stop-color="#e19b1f"/></linearGradient><linearGradient id="GradientFill_479" x1="106.15" y1="38.64" x2="108.15" y2="41.96" gradientUnits="userSpaceOnUse"><stop offset="0" stop-color="#f8f4f5"/><stop offset="0.52" stop-color="#d7cfd1"/><stop offset="1" stop-color="#aa9da1"/></linearGradient><linearGradient id="GradientFill_479-2" x1="94.42" y1="32.02" x2="95.9" y2="34.21" xlink:href="#GradientFill_479"/><linearGradient id="GradientFill_479-3" x1="97.25" y1="32.52" x2="98.85" y2="35.29" xlink:href="#GradientFill_479"/><linearGradient id="GradientFill_483" x1="272.03" y1="2464.74" x2="269.72" y2="2468.73" gradientUnits="userSpaceOnUse"><stop offset="0" stop-color="#d5cbce"/><stop offset="1" stop-color="#e7ab10"/></linearGradient><linearGradient id="GradientFill_482" x1="236.03" y1="2488.98" x2="238.29" y2="2485.22" gradientUnits="userSpaceOnUse"><stop offset="0" stop-color="#c07c24"/><stop offset="1" stop-color="#e7ab10"/></linearGradient><linearGradient id="GradientFill_326-2" x1="46.95" y1="8.17" x2="79.4" y2="66.71" xlink:href="#GradientFill_326"/><linearGradient id="GradientFill_479-4" x1="57.25" y1="53.56" x2="58.37" y2="55.51" xlink:href="#GradientFill_479"/><linearGradient id="GradientFill_479-5" x1="61.72" y1="55.5" x2="62.92" y2="57.58" xlink:href="#GradientFill_479"/><linearGradient id="GradientFill_481" x1="61.67" y1="57.84" x2="61.41" y2="55.33" gradientUnits="userSpaceOnUse"><stop offset="0" stop-color="#f8f4f5"/><stop offset="1" stop-color="#d5cbce"/></linearGradient><linearGradient id="GradientFill_480" x1="230.11" y1="2484.75" x2="230.41" y2="2486.66" gradientUnits="userSpaceOnUse"><stop offset="0" stop-color="#aa9da1"/><stop offset="1" stop-color="#fff"/></linearGradient><linearGradient id="GradientFill_479-6" x1="73.11" y1="61.94" x2="75.19" y2="65.26" xlink:href="#GradientFill_479"/><linearGradient id="GradientFill_478" x1="241.68" y1="2492.8" x2="241.86" y2="2494.54" gradientUnits="userSpaceOnUse"><stop offset="0" stop-color="#aa9da1"/><stop offset="1" stop-color="#d5cbce"/></linearGradient></defs><title>usage-item-5</title><path class="cls-1" d="M324,2514.37h1l0.93-.54-0.18-.1-0.17-.1-0.17-.1-0.17-.1-0.17-.1-0.17-.1-0.17-.1-0.17-.1H324v-0.13l0,0,0,0,0,0,0,0,0,0,0,0,0,0-0.06-.05-0.06-.05-0.07-.05-0.08-.06-0.09-.06-0.1-.06-0.2-.11-0.21-.1-0.22-.1-0.23-.09-0.24-.08-0.25-.08-0.26-.07-0.28-.06-0.28-.06-0.29-.05-0.29,0-0.29,0-0.29,0-0.3,0H319l0.76-.44,0.08-.07,0-.08v-0.1l0-.1-0.07-.11-0.11-.12-0.15-.13-0.18-.14-0.22-.15-0.26-.16-0.26-.14-0.26-.13-0.27-.12-0.27-.12-0.27-.11-0.28-.1-0.28-.09-0.28-.08-0.29-.07-0.29-.06-0.23,0,0.09-.05h0.4l0.93-.54-0.17-.1-0.17-.1-0.17-.1-0.17-.1-0.17-.1-0.17-.1-0.17-.1-0.17-.1h-1.46l-0.17-.1-0.17-.1-0.17-.1-0.17-.1-0.17-.1-0.17-.1-0.17-.1-0.17-.1h-1.11l-0.89.51-0.51-.3h1l0.93-.54-0.17-.1-0.17-.1-0.17-.1-0.17-.1-0.17-.1-0.17-.1-0.17-.1-0.17-.1h-0.73V2505l0,0,0,0,0,0,0,0,0,0,0,0,0,0,0,0,0,0,0,0,0,0,0,0,0,0,0,0,0,0h-1.83l-0.7.4-0.26-.15,0,0,0.93-.54,0.08-.07,0-.08v-0.09l0-.1-0.07-.11-0.1-.12-0.14-.13-0.18-.14-0.22-.15-0.25-.15-0.28-.15-0.28-.15-0.29-.14-0.3-.13-0.31-.12-0.31-.11-0.32-.1-0.33-.09-0.33-.08-0.33-.07-0.33-.06-0.15,0h1.4l0.93-.54-0.17-.1-0.17-.1-0.17-.1-0.17-.1-0.17-.1-0.17-.1-0.17-.1-0.17-.1H299.8L249,2471.07h-4.16l-2.68-1.55h-1.88L202,2491.68l4.77,2.76-18.9,10.91,7,4.05h1.88l5.22-3h25.48l17.23,9.95-18.9,10.91,7,4.05h1.88l5.22-3h25.48l20.3,11.72h1.88l2.68-1.55h4L330,2517.81Zm-117.31-10.74,2.06-1.19h9.53l1.15-.66,3.21,1.85H206.72Zm37.93,21.9,2.06-1.19h9.53l1.15-.66,3.21,1.85H244.65Zm60.48-22.09h0l-0.27-.15,0.33,0.16h0Z" transform="translate(-169.5 -2430)"/><polygon class="cls-2" points="25.35 77.52 18.33 73.46 58.78 50.11 65.81 54.16 25.35 77.52"/><polygon class="cls-3" points="35.6 63.49 58.78 50.11 65.81 54.16 42.63 67.55 35.6 63.49"/><polygon class="cls-3" points="35.34 71.75 30.57 74.5 25.35 74.5 23.55 73.46 26.52 71.75 35.34 71.75"/><path class="cls-3" d="M224.79,2490.23l-17.89,10.33h-2.77l-4.25-2.45,0.39-.23,0.39-.23,0.39-.23,0.39-.23,0.39-.23,0.39-.23,0.39-.23,0.39-.23,0.39-.23,0.39-.23,0.39-.23,0.39-.23,0.39-.23,0.39-.23,0.39-.23,0.39-.23,0.39-.23,0.39-.23,0.39-.23,0.39-.23,0.39-.23,0.39-.23,0.39-.23,0.39-.23,0.39-.23,0.39-.23,0.39-.23,0.39-.23,0.39-.23,0.39-.23,0.39-.23,0.39-.23h0l0.14-.08,0.14-.08,0.14-.08,0.14-.08,0.14-.08,0.14-.08,0.14-.08,0.14-.08h11.27Z" transform="translate(-169.5 -2430)"/><polygon class="cls-4" points="25.35 74.5 25.35 33.48 23.55 32.44 23.55 73.46 25.35 74.5"/><polygon class="cls-5" points="25.35 74.5 25.35 33.48 28.32 31.77 28.32 72.79 25.35 74.5"/><polygon class="cls-3" points="62.84 55.88 57.62 55.88 55.82 54.84 58.78 53.12 64 53.12 65.81 54.16 62.84 55.88"/><polygon class="cls-6" points="57.62 55.88 57.62 24.24 60.58 22.53 60.58 54.16 57.62 55.88"/><polygon class="cls-7" points="25.35 77.52 18.33 73.47 18.33 75.34 25.35 79.4 25.35 77.52"/><polygon class="cls-8" points="25.35 79.4 25.35 77.52 65.81 54.16 65.81 56.04 25.35 79.4"/><polygon class="cls-9" points="47.15 52.74 42.9 50.28 42.9 52 47.15 54.45 47.15 52.74"/><polygon class="cls-3" points="34.63 61.68 30.38 59.23 42.9 52 47.15 54.45 34.63 61.68"/><polygon class="cls-10" points="34.63 70.56 34.63 65.03 34.63 61.68 34.63 58.26 40.47 54.89 40.47 58.31 47.15 54.45 47.15 52.74 42.63 55.35 42.63 50.57 48.27 47.31 48.27 52.09 48.27 53.81 48.27 62.69 47.15 63.33 47.15 63.33 34.63 70.56"/><polygon class="cls-7" points="34.63 58.26 30.38 55.8 30.38 68.11 34.63 70.56 34.63 58.26"/><polygon class="cls-11" points="42.63 50.57 38.37 48.11 38.37 52.9 42.63 55.35 42.63 50.57"/><polygon class="cls-2" points="42.63 50.57 38.37 48.11 44.02 44.85 48.27 47.31 42.63 50.57"/><polygon class="cls-12" points="42.63 55.35 42.63 50.57 48.27 47.31 48.27 52.09 42.63 55.35"/><polygon class="cls-13" points="43.43 54.21 43.43 50.78 47.46 48.45 47.46 51.88 43.43 54.21"/><polygon class="cls-14" points="43.98 53.42 43.98 50.93 46.91 49.24 46.91 51.73 43.98 53.42"/><polygon class="cls-2" points="34.63 58.26 30.38 55.8 36.02 52.55 40.27 55 34.63 58.26"/><polygon class="cls-3" points="34.63 58.26 30.38 55.8 36.02 52.55 40.27 55 34.63 58.26"/><polygon class="cls-14" points="37.02 57.7 38.08 57.09 38.08 67.68 37.02 68.29 37.02 57.7"/><polygon class="cls-14" points="38.48 56.85 39.55 56.24 39.55 66.83 38.48 67.44 38.48 56.85"/><polygon class="cls-15" points="38.48 56.85 39.55 56.24 39.55 63.51 38.48 64.13 38.48 56.85"/><polygon class="cls-16" points="38.48 64.42 39.55 63.8 39.55 66.83 38.48 67.44 38.48 64.42"/><path class="cls-15" d="M208.73,2488.55a4.46,4.46,0,0,0,.48,2.14,4.08,4.08,0,0,1,.55,1.91,1.79,1.79,0,0,1-.13.75h0a0.77,0.77,0,0,1-.55.47,1.42,1.42,0,0,1-.86-0.14l0.17-.38a1,1,0,0,0,.61.12,0.38,0.38,0,0,0,.26-0.23h0a1.39,1.39,0,0,0,.09-0.57,3.61,3.61,0,0,0-.48-1.68,4.85,4.85,0,0,1-.55-2.36h0.42Z" transform="translate(-169.5 -2430)"/><path class="cls-17" d="M208.43,2487l0.18-.11a0.1,0.1,0,0,1,.16.1v0.82a0.36,0.36,0,0,1-.16.28l-0.18.11a0.1,0.1,0,0,1-.16-0.1v-0.82A0.35,0.35,0,0,1,208.43,2487Z" transform="translate(-169.5 -2430)"/><path class="cls-16" d="M208.4,2487.63l0.24-.14a0.13,0.13,0,0,1,.21.13v1.09a0.47,0.47,0,0,1-.21.37l-0.24.14a0.13,0.13,0,0,1-.21-0.13V2488A0.47,0.47,0,0,1,208.4,2487.63Z" transform="translate(-169.5 -2430)"/><path class="cls-13" d="M208.52,2488.27a0.15,0.15,0,0,1,.24.15,0.54,0.54,0,0,1-.24.42,0.15,0.15,0,0,1-.24-0.15A0.54,0.54,0,0,1,208.52,2488.27Z" transform="translate(-169.5 -2430)"/><polygon class="cls-15" points="37.02 57.7 38.08 57.09 38.08 64.36 37.02 64.97 37.02 57.7"/><polygon class="cls-18" points="37.02 65.26 38.08 64.65 38.08 67.68 37.02 68.29 37.02 65.26"/><path class="cls-15" d="M207.26,2489.4a4.46,4.46,0,0,0,.48,2.14,4.08,4.08,0,0,1,.55,1.91,1.79,1.79,0,0,1-.13.75h0a0.77,0.77,0,0,1-.55.47,1.42,1.42,0,0,1-.86-0.14l0.17-.38a1,1,0,0,0,.61.12,0.38,0.38,0,0,0,.26-0.23h0a1.38,1.38,0,0,0,.09-0.57,3.61,3.61,0,0,0-.48-1.68,4.85,4.85,0,0,1-.55-2.37h0.42Z" transform="translate(-169.5 -2430)"/><path class="cls-19" d="M207,2487.86l0.18-.1a0.1,0.1,0,0,1,.16.1v0.82a0.35,0.35,0,0,1-.16.28l-0.18.11a0.1,0.1,0,0,1-.16-0.1v-0.82A0.36,0.36,0,0,1,207,2487.86Z" transform="translate(-169.5 -2430)"/><path class="cls-18" d="M206.93,2488.48l0.24-.14a0.13,0.13,0,0,1,.21.13v1.09a0.47,0.47,0,0,1-.21.37l-0.24.14a0.13,0.13,0,0,1-.21-0.13v-1.09A0.47,0.47,0,0,1,206.93,2488.48Z" transform="translate(-169.5 -2430)"/><path class="cls-13" d="M207,2489.12a0.15,0.15,0,0,1,.24.15,0.54,0.54,0,0,1-.24.42,0.15,0.15,0,0,1-.24-0.15A0.54,0.54,0,0,1,207,2489.12Z" transform="translate(-169.5 -2430)"/><polygon class="cls-15" points="35.55 58.55 36.61 57.93 36.61 65.21 35.55 65.82 35.55 58.55"/><polygon class="cls-20" points="35.55 66.11 36.61 65.5 36.61 68.53 35.55 69.14 35.55 66.11"/><path class="cls-15" d="M205.79,2490.25a4.45,4.45,0,0,0,.48,2.14,4.08,4.08,0,0,1,.55,1.91,1.78,1.78,0,0,1-.13.75h0a0.78,0.78,0,0,1-.55.47,1.42,1.42,0,0,1-.86-0.14l0.17-.38a1,1,0,0,0,.61.12,0.38,0.38,0,0,0,.26-0.23h0a1.37,1.37,0,0,0,.09-0.57,3.61,3.61,0,0,0-.48-1.68,4.84,4.84,0,0,1-.55-2.36h0.42Z" transform="translate(-169.5 -2430)"/><path class="cls-21" d="M205.49,2488.71l0.18-.11a0.1,0.1,0,0,1,.16.1v0.82a0.35,0.35,0,0,1-.16.28l-0.18.11a0.1,0.1,0,0,1-.16-0.1V2489A0.36,0.36,0,0,1,205.49,2488.71Z" transform="translate(-169.5 -2430)"/><path class="cls-20" d="M205.46,2489.32l0.24-.14a0.13,0.13,0,0,1,.21.13v1.09a0.47,0.47,0,0,1-.21.37l-0.24.14a0.13,0.13,0,0,1-.21-0.13v-1.09A0.47,0.47,0,0,1,205.46,2489.32Z" transform="translate(-169.5 -2430)"/><path class="cls-13" d="M205.58,2490a0.15,0.15,0,0,1,.24.15,0.54,0.54,0,0,1-.24.42,0.15,0.15,0,0,1-.24-0.15A0.54,0.54,0,0,1,205.58,2490Z" transform="translate(-169.5 -2430)"/><path class="cls-22" d="M202,2490.76l0.8,1.38c0.44,0.76.44,1.59,0,1.84h0c-0.44.25-1.15-.16-1.59-0.92h0c-0.44-.76-0.44-1.59,0-1.84Z" transform="translate(-169.5 -2430)"/><path class="cls-23" d="M202,2491.22l0.58,1a1,1,0,0,1,0,1.33h0a1,1,0,0,1-1.15-.66h0a1,1,0,0,1,0-1.33Z" transform="translate(-169.5 -2430)"/><path class="cls-23" d="M199.88,2492.31l0.84,0.48a3.56,3.56,0,0,0,.23.49h0c0.58,1,1.53,1.55,2.11,1.22h0a0.74,0.74,0,0,0,.23-0.22l0.84,0.48v5.8l-4.25-2.45v-5.8Z" transform="translate(-169.5 -2430)"/><path class="cls-22" d="M204.13,2494.25l-0.67-.39a1.6,1.6,0,0,0,0-.27l0.64,0.37v0.29h0Zm-4.25-2.75v0.29l0.67,0.39a2.35,2.35,0,0,1,0-.31Z" transform="translate(-169.5 -2430)"/><polygon class="cls-4" points="57.62 55.88 57.62 14.85 55.82 13.81 55.82 54.84 57.62 55.88"/><polygon class="cls-2" points="34.63 58.26 30.38 55.8 31.52 55.14 35.78 57.6 34.63 58.26"/><polygon class="cls-2" points="63.28 99.42 56.26 95.36 96.71 72.01 103.73 76.06 63.28 99.42"/><polygon class="cls-3" points="73.53 85.39 96.71 72.01 103.73 76.06 80.56 89.44 73.53 85.39"/><polygon class="cls-3" points="73.27 93.65 68.5 96.4 63.28 96.4 61.48 95.36 64.45 93.65 73.27 93.65"/><path class="cls-3" d="M262.72,2512.13l-17.89,10.33h-2.77l-4.25-2.45,0.39-.23,0.39-.23,0.39-.23,0.39-.23,0.39-.23,0.39-.23,0.39-.23,0.39-.23,0.39-.23,0.39-.23,0.39-.23,0.39-.23,0.39-.23,0.39-.23,0.39-.23,0.39-.23,0.39-.23,0.39-.23,0.39-.23,0.39-.23,0.39-.23,0.39-.23,0.39-.23,0.39-.23,0.39-.23,0.39-.23,0.39-.23,0.39-.23,0.39-.23,0.39-.23,0.39-.23,0.39-.23h0l0.14-.08,0.14-.08,0.14-.08,0.14-.08,0.14-.08,0.14-.08,0.14-.08,0.14-.08h11.27Z" transform="translate(-169.5 -2430)"/><polygon class="cls-4" points="63.28 96.4 63.28 55.38 61.48 54.34 61.48 95.36 63.28 96.4"/><polygon class="cls-24" points="63.28 96.4 63.28 55.38 66.25 53.66 66.25 94.69 63.28 96.4"/><polygon class="cls-3" points="100.77 77.78 95.55 77.78 93.75 76.73 96.71 75.02 101.93 75.02 103.73 76.06 100.77 77.78"/><polygon class="cls-25" points="95.55 77.78 95.55 46.14 98.51 44.43 98.51 76.06 95.55 77.78"/><polygon class="cls-7" points="63.28 99.42 56.26 95.36 56.26 97.24 63.28 101.3 63.28 99.42"/><polygon class="cls-26" points="63.28 101.3 63.28 99.42 103.73 76.06 103.73 77.94 63.28 101.3"/><polygon class="cls-27" points="85.08 74.64 80.83 72.18 80.83 73.89 85.08 76.35 85.08 74.64"/><polygon class="cls-3" points="72.56 83.58 68.31 81.13 80.83 73.89 85.08 76.35 72.56 83.58"/><polygon class="cls-28" points="72.56 92.46 72.56 86.93 72.56 83.58 72.56 80.16 78.39 76.79 78.39 80.21 85.08 76.35 85.08 74.64 80.56 77.25 80.56 72.47 86.19 69.21 86.19 73.99 86.19 75.71 86.19 84.59 85.08 85.23 85.08 85.23 72.56 92.46"/><polygon class="cls-7" points="72.56 80.16 68.31 77.7 68.31 90.01 72.56 92.46 72.56 80.16"/><polygon class="cls-29" points="80.56 72.47 76.3 70.01 76.3 74.8 80.56 77.25 80.56 72.47"/><polygon class="cls-2" points="80.56 72.47 76.3 70.01 81.94 66.75 86.19 69.21 80.56 72.47"/><polygon class="cls-30" points="80.56 77.25 80.56 72.47 86.19 69.21 86.19 73.99 80.56 77.25"/><polygon class="cls-13" points="81.36 76.11 81.36 72.68 85.39 70.35 85.39 73.78 81.36 76.11"/><polygon class="cls-14" points="81.91 75.32 81.91 72.83 84.84 71.14 84.84 73.63 81.91 75.32"/><polygon class="cls-2" points="72.56 80.16 68.31 77.7 73.95 74.45 78.2 76.9 72.56 80.16"/><polygon class="cls-3" points="72.56 80.16 68.31 77.7 73.95 74.45 78.2 76.9 72.56 80.16"/><polygon class="cls-14" points="74.94 79.6 76.01 78.98 76.01 89.58 74.94 90.19 74.94 79.6"/><polygon class="cls-14" points="76.41 78.75 77.47 78.14 77.47 88.73 76.41 89.34 76.41 78.75"/><polygon class="cls-15" points="76.41 78.75 77.47 78.14 77.47 85.41 76.41 86.03 76.41 78.75"/><polygon class="cls-16" points="76.41 86.31 77.47 85.7 77.47 88.73 76.41 89.34 76.41 86.31"/><path class="cls-15" d="M246.65,2510.45a4.45,4.45,0,0,0,.48,2.14,4.08,4.08,0,0,1,.55,1.91,1.79,1.79,0,0,1-.13.75h0a0.78,0.78,0,0,1-.55.47,1.42,1.42,0,0,1-.86-0.14l0.17-.38a1,1,0,0,0,.61.12,0.38,0.38,0,0,0,.26-0.23h0a1.39,1.39,0,0,0,.09-0.57,3.61,3.61,0,0,0-.48-1.68,4.85,4.85,0,0,1-.55-2.37h0.42Z" transform="translate(-169.5 -2430)"/><path class="cls-17" d="M246.35,2508.91l0.18-.1a0.1,0.1,0,0,1,.16.1v0.82a0.36,0.36,0,0,1-.16.28l-0.18.1a0.1,0.1,0,0,1-.16-0.1v-0.82A0.35,0.35,0,0,1,246.35,2508.91Z" transform="translate(-169.5 -2430)"/><path class="cls-16" d="M246.32,2509.53l0.24-.14a0.13,0.13,0,0,1,.21.13v1.09a0.47,0.47,0,0,1-.21.37l-0.24.14a0.13,0.13,0,0,1-.21-0.13v-1.09A0.47,0.47,0,0,1,246.32,2509.53Z" transform="translate(-169.5 -2430)"/><path class="cls-13" d="M246.45,2510.17a0.15,0.15,0,0,1,.24.15,0.54,0.54,0,0,1-.24.42,0.15,0.15,0,0,1-.24-0.15A0.54,0.54,0,0,1,246.45,2510.17Z" transform="translate(-169.5 -2430)"/><polygon class="cls-15" points="74.94 79.6 76.01 78.98 76.01 86.26 74.94 86.87 74.94 79.6"/><polygon class="cls-18" points="74.94 87.16 76.01 86.55 76.01 89.58 74.94 90.19 74.94 87.16"/><path class="cls-15" d="M245.19,2511.3a4.46,4.46,0,0,0,.48,2.14,4.08,4.08,0,0,1,.55,1.91,1.78,1.78,0,0,1-.13.75h0a0.78,0.78,0,0,1-.55.47,1.42,1.42,0,0,1-.86-0.14l0.17-.38a1,1,0,0,0,.61.12,0.38,0.38,0,0,0,.26-0.23h0a1.38,1.38,0,0,0,.09-0.57,3.61,3.61,0,0,0-.48-1.68,4.85,4.85,0,0,1-.55-2.36h0.42Z" transform="translate(-169.5 -2430)"/><path class="cls-19" d="M244.89,2509.76l0.18-.11a0.1,0.1,0,0,1,.16.1v0.82a0.35,0.35,0,0,1-.16.28l-0.18.11a0.1,0.1,0,0,1-.16-0.1V2510A0.35,0.35,0,0,1,244.89,2509.76Z" transform="translate(-169.5 -2430)"/><path class="cls-18" d="M244.86,2510.38l0.24-.14a0.13,0.13,0,0,1,.21.13v1.09a0.47,0.47,0,0,1-.21.37l-0.24.14a0.13,0.13,0,0,1-.21-0.13v-1.09A0.47,0.47,0,0,1,244.86,2510.38Z" transform="translate(-169.5 -2430)"/><path class="cls-13" d="M245,2511a0.15,0.15,0,0,1,.24.15,0.54,0.54,0,0,1-.24.42,0.15,0.15,0,0,1-.24-0.15A0.54,0.54,0,0,1,245,2511Z" transform="translate(-169.5 -2430)"/><polygon class="cls-15" points="73.48 80.44 74.54 79.83 74.54 87.11 73.48 87.72 73.48 80.44"/><polygon class="cls-20" points="73.48 88.01 74.54 87.39 74.54 90.42 73.48 91.04 73.48 88.01"/><path class="cls-15" d="M243.72,2512.15a4.46,4.46,0,0,0,.48,2.14,4.08,4.08,0,0,1,.55,1.91,1.78,1.78,0,0,1-.13.75h0a0.78,0.78,0,0,1-.55.47,1.42,1.42,0,0,1-.86-0.14l0.17-.38a1,1,0,0,0,.61.12,0.38,0.38,0,0,0,.26-0.23h0a1.37,1.37,0,0,0,.09-0.57,3.59,3.59,0,0,0-.48-1.68,4.85,4.85,0,0,1-.55-2.36h0.42Z" transform="translate(-169.5 -2430)"/><path class="cls-21" d="M243.42,2510.6l0.18-.1a0.1,0.1,0,0,1,.16.1v0.82a0.36,0.36,0,0,1-.16.28l-0.18.11a0.1,0.1,0,0,1-.16-0.1v-0.82A0.36,0.36,0,0,1,243.42,2510.6Z" transform="translate(-169.5 -2430)"/><path class="cls-20" d="M243.39,2511.22l0.24-.14a0.13,0.13,0,0,1,.21.13v1.09a0.47,0.47,0,0,1-.21.37l-0.24.14a0.13,0.13,0,0,1-.21-0.13v-1.09A0.47,0.47,0,0,1,243.39,2511.22Z" transform="translate(-169.5 -2430)"/><path class="cls-13" d="M243.51,2511.86a0.15,0.15,0,0,1,.24.15,0.54,0.54,0,0,1-.24.42,0.15,0.15,0,0,1-.24-0.15A0.54,0.54,0,0,1,243.51,2511.86Z" transform="translate(-169.5 -2430)"/><path class="cls-22" d="M239.93,2512.66l0.8,1.38c0.44,0.76.44,1.59,0,1.84h0c-0.44.25-1.15-.16-1.59-0.92h0c-0.44-.76-0.44-1.59,0-1.84Z" transform="translate(-169.5 -2430)"/><path class="cls-23" d="M239.93,2513.12l0.58,1a1,1,0,0,1,0,1.33h0a1,1,0,0,1-1.15-.66h0a1,1,0,0,1,0-1.33Z" transform="translate(-169.5 -2430)"/><path class="cls-23" d="M237.81,2514.21l0.84,0.48a3.59,3.59,0,0,0,.23.49h0c0.58,1,1.53,1.55,2.11,1.22h0a0.75,0.75,0,0,0,.23-0.22l0.84,0.48v5.8l-4.25-2.45v-5.8Z" transform="translate(-169.5 -2430)"/><path class="cls-22" d="M242.06,2516.14l-0.67-.39a1.59,1.59,0,0,0,0-.27l0.64,0.37v0.29h0Zm-4.25-2.75v0.29l0.67,0.39a2.34,2.34,0,0,1,0-.31Z" transform="translate(-169.5 -2430)"/><polygon class="cls-31" points="95.55 77.78 95.55 36.75 93.75 35.71 93.75 76.73 95.55 77.78"/><polygon class="cls-2" points="72.56 80.16 68.31 77.7 69.45 77.04 73.71 79.5 72.56 80.16"/><polygon class="cls-32" points="83.7 75.66 0 27.34 38.37 5.18 122.06 53.51 83.7 75.66"/><polygon class="cls-33" points="87.78 33.71 122.06 53.51 86.31 74.15 83.7 74.15 83.7 33.71 87.78 33.71"/><polygon class="cls-2" points="83.7 74.15 119.45 53.51 38.37 6.69 2.61 27.34 83.7 74.15"/><polygon class="cls-34" points="83.7 72.64 116.84 53.51 38.37 8.2 5.22 27.34 83.7 72.64"/><polygon class="cls-22" points="83.7 75.66 0 27.34 0 29.21 83.7 77.54 83.7 75.66"/><polygon class="cls-35" points="83.7 75.66 122.06 53.51 122.06 55.39 83.7 77.54 83.7 75.66"/><polygon class="cls-23" points="83.7 74.15 83.7 67.38 2.75 20.64 2.75 27.41 83.7 74.15"/><polygon class="cls-36" points="83.7 74.15 83.7 67.38 119.45 46.74 119.45 53.51 83.7 74.15"/><polygon class="cls-35" points="54.68 57.65 54.9 57.52 56.29 58.33 56.06 58.45 54.68 57.65"/><path class="cls-37" d="M225.79,2486.26v2.07l-1.42-.82-0.35-.92v-7l1.39,0.8,0.18,0.47a1.68,1.68,0,0,1,.44-0.07,1.49,1.49,0,0,1,.73.24,2.92,2.92,0,0,1,1.2,1.4l0.1,0.24,0.38,1,0.09,0.25,0.07,0.26,0.06,0.27,0,0.28,0,0.28,0,0.29v0.6l0,0.27,0,0.25-0.06.22-0.08.2-0.09.17-0.11.15-0.13.12-0.14.1-0.15.07-0.16,0h-0.16l-0.17,0-0.18,0-0.19-.07-0.19-.1-0.08,0-0.08-.05-0.08-.05-0.07-.05-0.07-.05-0.07-.06-0.07-.06-0.06-.06-0.06-.06-0.06-.06-0.06-.07-0.07-.07-0.07-.07-0.07-.08-0.07-.08-0.07-.08h0Zm1.15-3,0-.05-0.08-.08-0.09-.08-0.1-.07a1.22,1.22,0,0,0-.66-0.23h-0.18v1.89l0.18,0.11a0.61,0.61,0,0,0,.76.05,1.45,1.45,0,0,0,.25-1,4.43,4.43,0,0,0,0-.55h0Zm6.6,7.44H232.9l-0.06,0-0.06,0-0.06,0-0.06,0-0.06,0-0.06,0-0.06,0-0.06,0-0.06,0-0.06,0-0.06,0-0.07,0-0.07,0-0.07,0-0.08,0-0.08,0-0.08,0-0.31-.19-0.29-.2-0.27-.21-0.25-.22-0.23-.23-0.21-.24-0.2-.25-0.18-.27-0.16-.27-0.14-.28-0.12-.29-0.33-.88-0.05-.13a4.46,4.46,0,0,1-.26-1.53,1.8,1.8,0,0,1,.63-1.65,1.72,1.72,0,0,1,1.75.26,4,4,0,0,1,1.54,1.53,12.58,12.58,0,0,1,.61,1.49l0.09,0.25,0.07,0.26,0.06,0.27,0,0.28,0,0.28v0.87l-0.4-.23,0.31,0.83v1.33h0Zm-0.71-2.38-2.26-1.3v0.18h0l0,0a2.44,2.44,0,0,0,.42.44,3.68,3.68,0,0,0,.52.36,2.36,2.36,0,0,0,.48.21,1.79,1.79,0,0,0,.43.08h0.37Zm-1-2.47-0.06-.07-0.08-.07-0.08-.07-0.09-.06-0.1-.06-0.1-.05-0.09,0-0.09,0a0.49,0.49,0,0,0-.3,0l0,0,1,0.6c0-.06,0-0.11,0-0.17h0Zm5.28,7.17v-1.13l-0.38-1-0.12-.07a0.91,0.91,0,0,1-.25,0,1.24,1.24,0,0,1-.29-0.11,1.73,1.73,0,0,1-.29-0.2v-2.18l1.34,0.77v-1.11l-0.38-1-1-.55v-0.68l-0.38-1-1.39-.8v1.47l-0.53-.31v1.12l0.38,1,0.14,0.08v1.62a3.13,3.13,0,0,0,.22,1.21l0.38,1,0.08,0.17,0.09,0.16,0.1,0.15,0.12,0.15,0.13,0.15,0.15,0.14,0.16,0.14,0.18,0.13,0.19,0.13,0.2,0.12,0.09,0.05,0.09,0,0.08,0,0.08,0,0.08,0,0.07,0,0.07,0,0.06,0,0.06,0,0.06,0,0.06,0,0.06,0,0.06,0,0.06,0,0.06,0,0.06,0h0Zm3.38-1.73h0Zm0,0.09h0l0,0,0,0,0,0,0,0,0,0,0,0,0,0,0,0,0,0,0,0,0,0,0,0,0,0-0.06,0-0.06,0-0.06,0-0.06,0-0.06,0-0.06,0-0.06,0-0.06,0-0.06,0h-0.41v3.44l-1.39-.8-0.38-1v-5.13l1.39,0.8,0.24,0.64h0a1.51,1.51,0,0,1,.31-0.07,1.25,1.25,0,0,1,.35,0,1.22,1.22,0,0,1,.38.14l0.15,0.09,0.15,0.1,0.38,1v0.54a1.09,1.09,0,0,1,.42-0.52,1.67,1.67,0,0,1,1.7.25,4.46,4.46,0,0,1,1.7,1.71,4.63,4.63,0,0,1,.26.55l0.06,0.17,0.32,0.84,0.1,0.28,0.09,0.29,0.07,0.3,0,0.3,0,0.31v0.62l0,0.28,0,0.25-0.07.22-0.08.19-0.1.16-0.12.14-0.14.11-0.16.08-0.17,0-0.19,0-0.2,0-0.22,0-0.24-.08-0.25-.11-0.27-.14-0.27-.16-0.25-.18-0.23-.19-0.22-.21-0.2-.22-0.19-.23-0.17-.25-0.16-.26-0.14-.27-0.12-.28-0.38-1a4.74,4.74,0,0,1-.34-1.79c0-.1,0-0.19,0-0.28h0Zm3.12,1.43,0,0,0,0,0,0,0,0,0,0,0,0,0,0,0,0,0,0,0,0,0,0,0,0,0,0,0,0,0,0h-0.34l0,0,0,0,0,0,0,0,0,0,0,0,0,0,0,0,0,0.06,0,0.06,0,0.06,0,0.07v1.33l0.09,0.11a1.63,1.63,0,0,0,.37.3,0.85,0.85,0,0,0,.34.11,0.33,0.33,0,0,0,.28-0.09,0.8,0.8,0,0,0,.19-0.36,3.08,3.08,0,0,0,.06-0.73,4.53,4.53,0,0,0,0-.69h0Zm4,6.3-1.39-.8-0.38-1v-7.12l1.39,0.8,0.38,1v7.12Z" transform="translate(-169.5 -2430)"/><polygon class="cls-38" points="112.49 48.77 113.43 48.23 113.43 41.21 112.49 41.75 112.49 48.77"/><polygon class="cls-2" points="111.11 41.49 112.04 40.95 111.96 40.83 111.89 40.72 111.81 40.6 111.73 40.5 111.65 40.39 111.57 40.29 111.5 40.19 111.42 40.1 111.33 40.01 111.25 39.92 111.16 39.84 111.07 39.76 110.98 39.69 110.88 39.62 110.78 39.55 110.68 39.49 110.49 39.39 110.32 39.32 110.15 39.28 109.99 39.27 109.85 39.28 109.72 39.33 108.78 39.87 108.92 39.82 109.06 39.81 109.22 39.82 109.38 39.86 109.56 39.93 109.75 40.03 109.85 40.09 109.95 40.16 110.05 40.23 110.14 40.3 110.23 40.38 110.32 40.46 110.4 40.55 110.48 40.64 110.56 40.73 110.64 40.83 110.72 40.93 110.8 41.04 110.88 41.14 110.95 41.26 111.03 41.37 111.11 41.49"/><polygon class="cls-2" points="112.49 41.75 113.43 41.21 112.04 40.41 111.11 40.95 112.49 41.75"/><polygon class="cls-2" points="111.11 44.92 112.04 44.38 112.01 44.37 111.98 44.37 111.95 44.37 111.92 44.36 111.89 44.35 111.86 44.34 111.83 44.33 111.8 44.31 111.76 44.3 111.73 44.28 111.69 44.27 111.65 44.25 111.61 44.23 111.57 44.2 111.52 44.18 111.48 44.15 111.36 44.08 111.24 43.99 111.13 43.9 111.03 43.8 110.94 43.7 110.86 43.58 110.79 43.46 110.72 43.34 110.67 43.2 110.61 43.06 110.57 42.91 110.54 42.75 110.51 42.59 110.49 42.41 110.48 42.23 110.47 42.04 110.48 41.86 110.49 41.7 110.5 41.55 110.53 41.42 110.55 41.31 110.59 41.21 110.63 41.13 110.68 41.07 110.73 41.02 109.8 41.56 109.74 41.61 109.7 41.67 109.66 41.75 109.62 41.85 109.59 41.96 109.57 42.09 109.55 42.24 109.55 42.4 109.54 42.58 109.55 42.77 109.56 42.95 109.58 43.12 109.6 43.29 109.64 43.45 109.68 43.6 109.73 43.74 109.79 43.87 109.85 44 109.93 44.12 110.01 44.23 110.1 44.34 110.2 44.44 110.31 44.53 110.42 44.62 110.55 44.69 110.59 44.72 110.63 44.74 110.68 44.77 110.72 44.79 110.75 44.8 110.79 44.82 110.83 44.84 110.86 44.85 110.89 44.87 110.93 44.88 110.96 44.89 110.99 44.9 111.02 44.9 111.05 44.91 111.08 44.91 111.11 44.92"/><polygon class="cls-2" points="106.03 41.76 106.96 41.22 106.92 41.24 106.88 41.25 106.83 41.26 106.79 41.27 106.74 41.27 106.69 41.27 106.64 41.27 106.59 41.27 106.53 41.26 106.47 41.24 106.42 41.23 106.36 41.2 106.3 41.18 106.23 41.16 106.17 41.13 106.1 41.1 106.03 41.06 105.97 41.03 105.9 40.99 105.84 40.95 105.78 40.91 105.72 40.88 105.66 40.83 105.6 40.79 105.54 40.74 105.48 40.7 105.42 40.65 105.36 40.6 105.3 40.55 105.25 40.5 105.19 40.45 105.14 40.39 105.09 40.34 105.04 40.29 104.99 40.23 104.95 40.19 104.91 40.14 104.86 40.09 104.83 40.05 104.79 40 104.75 39.96 104.71 39.91 104.67 39.86 104.64 39.82 104.61 39.77 104.57 39.73 104.54 39.69 104.51 39.65 104.49 39.62 104.46 39.58 104.44 39.55 103.5 40.09 103.53 40.12 103.55 40.15 103.58 40.19 103.61 40.23 103.64 40.27 103.67 40.31 103.7 40.36 103.74 40.4 103.78 40.45 103.81 40.49 103.85 40.54 103.89 40.59 103.93 40.63 103.97 40.68 104.01 40.73 104.06 40.77 104.1 40.83 104.16 40.88 104.21 40.93 104.26 40.98 104.31 41.04 104.37 41.09 104.43 41.14 104.48 41.19 104.54 41.24 104.6 41.28 104.66 41.33 104.72 41.37 104.78 41.41 104.84 41.45 104.9 41.49 104.96 41.53 105.03 41.57 105.1 41.6 105.17 41.64 105.23 41.67 105.3 41.7 105.36 41.72 105.42 41.74 105.48 41.77 105.54 41.78 105.6 41.8 105.65 41.8 105.71 41.81 105.76 41.81 105.81 41.81 105.85 41.81 105.9 41.8 105.94 41.79 105.99 41.77 106.03 41.76"/><polygon class="cls-2" points="103.5 40.09 104.44 39.55 104.29 39.46 103.36 40 103.5 40.09"/><polygon class="cls-38" points="105.57 38.59 105.58 38.47 105.59 38.36 105.61 38.26 105.63 38.17 105.66 38.09 105.69 38.03 105.73 37.97 105.78 37.93 105.83 37.9 104.89 38.43 104.84 38.47 104.8 38.51 104.76 38.57 104.72 38.63 104.7 38.71 104.67 38.8 104.66 38.9 104.64 39.01 104.64 39.13 106.33 40.1 107.26 39.57 105.57 38.59"/><polygon class="cls-39" points="107.04 43.18 107.97 42.65 108.13 42.55 108.27 42.43 108.38 42.28 108.48 42.09 108.55 41.88 108.61 41.63 108.64 41.36 108.65 41.05 108.64 40.74 108.61 40.43 108.56 40.13 108.49 39.83 108.4 39.54 108.29 39.25 108.17 38.96 108.02 38.68 107.86 38.41 107.67 38.16 107.48 37.91 107.27 37.69 107.04 37.47 106.8 37.27 106.54 37.09 106.27 36.92 106.02 36.79 105.78 36.68 105.57 36.61 105.37 36.56 105.18 36.54 105.02 36.56 104.86 36.6 104.72 36.67 103.79 37.21 103.93 37.14 104.08 37.1 104.25 37.08 104.44 37.1 104.64 37.15 104.85 37.22 105.08 37.33 105.33 37.46 105.61 37.63 105.86 37.81 106.11 38.01 106.33 38.22 106.55 38.45 106.74 38.69 106.92 38.95 107.09 39.22 107.23 39.5 107.36 39.79 107.47 40.08 107.56 40.37 107.63 40.67 107.67 40.97 107.7 41.28 107.71 41.59 107.7 41.9 107.67 42.17 107.62 42.42 107.55 42.63 107.45 42.82 107.33 42.97 107.2 43.09 107.04 43.18"/><polygon class="cls-38" points="102.09 40.58 103.03 40.04 103.12 39.99 103.2 39.91 103.26 39.81 103.32 39.68 103.36 39.53 103.39 39.36 103.41 39.17 103.42 38.95 103.42 36.55 102.48 37.09 102.48 39.49 102.48 39.71 102.46 39.9 102.43 40.07 102.39 40.22 102.33 40.34 102.26 40.45 102.19 40.53 102.09 40.58"/><polygon class="cls-38" points="103.01 37.39 103.94 36.85 103.94 35.74 103.01 36.28 103.01 37.39"/><polygon class="cls-2" points="103.01 36.28 103.94 35.74 103.42 35.43 102.48 35.97 103.01 36.28"/><polygon class="cls-38" points="102.48 35.97 103.42 35.43 103.42 33.96 102.48 34.5 102.48 35.97"/><polygon class="cls-2" points="102.48 34.5 103.42 33.96 102.03 33.16 101.09 33.7 102.48 34.5"/><polygon class="cls-38" points="99.2 39.21 100.13 38.67 100.13 33.54 99.2 34.08 99.2 39.21"/><polygon class="cls-2" points="100.92 39.02 101.86 38.48 101.83 38.49 101.8 38.5 101.76 38.51 101.73 38.51 101.69 38.5 101.64 38.49 101.59 38.48 101.54 38.46 101.48 38.43 101.42 38.4 101.35 38.36 101.32 38.35 101.29 38.33 101.26 38.3 101.22 38.28 101.19 38.25 101.15 38.21 101.11 38.18 101.06 38.14 101.02 38.1 100.98 38.06 100.94 38.03 100.91 38 100.88 37.97 100.85 37.94 100.83 37.91 100.81 37.89 99.88 38.43 99.89 38.45 99.92 38.48 99.94 38.51 99.97 38.54 100.01 38.57 100.04 38.6 100.08 38.64 100.13 38.68 100.17 38.72 100.21 38.75 100.25 38.79 100.29 38.81 100.33 38.84 100.36 38.87 100.39 38.89 100.42 38.9 100.48 38.94 100.55 38.97 100.6 39 100.66 39.02 100.71 39.03 100.75 39.04 100.79 39.05 100.83 39.05 100.86 39.04 100.89 39.03 100.92 39.02"/><polygon class="cls-2" points="99.88 38.43 100.81 37.89 100.69 37.82 99.75 38.36 99.88 38.43"/><polygon class="cls-2" points="101.09 35.17 102.03 34.63 100.69 33.86 99.75 34.4 101.09 35.17"/><polygon class="cls-40" points="95.4 36.45 96.33 35.91 96.48 35.8 96.6 35.66 96.7 35.5 96.79 35.31 96.85 35.09 96.9 34.84 96.93 34.56 96.94 34.26 96.93 33.95 96.9 33.63 96.85 33.33 96.79 33.03 96.7 32.74 96.6 32.46 96.48 32.18 96.33 31.91 96.18 31.65 96 31.4 95.81 31.17 95.61 30.95 95.39 30.74 95.15 30.55 94.9 30.37 94.64 30.21 94.37 30.06 94.12 29.95 93.89 29.88 93.67 29.83 93.46 29.81 93.27 29.83 93.1 29.88 92.94 29.96 92.01 30.5 92.17 30.42 92.34 30.37 92.53 30.35 92.73 30.37 92.95 30.41 93.19 30.49 93.44 30.6 93.71 30.75 93.97 30.91 94.22 31.09 94.46 31.28 94.67 31.49 94.88 31.71 95.07 31.94 95.24 32.19 95.4 32.45 95.54 32.72 95.67 33 95.77 33.28 95.86 33.57 95.92 33.87 95.97 34.17 96 34.48 96.01 34.8 96 35.1 95.97 35.38 95.92 35.63 95.86 35.85 95.77 36.04 95.67 36.2 95.54 36.34 95.4 36.45"/><polygon class="cls-41" points="97.81 34.01 98.75 33.47 98.72 33.43 98.69 33.39 98.66 33.34 98.63 33.29 98.6 33.24 98.56 33.19 98.52 33.13 98.48 33.07 98.44 33.01 98.4 32.95 98.36 32.89 98.32 32.84 98.28 32.78 98.25 32.73 98.21 32.69 98.17 32.64 98.14 32.6 98.09 32.55 98.05 32.5 98.01 32.45 97.97 32.4 97.92 32.36 97.87 32.31 97.82 32.26 97.77 32.21 97.72 32.17 97.67 32.13 97.63 32.09 97.58 32.05 97.53 32.02 97.49 31.99 97.44 31.96 97.42 31.96 97.41 31.95 97.39 31.94 97.37 31.93 97.35 31.92 97.33 31.91 97.31 31.89 97.29 31.88 97.27 31.87 97.25 31.86 97.23 31.85 97.21 31.84 97.19 31.83 97.17 31.83 97.16 31.82 97.14 31.81 96.21 32.35 96.22 32.36 96.24 32.37 96.26 32.37 96.28 32.38 96.3 32.39 96.32 32.4 96.34 32.41 96.36 32.42 96.38 32.43 96.4 32.44 96.42 32.45 96.44 32.47 96.45 32.48 96.47 32.48 96.49 32.49 96.51 32.5 96.55 32.53 96.6 32.56 96.64 32.59 96.69 32.63 96.74 32.67 96.79 32.71 96.84 32.75 96.89 32.8 96.94 32.85 96.98 32.9 97.03 32.94 97.08 32.99 97.12 33.04 97.16 33.09 97.2 33.14 97.24 33.18 97.28 33.23 97.31 33.27 97.35 33.32 97.39 33.38 97.42 33.43 97.47 33.49 97.51 33.54 97.55 33.6 97.59 33.67 97.63 33.73 97.66 33.78 97.7 33.83 97.73 33.88 97.76 33.93 97.79 33.97 97.81 34.01"/><polygon class="cls-2" points="99.2 34.08 100.13 33.54 98.75 32.74 97.81 33.28 99.2 34.08"/><polygon class="cls-2" points="94.28 35.12 95.22 34.58 95.19 34.6 95.15 34.61 95.11 34.62 95.08 34.63 95.04 34.63 95 34.63 94.96 34.63 94.91 34.62 94.87 34.61 94.82 34.59 94.77 34.57 94.73 34.55 94.68 34.53 94.63 34.5 94.59 34.48 94.54 34.45 94.5 34.42 94.46 34.38 94.42 34.35 94.37 34.31 94.33 34.27 94.29 34.22 94.25 34.17 94.2 34.13 94.17 34.08 94.13 34.03 94.1 33.98 94.07 33.92 94.04 33.87 94.01 33.82 93.98 33.75 93.95 33.68 93.93 33.61 93.9 33.54 93.88 33.46 93.86 33.39 93.84 33.31 93.82 33.24 93.81 33.16 93.8 33.07 93.78 32.98 93.78 32.88 93.77 32.78 93.76 32.67 93.76 32.55 93.76 32.44 93.76 32.33 93.76 32.22 93.77 32.12 93.78 32.03 93.79 31.94 93.8 31.86 93.81 31.79 93.83 31.72 93.84 31.65 93.86 31.59 93.88 31.54 93.9 31.49 93.93 31.44 93.95 31.4 93.98 31.37 94.01 31.34 94.04 31.31 94.07 31.28 94.1 31.26 93.17 31.8 93.14 31.82 93.1 31.85 93.07 31.88 93.05 31.91 93.02 31.94 92.99 31.98 92.97 32.03 92.95 32.08 92.93 32.13 92.91 32.19 92.89 32.26 92.88 32.33 92.86 32.4 92.85 32.48 92.84 32.57 92.83 32.66 92.83 32.76 92.83 32.87 92.83 32.98 92.83 33.09 92.83 33.21 92.83 33.32 92.84 33.42 92.85 33.52 92.86 33.61 92.87 33.69 92.89 33.77 92.91 33.85 92.92 33.93 92.94 34 92.97 34.08 92.99 34.15 93.02 34.22 93.05 34.29 93.08 34.35 93.1 34.41 93.13 34.46 93.16 34.52 93.2 34.57 93.23 34.62 93.27 34.67 93.31 34.71 93.35 34.76 93.4 34.8 93.44 34.85 93.48 34.88 93.53 34.92 93.57 34.95 93.61 34.99 93.65 35.01 93.69 35.04 93.74 35.07 93.79 35.09 93.84 35.11 93.89 35.13 93.93 35.15 93.98 35.16 94.02 35.16 94.06 35.17 94.11 35.17 94.14 35.17 94.18 35.16 94.22 35.15 94.25 35.14 94.28 35.12"/><polygon class="cls-38" points="90.67 34.29 91.61 33.75 91.61 26.63 90.67 27.17 90.67 34.29"/><polygon class="cls-2" points="90.67 27.17 91.61 26.63 90.22 25.83 89.29 26.37 90.67 27.17"/><path class="cls-42" d="M277.62,2471.73a5,5,0,0,0,.54,2.3,3.54,3.54,0,0,0,1.34,1.53,2.16,2.16,0,0,0,.58.25,1.8,1.8,0,0,0,.52,0V2478l1.39,0.8v-7l-1.39-.8v0.54a7.83,7.83,0,0,0-.62-0.85,2.83,2.83,0,0,0-.73-0.61,0.89,0.89,0,0,0-1.2,0,2.53,2.53,0,0,0-.43,1.68h0Zm1.42,0.85a1.58,1.58,0,0,1,.2-1,0.47,0.47,0,0,1,.63,0,2,2,0,0,1,.37.28,3.22,3.22,0,0,1,.36.42v2.58a0.81,0.81,0,0,1-.24-0.06l-0.32-.16a1.82,1.82,0,0,1-.76-0.82,3,3,0,0,1-.25-1.29h0Zm-4.44.18a2.24,2.24,0,0,0,1.94.42,1.58,1.58,0,0,0,.67-1.59,4.75,4.75,0,0,0-.63-2.37,4.64,4.64,0,0,0-1.75-1.76,1.51,1.51,0,0,0-1.54-.25,1.74,1.74,0,0,0-.52,1.52v0.58l3,1.76a1.12,1.12,0,0,1-.13.52,0.45,0.45,0,0,1-.3.21,0.84,0.84,0,0,1-.42,0,2.66,2.66,0,0,1-.52-0.24,3.19,3.19,0,0,1-.48-0.34,4.45,4.45,0,0,1-.43-0.41l-0.32-.37-0.24-.32-0.15-.09v1.32l0.31,0.32c0.09,0.1.22,0.22,0.39,0.36s0.31,0.26.47,0.38a6,6,0,0,0,.59.38h0Zm-0.47-3.63a0.87,0.87,0,0,1,.21-0.66,0.53,0.53,0,0,1,.59.07,1.66,1.66,0,0,1,.64.65,2.07,2.07,0,0,1,.25.91l-1.69-1h0Zm-3.78,1.14a1.5,1.5,0,0,0,1.24.31,1.12,1.12,0,0,0,.39-1.09v-2.4l0.53,0.3v-1.11L272,2466v-1.47l-1.39-.8v1.47l-1.34-.77v1.11l1.34,0.77v1.82c0,0.18,0,.34,0,0.47a0.84,0.84,0,0,1-.06.33,0.23,0.23,0,0,1-.2.14,0.8,0.8,0,0,1-.41-0.14,1.89,1.89,0,0,1-.29-0.22,2.54,2.54,0,0,1-.25-0.25l-0.12-.07v1.13c0.15,0.13.31,0.26,0.48,0.39a7.14,7.14,0,0,0,.62.4h0Zm-4.65-6.41,0.11,0.07a0.93,0.93,0,0,1,.23.08l0.33,0.18a3,3,0,0,1,.46.34q0.24,0.21.47,0.44v3.44l1.39,0.8v-5.13l-1.39-.8V2464l-0.27-.41c-0.11-.17-0.22-0.31-0.31-0.42a4,4,0,0,0-.35-0.38,2,2,0,0,0-.38-0.29l-0.15-.08-0.15-.07v1.52h0Zm-4.8-1.72a4.72,4.72,0,0,0,.6,2.34,4.47,4.47,0,0,0,1.7,1.71,1.65,1.65,0,0,0,1.7.25,1.82,1.82,0,0,0,.6-1.65,4.71,4.71,0,0,0-.6-2.35,4.48,4.48,0,0,0-1.7-1.7,1.65,1.65,0,0,0-1.7-.25,1.83,1.83,0,0,0-.6,1.65h0Zm1.42,0.83a3.1,3.1,0,0,1,.07-0.72,0.83,0.83,0,0,1,.18-0.38,0.34,0.34,0,0,1,.28-0.11,0.9,0.9,0,0,1,.35.13,1.59,1.59,0,0,1,.34.26,1.55,1.55,0,0,1,.28.41,2.51,2.51,0,0,1,.19.6,4.19,4.19,0,0,1,.07.82,2.94,2.94,0,0,1-.07.72,0.82,0.82,0,0,1-.18.36,0.33,0.33,0,0,1-.28.1,0.92,0.92,0,0,1-.37-0.13,1.6,1.6,0,0,1-.34-0.28,1.52,1.52,0,0,1-.28-0.4,2.65,2.65,0,0,1-.19-0.58,4.22,4.22,0,0,1-.06-0.8h0Zm-3.54.51,1.39,0.8v-7.12l-1.39-.8v7.12Z" transform="translate(-169.5 -2430)"/><polygon class="cls-43" points="2.75 20.64 83.7 67.38 119.45 46.74 38.5 0 2.75 20.64"/><path class="cls-44" d="M246.22,2493.35l1.39,0.8h2.16l0.93-.54-0.17-.1-0.17-.1-0.17-.1-0.17-.1-0.17-.1-0.17-.1-0.17-.1-0.17-.1h-3.48l-0.27.16,0.66,0.38h0Zm-22.48-13,0.28-.16h1.49l0.17,0.1,0.17,0.1,0.17,0.1,0.17,0.1,0.17,0.1,0.17,0.1,0.17,0.1,0.17,0.1-0.18.11,0.09,0,0.14,0,0.14,0,0.13,0,0.13,0,0.13,0,0.12,0,0.12,0,0.12,0.05,0.12,0.05,0.11,0.05,0.11,0.06,0.11,0.06,0.11,0.06,0.18,0.11,0.14,0.1,0.11,0.1,0.08,0.09,0,0.08v0.08l0,0.07-0.05.06,0,0,0,0h0l-0.66.38-0.13-.08h0l-1.8-1h0l-0.43-.25-0.18-.11-1.2-.69-0.66-.38h0Zm6.54,3.78h0l1.26,0.73,0,0,1.19,0.68h0l0.22,0.13,0.62-.36,0,0,0,0,0,0,0,0v-0.12l0-.09-0.06-.1-0.09-.11-0.13-.12-0.17-.12-0.2-.13-0.24-.14-0.29-.16-0.29-.15-0.3-.14-0.31-.13-0.32-.12-0.32-.11-0.33-.1-0.34-.09-0.09,0-0.09,0-0.09,0-0.09,0-0.09,0-0.09,0-0.09,0-0.09,0-0.09,0-0.09,0h-0.51l-0.27.16,1.61,0.93h0Zm3.66,2.11-0.05,0h0l-0.13-.08-0.34-.2,0.46-.27H235l0.07,0,0.07,0,0.07,0,0.07,0,0.07,0,0.07,0,0.07,0,0.07,0H237l0.17,0.1,0.17,0.1,0.17,0.1,0.17,0.1,0.17,0.1,0.17,0.1,0.17,0.1,0.17,0.1-0.74.42,0.1,0.06,0.17,0.1,0.17,0.1,0.17,0.1-0.55.32h1.11L239,2488l0.17,0.1,0.17,0.1,0.17,0.1,0.17,0.1,0.17,0.1,0.17,0.1,0.17,0.1-0.25.14h0l0.08,0,0.08,0,0.07,0,0.07,0,0.07,0,0.06,0,0.06,0,0.06,0,0.06,0,0.07,0,0.07,0,0.07,0,0.07,0,0.07,0,0.07,0,0.07,0,0.07,0,0.06,0,0.06,0,0.06,0,0.06,0,0.05,0,0,0,0,0h0.28l-0.51.29h0l0.09,0,0.09,0,0.09,0,0.09,0,0.09,0,0.09,0,0.09,0,0.09,0,0.33,0.09,0.32,0.1,0.31,0.11,0.31,0.12,0.3,0.13,0.29,0.14,0.28,0.14,0.28,0.15,0.25,0.15,0.22,0.15,0.18,0.14,0.14,0.13,0.1,0.12,0.06,0.11,0,0.1v0.16l0,0,0,0,0,0,0,0,0,0-0.52.3-0.31-.18h0l-1.19-.69h0l-1.3-.75h0l-1.25-.72-0.33-.19-0.6-.35h0l-0.68-.39h0l-0.28-.16-1.11-.64-0.55-.32L237,2488Z" transform="translate(-169.5 -2430)"/><polygon class="cls-34" points="7.97 20.64 83.7 64.37 114.23 46.74 38.5 3.01 7.97 20.64"/><polygon class="cls-45" points="83.7 64.37 114.23 46.74 38.5 3.01 7.97 20.64 83.7 64.37"/><polygon class="cls-46" points="107.73 50.49 114.23 46.74 38.5 3.01 43.59 16.14 107.73 50.49"/><polygon class="cls-2" points="83.7 64.37 110.76 48.74 38.5 7.02 11.44 22.65 83.7 64.37"/><polygon class="cls-47" points="13.44 23.8 40.5 8.18 38.5 7.02 11.44 22.65 13.44 23.8"/><path class="cls-4" d="M228.39,2484.59a2.08,2.08,0,0,1-.54,1.67,1.11,1.11,0,0,1-1.34,0,3.21,3.21,0,0,1-.58-0.42,5.6,5.6,0,0,1-.52-0.57v2.14l-1.39-.8v-7l1.39,0.8v0.54a1.75,1.75,0,0,1,.63-0.13,1.48,1.48,0,0,1,.73.24,2.93,2.93,0,0,1,1.2,1.4,5.3,5.3,0,0,1,.43,2.18h0Zm-1.42-.79a3,3,0,0,0-.2-1.2,1.48,1.48,0,0,0-.63-0.7,1.26,1.26,0,0,0-.37-0.15,0.92,0.92,0,0,0-.36,0v2.58a1.81,1.81,0,0,0,.25.22l0.32,0.21a0.61,0.61,0,0,0,.76.05,1.45,1.45,0,0,0,.25-1h0Zm4.44,5.3a5.38,5.38,0,0,1-1.94-1.81,4.41,4.41,0,0,1-.67-2.37,1.8,1.8,0,0,1,.63-1.65,1.72,1.72,0,0,1,1.75.26,4,4,0,0,1,1.54,1.53,4.31,4.31,0,0,1,.52,2.12v0.58l-3.05-1.76a2.32,2.32,0,0,0,.13.67,2.23,2.23,0,0,0,.29.55,2.57,2.57,0,0,0,.42.44,3.64,3.64,0,0,0,.52.36,2.34,2.34,0,0,0,.48.21,1.82,1.82,0,0,0,.43.08,1.76,1.76,0,0,0,.32,0l0.24,0,0.15,0.08v1.33l-0.31,0a2.37,2.37,0,0,1-.39-0.09,4.47,4.47,0,0,1-.47-0.16,5.22,5.22,0,0,1-.59-0.3h0Zm0.47-3.09a2.07,2.07,0,0,0-.21-0.9,1.47,1.47,0,0,0-.59-0.61,0.61,0.61,0,0,0-.64-0.09,0.75,0.75,0,0,0-.25.62l1.69,1h0Zm3.78,5.51a3.42,3.42,0,0,1-1.24-1.12,2.88,2.88,0,0,1-.39-1.54v-2.4l-0.53-.31V2485l0.53,0.3v-1.47l1.39,0.8v1.47l1.34,0.77V2488l-1.34-.77v1.82c0,0.18,0,.34,0,0.48a1.49,1.49,0,0,0,.06.4,1.07,1.07,0,0,0,.2.37,1.45,1.45,0,0,0,.41.33,1.24,1.24,0,0,0,.29.11,0.91,0.91,0,0,0,.25,0l0.12,0.07V2492a3.66,3.66,0,0,1-.48-0.17,6,6,0,0,1-.62-0.32h0Zm4.65-1-0.12-.07a1.72,1.72,0,0,0-.23-0.18l-0.33-.21a2,2,0,0,0-.46-0.19,3.59,3.59,0,0,0-.47-0.1v3.44l-1.39-.8v-5.13l1.39,0.8v0.74l0.27-.1a1.47,1.47,0,0,1,.31-0.07,1.19,1.19,0,0,1,.35,0,1.21,1.21,0,0,1,.38.14l0.15,0.09,0.15,0.1v1.52h0Zm4.8,3.82a1.83,1.83,0,0,1-.6,1.65,1.65,1.65,0,0,1-1.7-.25,4.46,4.46,0,0,1-1.7-1.71,4.7,4.7,0,0,1-.6-2.34,1.82,1.82,0,0,1,.6-1.65,1.67,1.67,0,0,1,1.7.25,4.46,4.46,0,0,1,1.7,1.71,4.72,4.72,0,0,1,.6,2.35h0Zm-1.42-.81a4.25,4.25,0,0,0-.07-0.8,2.6,2.6,0,0,0-.18-0.59,1.61,1.61,0,0,0-.28-0.43,1.56,1.56,0,0,0-.35-0.28,1,1,0,0,0-.34-0.13,0.33,0.33,0,0,0-.28.09,0.77,0.77,0,0,0-.19.38,3,3,0,0,0-.07.74,4.06,4.06,0,0,0,.07.8,2.62,2.62,0,0,0,.18.56,1.55,1.55,0,0,0,.28.42,1.63,1.63,0,0,0,.37.3,0.86,0.86,0,0,0,.34.11,0.32,0.32,0,0,0,.28-0.09,0.8,0.8,0,0,0,.19-0.36,3,3,0,0,0,.06-0.73h0Zm3.54,4.6-1.39-.8v-7.12l1.39,0.8v7.12Z" transform="translate(-169.5 -2430)"/><polygon class="cls-48" points="54.97 51.44 55.9 50.9 55.98 50.87 56.06 50.85 56.14 50.83 56.21 50.81 56.29 50.79 56.37 50.78 56.45 50.78 56.53 50.77 56.61 50.78 56.69 50.79 56.78 50.81 56.87 50.83 56.96 50.87 57.06 50.91 57.16 50.95 57.26 51.01 57.45 51.13 57.63 51.27 57.8 51.42 57.95 51.59 58.09 51.77 58.23 51.97 58.35 52.18 58.46 52.41 58.56 52.66 58.65 52.91 58.72 53.17 58.78 53.43 58.83 53.71 58.86 53.99 58.88 54.29 58.89 54.59 58.88 54.88 58.85 55.16 58.81 55.4 58.75 55.62 58.68 55.82 58.59 55.99 58.47 56.14 58.35 56.26 58.21 56.36 57.27 56.9 57.41 56.8 57.54 56.68 57.65 56.53 57.74 56.36 57.82 56.16 57.88 55.94 57.92 55.69 57.95 55.42 57.96 55.13 57.95 54.83 57.93 54.53 57.9 54.25 57.85 53.97 57.79 53.71 57.72 53.45 57.63 53.2 57.53 52.95 57.42 52.72 57.3 52.51 57.16 52.31 57.02 52.12 56.86 51.96 56.7 51.81 56.52 51.67 56.33 51.55 56.23 51.49 56.13 51.45 56.03 51.4 55.94 51.37 55.85 51.34 55.76 51.33 55.68 51.32 55.59 51.31 55.52 51.32 55.44 51.32 55.36 51.33 55.28 51.35 55.2 51.37 55.12 51.39 55.05 51.41 54.97 51.44"/><polygon class="cls-38" points="54.97 55.79 55.9 55.25 55.9 57.38 54.97 57.92 54.97 55.79"/><polygon class="cls-2" points="53.58 50.1 54.52 49.57 55.9 50.37 54.97 50.91 53.58 50.1"/><polygon class="cls-38" points="54.97 50.91 55.9 50.37 55.9 50.9 54.97 51.44 54.97 50.91"/><polygon class="cls-38" points="54.97 52.29 55.9 51.75 55.9 54.33 54.97 54.87 54.97 52.29"/><polygon class="cls-2" points="54.97 54.87 55.9 54.33 55.93 54.36 55.96 54.39 55.99 54.42 56.02 54.45 56.05 54.47 56.08 54.5 56.12 54.53 56.15 54.55 56.18 54.58 56.22 54.6 56.26 54.63 56.3 54.65 56.34 54.68 56.38 54.7 56.42 54.73 56.47 54.76 56.59 54.82 56.7 54.87 56.81 54.9 56.91 54.92 57 54.92 57.08 54.9 57.16 54.86 56.22 55.4 56.15 55.44 56.07 55.45 55.98 55.46 55.88 55.44 55.77 55.41 55.66 55.36 55.53 55.3 55.49 55.27 55.44 55.24 55.4 55.22 55.36 55.19 55.32 55.16 55.28 55.14 55.25 55.12 55.22 55.09 55.18 55.06 55.15 55.04 55.12 55.01 55.09 54.99 55.06 54.96 55.03 54.93 55 54.9 54.97 54.87"/><polygon class="cls-38" points="54.97 54.87 55.9 54.33 55.93 54.36 55.96 54.39 55.99 54.42 56.02 54.45 56.05 54.47 56.08 54.5 56.12 54.53 56.15 54.55 56.18 54.58 56.22 54.6 56.26 54.63 56.27 54.64 56.27 54.64 54.97 54.87"/><polygon class="cls-49" points="58.99 53.82 59.92 53.28 60.09 53.2 60.27 53.15 60.47 53.13 60.68 53.15 60.9 53.2 61.15 53.28 61.41 53.4 61.68 53.54 61.93 53.7 62.16 53.86 62.38 54.03 62.58 54.22 62.76 54.42 62.93 54.62 63.08 54.84 63.22 55.07 63.34 55.31 63.45 55.55 63.53 55.8 63.61 56.06 63.66 56.34 63.7 56.61 63.73 56.9 63.73 57.19 63.73 57.76 62.8 58.3 62.8 57.73 62.79 57.44 62.77 57.15 62.73 56.87 62.67 56.6 62.6 56.34 62.51 56.09 62.41 55.84 62.29 55.61 62.15 55.38 62 55.16 61.83 54.95 61.64 54.76 61.44 54.57 61.23 54.4 60.99 54.23 60.74 54.08 60.47 53.94 60.21 53.82 59.97 53.74 59.74 53.69 59.53 53.67 59.34 53.69 59.16 53.74 58.99 53.82"/><polygon class="cls-50" points="59.75 56.54 60.69 56 60.69 56.09 60.7 56.19 60.71 56.27 60.73 56.36 60.75 56.44 60.77 56.52 60.79 56.6 60.82 56.68 60.85 56.75 60.88 56.83 60.91 56.9 60.95 56.97 60.98 57.04 61.02 57.1 61.07 57.17 61.11 57.23 61.16 57.29 61.2 57.35 61.25 57.41 61.3 57.46 61.36 57.52 61.41 57.57 61.47 57.62 61.53 57.67 61.59 57.72 61.65 57.77 61.71 57.82 61.78 57.87 61.84 57.91 61.91 57.95 61.98 57.99 62.05 58.04 62.11 58.07 62.17 58.1 62.23 58.13 62.29 58.16 62.35 58.19 62.41 58.21 62.47 58.23 62.53 58.25 62.58 58.27 62.64 58.28 62.7 58.3 62.75 58.31 62.8 58.31 62.86 58.32 62.91 58.33 62.96 58.33 63 58.33 63.04 58.34 63.08 58.34 63.12 58.33 63.16 58.33 63.2 58.33 63.23 58.33 63.27 58.32 63.31 58.32 63.34 58.31 63.37 58.31 63.4 58.3 63.43 58.3 63.46 58.29 63.48 58.29 63.51 58.28 62.57 58.82 62.55 58.83 62.52 58.83 62.5 58.84 62.47 58.84 62.44 58.85 62.41 58.85 62.37 58.86 62.34 58.86 62.3 58.87 62.26 58.87 62.23 58.87 62.19 58.87 62.15 58.87 62.1 58.87 62.06 58.87 62.02 58.87 61.97 58.87 61.92 58.86 61.87 58.85 61.82 58.84 61.76 58.83 61.71 58.82 61.65 58.81 61.59 58.79 61.53 58.77 61.48 58.75 61.41 58.73 61.35 58.7 61.3 58.67 61.24 58.64 61.17 58.61 61.12 58.58 61.05 58.53 60.98 58.49 60.91 58.45 60.84 58.4 60.78 58.36 60.72 58.31 60.66 58.26 60.59 58.21 60.54 58.16 60.48 58.11 60.42 58.06 60.37 58 60.32 57.95 60.27 57.89 60.22 57.83 60.18 57.77 60.13 57.71 60.09 57.64 60.05 57.58 60.01 57.51 59.98 57.44 59.94 57.37 59.91 57.29 59.88 57.22 59.86 57.14 59.83 57.06 59.81 56.98 59.8 56.9 59.78 56.81 59.77 56.72 59.76 56.63 59.75 56.54"/><polygon class="cls-2" points="62.57 58.82 63.51 58.28 63.66 58.36 62.72 58.9 62.57 58.82"/><polygon class="cls-38" points="62.72 58.9 63.66 58.36 63.66 59.69 62.72 60.23 62.72 58.9"/><polygon class="cls-38" points="60 54.95 60.94 54.42 60.88 54.46 60.83 54.51 60.79 54.57 60.76 54.65 60.73 54.73 60.71 54.82 60.69 54.92 60.68 55.04 59.75 55.58 59.76 55.46 59.77 55.36 59.8 55.27 59.82 55.19 59.86 55.11 59.9 55.05 59.95 55 60 54.95"/><polygon class="cls-2" points="59.75 55.58 60.68 55.04 62.37 56.01 61.44 56.55 59.75 55.58"/><path class="cls-51" d="M229.25,2485.57l0.93-.54,1.06,0.61A4.68,4.68,0,0,0,229.25,2485.57Z" transform="translate(-169.5 -2430)"/><polygon class="cls-2" points="63.07 55.58 64 55.04 64.53 55.35 63.6 55.89 63.07 55.58"/><polygon class="cls-2" points="63.6 54.41 64.53 53.88 65.92 54.68 64.98 55.22 63.6 54.41"/><polygon class="cls-38" points="64.98 55.22 65.92 54.68 65.92 56.15 64.98 56.69 64.98 55.22"/><polygon class="cls-2" points="64.98 56.69 65.92 56.15 67.26 56.92 66.32 57.46 64.98 56.69"/><polygon class="cls-38" points="64.98 56.69 65.92 56.15 66.85 56.69 64.98 56.69"/><polygon class="cls-38" points="66.32 57.46 67.26 56.92 67.26 58.04 66.32 58.57 66.32 57.46"/><polygon class="cls-2" points="64.98 57.8 65.92 57.26 65.92 59.09 65.92 59.15 65.92 59.22 65.92 59.28 65.92 59.34 65.92 59.4 65.92 59.46 65.92 59.51 65.92 59.56 65.92 59.61 65.93 59.66 65.93 59.71 65.94 59.76 65.95 59.81 65.96 59.86 65.97 59.91 65.98 59.96 66 60.01 66.02 60.06 66.04 60.1 66.06 60.15 66.09 60.2 66.12 60.24 66.15 60.28 66.18 60.33 66.22 60.37 66.26 60.41 66.3 60.46 66.35 60.5 66.41 60.54 66.47 60.58 66.53 60.62 66.59 60.66 66.62 60.67 66.65 60.69 66.69 60.71 66.72 60.72 66.76 60.73 66.8 60.75 66.84 60.76 66.88 60.77 66.93 60.78 66.97 60.79 67 60.8 67.04 60.81 67.07 60.81 67.09 60.81 67.12 60.82 67.14 60.81 66.2 61.35 66.18 61.35 66.16 61.35 66.13 61.35 66.1 61.35 66.07 61.34 66.03 61.33 65.99 61.32 65.95 61.31 65.91 61.3 65.86 61.29 65.82 61.27 65.79 61.26 65.75 61.24 65.72 61.23 65.69 61.21 65.66 61.2 65.59 61.16 65.53 61.12 65.47 61.08 65.42 61.04 65.37 61 65.33 60.95 65.28 60.91 65.25 60.87 65.21 60.82 65.18 60.78 65.15 60.73 65.13 60.69 65.11 60.64 65.08 60.59 65.07 60.55 65.05 60.5 65.04 60.45 65.03 60.4 65.02 60.35 65.01 60.3 65 60.25 64.99 60.2 64.99 60.15 64.99 60.1 64.99 60.05 64.99 59.99 64.98 59.94 64.98 59.88 64.98 59.82 64.98 59.76 64.98 59.69 64.98 59.63 64.98 57.8"/><path class="cls-38" d="M234.49,2487.8l0.93-.54v2.7l0,0,0,0,0,0,0,0,0,0,0,0,0,0,0,0,0,0,0,0,0,0a2.83,2.83,0,0,1-1.28-.06v-2.6Z" transform="translate(-169.5 -2430)"/><polygon class="cls-2" points="66.2 61.35 67.14 60.81 67.26 60.88 66.32 61.42 66.2 61.35"/><polygon class="cls-38" points="66.32 61.42 67.26 60.88 67.26 62.01 66.32 62.55 66.32 61.42"/><polygon class="cls-38" points="68.27 60.28 69.2 59.74 69.2 63.18 68.27 63.72 68.27 60.28"/><polygon class="cls-2" points="66.88 57.78 67.81 57.24 69.2 58.04 68.27 58.58 66.88 57.78"/><polygon class="cls-38" points="68.27 58.58 69.2 58.04 69.2 58.78 68.27 59.32 68.27 58.58"/><polygon class="cls-2" points="68.27 59.32 69.2 58.78 69.22 58.77 69.25 58.76 69.28 58.74 69.31 58.73 69.35 58.72 69.38 58.7 69.42 58.69 69.46 58.68 69.51 58.66 69.55 58.65 69.59 58.64 69.63 58.63 69.66 58.63 69.7 58.62 69.74 58.61 69.77 58.61 69.81 58.61 69.85 58.6 69.89 58.61 69.94 58.61 69.98 58.61 70.03 58.62 70.07 58.62 70.12 58.63 70.17 58.64 70.22 58.66 70.27 58.67 70.32 58.69 70.36 58.71 70.41 58.73 70.46 58.75 70.5 58.78 70.52 58.79 70.54 58.8 70.56 58.81 70.57 58.82 70.59 58.83 70.61 58.84 70.63 58.86 70.65 58.87 70.67 58.88 70.69 58.9 70.71 58.91 70.73 58.92 70.75 58.93 70.77 58.95 70.79 58.96 70.81 58.97 69.87 59.51 69.85 59.5 69.84 59.48 69.82 59.47 69.8 59.46 69.78 59.45 69.76 59.43 69.74 59.42 69.72 59.41 69.7 59.4 69.68 59.38 69.66 59.37 69.64 59.36 69.62 59.35 69.6 59.34 69.59 59.33 69.57 59.32 69.53 59.29 69.48 59.27 69.43 59.25 69.39 59.23 69.34 59.21 69.29 59.2 69.24 59.18 69.19 59.17 69.14 59.16 69.09 59.16 69.05 59.15 69 59.15 68.96 59.15 68.92 59.15 68.88 59.15 68.84 59.15 68.8 59.15 68.77 59.16 68.73 59.16 68.69 59.17 68.65 59.18 68.61 59.19 68.57 59.2 68.53 59.22 68.49 59.23 68.45 59.24 68.41 59.26 68.38 59.27 68.35 59.28 68.32 59.29 68.29 59.31 68.27 59.32"/><polygon class="cls-38" points="69.87 59.51 70.81 58.97 70.81 60.49 69.87 61.03 69.87 59.51"/><polygon class="cls-52" points="70.68 60.54 71.61 60 71.77 59.92 71.94 59.88 72.13 59.86 72.34 59.88 72.56 59.92 72.79 60 73.04 60.11 73.31 60.25 73.57 60.42 73.82 60.6 74.06 60.79 74.28 61 74.48 61.22 74.67 61.45 74.84 61.7 75 61.96 75.14 62.23 75.27 62.51 75.37 62.8 75.45 63.09 75.52 63.38 75.57 63.69 75.6 64 75.61 64.31 75.6 64.61 75.57 64.89 75.52 65.14 75.45 65.36 75.37 65.55 75.27 65.71 75.15 65.85 75 65.96 74.07 66.5 74.21 66.39 74.33 66.25 74.44 66.09 74.52 65.89 74.59 65.67 74.63 65.43 74.66 65.15 74.67 64.85 74.66 64.53 74.63 64.23 74.59 63.92 74.52 63.63 74.44 63.34 74.33 63.05 74.21 62.77 74.07 62.5 73.91 62.24 73.74 61.99 73.55 61.76 73.34 61.54 73.12 61.33 72.89 61.14 72.64 60.96 72.37 60.79 72.11 60.65 71.86 60.54 71.62 60.46 71.4 60.41 71.2 60.4 71.01 60.41 70.83 60.46 70.68 60.54"/><polygon class="cls-2" points="71.82 61.86 72.75 61.32 72.72 61.34 72.69 61.37 72.66 61.4 72.63 61.43 72.6 61.47 72.58 61.52 72.56 61.57 72.53 61.62 72.52 61.68 72.5 61.74 72.48 61.82 72.47 61.89 72.45 61.98 72.44 62.06 72.44 62.16 72.43 62.26 72.42 62.37 72.42 62.48 72.42 62.6 72.43 62.71 72.44 62.82 72.44 62.92 72.45 63.02 72.46 63.11 72.48 63.2 72.49 63.28 72.51 63.36 72.53 63.44 72.55 63.51 72.57 63.59 72.59 63.66 72.62 63.72 72.64 63.78 72.67 63.84 72.7 63.9 72.73 63.96 72.76 64.02 72.79 64.07 72.83 64.12 72.87 64.17 72.91 64.22 72.95 64.26 72.99 64.31 73.03 64.35 73.08 64.39 73.12 64.43 73.17 64.46 73.22 64.5 73.27 64.53 73.32 64.56 73.36 64.58 73.4 64.61 73.44 64.62 73.49 64.64 73.53 64.65 73.57 64.66 73.61 64.67 73.66 64.67 73.7 64.68 73.74 64.68 73.78 64.67 73.81 64.66 73.85 64.65 73.88 64.63 72.94 65.17 72.91 65.19 72.88 65.2 72.84 65.21 72.81 65.22 72.77 65.22 72.72 65.22 72.68 65.21 72.64 65.2 72.59 65.19 72.55 65.18 72.51 65.16 72.47 65.14 72.42 65.12 72.38 65.1 72.33 65.07 72.28 65.04 72.24 65 72.19 64.97 72.14 64.93 72.1 64.89 72.06 64.85 72.01 64.8 71.97 64.76 71.93 64.71 71.9 64.66 71.86 64.61 71.83 64.56 71.79 64.5 71.76 64.44 71.73 64.38 71.71 64.32 71.68 64.26 71.66 64.19 71.64 64.13 71.62 64.05 71.59 63.98 71.58 63.9 71.56 63.82 71.54 63.74 71.53 63.65 71.52 63.55 71.51 63.46 71.5 63.35 71.5 63.25 71.49 63.14 71.49 63.02 71.49 62.91 71.5 62.8 71.5 62.7 71.51 62.6 71.52 62.51 71.53 62.43 71.55 62.35 71.56 62.28 71.58 62.22 71.6 62.16 71.62 62.1 71.65 62.06 71.67 62.01 71.7 61.97 71.72 61.94 71.75 61.91 71.79 61.88 71.82 61.86"/><path class="cls-53" d="M241.32,2491.86l0.93-.54,0,0,0,0,0,0,0,0,0,0,0,0,0,0,0,0.05,0,0.06,0,0.06,0,0.07v1.38l0,0.08,0,0.08,0,0.08,0,0.07,0,0.07,0,0.07,0,0.07,0,0.06,0,0.06,0,0.06,0,0.06,0,0.06,0,0.05,0,0.05,0,0a3,3,0,0,1-1.22,0l0-.07,0-.07,0-.08,0-.08,0-.08v-1.38l0-.07,0-.06,0-.06,0-.05,0,0,0,0,0,0,0,0,0,0,0,0Z" transform="translate(-169.5 -2430)"/><polygon class="cls-2" points="75.4 60.72 76.34 60.18 77.72 60.98 76.79 61.52 75.4 60.72"/><polygon class="cls-38" points="76.79 61.52 77.72 60.98 77.72 68.1 76.79 68.64 76.79 61.52"/><path class="cls-4" d="M227.46,2485.13a2.08,2.08,0,0,1-.54,1.67,1.1,1.1,0,0,1-1.34,0,3.2,3.2,0,0,1-.58-0.42,5.55,5.55,0,0,1-.52-0.57v2.14l-1.39-.8v-7l1.39,0.8v0.54a1.73,1.73,0,0,1,.63-0.13,1.48,1.48,0,0,1,.73.24,2.93,2.93,0,0,1,1.2,1.4,5.29,5.29,0,0,1,.43,2.18h0Zm-1.42-.79a3,3,0,0,0-.2-1.2,1.48,1.48,0,0,0-.63-0.7,1.28,1.28,0,0,0-.37-0.15,0.92,0.92,0,0,0-.36,0v2.58a1.81,1.81,0,0,0,.25.22l0.32,0.21a0.61,0.61,0,0,0,.76.05,1.45,1.45,0,0,0,.25-1h0Zm4.44,5.3a5.39,5.39,0,0,1-1.94-1.81,4.41,4.41,0,0,1-.67-2.37,1.8,1.8,0,0,1,.63-1.65,1.72,1.72,0,0,1,1.75.26,4,4,0,0,1,1.54,1.53,4.31,4.31,0,0,1,.52,2.12v0.58l-3.05-1.76a2.31,2.31,0,0,0,.13.67,2.17,2.17,0,0,0,.29.55,2.53,2.53,0,0,0,.42.44,3.64,3.64,0,0,0,.52.36,2.3,2.3,0,0,0,.48.21,1.77,1.77,0,0,0,.43.08h0.31l0.24,0,0.15,0.08v1.33l-0.31,0a2.36,2.36,0,0,1-.39-0.09,4.61,4.61,0,0,1-.47-0.16,5,5,0,0,1-.59-0.3h0Zm0.47-3.09a2.08,2.08,0,0,0-.21-0.9,1.49,1.49,0,0,0-.59-0.61,0.61,0.61,0,0,0-.64-0.09,0.74,0.74,0,0,0-.25.62l1.69,1h0Zm3.78,5.51a3.41,3.41,0,0,1-1.24-1.12,2.88,2.88,0,0,1-.39-1.54V2487l-0.53-.3v-1.12l0.53,0.31v-1.47l1.39,0.8v1.47l1.34,0.77v1.11l-1.34-.77v1.82c0,0.18,0,.34,0,0.47a1.51,1.51,0,0,0,.06.4,1.07,1.07,0,0,0,.2.37,1.45,1.45,0,0,0,.41.33,1.19,1.19,0,0,0,.29.11,0.89,0.89,0,0,0,.25,0l0.12,0.07v1.13a3.59,3.59,0,0,1-.48-0.17,5.93,5.93,0,0,1-.62-0.32h0Zm4.65-1-0.11-.07a1.69,1.69,0,0,0-.23-0.18l-0.33-.21a1.94,1.94,0,0,0-.46-0.19,3.61,3.61,0,0,0-.47-0.1v3.44l-1.39-.8v-5.13l1.39,0.8v0.74l0.27-.1a1.43,1.43,0,0,1,.31-0.07,1.27,1.27,0,0,1,.73.17l0.15,0.09,0.15,0.1V2491h0Zm4.8,3.82a1.83,1.83,0,0,1-.6,1.65,1.65,1.65,0,0,1-1.7-.25,4.47,4.47,0,0,1-1.7-1.71,4.71,4.71,0,0,1-.6-2.34,1.82,1.82,0,0,1,.6-1.65,1.66,1.66,0,0,1,1.7.25,4.46,4.46,0,0,1,1.7,1.71,4.73,4.73,0,0,1,.6,2.35h0Zm-1.42-.81a4.3,4.3,0,0,0-.07-0.8,2.6,2.6,0,0,0-.18-0.59,1.6,1.6,0,0,0-.28-0.43,1.56,1.56,0,0,0-.35-0.28,1,1,0,0,0-.34-0.13,0.33,0.33,0,0,0-.28.09,0.77,0.77,0,0,0-.19.38,3,3,0,0,0-.07.74,4.07,4.07,0,0,0,.07.8,2.65,2.65,0,0,0,.18.56,1.57,1.57,0,0,0,.28.42,1.65,1.65,0,0,0,.37.3,0.86,0.86,0,0,0,.34.11,0.32,0.32,0,0,0,.28-0.09,0.79,0.79,0,0,0,.19-0.36,3,3,0,0,0,.06-0.73h0Zm3.54,4.6-1.39-.8v-7.12l1.39,0.8v7.12Z" transform="translate(-169.5 -2430)"/></svg>